<?xml version="1.0" encoding="utf-8"?>
<svg viewBox="0 0 500 147" xmlns="http://www.w3.org/2000/svg">
  <rect y="129.747" width="22.428" height="5.253" style=""/>
  <rect x="30.704" y="129.564" width="5.76" height="5.255" style=""/>
  <rect y="129.566" width="22.428" height="5.253" style="" x="44.839"/>
  <rect x="75.543" y="129.383" width="5.76" height="5.255" style=""/>
  <rect y="129.566" width="22.428" height="5.253" style="" x="90.78"/>
  <rect x="121.484" y="129.383" width="5.76" height="5.255" style=""/>
  <rect y="129.385" width="22.428" height="5.253" style="" x="135.619"/>
  <rect x="166.323" y="129.202" width="5.76" height="5.255" style=""/>
  <rect y="129.204" width="22.428" height="5.253" style="" x="180.507"/>
  <rect x="211.211" y="129.021" width="5.76" height="5.255" style=""/>
  <rect y="129.023" width="22.428" height="5.253" style="" x="225.346"/>
  <rect x="256.05" y="129.023" width="5.76" height="5.255" style=""/>
  <rect y="129.385" width="22.428" height="5.253" style="" x="273.809"/>
  <rect x="304.513" y="129.202" width="5.76" height="5.255" style=""/>
  <rect y="129.204" width="22.428" height="5.253" style="" x="318.697"/>
  <rect x="349.401" y="129.021" width="5.76" height="5.255" style=""/>
  <rect y="129.023" width="22.428" height="5.253" style="" x="363.536"/>
  <rect x="394.24" y="128.84" width="5.76" height="5.255" style=""/>
  <rect y="128.842" width="22.428" height="5.253" style="" x="410.529"/>
  <rect x="441.233" y="128.659" width="5.76" height="5.255" style=""/>
  <rect y="128.661" width="22.428" height="5.253" style="" x="455.368"/>
  <rect x="486.072" y="128.478" width="5.76" height="5.255" style=""/>
  <rect y="142.556" width="499.995" height="4.444" style=""/>
  <path d="M 497.605 56.599 L 430.804 56.599 L 430.804 72.904 L 431.282 72.904 C 431.989 72.904 432.66 73.216 433.115 73.758 L 444.385 87.17 C 444.985 87.882 445.116 88.878 444.723 89.722 C 444.329 90.565 443.482 91.105 442.552 91.105 L 441.34 91.105 L 441.34 112.193 L 442.552 112.193 C 443.481 112.193 444.326 112.73 444.721 113.572 C 445.115 114.414 444.987 115.407 444.391 116.121 L 434.812 127.616 C 434.358 128.163 433.683 128.478 432.972 128.478 L 389.355 128.478 C 388.643 128.478 387.97 128.162 387.514 127.616 L 377.937 116.121 C 377.342 115.407 377.214 114.414 377.609 113.572 C 378.003 112.73 378.848 112.193 379.778 112.193 L 380.989 112.193 L 380.989 91.105 L 379.778 91.105 C 378.847 91.105 378 90.565 377.607 89.722 C 377.214 88.878 377.345 87.882 377.944 87.17 L 389.214 73.758 C 389.669 73.216 390.34 72.904 391.048 72.904 L 426.014 72.904 L 426.014 56.599 L 422.437 56.599 C 421.115 56.599 420.042 55.527 420.042 54.204 L 420.042 42.709 C 420.042 41.387 421.115 40.314 422.437 40.314 L 426.014 40.314 L 426.014 10.648 L 396.317 10.648 L 396.317 56.139 C 396.317 57.461 395.243 58.534 393.921 58.534 C 392.598 58.534 391.527 57.461 391.527 56.139 L 391.527 8.252 C 391.527 6.93 392.598 5.858 393.921 5.858 L 491.634 5.858 C 492.956 5.858 494.029 6.93 494.029 8.252 L 494.029 40.314 L 497.605 40.314 C 498.928 40.314 500 41.387 500 42.709 L 500 54.204 C 500 55.527 498.928 56.599 497.605 56.599 Z M 436.55 91.105 L 427.928 91.105 L 427.928 112.193 L 436.55 112.193 Z M 399.19 91.105 L 399.19 112.193 L 423.138 112.193 L 423.138 91.105 Z M 390.476 123.688 L 431.85 123.688 L 437.438 116.983 L 384.89 116.983 Z M 385.779 112.193 L 394.4 112.193 L 394.4 91.105 L 385.779 91.105 Z M 384.918 86.315 L 437.41 86.315 L 430.166 77.694 L 392.163 77.694 Z M 489.239 10.648 L 430.804 10.648 L 430.804 17.343 L 465.512 17.343 C 466.835 17.343 467.908 18.415 467.908 19.738 C 467.908 21.061 466.835 22.133 465.512 22.133 L 430.804 22.133 L 430.804 28.829 L 465.512 28.829 C 466.835 28.829 467.908 29.901 467.908 31.223 C 467.908 32.546 466.835 33.619 465.512 33.619 L 430.804 33.619 L 430.804 40.315 L 489.239 40.315 Z M 495.21 45.104 L 424.832 45.104 L 424.832 51.81 L 495.21 51.81 Z M 495.21 45.104" style="" transform="matrix(-1, 0, 0, -1, 877.382141, 134.335995)"/>
  <path d="M 466.217 67.61 C 467.539 67.61 468.612 68.681 468.612 70.004 L 468.612 75.4 C 468.612 76.722 467.539 77.794 466.217 77.794 C 464.894 77.794 463.822 76.722 463.822 75.4 L 463.822 70.004 C 463.822 68.681 464.894 67.61 466.217 67.61 Z M 466.217 67.61" style="" transform="matrix(-1, 0, 0, -1, 932.43399, 145.403999)"/>
  <path d="M 463.822 88.93 C 463.822 87.608 464.894 86.534 466.217 86.534 C 467.539 86.534 468.612 87.608 468.612 88.93 L 468.612 94.326 C 468.612 95.648 467.539 96.721 466.217 96.721 C 464.894 96.721 463.822 95.648 463.822 94.326 Z M 463.822 88.93" style="" transform="matrix(-1, 0, 0, -1, 932.43399, 183.254997)"/>
  <path d="M 463.822 107.853 C 463.822 106.531 464.894 105.458 466.217 105.458 C 467.539 105.458 468.612 106.531 468.612 107.853 L 468.612 113.248 C 468.612 114.571 467.539 115.644 466.217 115.644 C 464.894 115.644 463.822 114.571 463.822 113.248 Z M 463.822 107.853" style="" transform="matrix(-1, 0, 0, -1, 932.43399, 221.101997)"/>
  <path d="M 401.929 100.718 C 402.559 100.718 403.178 100.971 403.623 101.416 C 404.068 101.864 404.325 102.48 404.325 103.112 C 404.325 103.742 404.068 104.359 403.623 104.804 C 403.178 105.251 402.559 105.505 401.929 105.505 C 401.3 105.505 400.682 105.251 400.236 104.804 C 399.791 104.359 399.535 103.742 399.535 103.112 C 399.535 102.48 399.791 101.861 400.236 101.416 C 400.682 100.971 401.3 100.718 401.929 100.718 Z M 401.929 100.718" style="" transform="matrix(-1, 0, 0, -1, 803.860016, 206.223)"/>
  <path d="M 483.459 66.222 C 484.09 66.222 484.707 66.478 485.153 66.923 C 485.598 67.369 485.855 67.987 485.855 68.616 C 485.855 69.246 485.598 69.864 485.153 70.31 C 484.707 70.755 484.09 71.012 483.459 71.012 C 482.83 71.012 482.211 70.755 481.766 70.31 C 481.321 69.864 481.065 69.246 481.065 68.616 C 481.065 67.987 481.321 67.369 481.766 66.923 C 482.211 66.478 482.83 66.222 483.459 66.222 Z M 483.459 66.222" style="" transform="matrix(-1, 0, 0, -1, 966.920013, 137.234001)"/>
  <g transform="matrix(1, 0, 0, 1, 5.161503, -91.370133)">
    <path d="M 87.996 217.158 L 87.996 181.678 C 87.996 180.646 87.16 179.811 86.129 179.811 L 33.856 179.811 C 32.825 179.811 31.989 180.646 31.989 181.678 L 31.989 187.278 L -1.615 187.278 C -2.646 187.278 -3.482 188.114 -3.482 189.145 L -3.482 217.158 C -4.423 217.252 -5.162 218.05 -5.162 219.016 C -5.162 220.044 -4.324 220.882 -3.295 220.882 L 66.34 220.882 C 67.369 220.882 68.207 220.044 68.207 219.016 C 68.207 217.987 67.369 217.149 66.34 217.149 L 35.723 217.149 L 35.723 183.544 L 84.262 183.544 L 84.262 217.149 L 83.142 217.149 C 82.114 217.149 81.275 217.987 81.275 219.016 C 81.275 220.044 82.114 220.882 83.142 220.882 L 87.81 220.882 C 88.838 220.882 89.676 220.044 89.676 219.016 C 89.676 218.05 88.938 217.252 87.996 217.158 Z M 0.252 198.48 L 31.989 198.48 L 31.989 202.213 L 0.252 202.213 L 0.252 198.48 Z M 0.252 205.947 L 31.989 205.947 L 31.989 209.681 L 0.252 209.681 L 0.252 205.947 Z M 31.989 191.012 L 31.989 194.746 L 0.252 194.746 L 0.252 191.012 L 31.989 191.012 Z M 0.252 217.149 L 0.252 213.415 L 31.989 213.415 L 31.989 217.149 L 0.252 217.149 Z M 76.608 219.016 C 76.608 220.044 75.77 220.882 74.741 220.882 C 73.713 220.882 72.874 220.044 72.874 219.016 C 72.874 217.987 73.713 217.149 74.741 217.149 C 75.77 217.149 76.608 217.987 76.608 219.016 Z M 50.658 189.145 C 50.658 188.114 49.822 187.278 48.791 187.278 L 41.324 187.278 C 40.293 187.278 39.457 188.114 39.457 189.145 L 39.457 196.613 C 39.457 197.644 40.293 198.48 41.324 198.48 L 48.791 198.48 C 49.822 198.48 50.658 197.644 50.658 196.613 L 50.658 189.145 Z M 46.924 194.746 L 43.191 194.746 L 43.191 191.012 L 46.924 191.012 L 46.924 194.746 Z M 63.727 202.213 L 56.259 202.213 C 55.228 202.213 54.392 203.049 54.392 204.08 L 54.392 211.548 C 54.392 212.579 55.228 213.415 56.259 213.415 L 63.727 213.415 C 64.758 213.415 65.593 212.579 65.593 211.548 L 65.593 204.08 C 65.593 203.049 64.758 202.213 63.727 202.213 Z M 61.86 209.681 L 58.126 209.681 L 58.126 205.947 L 61.86 205.947 L 61.86 209.681 Z M 65.593 189.145 C 65.593 188.114 64.758 187.278 63.727 187.278 L 56.259 187.278 C 55.228 187.278 54.392 188.114 54.392 189.145 L 54.392 196.613 C 54.392 197.644 55.228 198.48 56.259 198.48 L 63.727 198.48 C 64.758 198.48 65.593 197.644 65.593 196.613 L 65.593 189.145 Z M 61.86 194.746 L 58.126 194.746 L 58.126 191.012 L 61.86 191.012 L 61.86 194.746 Z M 78.662 202.213 L 71.194 202.213 C 70.163 202.213 69.327 203.049 69.327 204.08 L 69.327 211.548 C 69.327 212.579 70.163 213.415 71.194 213.415 L 78.662 213.415 C 79.693 213.415 80.529 212.579 80.529 211.548 L 80.529 204.08 C 80.529 203.049 79.693 202.213 78.662 202.213 Z M 76.795 209.681 L 73.061 209.681 L 73.061 205.947 L 76.795 205.947 L 76.795 209.681 Z M 48.791 202.213 L 41.324 202.213 C 40.293 202.213 39.457 203.049 39.457 204.08 L 39.457 211.548 C 39.457 212.579 40.293 213.415 41.324 213.415 L 48.791 213.415 C 49.822 213.415 50.658 212.579 50.658 211.548 L 50.658 204.08 C 50.658 203.049 49.822 202.213 48.791 202.213 Z M 46.924 209.681 L 43.191 209.681 L 43.191 205.947 L 46.924 205.947 L 46.924 209.681 Z M 78.662 187.278 L 71.194 187.278 C 70.163 187.278 69.327 188.114 69.327 189.145 L 69.327 196.613 C 69.327 197.644 70.163 198.48 71.194 198.48 L 78.662 198.48 C 79.693 198.48 80.529 197.644 80.529 196.613 L 80.529 189.145 C 80.529 188.114 79.693 187.278 78.662 187.278 Z M 76.795 194.746 L 73.061 194.746 L 73.061 191.012 L 76.795 191.012 L 76.795 194.746 Z" style=""/>
  </g>
  <g transform="matrix(1, 0, 0, 1, 296.287994, -91.497009)">
    <path d="M 87.996 217.158 L 87.996 181.678 C 87.996 180.646 87.16 179.811 86.129 179.811 L 33.856 179.811 C 32.825 179.811 31.989 180.646 31.989 181.678 L 31.989 187.278 L -1.615 187.278 C -2.646 187.278 -3.482 188.114 -3.482 189.145 L -3.482 217.158 C -4.423 217.252 -5.162 218.05 -5.162 219.016 C -5.162 220.044 -4.324 220.882 -3.295 220.882 L 66.34 220.882 C 67.369 220.882 68.207 220.044 68.207 219.016 C 68.207 217.987 67.369 217.149 66.34 217.149 L 35.723 217.149 L 35.723 183.544 L 84.262 183.544 L 84.262 217.149 L 83.142 217.149 C 82.114 217.149 81.275 217.987 81.275 219.016 C 81.275 220.044 82.114 220.882 83.142 220.882 L 87.81 220.882 C 88.838 220.882 89.676 220.044 89.676 219.016 C 89.676 218.05 88.938 217.252 87.996 217.158 Z M 0.252 198.48 L 31.989 198.48 L 31.989 202.213 L 0.252 202.213 L 0.252 198.48 Z M 0.252 205.947 L 31.989 205.947 L 31.989 209.681 L 0.252 209.681 L 0.252 205.947 Z M 31.989 191.012 L 31.989 194.746 L 0.252 194.746 L 0.252 191.012 L 31.989 191.012 Z M 0.252 217.149 L 0.252 213.415 L 31.989 213.415 L 31.989 217.149 L 0.252 217.149 Z M 76.608 219.016 C 76.608 220.044 75.77 220.882 74.741 220.882 C 73.713 220.882 72.874 220.044 72.874 219.016 C 72.874 217.987 73.713 217.149 74.741 217.149 C 75.77 217.149 76.608 217.987 76.608 219.016 Z M 50.658 189.145 C 50.658 188.114 49.822 187.278 48.791 187.278 L 41.324 187.278 C 40.293 187.278 39.457 188.114 39.457 189.145 L 39.457 196.613 C 39.457 197.644 40.293 198.48 41.324 198.48 L 48.791 198.48 C 49.822 198.48 50.658 197.644 50.658 196.613 L 50.658 189.145 Z M 46.924 194.746 L 43.191 194.746 L 43.191 191.012 L 46.924 191.012 L 46.924 194.746 Z M 63.727 202.213 L 56.259 202.213 C 55.228 202.213 54.392 203.049 54.392 204.08 L 54.392 211.548 C 54.392 212.579 55.228 213.415 56.259 213.415 L 63.727 213.415 C 64.758 213.415 65.593 212.579 65.593 211.548 L 65.593 204.08 C 65.593 203.049 64.758 202.213 63.727 202.213 Z M 61.86 209.681 L 58.126 209.681 L 58.126 205.947 L 61.86 205.947 L 61.86 209.681 Z M 65.593 189.145 C 65.593 188.114 64.758 187.278 63.727 187.278 L 56.259 187.278 C 55.228 187.278 54.392 188.114 54.392 189.145 L 54.392 196.613 C 54.392 197.644 55.228 198.48 56.259 198.48 L 63.727 198.48 C 64.758 198.48 65.593 197.644 65.593 196.613 L 65.593 189.145 Z M 61.86 194.746 L 58.126 194.746 L 58.126 191.012 L 61.86 191.012 L 61.86 194.746 Z M 78.662 202.213 L 71.194 202.213 C 70.163 202.213 69.327 203.049 69.327 204.08 L 69.327 211.548 C 69.327 212.579 70.163 213.415 71.194 213.415 L 78.662 213.415 C 79.693 213.415 80.529 212.579 80.529 211.548 L 80.529 204.08 C 80.529 203.049 79.693 202.213 78.662 202.213 Z M 76.795 209.681 L 73.061 209.681 L 73.061 205.947 L 76.795 205.947 L 76.795 209.681 Z M 48.791 202.213 L 41.324 202.213 C 40.293 202.213 39.457 203.049 39.457 204.08 L 39.457 211.548 C 39.457 212.579 40.293 213.415 41.324 213.415 L 48.791 213.415 C 49.822 213.415 50.658 212.579 50.658 211.548 L 50.658 204.08 C 50.658 203.049 49.822 202.213 48.791 202.213 Z M 46.924 209.681 L 43.191 209.681 L 43.191 205.947 L 46.924 205.947 L 46.924 209.681 Z M 78.662 187.278 L 71.194 187.278 C 70.163 187.278 69.327 188.114 69.327 189.145 L 69.327 196.613 C 69.327 197.644 70.163 198.48 71.194 198.48 L 78.662 198.48 C 79.693 198.48 80.529 197.644 80.529 196.613 L 80.529 189.145 C 80.529 188.114 79.693 187.278 78.662 187.278 Z M 76.795 194.746 L 73.061 194.746 L 73.061 191.012 L 76.795 191.012 L 76.795 194.746 Z" style=""/>
  </g>
</svg>