<?xml version="1.0" encoding="utf-8"?>
<svg viewBox="0 0 500 326" xmlns="http://www.w3.org/2000/svg">
  <g transform="matrix(0.917847, 0, 0, 0.917847, 16.667933, 17.956549)" style="">
    <g>
      <g>
        <path d="M479.104,173.738c-12.129-12.252-27.582-20.064-44.344-22.583c0.138-2.122,0.207-4.235,0.207-6.332 c0-55.09-44.819-99.91-99.909-99.91c-14.495,0-28.76,3.145-41.812,9.161c-17.605-31.09-50.665-50.657-86.935-50.657 c-46.807,0-87.238,32.874-97.419,77.775C48.413,83.739,0,133.738,0,194.832c0,62.717,51.024,113.742,113.742,113.742h309.097 c43.649,0,79.161-35.512,79.161-79.161C502,208.424,493.869,188.652,479.104,173.738z M422.839,288.574H113.742 c-51.69,0-93.742-42.053-93.742-93.742c0-51.689,42.052-93.742,93.742-93.742c1.062,0,2.118,0.024,3.172,0.06 c0.006,0,0.012,0,0.019,0c11.727,0.388,23.092,2.912,33.824,7.529c1.288,0.554,2.628,0.816,3.947,0.816 c3.875,0,7.563-2.266,9.191-6.05c2.183-5.073-0.161-10.955-5.234-13.138c-9.439-4.061-19.276-6.784-29.384-8.161 c9.375-34.118,40.813-58.729,77.035-58.729c31.904,0,60.705,18.934,73.374,48.236c0.024,0.055,0.055,0.106,0.08,0.161 c4.281,9.963,6.456,20.563,6.456,31.512c0,5.523,4.477,10,10,10s10-4.477,10-10c0-10.63-1.648-21.002-4.893-30.951 c10.513-4.898,22.026-7.462,33.73-7.462c44.062,0,79.909,35.847,79.909,79.91c0,1.932-0.09,3.887-0.237,5.849 c-14.82,1.49-28.728,7.053-40.611,16.343c-4.351,3.402-5.121,9.687-1.719,14.038c1.973,2.522,4.913,3.841,7.885,3.841 c2.154,0,4.324-0.693,6.152-2.122c10.478-8.191,23.065-12.521,36.402-12.521c0.072,0,0.142-0.009,0.214-0.011 c0.151,0.009,0.301,0.028,0.453,0.03C455.76,170.628,482,197.159,482,229.413C482,262.034,455.46,288.574,422.839,288.574z" style="fill: rgb(255, 255, 255);"/>
        <path d="M189.013,109.091c-4.162-3.629-10.479-3.201-14.109,0.962c-3.63,4.162-3.2,10.479,0.962,14.109 c4.029,3.515,7.782,7.398,11.155,11.542c1.977,2.429,4.857,3.688,7.762,3.688c2.218,0,4.452-0.735,6.307-2.245 c4.283-3.486,4.93-9.785,1.443-14.068C198.445,118.057,193.896,113.351,189.013,109.091z" style="fill: rgb(255, 255, 255);"/>
        <path d="M364.801,191.279c-5.012-2.325-10.956-0.146-13.279,4.864c-2.932,6.321-5.012,13.011-6.184,19.885 c-0.928,5.444,2.733,10.61,8.177,11.539c0.569,0.097,1.134,0.144,1.692,0.144c4.785,0,9.015-3.445,9.846-8.321 c0.874-5.127,2.426-10.118,4.612-14.831C371.989,199.548,369.812,193.603,364.801,191.279z" style="fill: rgb(255, 255, 255);"/>
      </g>
    </g>
  </g>
  <g transform="matrix(0.462842, 0, 0, 0.462842, 189.808655, 50.143887)" style=""/>
  <g transform="matrix(0.462842, 0, 0, 0.462842, 189.808655, 50.143887)" style=""/>
  <g transform="matrix(0.462842, 0, 0, 0.462842, 189.808655, 50.143887)" style=""/>
  <g transform="matrix(0.462842, 0, 0, 0.462842, 189.808655, 50.143887)" style=""/>
  <g transform="matrix(0.462842, 0, 0, 0.462842, 189.808655, 50.143887)" style=""/>
  <g transform="matrix(0.462842, 0, 0, 0.462842, 189.808655, 50.143887)" style=""/>
  <g transform="matrix(0.462842, 0, 0, 0.462842, 189.808655, 50.143887)" style=""/>
  <g transform="matrix(0.462842, 0, 0, 0.462842, 189.808655, 50.143887)" style=""/>
  <g transform="matrix(0.462842, 0, 0, 0.462842, 189.808655, 50.143887)" style=""/>
  <g transform="matrix(0.462842, 0, 0, 0.462842, 189.808655, 50.143887)" style=""/>
  <g transform="matrix(0.462842, 0, 0, 0.462842, 189.808655, 50.143887)" style=""/>
  <g transform="matrix(0.462842, 0, 0, 0.462842, 189.808655, 50.143887)" style=""/>
  <g transform="matrix(0.462842, 0, 0, 0.462842, 189.808655, 50.143887)" style=""/>
  <g transform="matrix(0.462842, 0, 0, 0.462842, 189.808655, 50.143887)" style=""/>
  <g transform="matrix(0.462842, 0, 0, 0.462842, 189.808655, 50.143887)" style=""/>
</svg>