<svg id="Layer_1" enable-background="new 0 0 512.001 512.001" height="512" viewBox="0 0 512.001 512.001" width="512" xmlns="http://www.w3.org/2000/svg"><g><g><path d="m482.002 65.999h-216.001v-9.999c0-16.542-13.458-30-30-30h-206.001c-16.542 0-30 13.458-30 30v400c0 16.542 13.458 30 30 30h452.002c16.542 0 30-13.458 30-30v-320-40.001c-.001-16.542-13.458-30-30-30zm9.999 390.002c0 5.514-4.486 10-10 10h-452.001c-5.514 0-10-4.486-10-10v-400c0-5.514 4.486-10 10-10h206c5.514 0 10 4.486 10 10v60c0 5.523 4.477 10 10 10h67.997c5.523 0 10-4.477 10-10s-4.477-10-10-10h-57.997v-20.002h216.001c5.514 0 10 4.486 10 10v11.721c-3.13-1.11-6.494-1.72-10-1.72h-68.004c-5.523 0-10 4.477-10 10s4.477 10 10 10h68.004c5.514 0 10 4.486 10 10z"/><path d="m415.917 346.6c-7.134 0-13.809 2.419-19.106 6.686l-60.988-60.988c-5.758-5.758-13.414-8.93-21.558-8.93s-15.799 3.171-21.557 8.929l-17.373 17.372-19.858-19.859c6.477-13.236 10.119-28.102 10.119-43.805 0-55.14-44.86-100-100-100s-100 44.86-100 100c0 55.141 44.86 100 100 100 17.266 0 33.524-4.399 47.712-12.135l40.47 40.47c5.758 5.758 13.415 8.929 21.558 8.929s15.799-3.171 21.558-8.929l17.372-17.373 39.431 39.431c-4.266 5.297-6.686 11.972-6.686 19.106 0 16.812 13.677 30.489 30.489 30.489h38.417c16.812 0 30.489-13.677 30.489-30.489v-38.417c0-16.81-13.677-30.487-30.489-30.487zm-330.321-100.594c0-44.112 35.888-80 80-80s80 35.888 80 80-35.888 80-80 80-80-35.888-80-80zm340.81 169.5c0 5.784-4.706 10.489-10.489 10.489h-38.417c-5.784 0-10.489-4.706-10.489-10.489 0-4.043 2.261-7.658 5.9-9.436 2.903-1.417 4.943-4.151 5.476-7.337.533-3.187-.507-6.435-2.792-8.72l-54.257-54.257c-1.875-1.875-4.419-2.929-7.071-2.929s-5.196 1.054-7.071 2.929l-24.443 24.443c-1.98 1.981-4.614 3.072-7.415 3.072-2.802 0-5.435-1.091-7.416-3.072l-37.833-37.833c5.35-4.526 10.22-9.6 14.522-15.139l23.655 23.655c3.906 3.905 10.238 3.905 14.142 0l24.444-24.443c1.98-1.981 4.614-3.072 7.415-3.072s5.435 1.091 7.415 3.072l68.744 68.744c2.285 2.284 5.533 3.323 8.72 2.792 3.187-.533 5.92-2.572 7.338-5.476 1.776-3.639 5.392-5.899 9.435-5.899 5.784 0 10.489 4.706 10.489 10.489v38.417z"/><path d="m172.751 220.163c3.905 3.905 10.237 3.905 14.143 0s3.905-10.237 0-14.143c-3.201-3.2-7.073-5.483-11.298-6.725v-3.29c0-5.523-4.477-10-10-10s-10 4.477-10 10v5.272c-2.334 1.234-4.496 2.822-6.416 4.742-5.037 5.037-7.811 11.733-7.811 18.856 0 7.124 2.774 13.82 7.811 18.856l18.689 18.688c1.259 1.259 1.952 2.933 1.952 4.714s-.693 3.455-1.953 4.714c-1.259 1.259-2.933 1.953-4.714 1.953-1.78 0-3.455-.693-4.714-1.953-3.904-3.905-10.236-3.906-14.142 0-3.905 3.905-3.906 10.237 0 14.142 3.201 3.201 7.073 5.484 11.297 6.726v3.29c0 5.523 4.477 10 10 10s10-4.477 10-10v-5.272c2.334-1.234 4.496-2.822 6.416-4.742 5.037-5.037 7.811-11.733 7.811-18.856 0-7.124-2.774-13.82-7.811-18.856l-18.689-18.688c-1.259-1.259-1.952-2.933-1.952-4.714s.693-3.455 1.953-4.714c2.599-2.6 6.829-2.598 9.428 0z"/><path d="m369.001 126.001c5.523 0 10-4.477 10-10s-4.477-10-10-10h-.007c-5.523 0-9.996 4.477-9.996 10s4.481 10 10.003 10z"/></g></g></svg>