<?xml version="1.0" encoding="utf-8"?>
<svg viewBox="0 0 500 337" xmlns="http://www.w3.org/2000/svg">
  <path d="M 31.725 218.9 L 134.369 290.787 C 135.799 291.789 137.475 292.296 139.155 292.296 C 140.591 292.296 142.03 291.927 143.321 291.178 L 237.235 236.959 L 255.218 317.259 C 255.799 319.849 257.574 322.005 260.003 323.073 C 261.077 323.543 262.218 323.773 263.355 323.773 C 264.801 323.773 266.241 323.398 267.525 322.656 L 301.77 302.885 C 303.86 301.678 305.325 299.621 305.786 297.251 L 330.664 168.772 C 331.538 164.25 328.583 159.876 324.061 158.999 C 319.536 158.124 315.165 161.082 314.288 165.604 L 290.132 290.343 L 269.011 302.539 L 248.662 211.673 C 247.655 207.178 243.189 204.358 238.703 205.36 C 234.207 206.368 231.381 210.828 232.387 215.318 L 233.413 219.906 L 139.586 274.079 L 52.012 212.744 L 79.355 196.96 L 115.403 214.247 C 117.888 215.436 120.797 215.324 123.179 213.948 L 316.125 102.554 L 326.734 120.926 C 329.038 124.919 332.761 127.778 337.214 128.968 C 338.699 129.368 340.207 129.565 341.71 129.565 C 344.701 129.565 347.651 128.78 350.31 127.246 L 437.565 76.871 C 440.706 89.573 435.267 103.366 423.357 110.241 L 374.353 138.793 C 370.377 141.111 369.026 146.218 371.347 150.194 C 373.666 154.174 378.773 155.525 382.75 153.205 L 431.724 124.672 C 454.082 111.763 461.769 83.072 448.863 60.715 C 442.609 49.89 432.514 42.14 420.436 38.903 C 408.359 35.666 395.738 37.325 384.91 43.583 L 315.008 83.937 L 315.008 83.94 L 315.004 83.94 L 288.644 99.16 L 167.223 57.254 C 164.94 56.466 162.428 56.705 160.332 57.912 L 126.091 77.683 C 123.794 79.011 122.263 81.35 121.973 83.99 C 121.684 86.629 122.66 89.244 124.616 91.042 L 193.266 154.224 L 118.65 197.306 L 82.598 180.022 C 80.121 178.829 77.206 178.94 74.823 180.318 L 32.336 204.848 C 29.868 206.27 28.301 208.86 28.178 211.706 C 28.051 214.553 29.388 217.267 31.725 218.9 Z M 393.247 58.027 C 405.134 51.162 419.798 53.35 429.223 62.424 L 341.969 112.802 C 341.92 112.831 341.758 112.92 341.532 112.861 C 341.296 112.794 341.207 112.637 341.177 112.588 L 330.566 94.213 Z M 144.258 86.454 L 165.38 74.262 L 269.517 110.202 L 208.399 145.488 Z M 144.258 86.454" style=""/>
  <path d="M 296.981 138.778 L 281.293 147.831 C 277.303 150.135 275.938 155.235 278.239 159.225 C 279.783 161.904 282.59 163.396 285.469 163.396 C 286.885 163.396 288.318 163.034 289.633 162.275 L 305.319 153.217 C 309.312 150.917 310.676 145.816 308.372 141.827 C 306.068 137.838 300.971 136.47 296.981 138.778 Z M 296.981 138.778" style=""/>
  <path d="M 238.97 172.27 L 223.283 181.326 C 219.293 183.627 217.927 188.727 220.23 192.717 C 221.775 195.393 224.578 196.887 227.461 196.887 C 228.874 196.887 230.31 196.526 231.621 195.77 L 247.311 186.713 C 251.3 184.409 252.664 179.308 250.36 175.319 C 248.063 171.333 242.962 169.965 238.97 172.27 Z M 238.97 172.27" style=""/>
  <path d="M 180.964 205.757 L 165.272 214.818 C 161.285 217.122 159.915 222.219 162.219 226.209 C 163.767 228.885 166.567 230.379 169.452 230.379 C 170.865 230.379 172.298 230.022 173.61 229.262 L 189.302 220.201 C 193.288 217.897 194.659 212.8 192.355 208.811 C 190.052 204.825 184.954 203.454 180.964 205.757 Z M 180.964 205.757" style=""/>
  <path d="M 343.468 156.346 C 341.92 157.908 341.026 160.054 341.026 162.255 C 341.026 164.447 341.92 166.59 343.468 168.151 C 345.019 169.699 347.169 170.593 349.364 170.593 C 351.569 170.593 353.712 169.699 355.262 168.151 C 356.818 166.59 357.705 164.447 357.705 162.255 C 357.705 160.054 356.818 157.908 355.262 156.346 C 353.712 154.798 351.559 153.915 349.364 153.915 C 347.169 153.915 345.019 154.798 343.468 156.346 Z M 343.468 156.346" style=""/>
</svg>