<?xml version="1.0" encoding="utf-8"?>
<svg viewBox="0 0 500 147" xmlns="http://www.w3.org/2000/svg">
  <rect y="129.747" width="22.428" height="5.253" style=""/>
  <rect x="30.704" y="129.564" width="5.76" height="5.255" style=""/>
  <rect y="129.566" width="22.428" height="5.253" style="" x="44.839"/>
  <rect x="75.543" y="129.383" width="5.76" height="5.255" style=""/>
  <rect y="129.566" width="22.428" height="5.253" style="" x="90.78"/>
  <rect x="121.484" y="129.383" width="5.76" height="5.255" style=""/>
  <rect y="129.385" width="22.428" height="5.253" style="" x="135.619"/>
  <rect x="166.323" y="129.202" width="5.76" height="5.255" style=""/>
  <rect y="129.204" width="22.428" height="5.253" style="" x="180.507"/>
  <rect x="211.211" y="129.021" width="5.76" height="5.255" style=""/>
  <rect y="129.023" width="22.428" height="5.253" style="" x="225.346"/>
  <rect x="256.05" y="129.023" width="5.76" height="5.255" style=""/>
  <rect y="129.385" width="22.428" height="5.253" style="" x="273.809"/>
  <rect x="304.513" y="129.202" width="5.76" height="5.255" style=""/>
  <rect y="129.204" width="22.428" height="5.253" style="" x="318.697"/>
  <rect x="349.401" y="129.021" width="5.76" height="5.255" style=""/>
  <rect y="129.023" width="22.428" height="5.253" style="" x="363.536"/>
  <rect x="394.24" y="128.84" width="5.76" height="5.255" style=""/>
  <rect y="128.842" width="22.428" height="5.253" style="" x="410.529"/>
  <rect x="441.233" y="128.659" width="5.76" height="5.255" style=""/>
  <rect y="128.661" width="22.428" height="5.253" style="" x="455.368"/>
  <rect x="486.072" y="128.478" width="5.76" height="5.255" style=""/>
  <rect y="142.556" width="499.995" height="4.444" style=""/>
</svg>