<?xml version="1.0" encoding="utf-8"?>
<svg viewBox="0 0 500 132" xmlns="http://www.w3.org/2000/svg">
  <path d="M 89.887 77.725 L 69.275 77.725 L 66.432 47.059 C 65.906 41.374 61.203 37.088 55.494 37.088 C 52.411 37.088 49.452 38.395 47.374 40.673 C 45.298 42.951 44.27 46.018 44.555 49.089 L 48.329 89.766 C 48.858 95.469 53.577 99.77 59.305 99.77 L 63.196 99.77 C 64.611 99.77 65.757 98.622 65.757 97.208 C 65.757 95.794 64.611 94.646 63.196 94.646 L 59.305 94.646 C 56.239 94.646 53.715 92.344 53.431 89.292 L 49.657 48.615 C 49.503 46.954 50.037 45.358 51.162 44.126 C 52.287 42.892 53.825 42.212 55.494 42.212 C 58.54 42.212 61.05 44.5 61.331 47.533 L 64.388 80.523 C 64.511 81.841 65.616 82.849 66.939 82.849 L 89.887 82.849 C 93.118 82.849 95.748 85.478 95.748 88.71 L 95.748 88.783 C 95.748 92.016 93.118 94.646 89.887 94.646 L 83.692 94.646 C 82.277 94.646 81.129 95.794 81.129 97.207 C 81.129 98.622 82.277 99.77 83.692 99.77 L 89.753 99.77 C 90.751 99.77 91.562 100.581 91.562 101.579 L 91.562 116.817 C 91.562 117.817 90.751 118.628 89.753 118.628 L 47.069 118.628 C 45.654 118.628 44.507 119.774 44.507 121.189 C 44.507 122.604 45.654 123.752 47.069 123.752 L 89.753 123.752 C 93.577 123.752 96.687 120.641 96.687 116.817 L 96.687 101.579 C 96.687 100.302 96.339 99.105 95.734 98.076 C 98.819 96.129 100.873 92.693 100.873 88.783 L 100.873 88.71 C 100.873 82.653 95.945 77.725 89.887 77.725 Z M 89.887 77.725" style=""/>
  <path d="M 89.877 20.224 C 81.118 20.224 73.992 27.35 73.992 36.109 L 73.992 42.257 C 73.992 51.017 81.118 58.142 89.877 58.142 C 98.636 58.142 105.762 51.017 105.762 42.257 L 105.762 36.109 C 105.762 27.35 98.636 20.224 89.877 20.224 Z M 89.877 25.348 C 94.928 25.348 99.174 28.847 100.326 33.546 L 79.428 33.546 C 80.58 28.846 84.825 25.348 89.877 25.348 Z M 89.877 53.018 C 83.943 53.018 79.116 48.191 79.116 42.257 L 79.116 38.67 L 100.637 38.67 L 100.637 42.257 C 100.637 48.191 95.81 53.018 89.877 53.018 Z M 89.877 53.018" style=""/>
  <path d="M 200.991 77.725 L 180.379 77.725 L 177.536 47.059 C 177.01 41.374 172.307 37.088 166.598 37.088 C 163.515 37.088 160.556 38.395 158.479 40.673 C 156.402 42.951 155.374 46.018 155.659 49.089 L 159.432 89.766 C 159.961 95.469 164.681 99.77 170.409 99.77 L 200.857 99.77 C 201.855 99.77 202.667 100.581 202.667 101.579 L 202.667 116.818 C 202.667 117.817 201.855 118.628 200.857 118.628 L 168.421 118.628 C 167.006 118.628 165.859 119.774 165.859 121.189 C 165.859 122.604 167.006 123.753 168.421 123.753 L 200.857 123.753 C 204.681 123.753 207.792 120.641 207.792 116.818 L 207.792 101.579 C 207.792 100.302 207.443 99.105 206.838 98.076 C 209.922 96.129 211.976 92.693 211.976 88.783 L 211.976 88.71 C 211.976 82.653 207.048 77.725 200.991 77.725 Z M 206.852 88.783 C 206.852 92.016 204.222 94.646 200.991 94.646 L 170.409 94.646 C 167.343 94.646 164.818 92.344 164.535 89.292 L 160.761 48.615 C 160.607 46.953 161.141 45.358 162.265 44.125 C 163.391 42.892 164.929 42.212 166.598 42.212 C 169.643 42.212 172.154 44.499 172.435 47.533 L 175.492 80.523 C 175.615 81.841 176.72 82.849 178.043 82.849 L 200.991 82.849 C 204.222 82.849 206.852 85.478 206.852 88.71 Z M 206.852 88.783" style=""/>
  <path d="M 201.048 20.224 C 192.29 20.224 185.164 27.35 185.164 36.109 L 185.164 42.257 C 185.164 51.017 192.29 58.142 201.048 58.142 C 209.807 58.142 216.933 51.017 216.933 42.257 L 216.933 36.109 C 216.933 27.35 209.807 20.224 201.048 20.224 Z M 201.048 25.348 C 206.099 25.348 210.346 28.847 211.499 33.546 L 190.599 33.546 C 191.751 28.846 195.998 25.348 201.048 25.348 Z M 201.048 53.018 C 195.115 53.018 190.288 48.191 190.288 42.257 L 190.288 38.67 L 211.645 38.67 C 211.701 38.67 211.755 38.666 211.809 38.663 L 211.809 42.257 C 211.809 48.191 206.983 53.018 201.048 53.018 Z M 201.048 53.018" style=""/>
  <path d="M 75.256 99.02 C 75.731 98.541 76.006 97.883 76.006 97.208 C 76.006 96.533 75.731 95.874 75.256 95.395 C 74.779 94.918 74.118 94.646 73.444 94.646 C 72.771 94.646 72.109 94.918 71.633 95.395 C 71.156 95.874 70.883 96.533 70.883 97.208 C 70.883 97.883 71.155 98.541 71.633 99.02 C 72.109 99.496 72.771 99.771 73.444 99.771 C 74.118 99.771 74.779 99.496 75.256 99.02 Z M 75.256 99.02" style=""/>
  <path d="M 313.616 77.725 L 293.005 77.725 L 290.161 47.059 C 289.636 41.374 284.932 37.088 279.224 37.088 C 276.141 37.088 273.181 38.395 271.104 40.673 C 269.028 42.951 267.999 46.019 268.285 49.089 L 272.058 89.766 C 272.587 95.469 277.306 99.77 283.035 99.77 L 286.926 99.77 C 288.34 99.77 289.487 98.622 289.487 97.209 C 289.487 95.794 288.34 94.646 286.926 94.646 L 283.035 94.646 C 279.969 94.646 277.444 92.344 277.161 89.292 L 273.387 48.615 C 273.233 46.954 273.767 45.358 274.891 44.126 C 276.017 42.892 277.554 42.212 279.224 42.212 C 282.269 42.212 284.78 44.5 285.061 47.533 L 288.118 80.524 C 288.241 81.841 289.346 82.849 290.669 82.849 L 313.616 82.849 C 316.848 82.849 319.478 85.478 319.478 88.711 L 319.478 88.783 C 319.478 92.016 316.848 94.646 313.616 94.646 L 307.421 94.646 C 306.006 94.646 304.859 95.794 304.859 97.207 C 304.859 98.622 306.006 99.77 307.421 99.77 L 313.483 99.77 C 314.481 99.77 315.292 100.581 315.292 101.579 L 315.292 116.817 C 315.292 117.817 314.481 118.628 313.483 118.628 L 270.798 118.628 C 269.383 118.628 268.237 119.774 268.237 121.189 C 268.237 122.604 269.383 123.752 270.798 123.752 L 313.483 123.752 C 317.307 123.752 320.416 120.641 320.416 116.817 L 320.416 101.579 C 320.416 100.302 320.069 99.105 319.464 98.076 C 322.548 96.129 324.602 92.693 324.602 88.783 L 324.602 88.711 C 324.602 82.653 319.675 77.725 313.616 77.725 Z M 313.616 77.725" style=""/>
  <path d="M 313.607 20.224 C 304.848 20.224 297.722 27.35 297.722 36.109 L 297.722 42.257 C 297.722 51.017 304.848 58.143 313.607 58.143 C 322.366 58.143 329.491 51.017 329.491 42.257 L 329.491 36.109 C 329.491 27.35 322.366 20.224 313.607 20.224 Z M 313.607 25.348 C 318.657 25.348 322.904 28.847 324.056 33.546 L 303.157 33.546 C 304.309 28.846 308.555 25.348 313.607 25.348 Z M 313.607 53.018 C 307.673 53.018 302.845 48.191 302.845 42.257 L 302.845 38.67 L 324.367 38.67 L 324.367 42.257 C 324.367 48.191 319.54 53.018 313.607 53.018 Z M 313.607 53.018" style=""/>
  <path d="M 425.9 77.725 L 405.289 77.725 L 402.445 47.059 C 401.92 41.374 397.216 37.088 391.508 37.088 C 388.425 37.088 385.465 38.395 383.389 40.673 C 381.311 42.951 380.283 46.018 380.569 49.089 L 384.342 89.766 C 384.871 95.469 389.59 99.77 395.318 99.77 L 425.767 99.77 C 426.765 99.77 427.577 100.581 427.577 101.579 L 427.577 116.818 C 427.577 117.817 426.765 118.628 425.767 118.628 L 393.331 118.628 C 391.916 118.628 390.769 119.774 390.769 121.189 C 390.769 122.604 391.916 123.753 393.331 123.753 L 425.767 123.753 C 429.59 123.753 432.701 120.641 432.701 116.818 L 432.701 101.579 C 432.701 100.302 432.353 99.105 431.748 98.076 C 434.832 96.129 436.886 92.693 436.886 88.783 L 436.886 88.71 C 436.886 82.653 431.958 77.725 425.9 77.725 Z M 431.762 88.783 C 431.762 92.016 429.132 94.646 425.9 94.646 L 395.318 94.646 C 392.252 94.646 389.728 92.344 389.445 89.292 L 385.671 48.615 C 385.517 46.953 386.051 45.358 387.175 44.125 C 388.301 42.892 389.838 42.212 391.508 42.212 C 394.553 42.212 397.064 44.499 397.345 47.533 L 400.402 80.523 C 400.525 81.841 401.63 82.849 402.953 82.849 L 425.9 82.849 C 429.132 82.849 431.762 85.478 431.762 88.71 Z M 431.762 88.783" style=""/>
  <path d="M 425.958 20.224 C 417.199 20.224 410.073 27.35 410.073 36.109 L 410.073 42.257 C 410.073 51.017 417.199 58.142 425.958 58.142 C 434.717 58.142 441.843 51.017 441.843 42.257 L 441.843 36.109 C 441.843 27.35 434.717 20.224 425.958 20.224 Z M 425.958 25.348 C 431.009 25.348 435.255 28.847 436.409 33.546 L 415.509 33.546 C 416.661 28.846 420.908 25.348 425.958 25.348 Z M 425.958 53.018 C 420.025 53.018 415.198 48.191 415.198 42.257 L 415.198 38.67 L 436.555 38.67 C 436.61 38.67 436.665 38.666 436.718 38.663 L 436.718 42.257 C 436.718 48.191 431.892 53.018 425.958 53.018 Z M 425.958 53.018" style=""/>
  <path d="M 298.985 99.02 C 299.461 98.541 299.736 97.883 299.736 97.209 C 299.736 96.533 299.461 95.874 298.985 95.395 C 298.509 94.918 297.847 94.646 297.174 94.646 C 296.501 94.646 295.839 94.918 295.363 95.395 C 294.886 95.874 294.612 96.533 294.612 97.209 C 294.612 97.883 294.885 98.541 295.363 99.02 C 295.839 99.497 296.501 99.771 297.174 99.771 C 297.847 99.771 298.509 99.497 298.985 99.02 Z M 298.985 99.02" style=""/>
</svg>