<?xml version="1.0" encoding="utf-8"?>
<svg viewBox="0 0 500 312" xmlns="http://www.w3.org/2000/svg">
  <g transform="matrix(0.17719, 0, 0, 0.17719, 16.498711, 217.338196)" style="">
    <path d="m284 405.569c0 5.511-4.48 10-10 10-5.51 0-10-4.489-10-10 0-5.51 4.49-10 10-10 5.52 0 10 4.491 10 10zm-122-134.569h-32c-5.523 0-10 4.478-10 10s4.477 10 10 10h32c5.523 0 10-4.478 10-10s-4.477-10-10-10zm32-40h-64c-5.523 0-10 4.478-10 10s4.477 10 10 10h64c5.523 0 10-4.478 10-10s-4.477-10-10-10zm-21-120h-43c-5.523 0-10 4.478-10 10s4.477 10 10 10h43c5.523 0 10-4.478 10-10s-4.477-10-10-10zm21-40h-64c-5.523 0-10 4.478-10 10s4.477 10 10 10h64c5.523 0 10-4.478 10-10s-4.477-10-10-10zm110 210c0 5.522 4.477 10 10 10h64c5.523 0 10-4.478 10-10s-4.477-10-10-10h-64c-5.523 0-10 4.478-10 10zm10-30h49c5.523 0 10-4.478 10-10s-4.477-10-10-10h-49c-5.523 0-10 4.478-10 10s4.477 10 10 10zm32-140h-32c-5.523 0-10 4.478-10 10s4.477 10 10 10h32c5.523 0 10-4.478 10-10s-4.477-10-10-10zm-32-20h64c5.523 0 10-4.478 10-10s-4.477-10-10-10h-64c-5.523 0-10 4.478-10 10s4.477 10 10 10zm-80 417c-5.523 0-10-4.477-10-10v-167h-190c-18.778 0-34-15.222-34-34v-72c0-18.778 15.222-34 34-34h190v-20h-190c-18.778 0-34-15.222-34-34v-72c0-18.778 15.222-34 34-34h190v-11c0-11.046 8.954-20 20-20h20c11.046 0 20 8.954 20 20v11h190c18.778 0 34 15.222 34 34v72c0 18.778-15.222 34-34 34h-190v20h190c18.778 0 34 15.222 34 34v72c0 18.778-15.222 34-34 34h-190v29.569c0 5.732-4.847 10.359-10.67 9.978-5.315-.348-9.33-5.002-9.33-10.328v-340.219h-20v468h20v-37.08c0-5.326 4.016-9.981 9.331-10.329 5.823-.381 10.669 4.247 10.669 9.978v47.431c0 5.523-4.477 10-10 10zm-10-357v-100h-190c-7.72 0-14 6.28-14 14v72c0 7.72 6.28 14 14 14zm0 160v-100h-190c-7.72 0-14 6.28-14 14v72c0 7.72 6.28 14 14 14zm60-260v100h190c7.72 0 14-6.28 14-14v-72c0-7.72-6.28-14-14-14zm0 160v100h190c7.72 0 14-6.28 14-14v-72c0-7.72-6.28-14-14-14zm-186.929-97.071-22.929-22.929h3.277c5.523 0 10-4.478 10-10s-4.477-10-10-10h-27.419c-4.044 0-10 3.323-10 10.009v27.55c0 5.522 4.477 10 10 10s10-4.478 10-10v-3.416l22.929 22.929c3.952 3.952 10.143 4 14.143 0 3.905-3.906 3.905-10.238-.001-14.143zm-7.071 137.071h-16.729l2.958-3.117c3.801-4.007 3.634-10.336-.373-14.138-4.005-3.8-10.334-3.634-14.137.372l-18.974 20c-2.75 2.899-4.363 9.402 0 13.765s18.974 20 18.974 20c3.802 4.007 10.131 4.173 14.137.372 4.007-3.802 4.173-10.131.373-14.138l-2.957-3.116h16.728c5.523 0 10-4.478 10-10s-4.477-10-10-10zm320.929 37.071c4 4 10.191 3.952 14.143 0l22.928-22.928v3.416c0 5.522 4.477 10 10 10s10-4.478 10-10v-27.55c0-6.686-5.956-10.009-10-10.009h-27.419c-5.523 0-10 4.478-10 10s4.477 10 10 10h3.277l-22.929 22.929c-3.906 3.905-3.906 10.237 0 14.142zm37.071-167.071v-16.729l3.117 2.958c4.007 3.801 10.336 3.634 14.138-.373 3.8-4.005 3.634-10.334-.372-14.137l-20-18.974c-2.899-2.75-9.402-4.363-13.765 0s-20 18.974-20 18.974c-4.007 3.802-4.173 10.131-.372 14.137 3.802 4.007 10.131 4.173 14.138.373l3.117-2.957v16.728c0 5.523 4.478 10 10 10s9.999-4.477 9.999-10z"/>
  </g>
  <g transform="matrix(0.412238, 0, 0, 0.412238, 308.757172, 123.401123)" style="">
    <path d="m351.645 93.62c0-5.523 4.477-10 10-10s10 4.477 10 10-4.477 10-10 10-10-4.478-10-10zm117.355 117.659v27.221c0 5.523-4.478 10-10 10h-40c-2.418 0-4.982.894-6.692 2.333l-207.65 174.353c-24.817 20.838-56.332 32.314-88.738 32.314h-66.92c-5.522 0-10-4.477-10-10v-27.221c-23.109-11.433-39-35.25-39-62.779 0-38.66 31.34-70 70-70h19.7c9.39 0 18.52-3.33 25.72-9.37l87.58-73.533v-74.097c0-8.419 3.486-16.039 9.091-21.493-5.646-6.217-9.091-14.467-9.091-23.507 0-19.299 15.701-35 35-35s35 15.701 35 35c0 10.529-4.673 19.986-12.054 26.408 7.434 7.267 12.054 17.4 12.054 28.592v5.325l43.92-36.875c10.093-8.478 22.953 6.832 12.86 15.31l-56.78 47.675c-.001 22.538-.006 48.976-.023 49.23l-4.824 72.36 105.555-88.633c12.59-10.57 28.674-16.392 45.291-16.392h40c2.28 0 4.382.764 6.064 2.049 13.801-8.9 22.937-24.408 22.937-42.049 0-27.614-22.386-50-50-50h-31.9c-5.52 0-10-4.48-10-10 0-5.51 4.48-10 10-10h31.9c38.66 0 70 31.34 70 70 0 27.529-15.891 51.345-39 62.779zm-216-.779v-21.771l-25.929 21.771zm-28.95 20 9.231 92.307 13.641-11.454 5.39-80.853zm-1.05-145c0 8.271 6.729 15 15 15s15-6.729 15-15-6.729-15-15-15-15 6.729-15 15zm0 102.305 30-25.188v-22.117c0-11.028-8.972-20-20-20-5.514 0-10 4.486-10 10zm-183.004 209.695h75.193c18.784 0 37.053-6.651 51.442-18.729l48.106-40.394-10.842-108.418-75.615 63.491c-10.79 9.06-24.5 14.05-38.58 14.05h-19.7c-27.614 0-50 22.386-50 50 0 16.356 7.854 30.878 19.996 40zm39.004 20h-20v20h20zm330-208.013c-8.252 1.646-15.989 5.313-22.43 10.721l-207.079 173.88c-17.987 15.098-40.822 23.412-64.302 23.412h-16.189v20h16.919c27.71 0 54.657-9.813 75.877-27.631l207.644-174.347c2.773-2.333 6.048-4.147 9.561-5.346v-20.689zm40-.987h-20v20h20z"/>
  </g>
</svg>