<?xml version="1.0" encoding="utf-8"?>
<svg viewBox="0 0 500 312" xmlns="http://www.w3.org/2000/svg">
  <g transform="matrix(0.16047, 0, 0, 0.16047, 4.41749, 216.866898)" style="">
    <g>
      <path d="M511.987,143.501c-0.099-5.754-1.493-11.509-4.212-16.866l-17.781-35.03V49.999C489.993,22.429,467.564,0,439.994,0 H72.005C44.435,0,22.006,22.429,22.006,49.999v41.606l-17.782,35.03c-2.719,5.357-4.113,11.113-4.212,16.866 c0,0.036-0.005,0.071-0.005,0.107v358.392c0,5.523,4.478,10,10,10h491.987c5.522,0,10-4.477,10-10V143.608 C511.992,143.572,511.987,143.537,511.987,143.501z M42.004,61.998h90.333c5.522,0,10-4.477,10-10c0-5.523-4.478-10-10-10H43.096 c3.511-12.669,15.137-21.999,28.907-21.999h367.99c16.542,0,29.999,13.458,29.999,29.999v33.999H42.004V61.998z M121.31,182.795 h5.385c16.925,0,31.956-8.242,41.307-20.918c9.351,12.677,24.381,20.918,41.307,20.918h5.385c16.925,0,31.956-8.242,41.307-20.918 c9.351,12.677,24.381,20.918,41.307,20.918h5.385c16.924,0,31.956-8.242,41.307-20.918c9.351,12.677,24.381,20.918,41.307,20.918 h5.385c16.925,0,31.956-8.242,41.307-20.918c5.149,6.98,12.023,12.606,19.985,16.26v273.852H60.018V178.136 c7.963-3.654,14.837-9.28,19.985-16.26C89.354,174.553,104.385,182.795,121.31,182.795z M90.002,131.489v-27.492h67.999v27.492 c0,17.263-14.045,31.306-31.307,31.306h-5.385C104.047,162.796,90.002,148.752,90.002,131.489z M178,131.489v-27.492h67.999 v27.492c0,17.263-14.045,31.306-31.307,31.306h-5.385C192.044,162.796,178,148.752,178,131.489z M265.997,131.489v-27.492h67.999 v27.492c0,17.263-14.045,31.306-31.307,31.306h-5.385C280.042,162.796,265.997,148.752,265.997,131.489z M353.995,131.489v-27.492 h67.999v27.492c0,17.263-14.045,31.306-31.307,31.306h-5.385C368.039,162.796,353.995,148.752,353.995,131.489z M22.057,135.686 l16.087-31.689h31.86v27.492c0,17.263-14.045,31.306-31.307,31.306c-6.636,0-12.433-3.244-15.904-8.899 c-1.714-2.793-2.644-5.825-2.788-8.892v-1.397c0-0.034-0.005-0.067-0.005-0.102C20.098,140.856,20.777,138.206,22.057,135.686z M491.991,492.001H20.005V178.012c5.61,3.095,12,4.783,18.691,4.783c0.443,0,0.881-0.022,1.321-0.034v279.226 c0,5.523,4.478,10,10,10h411.962c5.522,0,10-4.477,10-10V182.761c0.44,0.011,0.878,0.034,1.321,0.034 c6.693,0,13.082-1.688,18.691-4.783V492.001z M491.992,143.608v1.397c-0.144,3.067-1.074,6.099-2.788,8.892 c-3.472,5.655-9.269,8.899-15.904,8.899c-17.263,0-31.307-14.045-31.307-31.306v-27.492h31.86l16.087,31.69 c1.279,2.52,1.959,5.17,2.057,7.82C491.997,143.541,491.992,143.574,491.992,143.608z"/>
    </g>
  </g>
  <g transform="matrix(0.16047, 0, 0, 0.16047, 4.41749, 216.866898)" style="">
    <g>
      <path d="M395.995,235.994h-91.901l-41.023-41.023c-3.906-3.905-10.236-3.905-14.143,0l-41.024,41.023h-91.901 c-16.542,0-29.999,13.458-29.999,29.999v119.997c0,16.542,13.458,29.999,29.999,29.999h96.044c5.522,0,10-4.477,10-10 c0-5.523-4.478-10-10-10h-96.044c-5.514,0-10-4.486-10-10V265.993c0-5.514,4.486-10,10-10h96.039h0.01h183.943 c5.514,0,10,4.486,10,10v119.997c0,5.514-4.486,10-10,10h-97.499c-5.522,0-10,4.477-10,10c0,5.523,4.478,10,10,10h97.499 c16.542,0,29.999-13.458,29.999-29.999V265.993C425.994,249.451,412.536,235.994,395.995,235.994z M236.189,235.994l19.809-19.81 l19.81,19.81H236.189z"/>
    </g>
  </g>
  <g transform="matrix(0.16047, 0, 0, 0.16047, 4.41749, 216.866898)" style="">
    <g>
      <path d="M263.067,398.919c-1.859-1.86-4.439-2.93-7.069-2.93s-5.21,1.07-7.07,2.93c-1.86,1.86-2.93,4.44-2.93,7.07 c0,2.63,1.069,5.21,2.93,7.07c1.861,1.86,4.44,2.93,7.07,2.93s5.21-1.07,7.069-2.93c1.86-1.86,2.931-4.44,2.931-7.07 C265.998,403.359,264.928,400.779,263.067,398.919z"/>
    </g>
  </g>
  <g transform="matrix(0.16047, 0, 0, 0.16047, 4.41749, 216.866898)" style="">
    <g>
      <path d="M164.85,315.991c-5.422,0-9.833-3.589-9.833-8s4.411-8,9.833-8c5.423,0,9.834,3.589,9.834,8c0,5.523,4.478,10,10,10 s10-4.477,10-10c0-15.439-13.384-27.999-29.833-27.999s-29.832,12.561-29.832,27.999c0,15.439,13.383,27.999,29.832,27.999 c5.423,0,9.834,3.589,9.834,8s-4.411,8-9.834,8c-5.422,0-9.833-3.589-9.833-8c0-5.523-4.478-10-10-10s-10,4.477-10,10 c0,15.439,13.383,27.999,29.832,27.999c16.45,0,29.833-12.561,29.833-27.999C194.683,328.552,181.3,315.991,164.85,315.991z"/>
    </g>
  </g>
  <g transform="matrix(0.16047, 0, 0, 0.16047, 4.41749, 216.866898)" style="">
    <g>
      <path d="M310.662,351.99h-14.334v-61.998c0-5.523-4.478-10-10-10s-10,4.477-10,10v62.673c0,10.656,8.669,19.325,19.325,19.325 h15.009c5.522,0,10-4.477,10-10C320.662,356.467,316.184,351.99,310.662,351.99z"/>
    </g>
  </g>
  <g transform="matrix(0.16047, 0, 0, 0.16047, 4.41749, 216.866898)" style="">
    <g>
      <path d="M366.979,351.991h-18.652v-16h9.561c5.522,0,10-4.477,10-10c0-5.523-4.478-10-10-10h-9.561v-16h18.652v-0.001 c5.522,0,10-4.477,10-10c0-5.523-4.478-10-10-10h-19.327c-10.656,0-19.324,8.669-19.324,19.324v53.35 c0,10.656,8.669,19.325,19.324,19.325h19.327c5.522,0,10-4.477,10-10C376.979,356.468,372.501,351.991,366.979,351.991z"/>
    </g>
  </g>
  <g transform="matrix(0.16047, 0, 0, 0.16047, 4.41749, 216.866898)" style="">
    <g>
      <path d="M270.694,358.479l-27.001-71.998c-1.464-3.903-5.195-6.489-9.363-6.489s-7.899,2.586-9.363,6.489l-26.999,71.998 c-1.939,5.171,0.681,10.936,5.852,12.875c5.175,1.938,10.936-0.682,12.875-5.852l2.102-5.605c0.426,0.055,0.856,0.094,1.297,0.094 h29.807l2.067,5.511c1.506,4.015,5.315,6.492,9.365,6.492c1.166,0,2.353-0.206,3.51-0.64 C270.013,369.415,272.633,363.651,270.694,358.479z M226.26,339.991l8.07-21.519l8.07,21.519H226.26z"/>
    </g>
  </g>
  <g transform="matrix(0.16047, 0, 0, 0.16047, 4.41749, 216.866898)" style="">
    <g>
      <path d="M190.5,44.929c-1.87-1.86-4.44-2.93-7.07-2.93c-2.64,0-5.21,1.07-7.07,2.93c-1.869,1.86-2.93,4.44-2.93,7.07 s1.061,5.21,2.93,7.07c1.86,1.86,4.43,2.93,7.07,2.93c2.63,0,5.2-1.07,7.07-2.93c1.859-1.86,2.93-4.44,2.93-7.07 S192.36,46.789,190.5,44.929z"/>
    </g>
  </g>
  <g transform="matrix(0.099956, 0, 0, 0.099956, 287.775665, 249.397064)" style="">
    <path d="m90 392c-16.542 0-30 13.458-30 30s13.458 30 30 30 30-13.458 30-30-13.458-30-30-30zm0 40c-5.514 0-10-4.486-10-10s4.486-10 10-10 10 4.486 10 10-4.486 10-10 10z"/>
    <path d="m502 352h-42v-58c16.542 0 30-13.458 30-30 0-16.207-12.92-29.444-29-29.975v-39.025c0-5.521-4.49-10-10-10s-9.99 4.479-10 9.979v.021 39h-20v-144h20v16c0 5.51 4.479 10 10 10 5.51 0 10-4.49 10-10v-16h15c3.361 0 6.498-1.688 8.349-4.495s2.167-6.354.843-9.444l-11.854-27.661c-12.602-29.402-41.412-48.4-73.4-48.4h-263.876c-31.988 0-60.799 18.998-73.399 48.399l-11.854 27.662c-1.324 3.09-1.008 6.638.843 9.444s4.987 4.495 8.348 4.495h19.5v144.013c-16.311.269-29.5 13.613-29.5 29.987 0 16.542 13.458 30 30 30v38.559c-44.937 4.99-80 43.195-80 89.441 0 49.626 40.374 90 90 90 46.246 0 84.451-35.063 89.441-80h270.559c5.522 0 10-4.478 10-10v-10h20v90c0 5.522 4.478 10 10 10s10-4.478 10-10v-90h2c5.522 0 10-4.478 10-10v-40c0-5.522-4.478-10-10-10zm-101-118h-28.195l8.059-48.356c.483-2.899-.334-5.864-2.234-8.107-1.899-2.243-4.69-3.536-7.63-3.536h-60c-2.939 0-5.73 1.293-7.63 3.536s-2.718 5.208-2.234 8.107l8.059 48.356h-50.195v-50c0-5.522-4.478-10-10-10h-30v-30c0-5.522-4.478-10-10-10h-40c-5.522 0-10 4.478-10 10v30h-19.5v-84h261.5zm-78.195-40h36.391l-6.667 40h-23.057zm-183.305 0h19.5v10c0 5.522 4.478 10 10 10h40c5.522 0 10-4.478 10-10v-10h20v40h-99.5zm59.5 0h-20v-40h20zm-117.954-137.722c9.444-22.038 31.04-36.278 55.016-36.278h263.875c23.977 0 45.572 14.24 55.017 36.278l5.881 13.722h-385.67zm38.454 33.722-.5 144h-19.5v-144zm-49.5 174c0-5.514 4.486-10 10-10h380c5.514 0 10 4.486 10 10s-4.486 10-10 10h-380c-5.514 0-10-4.486-10-10zm20 228c-38.598 0-70-31.402-70-70s31.402-70 70-70 70 31.402 70 70-31.402 70-70 70zm350-80h-260.559c-4.626-41.652-37.789-74.815-79.441-79.441v-38.559h340zm20-40h32v20h-32z"/>
    <circle cx="451" cy="150" r="10"/>
  </g>
  <g transform="matrix(0.083951, 0, 0, 0.083951, 343.987976, 275.06131)" style="">
    <g>
      <g>
        <path d="M505.947,123.597c-4.353-4.752-10.546-7.477-16.99-7.477h-6.837c-17.929,0-32.631,13.468-34.198,31.328l-7.397,84.279 c-0.655,7.469-6.804,13.102-14.303,13.102h-64.026c-20.516,0-37.207,16.691-37.207,37.207v3.697 c0,12.395,10.083,22.478,22.478,22.478h13.723l-13.514,44.135c-0.01,0.033-0.02,0.066-0.03,0.099l-10.33,33.736 c-1.213,3.961,1.015,8.154,4.975,9.367c0.732,0.224,1.472,0.331,2.199,0.331c3.209,0,6.18-2.077,7.168-5.306l8.712-28.451H463.24 l8.712,28.451c0.988,3.229,3.958,5.306,7.168,5.306c0.728,0,1.468-0.107,2.199-0.331c3.96-1.213,6.188-5.407,4.975-9.367 l-24.517-80.066c4.305-1.219,8.462-2.953,12.362-5.188c3.593-2.06,4.836-6.643,2.776-10.236 c-2.06-3.593-6.644-4.836-10.237-2.776c-6.044,3.465-12.939,5.297-19.94,5.297h-75.402c-0.025,0-0.05,0-0.074,0h-23.793 c-4.123,0-7.478-3.354-7.478-7.478v-3.697c0-12.245,9.962-22.207,22.207-22.207h64.026c15.333,0,27.906-11.518,29.246-26.791 l7.396-84.28c0.882-10.056,9.16-17.64,19.255-17.64h6.837c2.282,0,4.389,0.927,5.93,2.61c1.542,1.683,2.282,3.862,2.082,6.136 l-10.242,116.711c-0.252,2.878-0.813,5.726-1.666,8.464c-1.232,3.955,0.976,8.16,4.931,9.391c3.96,1.232,8.159-0.977,9.392-4.93 c1.171-3.762,1.94-7.669,2.287-11.614l10.242-116.711C512.474,134.757,510.3,128.349,505.947,123.597z M376.875,308.212h69.855 l11.914,38.91h-93.684L376.875,308.212z"/>
        <path d="M149.803,244.83H85.777c-7.499,0-13.647-5.632-14.303-13.102l-7.396-84.279c-1.567-17.86-16.269-31.328-34.198-31.328 h-6.837c-6.444,0-12.637,2.725-16.99,7.477c-4.353,4.752-6.527,11.16-5.965,17.581l10.242,116.711 c1.209,13.773,7.489,26.501,17.684,35.841c6.405,5.868,14.01,10.077,22.206,12.397l-24.514,80.055 c-1.213,3.961,1.015,8.154,4.975,9.367c0.732,0.224,1.472,0.331,2.199,0.331c3.209,0,6.18-2.077,7.168-5.306l8.712-28.451H151.63 l8.712,28.451c0.988,3.229,3.958,5.306,7.168,5.306c0.728,0,1.468-0.107,2.199-0.331c3.96-1.213,6.188-5.407,4.975-9.367 l-10.33-33.736c-0.01-0.033-0.02-0.066-0.03-0.099l-13.514-44.135h13.723c12.395,0,22.477-10.083,22.477-22.478v-3.697 C187.01,261.521,170.319,244.83,149.803,244.83z M53.353,347.122l11.914-38.91h69.855l11.914,38.91H53.353z M172.01,285.734 c0,4.124-3.354,7.478-7.477,7.478h-23.788c-0.03,0-0.059,0-0.089,0H65.263c-1.604,0-3.182-0.103-4.736-0.283 c-0.001,0-0.003,0-0.005,0c-18.764-2.169-33.558-17.065-35.25-36.352L15.03,139.867c-0.2-2.275,0.54-4.454,2.082-6.137 c1.541-1.683,3.647-2.61,5.93-2.61h6.837c10.095,0,18.373,7.583,19.255,17.64l7.396,84.279v-0.001 c1.34,15.273,13.913,26.791,29.246,26.791h64.026c12.245,0,22.207,9.962,22.207,22.207V285.734z"/>
        <path d="M312.948,371.141c-3.095-11.897-13.841-20.206-26.134-20.206h-4.642V214.401h92.354c5.32,0,10.299-2.365,13.661-6.488 c3.362-4.124,4.677-9.478,3.605-14.69c-3.226-15.684-17.188-27.067-33.199-27.067H202.665c-4.143,0-7.5,3.358-7.5,7.5 s3.357,7.5,7.5,7.5h155.928c8.926,0,16.708,6.346,18.506,15.088c0.219,1.064-0.243,1.829-0.537,2.191 c-0.295,0.361-0.951,0.967-2.036,0.967H137.472c-1.085,0-1.741-0.606-2.036-0.967c-0.294-0.361-0.756-1.127-0.537-2.19 c1.798-8.743,9.58-15.089,18.506-15.089h14.084c4.143,0,7.5-3.358,7.5-7.5s-3.357-7.5-7.5-7.5h-14.084 c-16.012,0-29.974,11.383-33.199,27.068c-1.071,5.212,0.243,10.566,3.605,14.689c3.362,4.123,8.341,6.488,13.661,6.488h92.355 v136.535h-4.642c-12.293,0-23.039,8.309-26.134,20.205l-1.761,6.767c-1.127,4.335-0.203,8.852,2.536,12.396 c2.74,3.543,6.88,5.576,11.358,5.576h89.63c4.479,0,8.618-2.032,11.358-5.576c2.739-3.543,3.663-8.061,2.536-12.396 L312.948,371.141z M244.827,214.401L244.827,214.401h22.346v136.535h-22.346V214.401z M212.016,380.879l1.552-5.962 c1.375-5.288,6.152-8.981,11.616-8.981h61.629c5.464,0,10.241,3.693,11.616,8.981l1.552,5.962H212.016z"/>
      </g>
    </g>
  </g>
  <g transform="matrix(-0.015175, 0, 0, 0.015175, 377.09436, 281.388763)" style="">
    <path d="m217.008 119.751h.057c5.522 0 9.972-4.477 9.972-10s-4.506-10-10.028-10-10 4.477-10 10 4.477 10 9.999 10z"/>
    <path d="m382.043 21.743c-45.119 0-82.406 34.172-87.384 78.007h-32.736c-5.522 0-10 4.477-10 10s4.478 10 10 10h110.121v41.193c-15.71 5.052-37.923 4.31-51.727-2.24-20.92-9.879-53.677-9.878-74.583.008-15.562 7.385-41.86 7.384-57.434-.005-14.122-6.679-33.662-8.837-51.313-6.485l-14.509-32.471h49.645c5.522 0 10-4.477 10-10s-4.478-10-10-10h-58.582l-41.926-93.827c-2.253-5.042-8.167-7.303-13.21-5.05-5.042 2.253-7.303 8.167-5.05 13.209l38.28 85.669h-39.634c-5.522 0-10 4.477-10 10v77.98c0 35.584 22.094 41.607 36.714 45.593 12.612 3.438 16.248 4.875 16.248 14.897 0 40.087 32.605 72.701 72.682 72.701h14.653v90.967c0 19.179-.388 23.779-11.304 31.05l-32.431 14.405c-.484.215-.951.469-1.396.758-16.519 10.754-19.369 24.82-16.526 34.397 3.517 11.846 15.526 19.501 30.597 19.501h131.569c15.06 0 27.064-7.65 30.582-19.488 2.846-9.577.004-23.645-16.506-34.407-.446-.291-.915-.545-1.401-.762l-32.432-14.405c-10.916-7.271-11.304-11.871-11.304-31.05v-90.967h24.628c37.508 0 62.708-29.216 62.708-72.701 0-10.022 3.636-11.459 16.248-14.897 13.209-3.601 32.514-8.871 36.118-36.096 44.093-4.71 78.551-42.142 78.551-87.476 0-48.528-39.457-88.008-87.956-88.008zm-320.042 98.008h38.571l16.72 37.418c-1.225.486-2.424.997-3.581 1.543-13.788 6.543-35.999 7.284-51.71 2.232zm190.778 340.37c.445.291.913.544 1.399.761l32.407 14.394c6.345 4.332 8.421 8.883 7.632 11.539-.768 2.581-4.593 5.185-11.411 5.185h-131.568c-6.826 0-10.656-2.608-11.423-5.192-.788-2.653 1.292-7.201 7.642-11.53l32.409-14.396c.485-.216.954-.47 1.399-.761 21.033-13.703 21.033-28.187 21.033-48.233v-90.967h29.448v90.967c0 20.046 0 34.529 21.033 48.233zm119.264-272.391c0 20.307-8.27 22.561-21.974 26.297-12.34 3.364-30.988 8.447-30.988 34.193 0 25.477-11.22 52.701-42.708 52.701h-108.728c-29.049 0-52.682-23.642-52.682-52.701 0-25.746-18.648-30.829-30.988-34.193-13.703-3.735-21.974-5.99-21.974-26.297v-6.074c7.272 1.706 15.136 2.566 23.005 2.566 13.41 0 26.819-2.479 37.262-7.434 3.146-1.486 6.735-2.666 10.578-3.553.239-.044.476-.101.713-.163 15.09-3.307 33.958-2.072 46.179 3.708 20.909 9.92 53.664 9.921 74.559.005 15.562-7.362 41.888-7.36 57.464-.005 16.583 7.868 40.616 9.488 60.284 4.874v6.076zm-57.215-87.979c1.67-11.289 6.118-21.681 12.63-30.457l30.448 30.457zm57.215-14.147-30.452-30.461c8.773-6.525 19.164-10.984 30.452-12.657zm77.215 14.147h-43.086l30.446-30.471c6.518 8.778 10.97 19.176 12.64 30.471zm-57.215-57.266c11.282 1.673 21.668 6.127 30.437 12.647l-30.437 30.462zm0 134.503v-43.091l30.439 30.448c-8.77 6.518-19.156 10.971-30.439 12.643zm44.578-26.787-30.441-30.45h43.078c-1.671 11.286-6.122 21.677-12.637 30.45z"/>
  </g>
  <g transform="matrix(0.015175, 0, 0, 0.015175, 356.183105, 281.388763)" style="">
    <path d="m217.008 119.751h.057c5.522 0 9.972-4.477 9.972-10s-4.506-10-10.028-10-10 4.477-10 10 4.477 10 9.999 10z"/>
    <path d="m382.043 21.743c-45.119 0-82.406 34.172-87.384 78.007h-32.736c-5.522 0-10 4.477-10 10s4.478 10 10 10h110.121v41.193c-15.71 5.052-37.923 4.31-51.727-2.24-20.92-9.879-53.677-9.878-74.583.008-15.562 7.385-41.86 7.384-57.434-.005-14.122-6.679-33.662-8.837-51.313-6.485l-14.509-32.471h49.645c5.522 0 10-4.477 10-10s-4.478-10-10-10h-58.582l-41.926-93.827c-2.253-5.042-8.167-7.303-13.21-5.05-5.042 2.253-7.303 8.167-5.05 13.209l38.28 85.669h-39.634c-5.522 0-10 4.477-10 10v77.98c0 35.584 22.094 41.607 36.714 45.593 12.612 3.438 16.248 4.875 16.248 14.897 0 40.087 32.605 72.701 72.682 72.701h14.653v90.967c0 19.179-.388 23.779-11.304 31.05l-32.431 14.405c-.484.215-.951.469-1.396.758-16.519 10.754-19.369 24.82-16.526 34.397 3.517 11.846 15.526 19.501 30.597 19.501h131.569c15.06 0 27.064-7.65 30.582-19.488 2.846-9.577.004-23.645-16.506-34.407-.446-.291-.915-.545-1.401-.762l-32.432-14.405c-10.916-7.271-11.304-11.871-11.304-31.05v-90.967h24.628c37.508 0 62.708-29.216 62.708-72.701 0-10.022 3.636-11.459 16.248-14.897 13.209-3.601 32.514-8.871 36.118-36.096 44.093-4.71 78.551-42.142 78.551-87.476 0-48.528-39.457-88.008-87.956-88.008zm-320.042 98.008h38.571l16.72 37.418c-1.225.486-2.424.997-3.581 1.543-13.788 6.543-35.999 7.284-51.71 2.232zm190.778 340.37c.445.291.913.544 1.399.761l32.407 14.394c6.345 4.332 8.421 8.883 7.632 11.539-.768 2.581-4.593 5.185-11.411 5.185h-131.568c-6.826 0-10.656-2.608-11.423-5.192-.788-2.653 1.292-7.201 7.642-11.53l32.409-14.396c.485-.216.954-.47 1.399-.761 21.033-13.703 21.033-28.187 21.033-48.233v-90.967h29.448v90.967c0 20.046 0 34.529 21.033 48.233zm119.264-272.391c0 20.307-8.27 22.561-21.974 26.297-12.34 3.364-30.988 8.447-30.988 34.193 0 25.477-11.22 52.701-42.708 52.701h-108.728c-29.049 0-52.682-23.642-52.682-52.701 0-25.746-18.648-30.829-30.988-34.193-13.703-3.735-21.974-5.99-21.974-26.297v-6.074c7.272 1.706 15.136 2.566 23.005 2.566 13.41 0 26.819-2.479 37.262-7.434 3.146-1.486 6.735-2.666 10.578-3.553.239-.044.476-.101.713-.163 15.09-3.307 33.958-2.072 46.179 3.708 20.909 9.92 53.664 9.921 74.559.005 15.562-7.362 41.888-7.36 57.464-.005 16.583 7.868 40.616 9.488 60.284 4.874v6.076zm-57.215-87.979c1.67-11.289 6.118-21.681 12.63-30.457l30.448 30.457zm57.215-14.147-30.452-30.461c8.773-6.525 19.164-10.984 30.452-12.657zm77.215 14.147h-43.086l30.446-30.471c6.518 8.778 10.97 19.176 12.64 30.471zm-57.215-57.266c11.282 1.673 21.668 6.127 30.437 12.647l-30.437 30.462zm0 134.503v-43.091l30.439 30.448c-8.77 6.518-19.156 10.971-30.439 12.643zm44.578-26.787-30.441-30.45h43.078c-1.671 11.286-6.122 21.677-12.637 30.45z"/>
  </g>
  <g transform="matrix(0.083951, 0, 0, 0.083951, 398.88974, 275.630798)" style="">
    <g>
      <g>
        <path d="M 386.106 123.597 C 381.753 118.845 375.56 116.12 369.116 116.12 L 362.279 116.12 C 344.35 116.12 329.648 129.588 328.081 147.448 L 320.684 231.727 C 320.029 239.196 313.88 244.829 306.381 244.829 L 242.355 244.829 C 221.839 244.829 205.148 261.52 205.148 282.036 L 205.148 285.733 C 205.148 298.128 215.231 308.211 227.626 308.211 L 241.349 308.211 L 227.835 352.346 C 227.825 352.379 227.815 352.412 227.805 352.445 L 217.475 386.181 C 216.262 390.142 218.49 394.335 222.45 395.548 C 223.182 395.772 223.922 395.879 224.649 395.879 C 227.858 395.879 230.829 393.802 231.817 390.573 L 240.529 362.122 L 343.399 362.122 L 352.111 390.573 C 353.099 393.802 356.069 395.879 359.279 395.879 C 360.007 395.879 360.747 395.772 361.478 395.548 C 365.438 394.335 367.666 390.141 366.453 386.181 L 341.936 306.115 C 346.241 304.896 350.398 303.162 354.298 300.927 C 357.891 298.867 359.134 294.284 357.074 290.691 C 355.014 287.098 350.43 285.855 346.837 287.915 C 340.793 291.38 333.898 293.212 326.897 293.212 L 251.495 293.212 C 251.47 293.212 251.445 293.212 251.421 293.212 L 227.628 293.212 C 223.505 293.212 220.15 289.858 220.15 285.734 L 220.15 282.037 C 220.15 269.792 230.112 259.83 242.357 259.83 L 306.383 259.83 C 321.716 259.83 334.289 248.312 335.629 233.039 L 343.025 148.759 C 343.907 138.703 352.185 131.119 362.28 131.119 L 369.117 131.119 C 371.399 131.119 373.506 132.046 375.047 133.729 C 376.589 135.412 377.329 137.591 377.129 139.865 L 366.887 256.576 C 366.635 259.454 366.074 262.302 365.221 265.04 C 363.989 268.995 366.197 273.2 370.152 274.431 C 374.112 275.663 378.311 273.454 379.544 269.501 C 380.715 265.739 381.484 261.832 381.831 257.887 L 392.073 141.176 C 392.633 134.757 390.459 128.349 386.106 123.597 Z M 257.034 308.212 L 326.889 308.212 L 338.803 347.122 L 245.119 347.122 L 257.034 308.212 Z"/>
        <path d="M 193.107 371.141 C 190.012 359.244 179.266 350.935 166.973 350.935 L 162.331 350.935 L 162.331 214.401 L 254.685 214.401 C 260.005 214.401 264.984 212.036 268.346 207.913 C 271.708 203.789 273.023 198.435 271.951 193.223 C 268.725 177.539 254.763 166.156 238.752 166.156 L 82.824 166.156 C 78.681 166.156 75.324 169.514 75.324 173.656 C 75.324 177.798 78.681 181.156 82.824 181.156 L 238.752 181.156 C 247.678 181.156 255.46 187.502 257.258 196.244 C 257.477 197.308 257.015 198.073 256.721 198.435 C 256.426 198.796 255.77 199.402 254.685 199.402 L 17.631 199.402 C 16.546 199.402 15.89 198.796 15.595 198.435 C 15.301 198.074 14.839 197.308 15.058 196.245 C 16.856 187.502 24.638 181.156 33.564 181.156 L 47.648 181.156 C 51.791 181.156 55.148 177.798 55.148 173.656 C 55.148 169.514 51.791 166.156 47.648 166.156 L 33.564 166.156 C 17.552 166.156 3.59 177.539 0.365 193.224 C -0.706 198.436 0.608 203.79 3.97 207.913 C 7.332 212.036 12.311 214.401 17.631 214.401 L 109.986 214.401 L 109.986 350.936 L 105.344 350.936 C 93.051 350.936 82.305 359.245 79.21 371.141 L 77.449 377.908 C 76.322 382.243 77.246 386.76 79.985 390.304 C 82.725 393.847 86.865 395.88 91.343 395.88 L 180.973 395.88 C 185.452 395.88 189.591 393.848 192.331 390.304 C 195.07 386.761 195.994 382.243 194.867 377.908 L 193.107 371.141 Z M 124.986 214.401 L 124.986 214.401 L 147.332 214.401 L 147.332 350.936 L 124.986 350.936 L 124.986 214.401 Z M 92.175 380.879 L 93.727 374.917 C 95.102 369.629 99.879 365.936 105.343 365.936 L 166.972 365.936 C 172.436 365.936 177.213 369.629 178.588 374.917 L 180.14 380.879 L 92.175 380.879 Z"/>
      </g>
    </g>
  </g>
  <g transform="matrix(-0.015175, 0, 0, 0.015175, 419.114166, 281.958252)" style="">
    <path d="m217.008 119.751h.057c5.522 0 9.972-4.477 9.972-10s-4.506-10-10.028-10-10 4.477-10 10 4.477 10 9.999 10z"/>
    <path d="m382.043 21.743c-45.119 0-82.406 34.172-87.384 78.007h-32.736c-5.522 0-10 4.477-10 10s4.478 10 10 10h110.121v41.193c-15.71 5.052-37.923 4.31-51.727-2.24-20.92-9.879-53.677-9.878-74.583.008-15.562 7.385-41.86 7.384-57.434-.005-14.122-6.679-33.662-8.837-51.313-6.485l-14.509-32.471h49.645c5.522 0 10-4.477 10-10s-4.478-10-10-10h-58.582l-41.926-93.827c-2.253-5.042-8.167-7.303-13.21-5.05-5.042 2.253-7.303 8.167-5.05 13.209l38.28 85.669h-39.634c-5.522 0-10 4.477-10 10v77.98c0 35.584 22.094 41.607 36.714 45.593 12.612 3.438 16.248 4.875 16.248 14.897 0 40.087 32.605 72.701 72.682 72.701h14.653v90.967c0 19.179-.388 23.779-11.304 31.05l-32.431 14.405c-.484.215-.951.469-1.396.758-16.519 10.754-19.369 24.82-16.526 34.397 3.517 11.846 15.526 19.501 30.597 19.501h131.569c15.06 0 27.064-7.65 30.582-19.488 2.846-9.577.004-23.645-16.506-34.407-.446-.291-.915-.545-1.401-.762l-32.432-14.405c-10.916-7.271-11.304-11.871-11.304-31.05v-90.967h24.628c37.508 0 62.708-29.216 62.708-72.701 0-10.022 3.636-11.459 16.248-14.897 13.209-3.601 32.514-8.871 36.118-36.096 44.093-4.71 78.551-42.142 78.551-87.476 0-48.528-39.457-88.008-87.956-88.008zm-320.042 98.008h38.571l16.72 37.418c-1.225.486-2.424.997-3.581 1.543-13.788 6.543-35.999 7.284-51.71 2.232zm190.778 340.37c.445.291.913.544 1.399.761l32.407 14.394c6.345 4.332 8.421 8.883 7.632 11.539-.768 2.581-4.593 5.185-11.411 5.185h-131.568c-6.826 0-10.656-2.608-11.423-5.192-.788-2.653 1.292-7.201 7.642-11.53l32.409-14.396c.485-.216.954-.47 1.399-.761 21.033-13.703 21.033-28.187 21.033-48.233v-90.967h29.448v90.967c0 20.046 0 34.529 21.033 48.233zm119.264-272.391c0 20.307-8.27 22.561-21.974 26.297-12.34 3.364-30.988 8.447-30.988 34.193 0 25.477-11.22 52.701-42.708 52.701h-108.728c-29.049 0-52.682-23.642-52.682-52.701 0-25.746-18.648-30.829-30.988-34.193-13.703-3.735-21.974-5.99-21.974-26.297v-6.074c7.272 1.706 15.136 2.566 23.005 2.566 13.41 0 26.819-2.479 37.262-7.434 3.146-1.486 6.735-2.666 10.578-3.553.239-.044.476-.101.713-.163 15.09-3.307 33.958-2.072 46.179 3.708 20.909 9.92 53.664 9.921 74.559.005 15.562-7.362 41.888-7.36 57.464-.005 16.583 7.868 40.616 9.488 60.284 4.874v6.076zm-57.215-87.979c1.67-11.289 6.118-21.681 12.63-30.457l30.448 30.457zm57.215-14.147-30.452-30.461c8.773-6.525 19.164-10.984 30.452-12.657zm77.215 14.147h-43.086l30.446-30.471c6.518 8.778 10.97 19.176 12.64 30.471zm-57.215-57.266c11.282 1.673 21.668 6.127 30.437 12.647l-30.437 30.462zm0 134.503v-43.091l30.439 30.448c-8.77 6.518-19.156 10.971-30.439 12.643zm44.578-26.787-30.441-30.45h43.078c-1.671 11.286-6.122 21.677-12.637 30.45z"/>
  </g>
  <g transform="matrix(-0.083951, 0, 0, 0.083951, 281.516663, 271.945648)" style="">
    <g>
      <g>
        <path d="M 386.106 123.597 C 381.753 118.845 375.56 116.12 369.116 116.12 L 362.279 116.12 C 344.35 116.12 329.648 129.588 328.081 147.448 L 320.684 231.727 C 320.029 239.196 313.88 244.829 306.381 244.829 L 242.355 244.829 C 221.839 244.829 205.148 261.52 205.148 282.036 L 205.148 285.733 C 205.148 298.128 215.231 308.211 227.626 308.211 L 241.349 308.211 L 227.835 352.346 C 227.825 352.379 227.815 352.412 227.805 352.445 L 217.475 386.181 C 216.262 390.142 218.49 394.335 222.45 395.548 C 223.182 395.772 223.922 395.879 224.649 395.879 C 227.858 395.879 230.829 393.802 231.817 390.573 L 240.529 362.122 L 343.399 362.122 L 352.111 390.573 C 353.099 393.802 356.069 395.879 359.279 395.879 C 360.007 395.879 360.747 395.772 361.478 395.548 C 365.438 394.335 367.666 390.141 366.453 386.181 L 341.936 306.115 C 346.241 304.896 350.398 303.162 354.298 300.927 C 357.891 298.867 359.134 294.284 357.074 290.691 C 355.014 287.098 350.43 285.855 346.837 287.915 C 340.793 291.38 333.898 293.212 326.897 293.212 L 251.495 293.212 C 251.47 293.212 251.445 293.212 251.421 293.212 L 227.628 293.212 C 223.505 293.212 220.15 289.858 220.15 285.734 L 220.15 282.037 C 220.15 269.792 230.112 259.83 242.357 259.83 L 306.383 259.83 C 321.716 259.83 334.289 248.312 335.629 233.039 L 343.025 148.759 C 343.907 138.703 352.185 131.119 362.28 131.119 L 369.117 131.119 C 371.399 131.119 373.506 132.046 375.047 133.729 C 376.589 135.412 377.329 137.591 377.129 139.865 L 366.887 256.576 C 366.635 259.454 366.074 262.302 365.221 265.04 C 363.989 268.995 366.197 273.2 370.152 274.431 C 374.112 275.663 378.311 273.454 379.544 269.501 C 380.715 265.739 381.484 261.832 381.831 257.887 L 392.073 141.176 C 392.633 134.757 390.459 128.349 386.106 123.597 Z M 257.034 308.212 L 326.889 308.212 L 338.803 347.122 L 245.119 347.122 L 257.034 308.212 Z"/>
        <path d="M 193.107 371.141 C 190.012 359.244 179.266 350.935 166.973 350.935 L 162.331 350.935 L 162.331 214.401 L 254.685 214.401 C 260.005 214.401 264.984 212.036 268.346 207.913 C 271.708 203.789 273.023 198.435 271.951 193.223 C 268.725 177.539 254.763 166.156 238.752 166.156 L 82.824 166.156 C 78.681 166.156 75.324 169.514 75.324 173.656 C 75.324 177.798 78.681 181.156 82.824 181.156 L 238.752 181.156 C 247.678 181.156 255.46 187.502 257.258 196.244 C 257.477 197.308 257.015 198.073 256.721 198.435 C 256.426 198.796 255.77 199.402 254.685 199.402 L 17.631 199.402 C 16.546 199.402 15.89 198.796 15.595 198.435 C 15.301 198.074 14.839 197.308 15.058 196.245 C 16.856 187.502 24.638 181.156 33.564 181.156 L 47.648 181.156 C 51.791 181.156 55.148 177.798 55.148 173.656 C 55.148 169.514 51.791 166.156 47.648 166.156 L 33.564 166.156 C 17.552 166.156 3.59 177.539 0.365 193.224 C -0.706 198.436 0.608 203.79 3.97 207.913 C 7.332 212.036 12.311 214.401 17.631 214.401 L 109.986 214.401 L 109.986 350.936 L 105.344 350.936 C 93.051 350.936 82.305 359.245 79.21 371.141 L 77.449 377.908 C 76.322 382.243 77.246 386.76 79.985 390.304 C 82.725 393.847 86.865 395.88 91.343 395.88 L 180.973 395.88 C 185.452 395.88 189.591 393.848 192.331 390.304 C 195.07 386.761 195.994 382.243 194.867 377.908 L 193.107 371.141 Z M 124.986 214.401 L 124.986 214.401 L 147.332 214.401 L 147.332 350.936 L 124.986 350.936 L 124.986 214.401 Z M 92.175 380.879 L 93.727 374.917 C 95.102 369.629 99.879 365.936 105.343 365.936 L 166.972 365.936 C 172.436 365.936 177.213 369.629 178.588 374.917 L 180.14 380.879 L 92.175 380.879 Z"/>
      </g>
    </g>
  </g>
  <g transform="matrix(0.015175, 0, 0, 0.015175, 261.292206, 278.273102)" style="">
    <path d="m217.008 119.751h.057c5.522 0 9.972-4.477 9.972-10s-4.506-10-10.028-10-10 4.477-10 10 4.477 10 9.999 10z"/>
    <path d="m382.043 21.743c-45.119 0-82.406 34.172-87.384 78.007h-32.736c-5.522 0-10 4.477-10 10s4.478 10 10 10h110.121v41.193c-15.71 5.052-37.923 4.31-51.727-2.24-20.92-9.879-53.677-9.878-74.583.008-15.562 7.385-41.86 7.384-57.434-.005-14.122-6.679-33.662-8.837-51.313-6.485l-14.509-32.471h49.645c5.522 0 10-4.477 10-10s-4.478-10-10-10h-58.582l-41.926-93.827c-2.253-5.042-8.167-7.303-13.21-5.05-5.042 2.253-7.303 8.167-5.05 13.209l38.28 85.669h-39.634c-5.522 0-10 4.477-10 10v77.98c0 35.584 22.094 41.607 36.714 45.593 12.612 3.438 16.248 4.875 16.248 14.897 0 40.087 32.605 72.701 72.682 72.701h14.653v90.967c0 19.179-.388 23.779-11.304 31.05l-32.431 14.405c-.484.215-.951.469-1.396.758-16.519 10.754-19.369 24.82-16.526 34.397 3.517 11.846 15.526 19.501 30.597 19.501h131.569c15.06 0 27.064-7.65 30.582-19.488 2.846-9.577.004-23.645-16.506-34.407-.446-.291-.915-.545-1.401-.762l-32.432-14.405c-10.916-7.271-11.304-11.871-11.304-31.05v-90.967h24.628c37.508 0 62.708-29.216 62.708-72.701 0-10.022 3.636-11.459 16.248-14.897 13.209-3.601 32.514-8.871 36.118-36.096 44.093-4.71 78.551-42.142 78.551-87.476 0-48.528-39.457-88.008-87.956-88.008zm-320.042 98.008h38.571l16.72 37.418c-1.225.486-2.424.997-3.581 1.543-13.788 6.543-35.999 7.284-51.71 2.232zm190.778 340.37c.445.291.913.544 1.399.761l32.407 14.394c6.345 4.332 8.421 8.883 7.632 11.539-.768 2.581-4.593 5.185-11.411 5.185h-131.568c-6.826 0-10.656-2.608-11.423-5.192-.788-2.653 1.292-7.201 7.642-11.53l32.409-14.396c.485-.216.954-.47 1.399-.761 21.033-13.703 21.033-28.187 21.033-48.233v-90.967h29.448v90.967c0 20.046 0 34.529 21.033 48.233zm119.264-272.391c0 20.307-8.27 22.561-21.974 26.297-12.34 3.364-30.988 8.447-30.988 34.193 0 25.477-11.22 52.701-42.708 52.701h-108.728c-29.049 0-52.682-23.642-52.682-52.701 0-25.746-18.648-30.829-30.988-34.193-13.703-3.735-21.974-5.99-21.974-26.297v-6.074c7.272 1.706 15.136 2.566 23.005 2.566 13.41 0 26.819-2.479 37.262-7.434 3.146-1.486 6.735-2.666 10.578-3.553.239-.044.476-.101.713-.163 15.09-3.307 33.958-2.072 46.179 3.708 20.909 9.92 53.664 9.921 74.559.005 15.562-7.362 41.888-7.36 57.464-.005 16.583 7.868 40.616 9.488 60.284 4.874v6.076zm-57.215-87.979c1.67-11.289 6.118-21.681 12.63-30.457l30.448 30.457zm57.215-14.147-30.452-30.461c8.773-6.525 19.164-10.984 30.452-12.657zm77.215 14.147h-43.086l30.446-30.471c6.518 8.778 10.97 19.176 12.64 30.471zm-57.215-57.266c11.282 1.673 21.668 6.127 30.437 12.647l-30.437 30.462zm0 134.503v-43.091l30.439 30.448c-8.77 6.518-19.156 10.971-30.439 12.643zm44.578-26.787-30.441-30.45h43.078c-1.671 11.286-6.122 21.677-12.637 30.45z"/>
  </g>
  <g transform="matrix(0.090322, 0, 0, 0.090322, 143.314178, 241.200531)" style="">
    <g>
      <path d="M265.85,325.069c-2.64,0-5.21-1.06-7.08-2.92c-1.86-1.859-2.92-4.439-2.92-7.069c0-2.641,1.06-5.21,2.92-7.08 c1.87-1.86,4.44-2.92,7.08-2.92c2.63,0,5.21,1.06,7.07,2.92c1.86,1.87,2.93,4.439,2.93,7.08c0,2.63-1.069,5.2-2.93,7.069 C271.05,324.01,268.48,325.069,265.85,325.069z" style="fill: rgb(255, 182, 0);"/>
    </g>
  </g>
  <g transform="matrix(0.090322, 0, 0, 0.090322, 143.314178, 241.200531)" style="">
    <g>
      <path d="M256,0c-35.29,0-64,28.71-64,64s28.71,64,64,64s64-28.71,64-64S291.289,0,256,0z M256,108.307 c-24.431,0-44.308-19.876-44.308-44.308S231.569,19.692,256,19.692S300.307,39.569,300.307,64S280.432,108.307,256,108.307z" style="fill: rgb(255, 182, 0);"/>
    </g>
  </g>
  <g transform="matrix(0.090322, 0, 0, 0.090322, 143.314178, 241.200531)" style="">
    <g>
      <path d="M364.307,275.692V177.23c0-27.146-22.085-49.231-49.231-49.231H256h-59.077c-27.146,0-49.231,22.085-49.231,49.231v98.461 c0,21.993,14.495,40.664,34.435,46.959l-33.395,66.79c-1.526,3.052-1.363,6.677,0.431,9.579c1.794,2.903,4.963,4.67,8.376,4.67 h29.538v68.258c0,21.532,17.205,39.492,38.351,40.036c0.349,0.009,0.7,0.014,1.048,0.014c10.332,0,20.052-3.946,27.472-11.177 c0.715-0.696,1.398-1.414,2.052-2.152c0.661,0.746,1.353,1.472,2.075,2.175c7.686,7.478,17.834,11.443,28.564,11.139 c21.11-0.578,38.285-18.515,38.285-39.983v-68.309h29.538c3.413,0,6.582-1.766,8.376-4.67c1.793-2.903,1.956-6.527,0.431-9.579 l-33.395-66.79C349.813,316.355,364.307,297.685,364.307,275.692z M344.615,275.692c0,12.835-8.232,23.78-19.692,27.845v-27.845 c0-5.438-4.409-9.846-9.846-9.846c-5.437,0-9.846,4.408-9.846,9.846v39.385c0,0.186,0.018,0.369,0.028,0.552 c0.006,0.109,0.007,0.219,0.017,0.328c0.034,0.388,0.088,0.771,0.166,1.145c0.001,0.004,0.002,0.008,0.003,0.011 c0.079,0.376,0.185,0.741,0.306,1.101c0.029,0.084,0.061,0.166,0.092,0.25c0.107,0.293,0.228,0.58,0.362,0.86 c0.025,0.051,0.04,0.105,0.066,0.156l32.26,64.521h-23.453h-39.385c-5.437,0-9.846,4.408-9.846,9.846 c0,5.438,4.409,9.846,9.846,9.846h29.538V472c0,10.904-8.583,20.009-19.133,20.299c-5.39,0.136-10.449-1.83-14.291-5.569 c-3.843-3.741-5.961-8.753-5.961-14.115v-59.077c0-5.438-4.409-9.846-9.846-9.846c-5.437,0-9.846,4.408-9.846,9.846v59.077 c0,5.356-2.113,10.365-5.95,14.105c-3.836,3.738-8.933,5.718-14.268,5.581c-10.568-0.272-19.167-9.401-19.167-20.35v-78.104 c0-5.438-4.409-9.846-9.846-9.846H173.47l29.538-59.077h33.299c5.437,0,9.846-4.408,9.846-9.846c0-5.438-4.409-9.846-9.846-9.846 h-29.538v-29.538c0-5.438-4.409-9.846-9.846-9.846c-5.437,0-9.846,4.408-9.846,9.846v27.845 c-11.46-4.065-19.692-15.008-19.692-27.845V177.23c0-16.287,13.251-29.538,29.538-29.538h118.154 c16.287,0,29.538,13.251,29.538,29.538V275.692z" style="fill: rgb(255, 182, 0);"/>
    </g>
  </g>
  <g transform="matrix(0.16047, 0, 0, 0.16047, 106.848602, 216.866898)" style="">
    <g>
      <path d="M511.987,143.501c-0.099-5.754-1.493-11.509-4.212-16.866l-17.781-35.03V49.999C489.993,22.429,467.564,0,439.994,0 H72.005C44.435,0,22.006,22.429,22.006,49.999v41.606l-17.782,35.03c-2.719,5.357-4.113,11.113-4.212,16.866 c0,0.036-0.005,0.071-0.005,0.107v358.392c0,5.523,4.478,10,10,10h491.987c5.522,0,10-4.477,10-10V143.608 C511.992,143.572,511.987,143.537,511.987,143.501z M42.004,61.998h90.333c5.522,0,10-4.477,10-10c0-5.523-4.478-10-10-10H43.096 c3.511-12.669,15.137-21.999,28.907-21.999h367.99c16.542,0,29.999,13.458,29.999,29.999v33.999H42.004V61.998z M121.31,182.795 h5.385c16.925,0,31.956-8.242,41.307-20.918c9.351,12.677,24.381,20.918,41.307,20.918h5.385c16.925,0,31.956-8.242,41.307-20.918 c9.351,12.677,24.381,20.918,41.307,20.918h5.385c16.924,0,31.956-8.242,41.307-20.918c9.351,12.677,24.381,20.918,41.307,20.918 h5.385c16.925,0,31.956-8.242,41.307-20.918c5.149,6.98,12.023,12.606,19.985,16.26v273.852H60.018V178.136 c7.963-3.654,14.837-9.28,19.985-16.26C89.354,174.553,104.385,182.795,121.31,182.795z M90.002,131.489v-27.492h67.999v27.492 c0,17.263-14.045,31.306-31.307,31.306h-5.385C104.047,162.796,90.002,148.752,90.002,131.489z M178,131.489v-27.492h67.999 v27.492c0,17.263-14.045,31.306-31.307,31.306h-5.385C192.044,162.796,178,148.752,178,131.489z M265.997,131.489v-27.492h67.999 v27.492c0,17.263-14.045,31.306-31.307,31.306h-5.385C280.042,162.796,265.997,148.752,265.997,131.489z M353.995,131.489v-27.492 h67.999v27.492c0,17.263-14.045,31.306-31.307,31.306h-5.385C368.039,162.796,353.995,148.752,353.995,131.489z M22.057,135.686 l16.087-31.689h31.86v27.492c0,17.263-14.045,31.306-31.307,31.306c-6.636,0-12.433-3.244-15.904-8.899 c-1.714-2.793-2.644-5.825-2.788-8.892v-1.397c0-0.034-0.005-0.067-0.005-0.102C20.098,140.856,20.777,138.206,22.057,135.686z M491.991,492.001H20.005V178.012c5.61,3.095,12,4.783,18.691,4.783c0.443,0,0.881-0.022,1.321-0.034v279.226 c0,5.523,4.478,10,10,10h411.962c5.522,0,10-4.477,10-10V182.761c0.44,0.011,0.878,0.034,1.321,0.034 c6.693,0,13.082-1.688,18.691-4.783V492.001z M491.992,143.608v1.397c-0.144,3.067-1.074,6.099-2.788,8.892 c-3.472,5.655-9.269,8.899-15.904,8.899c-17.263,0-31.307-14.045-31.307-31.306v-27.492h31.86l16.087,31.69 c1.279,2.52,1.959,5.17,2.057,7.82C491.997,143.541,491.992,143.574,491.992,143.608z"/>
    </g>
  </g>
  <g transform="matrix(0.102145, 0, 0, 0.102145, 113.140862, 226.264664)" style="">
    <g>
      <path d="M395.995,235.994h-91.901l-41.023-41.023c-3.906-3.905-10.236-3.905-14.143,0l-41.024,41.023h-91.901 c-16.542,0-29.999,13.458-29.999,29.999v119.997c0,16.542,13.458,29.999,29.999,29.999h96.044c5.522,0,10-4.477,10-10 c0-5.523-4.478-10-10-10h-96.044c-5.514,0-10-4.486-10-10V265.993c0-5.514,4.486-10,10-10h96.039h0.01h183.943 c5.514,0,10,4.486,10,10v119.997c0,5.514-4.486,10-10,10h-97.499c-5.522,0-10,4.477-10,10c0,5.523,4.478,10,10,10h97.499 c16.542,0,29.999-13.458,29.999-29.999V265.993C425.994,249.451,412.536,235.994,395.995,235.994z M236.189,235.994l19.809-19.81 l19.81,19.81H236.189z"/>
    </g>
  </g>
  <g transform="matrix(0.102145, 0, 0, 0.102145, 113.140862, 226.264664)" style="">
    <g>
      <path d="M263.067,398.919c-1.859-1.86-4.439-2.93-7.069-2.93s-5.21,1.07-7.07,2.93c-1.86,1.86-2.93,4.44-2.93,7.07 c0,2.63,1.069,5.21,2.93,7.07c1.861,1.86,4.44,2.93,7.07,2.93s5.21-1.07,7.069-2.93c1.86-1.86,2.931-4.44,2.931-7.07 C265.998,403.359,264.928,400.779,263.067,398.919z"/>
    </g>
  </g>
  <g transform="matrix(0.102145, 0, 0, 0.102145, 113.140862, 226.264664)" style="">
    <g>
      <path d="M164.85,315.991c-5.422,0-9.833-3.589-9.833-8s4.411-8,9.833-8c5.423,0,9.834,3.589,9.834,8c0,5.523,4.478,10,10,10 s10-4.477,10-10c0-15.439-13.384-27.999-29.833-27.999s-29.832,12.561-29.832,27.999c0,15.439,13.383,27.999,29.832,27.999 c5.423,0,9.834,3.589,9.834,8s-4.411,8-9.834,8c-5.422,0-9.833-3.589-9.833-8c0-5.523-4.478-10-10-10s-10,4.477-10,10 c0,15.439,13.383,27.999,29.832,27.999c16.45,0,29.833-12.561,29.833-27.999C194.683,328.552,181.3,315.991,164.85,315.991z"/>
    </g>
  </g>
  <g transform="matrix(0.102145, 0, 0, 0.102145, 113.140862, 226.264664)" style="">
    <g>
      <path d="M310.662,351.99h-14.334v-61.998c0-5.523-4.478-10-10-10s-10,4.477-10,10v62.673c0,10.656,8.669,19.325,19.325,19.325 h15.009c5.522,0,10-4.477,10-10C320.662,356.467,316.184,351.99,310.662,351.99z"/>
    </g>
  </g>
  <g transform="matrix(0.102145, 0, 0, 0.102145, 113.140862, 226.264664)" style="">
    <g>
      <path d="M366.979,351.991h-18.652v-16h9.561c5.522,0,10-4.477,10-10c0-5.523-4.478-10-10-10h-9.561v-16h18.652v-0.001 c5.522,0,10-4.477,10-10c0-5.523-4.478-10-10-10h-19.327c-10.656,0-19.324,8.669-19.324,19.324v53.35 c0,10.656,8.669,19.325,19.324,19.325h19.327c5.522,0,10-4.477,10-10C376.979,356.468,372.501,351.991,366.979,351.991z"/>
    </g>
  </g>
  <g transform="matrix(0.102145, 0, 0, 0.102145, 113.140862, 226.264664)" style="">
    <g>
      <path d="M270.694,358.479l-27.001-71.998c-1.464-3.903-5.195-6.489-9.363-6.489s-7.899,2.586-9.363,6.489l-26.999,71.998 c-1.939,5.171,0.681,10.936,5.852,12.875c5.175,1.938,10.936-0.682,12.875-5.852l2.102-5.605c0.426,0.055,0.856,0.094,1.297,0.094 h29.807l2.067,5.511c1.506,4.015,5.315,6.492,9.365,6.492c1.166,0,2.353-0.206,3.51-0.64 C270.013,369.415,272.633,363.651,270.694,358.479z M226.26,339.991l8.07-21.519l8.07,21.519H226.26z"/>
    </g>
  </g>
  <g transform="matrix(0.16047, 0, 0, 0.16047, 106.848602, 216.866898)" style="">
    <g>
      <path d="M190.5,44.929c-1.87-1.86-4.44-2.93-7.07-2.93c-2.64,0-5.21,1.07-7.07,2.93c-1.869,1.86-2.93,4.44-2.93,7.07 s1.061,5.21,2.93,7.07c1.86,1.86,4.43,2.93,7.07,2.93c2.63,0,5.2-1.07,7.07-2.93c1.859-1.86,2.93-4.44,2.93-7.07 S192.36,46.789,190.5,44.929z"/>
    </g>
  </g>
  <g transform="matrix(0.061419, 0, 0, 0.061419, 192.230637, 275.381927)" style="">
    <path d="m464.136 472.864c-1.464-15.27-3.104-30.525-4.917-45.745-3.699-31.045-23.017-56.784-49.505-69.85v-163.269c0-40.804-33.196-74-74-74h-16v-90c0-16.542-13.458-30-30-30h-100c-16.542 0-30 13.458-30 30v90h-16c-40.804 0-74 33.196-74 74v243.413c-15.001 4.344-26 18.205-26 34.587 0 19.851 16.149 36 36 36s36-16.149 36-36c0-5.744-1.352-11.177-3.755-16h75.022c-.587 5.619-1.15 11.24-1.689 16.864-1.806 18.826 12.935 35.136 31.847 35.136h215.149c18.913 0 33.654-16.31 31.848-35.136zm-284.422-442.864c0-5.514 4.486-10 10-10h100c5.514 0 10 4.486 10 10v10h-120zm0 30h120v49.948c-13.945-18.613-35.973-29.948-60-29.948s-46.055 11.335-60 29.948zm102.462 60h-84.925c10.269-12.48 25.702-20 42.462-20s32.195 7.52 42.463 20zm-202.462 368c-8.822 0-16-7.178-16-16s7.178-16 16-16 16 7.178 16 16-7.178 16-16 16zm10-52v-20h10c13.037 0 24.159 8.36 28.286 20zm58.995 0c-4.645-22.795-24.849-40-48.995-40h-10v-150c0-29.823 24.177-54 54-54h47.069c5.511 0 10-4.49 10-10s-4.489-10-10-10h-47.069c-21.239 0-40.505 7.668-54 22 0-29.776 24.225-54 54-54h192c29.775 0 54 24.224 54 54-13.502-14.404-32.7-22-54-22h-54.931c-5.51 0-10 4.49-10 10s4.49 10 10 10h54.931c29.823 0 54 24.177 54 54v99.542c-13.27-23.079-37.86-37.542-65-37.542-29.174 0-55.402 16.711-67.789 42.873-35.075 9.083-62.255 38.806-66.716 76.247-.353 2.959-.698 5.919-1.038 8.88zm218.467-88h-84.925c10.269-12.48 25.702-20 42.462-20s32.195 7.52 42.463 20zm62.683 140h-210.19c-8.196 0-14.634-7.004-13.952-15.172 1.353-16.192 3.369-35.772 5.127-46.518 5.52-33.79 34.46-58.31 68.82-58.31h90.1c34.36 0 63.3 24.52 68.82 58.31 1.756 10.739 3.831 30.299 5.224 46.484.703 8.18-5.739 15.206-13.949 15.206zm-204.076-306c0-5.51 4.49-10 10-10 5.511 0 10 4.49 10 10s-4.489 10-10 10c-5.51 0-10-4.49-10-10z"/>
  </g>
  <g transform="matrix(0.195214, 0, 0, 0.195214, 325.844025, 73.955215)" style="">
    <path d="M 426 137.542 L 426 46.5 C 426 40.977 421.523 36.5 416 36.5 L 376 36.5 C 370.477 36.5 366 40.977 366 46.5 L 366 137.536 L 142 137.514 L 142 46.5 C 142 40.977 137.523 36.5 132 36.5 L 92 36.5 C 86.477 36.5 82 40.977 82 46.5 L 82 137.508 L 20.002 137.502 C 8.956 137.501 0 146.456 0 157.502 L 0 350.142 C 0 355.46 4 360.115 9.306 360.477 C 15.128 360.873 20 356.239 20 350.5 L 20 311.5 L 488 311.5 L 488 672.994 L 20 672.994 L 20 430.747 C 20 425.429 16 420.774 10.694 420.413 C 4.872 420.016 0 424.649 0 430.389 L 0 672.994 C 0 684.04 8.954 692.994 20 692.994 L 488 692.994 C 499.046 692.994 508 684.04 508 672.994 L 508 157.548 C 508 146.503 499.047 137.549 488.002 137.548 L 426 137.542 Z M 386 56.5 L 406 56.5 L 406 137.54 L 386 137.538 L 386 56.5 Z M 102 56.5 L 122 56.5 L 122 137.512 L 102 137.51 L 102 56.5 Z M 20 291.5 L 20 157.5 L 488 157.5 L 488 291.5 L 20 291.5 Z M 0 395.5 C 0 389.99 4.49 385.5 10 385.5 C 15.51 385.5 20 389.99 20 395.5 C 20 401.01 15.51 405.5 10 405.5 C 4.49 405.5 0 401.01 0 395.5 Z M 438 177.5 L 192 177.5 C 175.458 177.5 162 190.958 162 207.5 L 162 241.5 C 162 258.042 175.458 271.5 192 271.5 L 438 271.5 C 454.542 271.5 468 258.042 468 241.5 L 468 207.5 C 468 190.958 454.542 177.5 438 177.5 Z M 448 241.5 C 448 247.014 443.514 251.5 438 251.5 L 192 251.5 C 186.486 251.5 182 247.014 182 241.5 L 182 207.5 C 182 201.986 186.486 197.5 192 197.5 L 438 197.5 C 443.514 197.5 448 201.986 448 207.5 L 448 241.5 Z M 132 214.5 L 108.031 214.5 L 97.102 184.115 C 95.232 178.918 89.507 176.218 84.307 178.09 C 79.111 179.959 76.412 185.687 78.282 190.884 L 86.777 214.499 L 64.571 214.499 L 59.333 200.885 C 57.349 195.73 51.562 193.161 46.409 195.143 C 41.255 197.126 38.683 202.913 40.667 208.067 L 46.99 224.5 L 40.668 240.932 C 38.685 246.086 41.256 251.872 46.41 253.856 C 51.562 255.838 57.349 253.27 59.334 248.114 L 64.572 234.5 L 86.777 234.5 L 78.282 258.115 C 76.413 263.312 79.111 269.04 84.307 270.909 C 89.507 272.781 95.232 270.081 97.102 264.884 L 108.031 234.499 L 132 234.499 C 137.522 234.499 142 230.022 142 224.499 C 142 218.976 137.523 214.5 132 214.5 Z" style="fill: rgb(255, 255, 255);"/>
  </g>
  <rect x="335.379" y="141.831" width="17.867" height="3.64" style="fill: rgb(98, 229, 92);"/>
  <rect x="356.886" y="141.831" width="42.255" height="3.64" style="fill: rgb(98, 229, 92);"/>
  <rect x="405.208" y="141.831" width="9.265" height="3.64" style="fill: rgb(98, 229, 92);"/>
  <rect x="335.379" y="151.575" width="17.867" height="3.64" style="fill: rgb(232, 62, 62);"/>
  <rect x="356.886" y="151.575" width="42.255" height="3.64" style="fill: rgb(232, 62, 62);"/>
  <rect x="405.208" y="151.575" width="9.265" height="3.64" style="fill: rgb(232, 62, 62);"/>
  <rect x="335.379" y="160.569" width="17.867" height="3.64" style="fill: rgb(232, 62, 62);"/>
  <rect x="356.886" y="160.569" width="42.255" height="3.64" style="fill: rgb(232, 62, 62);"/>
  <rect x="405.208" y="160.569" width="9.265" height="3.64" style="fill: rgb(232, 62, 62);"/>
  <rect x="335.379" y="169.135" width="17.867" height="3.64" style="fill: rgb(232, 62, 62);"/>
  <rect x="356.886" y="169.135" width="42.255" height="3.64" style="fill: rgb(232, 62, 62);"/>
  <rect x="405.208" y="169.135" width="9.265" height="3.64" style="fill: rgb(232, 62, 62);"/>
  <rect x="335.379" y="178.343" width="17.867" height="3.64" style="fill: rgb(60, 217, 68);"/>
  <rect x="356.886" y="178.343" width="42.255" height="3.64" style="fill: rgb(60, 217, 68);"/>
  <rect x="405.208" y="178.343" width="9.265" height="3.64" style="fill: rgb(60, 217, 68);"/>
  <rect x="335.379" y="186.908" width="17.867" height="3.64" style="fill: rgb(224, 67, 67);"/>
  <rect x="356.886" y="186.908" width="42.255" height="3.64" style="fill: rgb(224, 67, 67);"/>
  <rect x="405.208" y="186.908" width="9.265" height="3.64" style="fill: rgb(224, 67, 67);"/>
  <rect x="335.379" y="196.545" width="17.867" height="3.64" style="fill: rgb(224, 67, 67);"/>
  <rect x="356.886" y="196.545" width="42.255" height="3.64" style="fill: rgb(224, 67, 67);"/>
  <rect x="405.208" y="196.545" width="9.265" height="3.64" style="fill: rgb(224, 67, 67);"/>
</svg>