<?xml version="1.0" encoding="utf-8"?>
<svg viewBox="0 0 500 312" xmlns="http://www.w3.org/2000/svg">
  <path d="M 59.946 275.703 L 62.119 273.53 C 62.485 273.163 62.485 272.569 62.119 272.203 C 61.752 271.836 61.159 271.836 60.792 272.203 L 58.619 274.376 C 58.252 274.742 58.252 275.336 58.619 275.703 C 58.802 275.886 59.042 275.978 59.283 275.978 C 59.522 275.978 59.762 275.886 59.946 275.703 Z M 59.946 275.703" style=""/>
  <path d="M 100 284.795 C 100 282.623 98.233 280.855 96.06 280.855 L 90.495 280.855 L 90.495 279.402 C 90.495 277.514 88.958 275.978 87.07 275.978 L 79.535 275.978 C 77.646 275.978 76.111 277.514 76.111 279.402 L 76.111 280.855 L 70.544 280.855 C 68.372 280.855 66.604 282.623 66.604 284.795 L 66.604 302.807 C 66.604 303.563 66.819 304.27 67.19 304.871 L 60.221 304.871 L 60.221 282.294 C 63.813 281.832 66.599 278.756 66.599 275.04 C 66.599 271.005 63.317 267.722 59.283 267.722 C 55.248 267.722 51.965 271.005 51.965 275.04 C 51.965 278.756 54.751 281.832 58.344 282.294 L 58.344 311.062 C 58.344 311.58 58.764 312 59.283 312 L 68.856 312 C 69.374 312 69.794 311.58 69.794 311.062 C 69.794 310.544 69.374 310.124 68.856 310.124 L 60.221 310.124 L 60.221 306.746 L 98.119 306.746 L 98.119 310.124 L 76.361 310.124 C 75.842 310.124 75.423 310.544 75.423 311.062 C 75.423 311.58 75.842 312 76.361 312 L 99.057 312 C 99.575 312 99.995 311.58 99.995 311.062 L 99.995 305.809 C 99.995 305.403 99.737 305.059 99.378 304.928 C 99.771 304.315 100 303.587 100 302.807 Z M 93.616 295.849 C 93.616 297.492 92.28 298.828 90.637 298.828 C 88.995 298.828 87.659 297.492 87.659 295.849 C 87.659 294.207 88.995 292.871 90.637 292.871 C 92.28 292.871 93.616 294.207 93.616 295.849 Z M 93.059 291.644 C 92.345 291.232 91.519 290.995 90.637 290.995 C 87.961 290.995 85.783 293.172 85.783 295.849 C 85.783 298.526 87.961 300.704 90.637 300.704 C 91.519 300.704 92.345 300.467 93.059 300.055 L 93.059 304.871 L 73.546 304.871 L 73.546 302.025 L 79.528 302.025 C 80.045 302.025 80.466 301.605 80.466 301.087 C 80.466 300.569 80.045 300.149 79.528 300.149 L 73.546 300.149 L 73.546 295.136 L 74.532 296.122 C 74.716 296.305 74.956 296.397 75.196 296.397 C 75.436 296.397 75.677 296.305 75.859 296.122 L 81.166 290.815 C 81.342 290.64 81.441 290.401 81.441 290.152 C 81.441 289.904 81.342 289.664 81.166 289.489 L 77.452 285.774 C 77.085 285.408 76.491 285.408 76.125 285.774 L 73.546 288.353 L 73.546 282.732 L 93.059 282.732 Z M 72.808 291.744 L 76.788 287.764 L 79.176 290.152 L 75.196 294.132 Z M 77.986 279.402 C 77.986 278.548 78.681 277.854 79.535 277.854 L 87.07 277.854 C 87.924 277.854 88.618 278.548 88.618 279.402 L 88.618 280.855 L 77.986 280.855 Z M 53.841 275.04 C 53.841 272.039 56.282 269.598 59.283 269.598 C 62.282 269.598 64.723 272.039 64.723 275.04 C 64.723 278.039 62.282 280.48 59.283 280.48 C 56.282 280.48 53.841 278.039 53.841 275.04 Z M 68.481 302.807 L 68.481 284.795 C 68.481 283.657 69.406 282.732 70.544 282.732 L 71.67 282.732 L 71.67 290.08 C 71.67 290.127 71.675 290.173 71.682 290.218 L 70.818 291.081 C 70.642 291.257 70.544 291.495 70.544 291.744 C 70.544 291.993 70.642 292.231 70.818 292.407 L 71.67 293.26 L 71.67 304.871 L 70.544 304.871 C 69.406 304.871 68.481 303.945 68.481 302.807 Z M 94.935 304.871 L 94.935 298.21 C 94.935 298.178 94.933 298.145 94.93 298.114 C 95.288 297.437 95.492 296.666 95.492 295.849 C 95.492 295.036 95.29 294.268 94.935 293.594 L 94.935 282.732 L 96.06 282.732 C 97.198 282.732 98.124 283.657 98.124 284.795 L 98.124 302.807 C 98.124 303.945 97.198 304.871 96.06 304.871 Z M 94.935 304.871" style=""/>
  <path d="M 83.28 300.149 C 83.032 300.149 82.791 300.248 82.616 300.424 C 82.442 300.598 82.342 300.839 82.342 301.087 C 82.342 301.334 82.442 301.576 82.616 301.75 C 82.791 301.925 83.033 302.025 83.28 302.025 C 83.527 302.025 83.768 301.925 83.943 301.75 C 84.118 301.576 84.218 301.334 84.218 301.087 C 84.218 300.839 84.118 300.598 83.943 300.424 C 83.769 300.248 83.527 300.149 83.28 300.149 Z M 83.28 300.149" style=""/>
  <path d="M 72.609 310.124 C 72.362 310.124 72.12 310.224 71.944 310.398 C 71.77 310.573 71.67 310.815 71.67 311.062 C 71.67 311.308 71.77 311.55 71.944 311.725 C 72.12 311.899 72.361 312 72.609 312 C 72.855 312 73.097 311.899 73.272 311.725 C 73.446 311.55 73.547 311.308 73.547 311.062 C 73.547 310.815 73.446 310.573 73.272 310.398 C 73.097 310.224 72.855 310.124 72.609 310.124 Z M 72.609 310.124" style=""/>
  <g transform="matrix(0.145385, 0, 0, 0.145385, 426.286041, 213.134735)" style="">
    <path d="m60 268.96c5.51 0 10 4.49 10 10 0 5.511-4.49 10-10 10s-10-4.489-10-10c0-5.51 4.49-10 10-10zm443.159.576-27.935-91.279c-3.853-12.752-15.3-23.413-29.553-25.23 7.892-19.812 5.413-37.78-.736-51.451l-3.347-42.72c-.432-5.511-5.253-9.626-10.763-9.187l-109.195 8.689c-5.555.443-9.676 5.341-9.163 10.889l3.778 40.852-37.601 15.363c-12.424 5.076-4.86 23.59 7.564 18.514l34.432-14.069c.339 13.707 5.02 27.041 13.636 38.143 10.547 13.591 25.712 22.305 42.745 24.578-12.78 13.859-20.021 32.23-20.021 51.169v38.019c-5.233 5.608-11.699 9.94-18.876 12.621l-118.552 44.445c-6.832-3.509-14.572-5.491-22.766-5.491h-53.806c-24.147 0-44.35 17.205-48.995 40h-24.005v-49.077c0-5.321-4.005-9.974-9.314-10.33-5.819-.39-10.676 4.231-10.686 9.958v.02 49.431h-16c-7.7-.01-13.99-6.29-14-14v-162c.01-7.71 6.3-13.99 14-14h16v50.219c0 5.326 4.015 9.981 9.329 10.329 5.823.378 10.671-4.249 10.671-9.981v-60.57c0-5.523-4.477-10-10-10h-26c-18.778 0-34 15.222-34 34v162c0 18.778 15.222 34 34 34h16v44c0 11.046 8.954 20 20 20h190c11.046 0 20-8.954 20-20v-42.006l59.185-21.969c-1.377 3.263-2.5 6.664-3.35 10.179-4.081 16.874-1.361 34.269 7.616 49.007 3.665 6.017 10.546 5.337 13.549 3.452v11.337c0 5.522 4.478 10 10 10h110c5.522 0 10-4.478 10-10v-96.206c18.339-22.298 24.982-52.817 16.159-81.648zm-360.159 83.854h53.807c13.037 0 24.159 8.36 28.286 20h-110.379c4.127-11.64 15.249-20 28.286-20zm117 84-189.999.013s-.001-.004-.001-.013v-44h190zm-4.237-68.052c-7.71-3.519-14.106-8.996-18.643-15.849l31.187-11.642 11.642 31.186c-8.149 1.063-16.478-.178-24.186-3.695zm212.631-145.055 9.27 30.289-9.696 12.572-25.105-7.439c-2.683-8.815-5.786-18.982-8.55-27.965 1.037-1.831 6.516-5.779 16.1-7.891 9.69-2.137 16.364-.803 17.981.434zm-36.99-48.442c9.241-6.257 21.273-2.584 24.695 8.27l5.688 18.586c-4.631-.094-10.307.438-15.681 1.622-7.109 1.567-13.242 3.959-18.177 6.956-3.366-10.866-8.237-25.515-3.286-30.936 1.845-2.02 4.158-2.736 6.761-4.498zm-6.136 130.848-4.184 2.554c-13.52-29.919-22.558-52.227-26.896-66.403-4.308-14.075-3.107-28.952 3.359-42.099 1.645-1.361 3.698-2.991 6.14-4.875 1.197 8.929 27.51 94.241 27.672 94.776 1.871 6.116-.633 12.715-6.091 16.047zm-89.401-201.543-2.61-27.651 89.229-7.111 1.885 24.594zm14.211 50.643c-7.264-8.677-10.188-19.973-9.311-31.074l87.778-10.085c5.583 17.671-.127 36.567-15.329 49.121-10.624 8.774-40.41 19.188-63.138-7.962zm26.922 98.888c5.186 15.281 14.201 37.102 26.884 65.067l-26.884 16.414zm-77.916 112.428-12.041-32.253 58.076-21.68c4.147-1.549 8.125-3.489 11.881-5.784v38.095zm57.192 45.968c-2.646-7.899-3.021-16.429-1.002-24.777 2.018-8.344 6.246-15.754 12.202-21.57l17.596 28.822zm110.724 24.317h-90v-13.517l10.652-6.483h79.348zm-46.486-40 16.568-10.083c1.626 3.333 3.274 6.697 4.938 10.083zm46.486 0h-2.68c-3.427-6.929-6.799-13.794-10.079-20.526l12.76-7.766v28.292zm-12.637-44.013-52.206 31.772-18.198-29.808 51.729-31.582c13.059-7.974 19.755-23.074 14.154-41.126l19.016 5.635c5.108 1.316 8.834-.984 10.76-3.481l5.177-6.713c7.597 28.972-4.656 59.615-30.432 75.303z" style="fill: rgb(255, 255, 255);"/>
  </g>
  <g transform="matrix(0.225831, 0, 0, 0.225831, 126.787605, 206.762772)" style="">
    <path d="m246.29 56c0-5.51 4.48-10 10-10 5.51 0 9.99 4.49 9.99 10s-4.48 10-9.99 10c-5.52 0-10-4.49-10-10zm265.71 240v160c0 5.522-4.477 10-10 10h-137c-5.523 0-10-4.478-10-10v-310h-198v310c0 5.522-4.477 10-10 10h-137c-5.523 0-10-4.478-10-10v-160c0-5.522 4.477-10 10-10h87v-220c0-5.34 2.08-10.37 5.86-14.141 3.77-3.779 8.8-5.859 14.14-5.859h94.29c5.51 0 9.99 4.49 9.99 10s-4.48 10-9.99 10h-94.29v60h70.714c-1.11-3.129-1.714-6.495-1.714-10 0-16.542 13.458-30 30-30s30 13.458 30 30c0 3.505-.604 6.871-1.714 10h23.428c-1.11-3.129-1.714-6.495-1.714-10 0-16.542 13.458-30 30-30s30 13.458 30 30c0 3.505-.604 6.871-1.714 10h70.714v-60h-93.71c-5.52 0-10-4.48-10-10 0-5.51 4.48-10 10-10h93.71c5.35 0 10.37 2.08 14.14 5.859 3.78 3.771 5.86 8.801 5.86 14.141v220h87c5.523 0 10 4.478 10 10zm-97 10v20h77v-20zm-119-180c5.514 0 10-4.486 10-10s-4.486-10-10-10-10 4.486-10 10 4.486 10 10 10zm-80 0c5.514 0 10-4.486 10-10s-4.486-10-10-10-10 4.486-10 10 4.486 10 10 10zm-196 180v20h77v-20zm0 140h77v-100h-77zm117-300h-20v300h20zm238 300h20v-300h-20zm117 0v-100h-77v100z"/>
  </g>
  <g transform="matrix(0.123495, 0, 0, 0.123495, 153.71579, 248.770782)" style="">
    <g>
      <path d="M265.85,325.069c-2.64,0-5.21-1.06-7.08-2.92c-1.86-1.859-2.92-4.439-2.92-7.069c0-2.641,1.06-5.21,2.92-7.08 c1.87-1.86,4.44-2.92,7.08-2.92c2.63,0,5.21,1.06,7.07,2.92c1.86,1.87,2.93,4.439,2.93,7.08c0,2.63-1.069,5.2-2.93,7.069 C271.05,324.01,268.48,325.069,265.85,325.069z" style="fill: rgb(255, 182, 0);"/>
    </g>
  </g>
  <g transform="matrix(0.123495, 0, 0, 0.123495, 153.71579, 248.770782)" style="">
    <g>
      <path d="M256,0c-35.29,0-64,28.71-64,64s28.71,64,64,64s64-28.71,64-64S291.289,0,256,0z M256,108.307 c-24.431,0-44.308-19.876-44.308-44.308S231.569,19.692,256,19.692S300.307,39.569,300.307,64S280.432,108.307,256,108.307z" style="fill: rgb(255, 182, 0);"/>
    </g>
  </g>
  <g transform="matrix(0.123495, 0, 0, 0.123495, 153.71579, 248.770782)" style="">
    <g>
      <path d="M364.307,275.692V177.23c0-27.146-22.085-49.231-49.231-49.231H256h-59.077c-27.146,0-49.231,22.085-49.231,49.231v98.461 c0,21.993,14.495,40.664,34.435,46.959l-33.395,66.79c-1.526,3.052-1.363,6.677,0.431,9.579c1.794,2.903,4.963,4.67,8.376,4.67 h29.538v68.258c0,21.532,17.205,39.492,38.351,40.036c0.349,0.009,0.7,0.014,1.048,0.014c10.332,0,20.052-3.946,27.472-11.177 c0.715-0.696,1.398-1.414,2.052-2.152c0.661,0.746,1.353,1.472,2.075,2.175c7.686,7.478,17.834,11.443,28.564,11.139 c21.11-0.578,38.285-18.515,38.285-39.983v-68.309h29.538c3.413,0,6.582-1.766,8.376-4.67c1.793-2.903,1.956-6.527,0.431-9.579 l-33.395-66.79C349.813,316.355,364.307,297.685,364.307,275.692z M344.615,275.692c0,12.835-8.232,23.78-19.692,27.845v-27.845 c0-5.438-4.409-9.846-9.846-9.846c-5.437,0-9.846,4.408-9.846,9.846v39.385c0,0.186,0.018,0.369,0.028,0.552 c0.006,0.109,0.007,0.219,0.017,0.328c0.034,0.388,0.088,0.771,0.166,1.145c0.001,0.004,0.002,0.008,0.003,0.011 c0.079,0.376,0.185,0.741,0.306,1.101c0.029,0.084,0.061,0.166,0.092,0.25c0.107,0.293,0.228,0.58,0.362,0.86 c0.025,0.051,0.04,0.105,0.066,0.156l32.26,64.521h-23.453h-39.385c-5.437,0-9.846,4.408-9.846,9.846 c0,5.438,4.409,9.846,9.846,9.846h29.538V472c0,10.904-8.583,20.009-19.133,20.299c-5.39,0.136-10.449-1.83-14.291-5.569 c-3.843-3.741-5.961-8.753-5.961-14.115v-59.077c0-5.438-4.409-9.846-9.846-9.846c-5.437,0-9.846,4.408-9.846,9.846v59.077 c0,5.356-2.113,10.365-5.95,14.105c-3.836,3.738-8.933,5.718-14.268,5.581c-10.568-0.272-19.167-9.401-19.167-20.35v-78.104 c0-5.438-4.409-9.846-9.846-9.846H173.47l29.538-59.077h33.299c5.437,0,9.846-4.408,9.846-9.846c0-5.438-4.409-9.846-9.846-9.846 h-29.538v-29.538c0-5.438-4.409-9.846-9.846-9.846c-5.437,0-9.846,4.408-9.846,9.846v27.845 c-11.46-4.065-19.692-15.008-19.692-27.845V177.23c0-16.287,13.251-29.538,29.538-29.538h118.154 c16.287,0,29.538,13.251,29.538,29.538V275.692z" style="fill: rgb(255, 182, 0);"/>
    </g>
  </g>
  <g transform="matrix(0.193013, 0, 0, 0.193013, 42.11832, 213.177689)" style=""/>
  <g transform="matrix(0.193013, 0, 0, 0.193013, 42.11832, 213.177689)" style=""/>
  <g transform="matrix(0.193013, 0, 0, 0.193013, 42.11832, 213.177689)" style=""/>
  <g transform="matrix(0.193013, 0, 0, 0.193013, 42.11832, 213.177689)" style=""/>
  <g transform="matrix(0.193013, 0, 0, 0.193013, 42.11832, 213.177689)" style=""/>
  <g transform="matrix(0.193013, 0, 0, 0.193013, 42.11832, 213.177689)" style=""/>
  <g transform="matrix(0.193013, 0, 0, 0.193013, 42.11832, 213.177689)" style=""/>
  <g transform="matrix(0.193013, 0, 0, 0.193013, 42.11832, 213.177689)" style=""/>
  <g transform="matrix(0.193013, 0, 0, 0.193013, 42.11832, 213.177689)" style=""/>
  <g transform="matrix(0.193013, 0, 0, 0.193013, 42.11832, 213.177689)" style=""/>
  <g transform="matrix(0.193013, 0, 0, 0.193013, 42.11832, 213.177689)" style=""/>
  <g transform="matrix(0.193013, 0, 0, 0.193013, 42.11832, 213.177689)" style=""/>
  <g transform="matrix(0.193013, 0, 0, 0.193013, 42.11832, 213.177689)" style=""/>
  <g transform="matrix(0.193013, 0, 0, 0.193013, 42.11832, 213.177689)" style=""/>
  <g transform="matrix(0.193013, 0, 0, 0.193013, 42.11832, 213.177689)" style=""/>
  <g transform="matrix(0.171014, 0, 0, 0.171014, 304.992279, 243.103653)" style=""/>
  <g transform="matrix(0.171014, 0, 0, 0.171014, 304.992279, 243.103653)" style=""/>
  <g transform="matrix(0.171014, 0, 0, 0.171014, 304.992279, 243.103653)" style=""/>
  <g transform="matrix(0.171014, 0, 0, 0.171014, 304.992279, 243.103653)" style=""/>
  <g transform="matrix(0.171014, 0, 0, 0.171014, 304.992279, 243.103653)" style=""/>
  <g transform="matrix(0.171014, 0, 0, 0.171014, 304.992279, 243.103653)" style=""/>
  <g transform="matrix(0.171014, 0, 0, 0.171014, 304.992279, 243.103653)" style=""/>
  <g transform="matrix(0.171014, 0, 0, 0.171014, 304.992279, 243.103653)" style=""/>
  <g transform="matrix(0.171014, 0, 0, 0.171014, 304.992279, 243.103653)" style=""/>
  <g transform="matrix(0.171014, 0, 0, 0.171014, 304.992279, 243.103653)" style=""/>
  <g transform="matrix(0.171014, 0, 0, 0.171014, 304.992279, 243.103653)" style=""/>
  <g transform="matrix(0.171014, 0, 0, 0.171014, 304.992279, 243.103653)" style=""/>
  <g transform="matrix(0.171014, 0, 0, 0.171014, 304.992279, 243.103653)" style=""/>
  <g transform="matrix(0.171014, 0, 0, 0.171014, 304.992279, 243.103653)" style=""/>
  <g transform="matrix(0.171014, 0, 0, 0.171014, 304.992279, 243.103653)" style=""/>
  <g/>
  <g/>
  <g/>
  <g/>
  <g/>
  <g/>
  <g/>
  <g/>
  <g/>
  <g/>
  <g/>
  <g/>
  <g/>
  <g/>
  <g/>
  <path d="M 399.577 272.697 C 399.577 268.872 396.467 265.76 392.642 265.76 L 365.824 265.76 L 365.824 228.771 C 365.824 227.494 364.789 226.459 363.512 226.459 L 348.484 226.459 L 348.484 222.991 C 348.484 218.529 344.854 214.899 340.393 214.899 C 335.931 214.899 332.301 218.529 332.301 222.991 L 332.301 226.459 L 317.273 226.459 C 315.997 226.459 314.962 227.494 314.962 228.771 L 314.962 231.083 C 314.962 232.36 315.997 233.395 317.273 233.395 C 318.55 233.395 319.586 232.36 319.586 231.083 L 361.2 231.083 L 361.2 307.376 L 319.586 307.376 L 319.586 249.578 C 319.586 248.301 318.55 247.267 317.273 247.267 C 315.997 247.267 314.962 248.301 314.962 249.578 L 314.962 265.76 L 288.143 265.76 C 284.319 265.76 281.208 268.872 281.208 272.697 C 281.208 275.71 283.14 278.28 285.832 279.234 L 285.832 309.688 C 285.832 310.964 286.866 312 288.143 312 L 392.642 312 C 393.919 312 394.954 310.964 394.954 309.688 L 394.954 279.234 C 397.645 278.28 399.577 275.71 399.577 272.697 Z M 336.924 222.991 C 336.924 221.08 338.48 219.523 340.393 219.523 C 342.304 219.523 343.86 221.08 343.86 222.991 L 343.86 226.459 L 336.924 226.459 Z M 314.962 275.008 L 313.574 275.008 L 313.574 270.384 L 314.962 270.384 Z M 295.08 275.008 L 295.08 270.384 L 299.703 270.384 L 299.703 275.008 Z M 304.327 270.384 L 308.95 270.384 L 308.95 275.008 L 304.327 275.008 Z M 288.143 270.384 L 290.456 270.384 L 290.456 275.008 L 288.143 275.008 C 286.868 275.008 285.832 273.97 285.832 272.697 C 285.832 271.421 286.868 270.384 288.143 270.384 Z M 290.456 307.376 L 290.456 279.632 L 314.962 279.632 L 314.962 307.376 Z M 394.954 272.697 C 394.954 273.97 393.917 275.008 392.642 275.008 L 390.33 275.008 L 390.33 270.384 L 392.642 270.384 C 393.917 270.384 394.954 271.421 394.954 272.697 Z M 371.834 275.008 L 371.834 270.384 L 376.458 270.384 L 376.458 275.008 Z M 381.082 270.384 L 385.706 270.384 L 385.706 275.008 L 381.082 275.008 Z M 367.21 270.384 L 367.21 275.008 L 365.824 275.008 L 365.824 270.384 Z M 365.824 307.376 L 365.824 279.632 L 390.33 279.632 L 390.33 307.376 Z M 365.824 307.376" style=""/>
  <path d="M 356.576 251.89 C 356.576 249.339 354.502 247.266 351.952 247.266 L 328.833 247.266 C 326.284 247.266 324.21 249.339 324.21 251.89 L 324.21 275.008 C 324.21 277.558 326.284 279.632 328.833 279.632 L 351.952 279.632 C 354.502 279.632 356.576 277.558 356.576 275.008 Z M 351.952 275.008 L 328.833 275.008 L 328.833 251.89 L 351.952 251.89 Z M 351.952 275.008" style=""/>
  <path d="M 317.273 242.643 C 318.55 242.643 319.586 241.609 319.586 240.332 L 319.586 240.33 C 319.586 239.053 318.55 238.019 317.273 238.019 C 315.997 238.019 314.962 239.054 314.962 240.332 C 314.962 241.609 315.997 242.643 317.273 242.643 Z M 317.273 242.643" style=""/>
  <path d="M 340.394 284.256 C 339.117 284.256 338.081 285.291 338.081 286.568 C 338.081 287.844 339.117 288.88 340.394 288.88 L 354.264 288.88 C 355.54 288.88 356.576 287.844 356.576 286.568 C 356.576 285.291 355.54 284.256 354.264 284.256 Z M 340.394 284.256" style=""/>
  <path d="M 331.145 284.256 C 329.868 284.256 328.833 285.291 328.833 286.568 C 328.833 287.844 329.87 288.88 331.146 288.88 C 332.423 288.88 333.457 287.844 333.457 286.568 C 333.457 285.291 332.423 284.256 331.146 284.256 Z M 331.145 284.256" style=""/>
  <rect x="393.069" y="274.552" width="106.931" height="5.08" style=""/>
  <rect x="393.069" y="307.769" width="106.931" height="4.231" style=""/>
  <rect x="426.286" y="279.632" width="4.982" height="32.368" style=""/>
  <rect x="459.918" y="279.632" width="4.982" height="32.368" style=""/>
  <rect x="495.017" y="275.401" width="4.982" height="32.368" style=""/>
  <g transform="matrix(-0.063898, 0, 0, 0.063898, 499.998993, 149.326447)" style="">
    <path d="m108 77.767c-5.523 0-10 4.477-10 10v8h-16c-2.873 0-5.646.436-8.258 1.244-1.374-25.275-8.657-49.929-21.307-71.786-2.767-4.779-8.883-6.411-13.665-3.646-4.779 2.767-6.412 8.885-3.646 13.665 12.35 21.334 18.876 45.72 18.876 70.523v112c0 15.464 12.536 28 28 28h16v8c0 5.523 4.477 10 10 10h60.048l77.952 78.135v7.865h-226v-32.657c0-5.326-4.019-9.977-9.334-10.321-5.824-.378-10.666 4.235-10.666 9.978v160.657c0 5.326 4.019 9.977 9.334 10.321 5.824.378 10.666-4.235 10.666-9.978v-33.207l226-21.782v10.245c0 23.502 19.232 43.141 42.731 42.738 22.823-.392 41.269-19.079 41.269-41.994v-96c0-21.758-16.631-39.701-37.848-41.793l-32.207-32.207h88.055c5.523 0 10-4.477 10-10v-8h30c5.523 0 10-4.477 10-10v-58h5.749c29.733 0 57.712-14.067 75.447-37.931l26.835-36.109c1.27-1.71 1.97-3.83 1.97-5.96v-10c0-5.523-4.477-10-10-10zm-26 148c-4.411 0-8-3.589-8-8v-94c0-4.411 3.589-8 8-8h16v110zm228 190h-44v-60h44zm-290 8.7v-54.7h226v32.917zm268 31.3c-11.456 0-20.891-8.803-21.905-20h43.81c-1.014 11.196-10.449 20-21.905 20zm-19.514-155.174c-7.558 3.983-13.756 10.201-17.718 17.772l-54.47-54.598h35.362zm41.419 35.174h-43.81c2.905-26.419 40.97-26.613 43.81 0zm68.095-110h-20v-48h20zm85.16-97.87c-13.891 18.7-36.101 29.87-59.4 29.87h-130c-5.52 0-10 4.49-10 10 0 5.52 4.48 10 10 10h64.24v66h-220v-66h65.76c5.51 0 10-4.49 10-10s-4.49-10-10-10h-65.76v-60h367.54zm-244.4 39.87c0-5.51 4.48-10 10-10 5.51 0 10 4.49 10 10s-4.49 10-10 10c-5.52 0-10-4.49-10-10z"/>
  </g>
</svg>