<?xml version="1.0" encoding="utf-8"?>
<svg viewBox="0 0 500 312" xmlns="http://www.w3.org/2000/svg">
  <g transform="matrix(0.135339, 0, 0, 0.135339, 20.040251, 37.871918)" style="">
    <path d="M 426 137.542 L 426 46.5 C 426 40.977 421.523 36.5 416 36.5 L 376 36.5 C 370.477 36.5 366 40.977 366 46.5 L 366 137.536 L 142 137.514 L 142 46.5 C 142 40.977 137.523 36.5 132 36.5 L 92 36.5 C 86.477 36.5 82 40.977 82 46.5 L 82 137.508 L 20.002 137.502 C 8.956 137.501 0 146.456 0 157.502 L 0 350.142 C 0 355.46 4 360.115 9.306 360.477 C 15.128 360.873 20 356.239 20 350.5 L 20 311.5 L 488 311.5 L 488 672.994 L 20 672.994 L 20 430.747 C 20 425.429 16 420.774 10.694 420.413 C 4.872 420.016 0 424.649 0 430.389 L 0 672.994 C 0 684.04 8.954 692.994 20 692.994 L 488 692.994 C 499.046 692.994 508 684.04 508 672.994 L 508 157.548 C 508 146.503 499.047 137.549 488.002 137.548 L 426 137.542 Z M 386 56.5 L 406 56.5 L 406 137.54 L 386 137.538 L 386 56.5 Z M 102 56.5 L 122 56.5 L 122 137.512 L 102 137.51 L 102 56.5 Z M 20 291.5 L 20 157.5 L 488 157.5 L 488 291.5 L 20 291.5 Z M 0 395.5 C 0 389.99 4.49 385.5 10 385.5 C 15.51 385.5 20 389.99 20 395.5 C 20 401.01 15.51 405.5 10 405.5 C 4.49 405.5 0 401.01 0 395.5 Z M 438 177.5 L 192 177.5 C 175.458 177.5 162 190.958 162 207.5 L 162 241.5 C 162 258.042 175.458 271.5 192 271.5 L 438 271.5 C 454.542 271.5 468 258.042 468 241.5 L 468 207.5 C 468 190.958 454.542 177.5 438 177.5 Z M 448 241.5 C 448 247.014 443.514 251.5 438 251.5 L 192 251.5 C 186.486 251.5 182 247.014 182 241.5 L 182 207.5 C 182 201.986 186.486 197.5 192 197.5 L 438 197.5 C 443.514 197.5 448 201.986 448 207.5 L 448 241.5 Z M 132 214.5 L 108.031 214.5 L 97.102 184.115 C 95.232 178.918 89.507 176.218 84.307 178.09 C 79.111 179.959 76.412 185.687 78.282 190.884 L 86.777 214.499 L 64.571 214.499 L 59.333 200.885 C 57.349 195.73 51.562 193.161 46.409 195.143 C 41.255 197.126 38.683 202.913 40.667 208.067 L 46.99 224.5 L 40.668 240.932 C 38.685 246.086 41.256 251.872 46.41 253.856 C 51.562 255.838 57.349 253.27 59.334 248.114 L 64.572 234.5 L 86.777 234.5 L 78.282 258.115 C 76.413 263.312 79.111 269.04 84.307 270.909 C 89.507 272.781 95.232 270.081 97.102 264.884 L 108.031 234.499 L 132 234.499 C 137.522 234.499 142 230.022 142 224.499 C 142 218.976 137.523 214.5 132 214.5 Z" style="fill: rgb(255, 255, 255);"/>
  </g>
  <rect x="26.651" y="84.929" width="12.387" height="2.524" style="fill: rgb(98, 229, 92);"/>
  <rect x="41.562" y="84.929" width="29.295" height="2.524" style="fill: rgb(98, 229, 92);"/>
  <rect x="75.063" y="84.929" width="6.423" height="2.524" style="fill: rgb(98, 229, 92);"/>
  <rect x="26.651" y="91.684" width="12.387" height="2.524" style="fill: rgb(62, 232, 62);"/>
  <rect x="41.562" y="91.684" width="29.295" height="2.524" style="fill: rgb(62, 232, 62);"/>
  <rect x="75.063" y="91.684" width="6.423" height="2.524" style="fill: rgb(62, 232, 62);"/>
  <rect x="26.651" y="97.919" width="12.387" height="2.524" style="fill: rgb(62, 232, 62);"/>
  <rect x="41.562" y="97.919" width="29.295" height="2.524" style="fill: rgb(62, 232, 62);"/>
  <rect x="75.063" y="97.919" width="6.423" height="2.524" style="fill: rgb(62, 232, 62);"/>
  <rect x="26.651" y="103.858" width="12.387" height="2.524" style="fill: rgb(62, 232, 62);"/>
  <rect x="41.562" y="103.858" width="29.295" height="2.524" style="fill: rgb(62, 232, 62);"/>
  <rect x="75.063" y="103.858" width="6.423" height="2.524" style="fill: rgb(62, 232, 62);"/>
  <rect x="26.651" y="110.242" width="12.387" height="2.524" style="fill: rgb(60, 217, 68);"/>
  <rect x="41.562" y="110.242" width="29.295" height="2.524" style="fill: rgb(60, 217, 68);"/>
  <rect x="75.063" y="110.242" width="6.423" height="2.524" style="fill: rgb(60, 217, 68);"/>
  <rect x="26.651" y="116.18" width="12.387" height="2.524" style="fill: rgb(62, 232, 62);"/>
  <rect x="41.562" y="116.18" width="29.295" height="2.524" style="fill: rgb(62, 232, 62);"/>
  <rect x="75.063" y="116.18" width="6.423" height="2.524" style="fill: rgb(62, 232, 62);"/>
  <rect x="26.651" y="122.861" width="12.387" height="2.524" style="fill: rgb(62, 232, 62);"/>
  <rect x="41.562" y="122.861" width="29.295" height="2.524" style="fill: rgb(62, 232, 62);"/>
  <rect x="75.063" y="122.861" width="6.423" height="2.524" style="fill: rgb(62, 232, 62);"/>
  <path d="M 436.432 79.916 C 436.662 79.687 436.794 79.368 436.794 79.044 C 436.794 78.72 436.662 78.402 436.432 78.173 C 436.203 77.942 435.885 77.812 435.561 77.812 C 435.236 77.812 434.917 77.942 434.688 78.173 C 434.458 78.402 434.327 78.719 434.327 79.044 C 434.327 79.368 434.458 79.687 434.688 79.916 C 434.918 80.145 435.236 80.277 435.561 80.277 C 435.885 80.277 436.202 80.145 436.432 79.916 Z M 436.432 79.916" style="fill: rgb(246, 246, 246);"/>
  <path d="M 429.446 110.326 L 423.174 116.598 C 422.693 117.081 422.693 117.861 423.174 118.342 C 423.415 118.584 423.73 118.704 424.045 118.704 C 424.361 118.704 424.676 118.584 424.917 118.342 L 431.19 112.07 C 431.671 111.589 431.671 110.808 431.19 110.326 C 430.708 109.845 429.927 109.845 429.446 110.326 Z M 429.446 110.326" style="fill: rgb(246, 246, 246);"/>
  <path d="M 424.045 92.32 C 424.361 92.32 424.676 92.199 424.917 91.959 L 431.81 85.066 C 432.291 84.585 432.291 83.804 431.81 83.323 C 431.328 82.842 430.547 82.842 430.066 83.323 L 423.174 90.215 C 422.693 90.697 422.693 91.477 423.174 91.959 C 423.415 92.199 423.73 92.32 424.045 92.32 Z M 424.045 92.32" style="fill: rgb(246, 246, 246);"/>
  <path d="M 452.01 115.091 L 450.503 116.598 C 450.021 117.081 450.021 117.861 450.503 118.342 C 450.744 118.584 451.059 118.704 451.374 118.704 C 451.69 118.704 452.006 118.584 452.246 118.342 L 453.754 116.835 C 454.235 116.353 454.235 115.572 453.754 115.091 C 453.272 114.609 452.492 114.609 452.01 115.091 Z M 452.01 115.091" style="fill: rgb(246, 246, 246);"/>
  <path d="M 468.384 88.73 C 461.451 88.73 455.809 94.372 455.809 101.306 C 455.809 108.24 461.451 113.881 468.384 113.881 C 475.319 113.881 480.96 108.24 480.96 101.306 C 480.96 94.372 475.319 88.73 468.384 88.73 Z M 468.384 111.415 C 462.809 111.415 458.274 106.88 458.274 101.306 C 458.274 95.731 462.809 91.196 468.384 91.196 C 473.959 91.196 478.494 95.731 478.494 101.306 C 478.494 106.88 473.959 111.415 468.384 111.415 Z M 468.384 111.415" style="fill: rgb(246, 246, 246);"/>
  <path d="M 480.809 88.818 C 477.626 85.634 473.433 83.829 468.954 83.698 L 480.932 71.72 C 484.826 67.827 486.609 62.258 485.703 56.827 C 485.616 56.307 485.209 55.9 484.69 55.813 C 479.258 54.906 473.69 56.69 469.796 60.584 L 461.071 69.309 L 457.111 68.932 C 457.524 67.626 457.215 66.138 456.181 65.106 C 454.705 63.629 452.301 63.629 450.825 65.106 L 447.88 68.051 L 443.973 67.678 C 444.098 67.3 444.164 66.9 444.164 66.489 C 444.164 65.477 443.77 64.526 443.054 63.811 C 442.339 63.095 441.388 62.701 440.377 62.701 C 439.365 62.701 438.413 63.095 437.699 63.811 L 434.713 66.796 L 429.66 66.313 C 429.295 66.279 428.931 66.408 428.671 66.669 L 423.174 72.166 C 422.896 72.444 422.768 72.838 422.827 73.225 C 422.887 73.613 423.127 73.949 423.475 74.131 L 430.617 77.856 C 430.799 77.952 430.994 77.997 431.187 77.997 C 431.631 77.997 432.061 77.755 432.281 77.333 C 432.596 76.73 432.361 75.984 431.758 75.67 L 426.105 72.722 L 430.003 68.823 L 458.809 71.571 L 446.843 83.538 L 440.502 80.232 C 439.899 79.917 439.154 80.151 438.84 80.755 C 438.525 81.358 438.759 82.103 439.363 82.417 L 445.015 85.365 L 443.078 87.303 C 441.151 89.23 439.462 91.34 438.028 93.599 L 427.305 93.796 C 426.986 93.802 426.681 93.932 426.456 94.157 L 423.59 97.023 C 423.288 97.325 423.164 97.76 423.261 98.176 C 423.358 98.591 423.664 98.927 424.068 99.063 L 433.969 102.402 C 433.481 103.987 433.098 105.614 432.825 107.274 C 432.76 107.666 432.889 108.065 433.17 108.346 C 433.403 108.58 433.717 108.708 434.042 108.708 C 434.108 108.708 434.175 108.702 434.242 108.691 C 435.898 108.418 437.525 108.033 439.113 107.544 L 442.454 117.449 C 442.589 117.852 442.925 118.158 443.34 118.255 C 443.433 118.277 443.528 118.287 443.621 118.287 C 443.945 118.287 444.259 118.16 444.493 117.927 L 447.359 115.061 C 447.585 114.834 447.715 114.53 447.721 114.21 L 447.907 103.487 C 448.945 102.83 449.953 102.119 450.925 101.355 C 450.965 105.972 452.781 110.307 456.051 113.576 C 459.357 116.883 463.753 118.703 468.43 118.703 C 473.106 118.703 477.502 116.883 480.809 113.576 C 484.116 110.269 485.936 105.873 485.936 101.197 C 485.936 96.52 484.116 92.124 480.809 88.818 Z M 452.569 66.849 C 453.084 66.333 453.923 66.333 454.438 66.849 C 454.941 67.352 454.952 68.162 454.472 68.68 L 451.063 68.355 Z M 439.442 65.555 C 439.691 65.305 440.023 65.167 440.377 65.167 C 440.73 65.167 441.061 65.305 441.311 65.555 C 441.56 65.804 441.698 66.136 441.698 66.489 C 441.698 66.842 441.561 67.174 441.311 67.423 L 441.31 67.425 L 437.898 67.099 Z M 426.738 97.361 L 427.847 96.252 L 436.581 96.091 C 435.9 97.379 435.296 98.707 434.774 100.071 Z M 444.822 89.046 L 471.54 62.328 C 474.659 59.209 479.032 57.672 483.392 58.124 C 483.844 62.484 482.307 66.858 479.188 69.977 L 465.174 83.991 C 461.737 84.634 458.576 86.292 456.051 88.818 C 453.543 91.324 451.89 94.459 451.238 97.866 C 446.797 101.887 441.421 104.65 435.593 105.923 C 436.988 99.516 440.156 93.712 444.822 89.046 Z M 445.264 113.669 L 444.155 114.778 L 441.443 106.738 C 442.803 106.216 444.13 105.614 445.416 104.935 Z M 479.065 111.833 C 476.224 114.673 472.447 116.238 468.43 116.238 C 464.412 116.238 460.635 114.673 457.794 111.833 C 454.953 108.992 453.388 105.215 453.388 101.197 C 453.388 97.179 454.953 93.401 457.794 90.561 C 460.635 87.72 464.412 86.155 468.43 86.155 C 472.447 86.155 476.224 87.72 479.065 90.561 C 481.906 93.401 483.471 97.179 483.471 101.197 C 483.471 105.215 481.906 108.992 479.065 111.833 Z M 479.065 111.833" style="fill: rgb(246, 246, 246);"/>
  <path d="M 468.438 95.181 C 468.764 95.181 469.08 95.05 469.311 94.82 C 469.541 94.591 469.671 94.273 469.671 93.948 C 469.671 93.624 469.541 93.307 469.311 93.076 C 469.08 92.848 468.764 92.715 468.438 92.715 C 468.114 92.715 467.795 92.847 467.567 93.076 C 467.337 93.307 467.205 93.624 467.205 93.948 C 467.205 94.274 467.337 94.591 467.567 94.82 C 467.795 95.05 468.114 95.181 468.438 95.181 Z M 468.438 95.181" style="fill: rgb(246, 246, 246);"/>
  <path d="M 468.438 107.238 C 468.114 107.238 467.795 107.369 467.567 107.599 C 467.337 107.828 467.205 108.146 467.205 108.471 C 467.205 108.795 467.337 109.112 467.567 109.342 C 467.795 109.571 468.114 109.704 468.438 109.704 C 468.764 109.704 469.08 109.572 469.311 109.342 C 469.541 109.112 469.671 108.795 469.671 108.471 C 469.671 108.146 469.541 107.828 469.311 107.599 C 469.08 107.369 468.764 107.238 468.438 107.238 Z M 468.438 107.238" style="fill: rgb(246, 246, 246);"/>
  <path d="M 476.553 100.338 C 476.323 100.108 476.006 99.977 475.681 99.977 C 475.357 99.977 475.038 100.108 474.81 100.338 C 474.58 100.568 474.449 100.886 474.449 101.21 C 474.449 101.534 474.58 101.851 474.81 102.081 C 475.038 102.312 475.357 102.443 475.681 102.443 C 476.006 102.443 476.323 102.312 476.553 102.081 C 476.782 101.851 476.914 101.534 476.914 101.21 C 476.914 100.886 476.782 100.568 476.553 100.338 Z M 476.553 100.338" style="fill: rgb(246, 246, 246);"/>
  <path d="M 461.178 99.959 C 460.853 99.959 460.536 100.091 460.306 100.32 C 460.076 100.55 459.945 100.867 459.945 101.191 C 459.945 101.516 460.076 101.834 460.306 102.063 C 460.536 102.292 460.853 102.424 461.178 102.424 C 461.503 102.424 461.82 102.292 462.049 102.063 C 462.278 101.834 462.411 101.516 462.411 101.191 C 462.411 100.867 462.278 100.55 462.049 100.32 C 461.82 100.091 461.503 99.959 461.178 99.959 Z M 461.178 99.959" style="fill: rgb(246, 246, 246);"/>
  <path d="M 472.028 95.919 L 468.384 99.562 L 466.999 98.176 C 466.517 97.695 465.736 97.695 465.255 98.176 C 464.773 98.658 464.773 99.439 465.255 99.919 L 467.513 102.178 C 467.744 102.409 468.057 102.539 468.384 102.539 C 468.711 102.539 469.025 102.409 469.256 102.178 L 473.771 97.662 C 474.253 97.181 474.253 96.4 473.771 95.919 C 473.29 95.437 472.509 95.437 472.028 95.919 Z M 472.028 95.919" style="fill: rgb(246, 246, 246);"/>
  <path d="M 465.608 77.141 C 465.924 77.141 466.24 77.02 466.48 76.78 L 477.73 65.53 C 478.212 65.048 478.212 64.267 477.73 63.786 C 477.249 63.305 476.469 63.305 475.986 63.786 L 464.737 75.036 C 464.255 75.517 464.255 76.298 464.737 76.78 C 464.977 77.02 465.293 77.141 465.608 77.141 Z M 465.608 77.141" style="fill: rgb(246, 246, 246);"/>
  <path d="M 462.121 80.628 C 462.445 80.628 462.763 80.497 462.992 80.267 C 463.223 80.036 463.354 79.72 463.354 79.395 C 463.354 79.07 463.223 78.752 462.992 78.523 C 462.763 78.293 462.446 78.162 462.121 78.162 C 461.797 78.162 461.478 78.293 461.249 78.523 C 461.02 78.752 460.888 79.07 460.888 79.395 C 460.888 79.72 461.02 80.036 461.249 80.267 C 461.479 80.497 461.797 80.628 462.121 80.628 Z M 462.121 80.628" style="fill: rgb(246, 246, 246);"/>
  <path d="M 197.619 286.018 C 196.084 284.109 193.92 282.769 191.527 282.245 L 178.613 279.411 L 178.613 277.889 C 182.122 275.419 184.42 271.337 184.42 266.729 L 184.42 259.698 C 190.433 257.734 193.866 254.601 193.866 251.045 C 193.866 247.985 191.312 245.211 186.674 243.235 C 182.416 241.42 176.784 240.421 170.816 240.421 C 164.848 240.421 159.216 241.42 154.958 243.236 C 150.32 245.212 147.766 247.986 147.766 251.046 C 147.766 254.588 151.172 257.709 157.141 259.675 L 157.141 266.729 C 157.141 271.337 159.44 275.419 162.949 277.889 L 162.949 279.411 L 154.952 281.165 C 154.82 281.175 154.689 281.202 154.559 281.251 C 154.558 281.252 154.556 281.252 154.555 281.253 L 150.034 282.245 C 147.642 282.769 145.478 284.109 143.943 286.018 C 142.408 287.927 141.562 290.327 141.562 292.777 L 141.562 310.602 C 141.562 311.374 142.188 312 142.96 312 L 149.019 312 C 149.791 312 150.417 311.374 150.417 310.602 C 150.417 309.83 149.791 309.205 149.019 309.205 L 144.358 309.205 L 144.358 306.4 L 148.81 306.4 C 149.581 306.4 150.207 305.774 150.207 305.001 C 150.207 304.229 149.581 303.603 148.81 303.603 L 144.358 303.603 L 144.358 300.799 L 148.81 300.799 C 149.581 300.799 150.207 300.173 150.207 299.401 C 150.207 298.629 149.581 298.003 148.81 298.003 L 144.358 298.003 L 144.358 292.777 C 144.358 289.054 146.997 285.773 150.633 284.975 L 154.172 284.199 L 158.205 294.934 L 155.172 297.272 C 154.836 297.531 154.636 297.929 154.628 298.352 C 154.62 298.776 154.805 299.182 155.13 299.453 L 166.817 309.205 L 160.203 309.205 C 159.431 309.205 158.805 309.83 158.805 310.602 C 158.805 311.374 159.431 312 160.203 312 L 198.602 312 C 199.374 312 200 311.374 200 310.602 L 200 292.777 C 200 290.327 199.154 287.927 197.619 286.018 Z M 180.761 296.517 L 183.232 298.423 L 172.95 307.001 L 178.286 282.202 L 184.564 283.579 L 180.305 294.918 C 180.089 295.493 180.274 296.142 180.761 296.517 Z M 170.753 303.921 L 166.661 284.695 L 169.997 286.543 C 170.208 286.661 170.441 286.718 170.675 286.718 C 170.908 286.718 171.142 286.661 171.353 286.543 L 174.917 284.568 Z M 181.625 255.277 L 181.625 256.592 C 181.625 257.173 181.152 257.646 180.569 257.646 L 160.992 257.646 C 160.41 257.646 159.937 257.173 159.937 256.592 L 159.937 253.482 C 159.937 252.9 160.41 252.427 160.992 252.427 L 180.57 252.427 C 181.152 252.427 181.625 252.9 181.625 253.482 Z M 179.94 260.442 C 178.105 261.451 174.876 262.323 170.781 262.323 C 166.685 262.323 163.457 261.451 161.622 260.442 Z M 150.562 251.046 C 150.562 247.342 158.88 243.217 170.816 243.217 C 182.752 243.217 191.07 247.342 191.07 251.046 C 191.07 253.107 188.559 255.229 184.42 256.74 L 184.42 253.482 C 184.42 251.358 182.693 249.631 180.569 249.631 L 160.992 249.631 C 158.869 249.631 157.141 251.358 157.141 253.482 L 157.141 256.592 C 157.141 256.633 157.144 256.674 157.144 256.716 C 153.046 255.206 150.562 253.096 150.562 251.046 Z M 159.937 266.729 L 159.937 262.701 C 160.428 262.999 160.98 263.277 161.59 263.529 C 164.068 264.554 167.332 265.119 170.781 265.119 C 174.23 265.119 177.494 264.554 179.971 263.529 C 180.581 263.276 181.133 262.999 181.625 262.701 L 181.625 266.729 C 181.625 272.708 176.76 277.572 170.781 277.572 C 164.802 277.572 159.937 272.708 159.937 266.729 Z M 170.781 280.368 C 172.559 280.368 174.258 280.026 175.817 279.404 L 175.817 280.387 L 175.698 280.938 L 170.675 283.722 L 165.89 281.071 L 165.744 280.389 L 165.744 279.404 C 167.304 280.026 169.002 280.368 170.781 280.368 Z M 161.185 294.918 L 156.932 283.594 L 163.272 282.203 L 168.552 307.01 L 158.26 298.423 L 160.731 296.517 C 161.217 296.142 161.402 295.493 161.185 294.918 Z M 174.674 309.205 L 186.361 299.453 C 186.686 299.182 186.871 298.777 186.863 298.353 C 186.854 297.929 186.654 297.531 186.318 297.272 L 183.286 294.934 L 187.324 284.184 L 190.928 284.975 C 194.564 285.773 197.204 289.054 197.204 292.777 L 197.204 298.003 L 192.752 298.003 C 191.98 298.003 191.354 298.629 191.354 299.401 C 191.354 300.173 191.98 300.799 192.752 300.799 L 197.204 300.799 L 197.204 303.603 L 192.752 303.603 C 191.98 303.603 191.354 304.229 191.354 305.001 C 191.354 305.774 191.98 306.4 192.752 306.4 L 197.204 306.4 L 197.204 309.205 Z M 174.674 309.205" style="fill: rgb(255, 182, 0);"/>
  <path d="M 172.355 253.639 L 169.206 253.639 C 168.434 253.639 167.808 254.265 167.808 255.037 C 167.808 255.809 168.434 256.435 169.206 256.435 L 172.355 256.435 C 173.127 256.435 173.752 255.809 173.752 255.037 C 173.752 254.265 173.127 253.639 172.355 253.639 Z M 172.355 253.639" style="fill: rgb(255, 182, 0);"/>
  <path d="M 187.16 303.603 C 186.791 303.603 186.432 303.753 186.17 304.014 C 185.91 304.273 185.762 304.634 185.762 305.001 C 185.762 305.369 185.91 305.73 186.17 305.99 C 186.432 306.25 186.793 306.4 187.16 306.4 C 187.528 306.4 187.887 306.25 188.149 305.99 C 188.409 305.73 188.558 305.369 188.558 305.001 C 188.558 304.634 188.409 304.273 188.149 304.014 C 187.888 303.754 187.528 303.603 187.16 303.603 Z M 187.16 303.603" style="fill: rgb(255, 182, 0);"/>
  <path d="M 170.781 273.922 C 171.81 273.922 172.838 273.53 173.621 272.747 C 174.167 272.201 174.167 271.316 173.621 270.77 C 173.075 270.224 172.19 270.224 171.644 270.77 C 171.414 271 171.107 271.127 170.781 271.127 C 170.455 271.127 170.148 271 169.918 270.77 C 169.372 270.224 168.486 270.224 167.94 270.77 C 167.395 271.316 167.395 272.201 167.94 272.747 C 168.723 273.53 169.751 273.922 170.781 273.922 Z M 170.781 273.922" style="fill: rgb(255, 182, 0);"/>
  <path d="M 154.611 309.205 C 154.244 309.205 153.882 309.354 153.622 309.614 C 153.363 309.874 153.213 310.235 153.213 310.602 C 153.213 310.97 153.363 311.331 153.622 311.59 C 153.882 311.851 154.244 312 154.611 312 C 154.979 312 155.34 311.851 155.599 311.59 C 155.86 311.331 156.009 310.97 156.009 310.602 C 156.009 310.235 155.86 309.874 155.599 309.614 C 155.34 309.354 154.979 309.205 154.611 309.205 Z M 154.611 309.205" style="fill: rgb(255, 182, 0);"/>
  <path d="M 277.13 286.135 C 275.602 284.235 273.449 282.901 271.067 282.378 L 262.098 280.411 C 263.515 279.54 264.789 278.429 265.845 277.119 C 267.92 274.546 269.063 271.315 269.063 268.024 L 269.063 259.358 C 269.063 254.603 266.751 250.197 262.853 247.463 L 262.448 245.964 C 262.345 244.4 261.158 243.019 259.075 242.059 C 257.236 241.211 254.822 240.744 252.278 240.744 C 249.734 240.744 247.32 241.211 245.482 242.058 C 243.643 242.906 242.503 244.082 242.19 245.423 C 239.354 246.266 236.797 247.986 234.934 250.322 C 232.89 252.885 231.764 256.094 231.764 259.358 L 231.764 268.024 C 231.764 271.315 232.907 274.546 234.982 277.119 C 236.038 278.429 237.312 279.54 238.73 280.411 L 229.761 282.378 C 227.379 282.901 225.225 284.235 223.697 286.135 C 222.169 288.035 221.327 290.424 221.327 292.863 L 221.327 310.608 C 221.327 311.377 221.95 312 222.719 312 L 233.363 312 C 234.132 312 234.755 311.377 234.755 310.608 C 234.755 309.84 234.132 309.217 233.363 309.217 L 224.11 309.217 L 224.11 306.424 L 228.542 306.424 C 229.31 306.424 229.933 305.801 229.933 305.033 C 229.933 304.264 229.31 303.641 228.542 303.641 L 224.11 303.641 L 224.11 300.85 L 228.542 300.85 C 229.31 300.85 229.933 300.226 229.933 299.457 C 229.933 298.689 229.31 298.066 228.542 298.066 L 224.11 298.066 L 224.11 292.863 C 224.11 289.157 226.737 285.891 230.357 285.097 L 243.189 282.282 C 243.195 282.766 243.452 283.232 243.905 283.483 L 245.853 284.563 C 244.536 284.887 243.169 285.483 242.096 286.556 C 239.13 289.523 239.798 294.733 239.828 294.954 C 239.911 295.574 240.4 296.062 241.02 296.146 C 241.09 296.155 241.674 296.23 242.531 296.23 C 243.419 296.23 244.6 296.15 245.81 295.833 L 248.659 309.217 L 244.497 309.217 C 243.729 309.217 243.105 309.84 243.105 310.608 C 243.105 311.377 243.729 312 244.497 312 L 278.109 312 C 278.878 312 279.501 311.377 279.501 310.608 L 279.501 292.863 C 279.501 290.424 278.659 288.035 277.13 286.135 Z M 253.166 291.909 C 252.23 290.973 251.849 289.583 251.705 288.37 C 251.754 287.863 251.771 287.394 251.771 286.986 C 253.134 286.992 255.269 287.241 256.552 288.524 C 257.879 289.851 258.095 292.093 258.09 293.445 C 258.085 293.445 258.081 293.445 258.075 293.445 C 256.719 293.445 254.481 293.224 253.166 291.909 Z M 250.308 283.85 L 245.336 281.094 C 245.377 280.962 245.4 280.822 245.4 280.677 L 245.4 279.371 C 246.945 280.054 248.653 280.435 250.449 280.435 C 252.217 280.435 253.9 280.066 255.427 279.402 L 255.427 280.677 C 255.427 280.788 255.441 280.895 255.465 280.998 C 255.431 281.014 255.396 281.03 255.362 281.049 Z M 243.152 250.68 L 243.738 249.251 C 244.22 249.645 244.803 250.002 245.482 250.315 C 247.32 251.161 249.734 251.629 252.278 251.629 C 253.017 251.629 253.744 251.588 254.45 251.512 L 255.012 255.476 C 254.683 255.492 254.353 255.489 254.021 255.465 C 249.883 255.163 246.445 254.12 244.291 253.298 C 243.782 253.104 243.383 252.722 243.167 252.225 C 242.952 251.729 242.947 251.18 243.152 250.68 Z M 260.517 249.483 L 261.03 251.38 C 261.263 252.239 260.906 253.131 260.145 253.601 C 259.628 253.919 259.053 254.241 258.438 254.558 C 258.21 254.676 257.975 254.782 257.739 254.878 L 257.188 250.997 C 257.864 250.809 258.498 250.581 259.075 250.315 C 259.617 250.064 260.099 249.786 260.517 249.483 Z M 251.633 259.778 C 254.018 261.94 257.016 263.284 260.191 263.635 L 260.191 267.909 C 260.191 273.281 255.821 277.651 250.449 277.651 C 245.077 277.651 240.707 273.281 240.707 267.909 L 240.707 262.179 L 241.725 262.179 C 245.208 262.179 248.571 261.347 251.605 259.753 Z M 266.279 259.358 L 266.279 268.024 C 266.279 273.069 262.943 277.598 258.21 279.177 L 258.21 277.733 C 261.11 275.437 262.974 271.887 262.974 267.909 L 262.974 262.334 C 262.974 261.575 262.368 260.957 261.612 260.942 C 258.889 260.885 256.269 259.938 254.145 258.259 C 254.303 258.266 254.462 258.27 254.621 258.27 C 256.384 258.27 258.129 257.848 259.712 257.032 C 260.39 256.683 261.028 256.326 261.605 255.97 C 262.932 255.152 263.752 253.741 263.865 252.239 C 265.413 254.258 266.279 256.744 266.279 259.358 Z M 252.278 243.528 C 257.064 243.528 259.674 245.283 259.674 246.186 C 259.674 246.859 258.222 248.007 255.497 248.547 C 255.477 248.55 255.457 248.55 255.436 248.553 C 255.373 248.562 255.313 248.576 255.253 248.593 C 254.382 248.749 253.389 248.845 252.278 248.845 C 247.492 248.845 244.882 247.089 244.882 246.186 C 244.882 245.283 247.492 243.528 252.278 243.528 Z M 234.548 268.024 L 234.548 259.358 C 234.548 254.899 237.038 250.938 240.854 248.948 L 240.577 249.625 C 240.084 250.825 240.098 252.14 240.612 253.33 C 241.129 254.523 242.083 255.435 243.299 255.899 C 244.835 256.485 246.975 257.175 249.538 257.67 C 247.108 258.805 244.459 259.395 241.725 259.395 L 239.315 259.395 C 238.547 259.395 237.924 260.018 237.924 260.787 L 237.924 267.909 C 237.924 271.854 239.757 275.378 242.617 277.676 L 242.617 279.177 C 237.884 277.598 234.548 273.069 234.548 268.024 Z M 242.529 293.448 C 242.527 292.094 242.745 289.844 244.064 288.524 C 245.348 287.241 247.483 286.998 248.846 286.986 C 248.845 287.394 248.862 287.863 248.911 288.369 C 248.768 289.583 248.386 290.973 247.45 291.909 C 246.135 293.224 243.924 293.448 242.568 293.448 C 242.555 293.448 242.542 293.448 242.529 293.448 Z M 249.418 293.877 C 249.762 293.534 250.056 293.158 250.308 292.765 C 250.561 293.158 250.854 293.534 251.199 293.877 C 251.556 294.235 251.946 294.539 252.356 294.798 L 250.386 303.958 L 248.415 294.698 C 248.769 294.461 249.106 294.19 249.418 293.877 Z M 252.102 309.217 L 254.972 295.875 C 256.124 296.157 257.238 296.23 258.084 296.23 C 258.942 296.23 259.525 296.155 259.596 296.146 C 260.217 296.062 260.705 295.574 260.788 294.954 C 260.818 294.734 261.486 289.523 258.52 286.556 C 257.447 285.483 256.081 284.887 254.763 284.563 L 256.712 283.483 C 257.179 283.224 257.438 282.736 257.428 282.236 L 270.47 285.098 C 274.09 285.891 276.717 289.157 276.717 292.863 L 276.717 298.066 L 272.285 298.066 C 271.517 298.066 270.894 298.689 270.894 299.457 C 270.894 300.226 271.517 300.85 272.285 300.85 L 276.717 300.85 L 276.717 303.641 L 272.285 303.641 C 271.517 303.641 270.894 304.264 270.894 305.033 C 270.894 305.801 271.517 306.424 272.285 306.424 L 276.717 306.424 L 276.717 309.217 Z M 252.102 309.217" style="fill: rgb(255, 182, 0);"/>
  <path d="M 266.719 303.641 C 266.352 303.641 265.994 303.79 265.734 304.049 C 265.475 304.308 265.327 304.667 265.327 305.033 C 265.327 305.399 265.475 305.758 265.734 306.017 C 265.994 306.275 266.352 306.424 266.719 306.424 C 267.085 306.424 267.442 306.276 267.703 306.017 C 267.962 305.758 268.11 305.399 268.11 305.033 C 268.11 304.667 267.962 304.308 267.703 304.049 C 267.442 303.79 267.085 303.641 266.719 303.641 Z M 266.719 303.641" style="fill: rgb(255, 182, 0);"/>
  <path d="M 238.93 309.217 C 238.564 309.217 238.205 309.365 237.947 309.624 C 237.687 309.883 237.539 310.242 237.539 310.608 C 237.539 310.974 237.687 311.333 237.947 311.592 C 238.205 311.851 238.564 312 238.93 312 C 239.297 312 239.655 311.851 239.914 311.592 C 240.173 311.333 240.322 310.974 240.322 310.608 C 240.322 310.242 240.174 309.883 239.914 309.624 C 239.655 309.365 239.297 309.217 238.93 309.217 Z M 238.93 309.217" style="fill: rgb(255, 182, 0);"/>
  <path d="M 250.413 274.094 C 251.438 274.094 252.462 273.704 253.241 272.924 C 253.785 272.381 253.785 271.5 253.241 270.956 C 252.697 270.412 251.817 270.412 251.273 270.956 C 251.044 271.186 250.738 271.312 250.413 271.312 C 250.089 271.312 249.783 271.186 249.554 270.956 C 249.011 270.412 248.13 270.412 247.586 270.956 C 247.042 271.5 247.042 272.381 247.586 272.924 C 248.365 273.704 249.39 274.094 250.413 274.094 Z M 250.413 274.094" style="fill: rgb(255, 182, 0);"/>
  <path d="M 342.759 306.433 C 343.126 306.433 343.484 306.284 343.743 306.025 C 344.004 305.767 344.151 305.407 344.151 305.041 C 344.151 304.676 344.004 304.316 343.743 304.058 C 343.484 303.799 343.127 303.65 342.759 303.65 C 342.393 303.65 342.034 303.799 341.776 304.058 C 341.517 304.316 341.368 304.676 341.368 305.041 C 341.368 305.407 341.517 305.767 341.776 306.025 C 342.034 306.284 342.393 306.433 342.759 306.433 Z M 342.759 306.433" style="fill: rgb(255, 182, 0);"/>
  <path d="M 355.804 286.135 C 354.276 284.235 352.122 282.901 349.74 282.379 L 336.884 279.558 L 336.884 277.995 C 339.002 276.504 340.676 274.423 341.667 271.994 L 344.821 271.994 C 346.702 271.994 348.232 270.464 348.232 268.583 L 348.232 263.715 C 348.232 263.676 348.23 263.637 348.229 263.599 C 348.23 263.58 348.232 263.561 348.232 263.541 L 348.232 259.889 C 348.232 249.333 339.643 240.744 329.087 240.744 C 318.531 240.744 309.943 249.333 309.943 259.889 L 309.943 263.541 C 309.943 263.561 309.945 263.58 309.946 263.6 C 309.944 263.639 309.943 263.676 309.943 263.715 L 309.943 268.583 C 309.943 270.464 311.473 271.994 313.354 271.994 L 316.508 271.994 C 317.498 274.423 319.172 276.504 321.29 277.995 L 321.29 279.558 L 308.434 282.379 C 306.052 282.901 303.899 284.235 302.371 286.135 C 300.842 288.036 300 290.425 300 292.863 L 300 294.186 C 300 294.955 300.623 295.578 301.392 295.578 C 302.161 295.578 302.784 294.955 302.784 294.186 L 302.784 292.863 C 302.784 289.357 305.137 286.245 308.456 285.248 L 308.456 309.217 L 302.784 309.217 L 302.784 305.32 C 302.784 304.551 302.161 303.928 301.392 303.928 C 300.623 303.928 300 304.551 300 305.32 L 300 310.609 C 300 311.377 300.623 312 301.392 312 L 329.052 312 C 329.064 312 329.075 311.998 329.087 311.998 C 329.099 311.998 329.111 312 329.123 312 L 356.783 312 C 357.551 312 358.174 311.377 358.174 310.609 L 358.174 292.863 C 358.174 290.425 357.332 288.036 355.804 286.135 Z M 324.074 279.503 C 325.626 280.122 327.317 280.463 329.087 280.463 C 330.857 280.463 332.548 280.122 334.101 279.503 L 334.101 280.475 L 329.165 297.948 L 324.128 279.921 C 324.113 279.867 324.095 279.816 324.074 279.765 Z M 336.163 255.742 C 335.62 255.199 334.738 255.199 334.195 255.742 C 331.253 258.683 327.342 260.303 323.182 260.303 L 318.293 260.303 L 318.293 259.889 C 318.293 253.936 323.135 249.094 329.087 249.094 C 335.039 249.094 339.882 253.936 339.882 259.889 L 339.882 260.303 L 336.046 260.303 C 335.256 260.303 334.499 260.086 333.844 259.679 C 334.661 259.093 335.437 258.435 336.163 257.71 C 336.706 257.167 336.706 256.285 336.163 255.742 Z M 345.449 268.583 C 345.449 268.929 345.167 269.21 344.821 269.21 L 342.665 269.21 L 342.665 263.087 L 344.821 263.087 C 345.167 263.087 345.449 263.368 345.449 263.715 Z M 329.087 243.527 C 338.109 243.527 345.449 250.867 345.449 259.889 L 345.449 260.362 C 345.245 260.325 345.035 260.303 344.821 260.303 L 342.665 260.303 L 342.665 259.889 C 342.665 252.402 336.574 246.311 329.087 246.311 C 321.6 246.311 315.509 252.402 315.509 259.889 L 315.509 260.303 L 313.354 260.303 C 313.139 260.303 312.93 260.325 312.726 260.362 L 312.726 259.889 C 312.726 250.867 320.066 243.527 329.087 243.527 Z M 315.509 269.21 L 313.354 269.21 C 313.008 269.21 312.726 268.929 312.726 268.583 L 312.726 263.715 C 312.726 263.368 313.008 263.087 313.354 263.087 L 315.509 263.087 Z M 318.293 266.885 L 318.293 263.087 L 323.182 263.087 C 326.04 263.087 328.798 262.438 331.29 261.21 C 332.584 262.422 334.264 263.087 336.046 263.087 L 339.882 263.087 L 339.882 266.885 C 339.882 272.837 335.039 277.679 329.087 277.679 C 323.135 277.679 318.293 272.837 318.293 266.885 Z M 321.896 282.275 L 327.817 303.468 C 327.835 303.531 327.858 303.591 327.883 303.65 L 311.24 303.65 L 311.24 293.887 L 316.667 293.887 C 317.436 293.887 318.059 293.263 318.059 292.495 C 318.059 291.726 317.436 291.103 316.667 291.103 L 311.24 291.103 L 311.24 284.613 Z M 311.24 306.433 L 337.193 306.433 C 337.961 306.433 338.585 305.81 338.585 305.041 C 338.585 304.273 337.961 303.65 337.193 303.65 L 330.432 303.65 C 330.457 303.592 330.479 303.533 330.497 303.471 L 336.472 282.318 L 346.935 284.612 L 346.935 291.103 L 341.507 291.103 C 340.739 291.103 340.115 291.726 340.115 292.494 C 340.115 293.263 340.739 293.886 341.507 293.886 L 346.935 293.886 L 346.935 309.217 L 329.123 309.217 C 329.111 309.217 329.099 309.218 329.087 309.218 C 329.075 309.218 329.064 309.217 329.052 309.217 L 311.24 309.217 Z M 355.391 309.217 L 349.718 309.217 L 349.718 285.248 C 353.038 286.245 355.391 289.357 355.391 292.863 Z M 355.391 309.217" style="fill: rgb(255, 182, 0);"/>
  <path d="M 301.392 301.145 C 301.758 301.145 302.117 300.996 302.376 300.737 C 302.635 300.478 302.784 300.119 302.784 299.753 C 302.784 299.387 302.635 299.028 302.376 298.769 C 302.117 298.51 301.758 298.361 301.392 298.361 C 301.026 298.361 300.667 298.51 300.408 298.769 C 300.149 299.028 300 299.385 300 299.753 C 300 300.119 300.149 300.478 300.408 300.737 C 300.667 300.996 301.026 301.145 301.392 301.145 Z M 301.392 301.145" style="fill: rgb(255, 182, 0);"/>
  <path d="M 329.087 274.093 C 330.112 274.093 331.136 273.704 331.915 272.924 C 332.458 272.381 332.458 271.5 331.915 270.956 C 331.371 270.413 330.49 270.413 329.947 270.956 C 329.717 271.186 329.412 271.312 329.087 271.312 C 328.763 271.312 328.457 271.186 328.228 270.956 C 327.684 270.413 326.803 270.413 326.259 270.956 C 325.716 271.5 325.716 272.381 326.259 272.924 C 327.039 273.704 328.063 274.093 329.087 274.093 Z M 329.087 274.093" style="fill: rgb(255, 182, 0);"/>
  <path d="M 104.081 306.433 C 104.448 306.433 104.806 306.284 105.065 306.025 C 105.326 305.767 105.473 305.407 105.473 305.041 C 105.473 304.676 105.326 304.316 105.065 304.058 C 104.806 303.799 104.449 303.65 104.081 303.65 C 103.715 303.65 103.356 303.799 103.098 304.058 C 102.839 304.316 102.69 304.676 102.69 305.041 C 102.69 305.407 102.839 305.767 103.098 306.025 C 103.356 306.284 103.715 306.433 104.081 306.433 Z M 104.081 306.433" style="fill: rgb(255, 182, 0);"/>
  <path d="M 117.126 286.135 C 115.598 284.235 113.444 282.901 111.062 282.379 L 98.206 279.558 L 98.206 277.995 C 100.324 276.504 101.998 274.423 102.989 271.994 L 106.143 271.994 C 108.024 271.994 109.554 270.464 109.554 268.583 L 109.554 263.715 C 109.554 263.676 109.552 263.637 109.551 263.599 C 109.552 263.58 109.554 263.561 109.554 263.541 L 109.554 259.889 C 109.554 249.333 100.965 240.744 90.409 240.744 C 79.853 240.744 71.265 249.333 71.265 259.889 L 71.265 263.541 C 71.265 263.561 71.267 263.58 71.268 263.6 C 71.266 263.639 71.265 263.676 71.265 263.715 L 71.265 268.583 C 71.265 270.464 72.795 271.994 74.676 271.994 L 77.83 271.994 C 78.82 274.423 80.494 276.504 82.612 277.995 L 82.612 279.558 L 69.756 282.379 C 67.374 282.901 65.221 284.235 63.693 286.135 C 62.164 288.036 61.322 290.425 61.322 292.863 L 61.322 294.186 C 61.322 294.955 61.945 295.578 62.714 295.578 C 63.483 295.578 64.106 294.955 64.106 294.186 L 64.106 292.863 C 64.106 289.357 66.459 286.245 69.778 285.248 L 69.778 309.217 L 64.106 309.217 L 64.106 305.32 C 64.106 304.551 63.483 303.928 62.714 303.928 C 61.945 303.928 61.322 304.551 61.322 305.32 L 61.322 310.609 C 61.322 311.377 61.945 312 62.714 312 L 90.374 312 C 90.386 312 90.397 311.998 90.409 311.998 C 90.421 311.998 90.433 312 90.445 312 L 118.105 312 C 118.873 312 119.496 311.377 119.496 310.609 L 119.496 292.863 C 119.496 290.425 118.654 288.036 117.126 286.135 Z M 85.396 279.503 C 86.948 280.122 88.639 280.463 90.409 280.463 C 92.179 280.463 93.87 280.122 95.423 279.503 L 95.423 280.475 L 90.487 297.948 L 85.45 279.921 C 85.435 279.867 85.417 279.816 85.396 279.765 Z M 97.485 255.742 C 96.942 255.199 96.06 255.199 95.517 255.742 C 92.575 258.683 88.664 260.303 84.504 260.303 L 79.615 260.303 L 79.615 259.889 C 79.615 253.936 84.457 249.094 90.409 249.094 C 96.361 249.094 101.204 253.936 101.204 259.889 L 101.204 260.303 L 97.368 260.303 C 96.578 260.303 95.821 260.086 95.166 259.679 C 95.983 259.093 96.759 258.435 97.485 257.71 C 98.028 257.167 98.028 256.285 97.485 255.742 Z M 106.771 268.583 C 106.771 268.929 106.489 269.21 106.143 269.21 L 103.987 269.21 L 103.987 263.087 L 106.143 263.087 C 106.489 263.087 106.771 263.368 106.771 263.715 Z M 90.409 243.527 C 99.431 243.527 106.771 250.867 106.771 259.889 L 106.771 260.362 C 106.567 260.325 106.357 260.303 106.143 260.303 L 103.987 260.303 L 103.987 259.889 C 103.987 252.402 97.896 246.311 90.409 246.311 C 82.922 246.311 76.831 252.402 76.831 259.889 L 76.831 260.303 L 74.676 260.303 C 74.461 260.303 74.252 260.325 74.048 260.362 L 74.048 259.889 C 74.048 250.867 81.388 243.527 90.409 243.527 Z M 76.831 269.21 L 74.676 269.21 C 74.33 269.21 74.048 268.929 74.048 268.583 L 74.048 263.715 C 74.048 263.368 74.33 263.087 74.676 263.087 L 76.831 263.087 Z M 79.615 266.885 L 79.615 263.087 L 84.504 263.087 C 87.362 263.087 90.12 262.438 92.612 261.21 C 93.906 262.422 95.586 263.087 97.368 263.087 L 101.204 263.087 L 101.204 266.885 C 101.204 272.837 96.361 277.679 90.409 277.679 C 84.457 277.679 79.615 272.837 79.615 266.885 Z M 83.218 282.275 L 89.139 303.468 C 89.157 303.531 89.18 303.591 89.205 303.65 L 72.562 303.65 L 72.562 293.887 L 77.989 293.887 C 78.758 293.887 79.381 293.263 79.381 292.495 C 79.381 291.726 78.758 291.103 77.989 291.103 L 72.562 291.103 L 72.562 284.613 Z M 72.562 306.433 L 98.515 306.433 C 99.283 306.433 99.907 305.81 99.907 305.041 C 99.907 304.273 99.283 303.65 98.515 303.65 L 91.754 303.65 C 91.779 303.592 91.801 303.533 91.819 303.471 L 97.794 282.318 L 108.257 284.612 L 108.257 291.103 L 102.829 291.103 C 102.061 291.103 101.437 291.726 101.437 292.494 C 101.437 293.263 102.061 293.886 102.829 293.886 L 108.257 293.886 L 108.257 309.217 L 90.445 309.217 C 90.433 309.217 90.421 309.218 90.409 309.218 C 90.397 309.218 90.386 309.217 90.374 309.217 L 72.562 309.217 Z M 116.713 309.217 L 111.04 309.217 L 111.04 285.248 C 114.36 286.245 116.713 289.357 116.713 292.863 Z M 116.713 309.217" style="fill: rgb(255, 182, 0);"/>
  <path d="M 62.714 301.145 C 63.08 301.145 63.439 300.996 63.698 300.737 C 63.957 300.478 64.106 300.119 64.106 299.753 C 64.106 299.387 63.957 299.028 63.698 298.769 C 63.439 298.51 63.08 298.361 62.714 298.361 C 62.348 298.361 61.989 298.51 61.73 298.769 C 61.471 299.028 61.322 299.385 61.322 299.753 C 61.322 300.119 61.471 300.478 61.73 300.737 C 61.989 300.996 62.348 301.145 62.714 301.145 Z M 62.714 301.145" style="fill: rgb(255, 182, 0);"/>
  <path d="M 90.409 274.093 C 91.434 274.093 92.458 273.704 93.237 272.924 C 93.78 272.381 93.78 271.5 93.237 270.956 C 92.693 270.413 91.812 270.413 91.269 270.956 C 91.039 271.186 90.734 271.312 90.409 271.312 C 90.085 271.312 89.779 271.186 89.55 270.956 C 89.006 270.413 88.125 270.413 87.581 270.956 C 87.038 271.5 87.038 272.381 87.581 272.924 C 88.361 273.704 89.385 274.093 90.409 274.093 Z M 90.409 274.093" style="fill: rgb(255, 182, 0);"/>
  <path d="M 48.181 285.812 C 46.653 283.912 44.5 282.578 42.118 282.055 L 33.149 280.088 C 34.566 279.217 35.84 278.106 36.896 276.796 C 38.971 274.223 40.114 270.992 40.114 267.701 L 40.114 259.035 C 40.114 254.28 37.802 249.874 33.904 247.14 L 33.499 245.641 C 33.396 244.077 32.209 242.696 30.126 241.736 C 28.287 240.888 25.873 240.421 23.329 240.421 C 20.785 240.421 18.371 240.888 16.533 241.735 C 14.694 242.583 13.554 243.759 13.241 245.1 C 10.405 245.943 7.848 247.663 5.985 249.999 C 3.941 252.562 2.815 255.771 2.815 259.035 L 2.815 267.701 C 2.815 270.992 3.958 274.223 6.033 276.796 C 7.089 278.106 8.363 279.217 9.781 280.088 L 0.812 282.055 C -1.57 282.578 -3.724 283.912 -5.252 285.812 C -6.78 287.712 -7.622 290.101 -7.622 292.54 L -7.622 310.285 C -7.622 311.054 -6.999 311.677 -6.23 311.677 L 4.414 311.677 C 5.183 311.677 5.806 311.054 5.806 310.285 C 5.806 309.517 5.183 308.894 4.414 308.894 L -4.839 308.894 L -4.839 306.101 L -0.407 306.101 C 0.361 306.101 0.984 305.478 0.984 304.71 C 0.984 303.941 0.361 303.318 -0.407 303.318 L -4.839 303.318 L -4.839 300.527 L -0.407 300.527 C 0.361 300.527 0.984 299.903 0.984 299.134 C 0.984 298.366 0.361 297.743 -0.407 297.743 L -4.839 297.743 L -4.839 292.54 C -4.839 288.834 -2.212 285.568 1.408 284.774 L 14.24 281.959 C 14.246 282.443 14.503 282.909 14.956 283.16 L 16.904 284.24 C 15.587 284.564 14.22 285.16 13.147 286.233 C 10.181 289.2 10.849 294.41 10.879 294.631 C 10.962 295.251 11.451 295.739 12.071 295.823 C 12.141 295.832 12.725 295.907 13.582 295.907 C 14.47 295.907 15.651 295.827 16.861 295.51 L 19.71 308.894 L 15.548 308.894 C 14.78 308.894 14.156 309.517 14.156 310.285 C 14.156 311.054 14.78 311.677 15.548 311.677 L 49.16 311.677 C 49.929 311.677 50.552 311.054 50.552 310.285 L 50.552 292.54 C 50.552 290.101 49.71 287.712 48.181 285.812 Z M 24.217 291.586 C 23.281 290.65 22.9 289.26 22.756 288.047 C 22.805 287.54 22.822 287.071 22.822 286.663 C 24.185 286.669 26.32 286.918 27.603 288.201 C 28.93 289.528 29.146 291.77 29.141 293.122 C 29.136 293.122 29.132 293.122 29.126 293.122 C 27.77 293.122 25.532 292.901 24.217 291.586 Z M 21.359 283.527 L 16.387 280.771 C 16.428 280.639 16.451 280.499 16.451 280.354 L 16.451 279.048 C 17.996 279.731 19.704 280.112 21.5 280.112 C 23.268 280.112 24.951 279.743 26.478 279.079 L 26.478 280.354 C 26.478 280.465 26.492 280.572 26.516 280.675 C 26.482 280.691 26.447 280.707 26.413 280.726 Z M 14.203 250.357 L 14.789 248.928 C 15.271 249.322 15.854 249.679 16.533 249.992 C 18.371 250.838 20.785 251.306 23.329 251.306 C 24.068 251.306 24.795 251.265 25.501 251.189 L 26.063 255.153 C 25.734 255.169 25.404 255.166 25.072 255.142 C 20.934 254.84 17.496 253.797 15.342 252.975 C 14.833 252.781 14.434 252.399 14.218 251.902 C 14.003 251.406 13.998 250.857 14.203 250.357 Z M 31.568 249.16 L 32.081 251.057 C 32.314 251.916 31.957 252.808 31.196 253.278 C 30.679 253.596 30.104 253.918 29.489 254.235 C 29.261 254.353 29.026 254.459 28.79 254.555 L 28.239 250.674 C 28.915 250.486 29.549 250.258 30.126 249.992 C 30.668 249.741 31.15 249.463 31.568 249.16 Z M 22.684 259.455 C 25.069 261.617 28.067 262.961 31.242 263.312 L 31.242 267.586 C 31.242 272.958 26.872 277.328 21.5 277.328 C 16.128 277.328 11.758 272.958 11.758 267.586 L 11.758 261.856 L 12.776 261.856 C 16.259 261.856 19.622 261.024 22.656 259.43 Z M 37.33 259.035 L 37.33 267.701 C 37.33 272.746 33.994 277.275 29.261 278.854 L 29.261 277.41 C 32.161 275.114 34.025 271.564 34.025 267.586 L 34.025 262.011 C 34.025 261.252 33.419 260.634 32.663 260.619 C 29.94 260.562 27.32 259.615 25.196 257.936 C 25.354 257.943 25.513 257.947 25.672 257.947 C 27.435 257.947 29.18 257.525 30.763 256.709 C 31.441 256.36 32.079 256.003 32.656 255.647 C 33.983 254.829 34.803 253.418 34.916 251.916 C 36.464 253.935 37.33 256.421 37.33 259.035 Z M 23.329 243.205 C 28.115 243.205 30.725 244.96 30.725 245.863 C 30.725 246.536 29.273 247.684 26.548 248.224 C 26.528 248.227 26.508 248.227 26.487 248.23 C 26.424 248.239 26.364 248.253 26.304 248.27 C 25.433 248.426 24.44 248.522 23.329 248.522 C 18.543 248.522 15.933 246.766 15.933 245.863 C 15.933 244.96 18.543 243.205 23.329 243.205 Z M 5.599 267.701 L 5.599 259.035 C 5.599 254.576 8.089 250.615 11.905 248.625 L 11.628 249.302 C 11.135 250.502 11.149 251.817 11.663 253.007 C 12.18 254.2 13.134 255.112 14.35 255.576 C 15.886 256.162 18.026 256.852 20.589 257.347 C 18.159 258.482 15.51 259.072 12.776 259.072 L 10.366 259.072 C 9.598 259.072 8.975 259.695 8.975 260.464 L 8.975 267.586 C 8.975 271.531 10.808 275.055 13.668 277.353 L 13.668 278.854 C 8.935 277.275 5.599 272.746 5.599 267.701 Z M 13.58 293.125 C 13.578 291.771 13.796 289.521 15.115 288.201 C 16.399 286.918 18.534 286.675 19.897 286.663 C 19.896 287.071 19.913 287.54 19.962 288.046 C 19.819 289.26 19.437 290.65 18.501 291.586 C 17.186 292.901 14.975 293.125 13.619 293.125 C 13.606 293.125 13.593 293.125 13.58 293.125 Z M 20.469 293.554 C 20.813 293.211 21.107 292.835 21.359 292.442 C 21.612 292.835 21.905 293.211 22.25 293.554 C 22.607 293.912 22.997 294.216 23.407 294.475 L 21.437 303.635 L 19.466 294.375 C 19.82 294.138 20.157 293.867 20.469 293.554 Z M 23.153 308.894 L 26.023 295.552 C 27.175 295.834 28.289 295.907 29.135 295.907 C 29.993 295.907 30.576 295.832 30.647 295.823 C 31.268 295.739 31.756 295.251 31.839 294.631 C 31.869 294.411 32.537 289.2 29.571 286.233 C 28.498 285.16 27.132 284.564 25.814 284.24 L 27.763 283.16 C 28.23 282.901 28.489 282.413 28.479 281.913 L 41.521 284.775 C 45.141 285.568 47.768 288.834 47.768 292.54 L 47.768 297.743 L 43.336 297.743 C 42.568 297.743 41.945 298.366 41.945 299.134 C 41.945 299.903 42.568 300.527 43.336 300.527 L 47.768 300.527 L 47.768 303.318 L 43.336 303.318 C 42.568 303.318 41.945 303.941 41.945 304.71 C 41.945 305.478 42.568 306.101 43.336 306.101 L 47.768 306.101 L 47.768 308.894 Z M 23.153 308.894" style="fill: rgb(255, 182, 0);"/>
  <path d="M 37.77 303.318 C 37.403 303.318 37.045 303.467 36.785 303.726 C 36.526 303.985 36.378 304.344 36.378 304.71 C 36.378 305.076 36.526 305.435 36.785 305.694 C 37.045 305.952 37.403 306.101 37.77 306.101 C 38.136 306.101 38.493 305.953 38.754 305.694 C 39.013 305.435 39.161 305.076 39.161 304.71 C 39.161 304.344 39.013 303.985 38.754 303.726 C 38.493 303.467 38.136 303.318 37.77 303.318 Z M 37.77 303.318" style="fill: rgb(255, 182, 0);"/>
  <path d="M 9.981 308.894 C 9.615 308.894 9.256 309.042 8.998 309.301 C 8.738 309.56 8.59 309.919 8.59 310.285 C 8.59 310.651 8.738 311.01 8.998 311.269 C 9.256 311.528 9.615 311.677 9.981 311.677 C 10.348 311.677 10.706 311.528 10.965 311.269 C 11.224 311.01 11.373 310.651 11.373 310.285 C 11.373 309.919 11.225 309.56 10.965 309.301 C 10.706 309.042 10.348 308.894 9.981 308.894 Z M 9.981 308.894" style="fill: rgb(255, 182, 0);"/>
  <path d="M 21.464 273.771 C 22.489 273.771 23.513 273.381 24.292 272.601 C 24.836 272.058 24.836 271.177 24.292 270.633 C 23.748 270.089 22.868 270.089 22.324 270.633 C 22.095 270.863 21.789 270.989 21.464 270.989 C 21.14 270.989 20.834 270.863 20.605 270.633 C 20.062 270.089 19.181 270.089 18.637 270.633 C 18.093 271.177 18.093 272.058 18.637 272.601 C 19.416 273.381 20.441 273.771 21.464 273.771 Z M 21.464 273.771" style="fill: rgb(255, 182, 0);"/>
  <path d="M 505.944 286.458 C 504.416 284.558 502.263 283.224 499.881 282.701 L 490.912 280.734 C 492.329 279.863 493.603 278.752 494.659 277.442 C 496.734 274.869 497.877 271.638 497.877 268.347 L 497.877 259.681 C 497.877 254.926 495.565 250.52 491.667 247.786 L 491.262 246.287 C 491.159 244.723 489.972 243.342 487.889 242.382 C 486.05 241.534 483.636 241.067 481.092 241.067 C 478.548 241.067 476.134 241.534 474.296 242.381 C 472.457 243.229 471.317 244.405 471.004 245.746 C 468.168 246.589 465.611 248.309 463.748 250.645 C 461.704 253.208 460.578 256.417 460.578 259.681 L 460.578 268.347 C 460.578 271.638 461.721 274.869 463.796 277.442 C 464.852 278.752 466.126 279.863 467.544 280.734 L 458.575 282.701 C 456.193 283.224 454.039 284.558 452.511 286.458 C 450.983 288.358 450.141 290.747 450.141 293.186 L 450.141 310.931 C 450.141 311.7 450.764 312.323 451.533 312.323 L 462.177 312.323 C 462.946 312.323 463.569 311.7 463.569 310.931 C 463.569 310.163 462.946 309.54 462.177 309.54 L 452.924 309.54 L 452.924 306.747 L 457.356 306.747 C 458.124 306.747 458.747 306.124 458.747 305.356 C 458.747 304.587 458.124 303.964 457.356 303.964 L 452.924 303.964 L 452.924 301.173 L 457.356 301.173 C 458.124 301.173 458.747 300.549 458.747 299.78 C 458.747 299.012 458.124 298.389 457.356 298.389 L 452.924 298.389 L 452.924 293.186 C 452.924 289.48 455.551 286.214 459.171 285.42 L 472.003 282.605 C 472.009 283.089 472.266 283.555 472.719 283.806 L 474.667 284.886 C 473.35 285.21 471.983 285.806 470.91 286.879 C 467.944 289.846 468.612 295.056 468.642 295.277 C 468.725 295.897 469.214 296.385 469.834 296.469 C 469.904 296.478 470.488 296.553 471.345 296.553 C 472.233 296.553 473.414 296.473 474.624 296.156 L 477.473 309.54 L 473.311 309.54 C 472.543 309.54 471.919 310.163 471.919 310.931 C 471.919 311.7 472.543 312.323 473.311 312.323 L 506.923 312.323 C 507.692 312.323 508.315 311.7 508.315 310.931 L 508.315 293.186 C 508.315 290.747 507.473 288.358 505.944 286.458 Z M 481.98 292.232 C 481.044 291.296 480.663 289.906 480.519 288.693 C 480.568 288.186 480.585 287.717 480.585 287.309 C 481.948 287.315 484.083 287.564 485.366 288.847 C 486.693 290.174 486.909 292.416 486.904 293.768 C 486.899 293.768 486.895 293.768 486.889 293.768 C 485.533 293.768 483.295 293.547 481.98 292.232 Z M 479.122 284.173 L 474.15 281.417 C 474.191 281.285 474.214 281.145 474.214 281 L 474.214 279.694 C 475.759 280.377 477.467 280.758 479.263 280.758 C 481.031 280.758 482.714 280.389 484.241 279.725 L 484.241 281 C 484.241 281.111 484.255 281.218 484.279 281.321 C 484.245 281.337 484.21 281.353 484.176 281.372 Z M 471.966 251.003 L 472.552 249.574 C 473.034 249.968 473.617 250.325 474.296 250.638 C 476.134 251.484 478.548 251.952 481.092 251.952 C 481.831 251.952 482.558 251.911 483.264 251.835 L 483.826 255.799 C 483.497 255.815 483.167 255.812 482.835 255.788 C 478.697 255.486 475.259 254.443 473.105 253.621 C 472.596 253.427 472.197 253.045 471.981 252.548 C 471.766 252.052 471.761 251.503 471.966 251.003 Z M 489.331 249.806 L 489.844 251.703 C 490.077 252.562 489.72 253.454 488.959 253.924 C 488.442 254.242 487.867 254.564 487.252 254.881 C 487.024 254.999 486.789 255.105 486.553 255.201 L 486.002 251.32 C 486.678 251.132 487.312 250.904 487.889 250.638 C 488.431 250.387 488.913 250.109 489.331 249.806 Z M 480.447 260.101 C 482.832 262.263 485.83 263.607 489.005 263.958 L 489.005 268.232 C 489.005 273.604 484.635 277.974 479.263 277.974 C 473.891 277.974 469.521 273.604 469.521 268.232 L 469.521 262.502 L 470.539 262.502 C 474.022 262.502 477.385 261.67 480.419 260.076 Z M 495.093 259.681 L 495.093 268.347 C 495.093 273.392 491.757 277.921 487.024 279.5 L 487.024 278.056 C 489.924 275.76 491.788 272.21 491.788 268.232 L 491.788 262.657 C 491.788 261.898 491.182 261.28 490.426 261.265 C 487.703 261.208 485.083 260.261 482.959 258.582 C 483.117 258.589 483.276 258.593 483.435 258.593 C 485.198 258.593 486.943 258.171 488.526 257.355 C 489.204 257.006 489.842 256.649 490.419 256.293 C 491.746 255.475 492.566 254.064 492.679 252.562 C 494.227 254.581 495.093 257.067 495.093 259.681 Z M 481.092 243.851 C 485.878 243.851 488.488 245.606 488.488 246.509 C 488.488 247.182 487.036 248.33 484.311 248.87 C 484.291 248.873 484.271 248.873 484.25 248.876 C 484.187 248.885 484.127 248.899 484.067 248.916 C 483.196 249.072 482.203 249.168 481.092 249.168 C 476.306 249.168 473.696 247.412 473.696 246.509 C 473.696 245.606 476.306 243.851 481.092 243.851 Z M 463.362 268.347 L 463.362 259.681 C 463.362 255.222 465.852 251.261 469.668 249.271 L 469.391 249.948 C 468.898 251.148 468.912 252.463 469.426 253.653 C 469.943 254.846 470.897 255.758 472.113 256.222 C 473.649 256.808 475.789 257.498 478.352 257.993 C 475.922 259.128 473.273 259.718 470.539 259.718 L 468.129 259.718 C 467.361 259.718 466.738 260.341 466.738 261.11 L 466.738 268.232 C 466.738 272.177 468.571 275.701 471.431 277.999 L 471.431 279.5 C 466.698 277.921 463.362 273.392 463.362 268.347 Z M 471.343 293.771 C 471.341 292.417 471.559 290.167 472.878 288.847 C 474.162 287.564 476.297 287.321 477.66 287.309 C 477.659 287.717 477.676 288.186 477.725 288.692 C 477.582 289.906 477.2 291.296 476.264 292.232 C 474.949 293.547 472.738 293.771 471.382 293.771 C 471.369 293.771 471.356 293.771 471.343 293.771 Z M 478.232 294.2 C 478.576 293.857 478.87 293.481 479.122 293.088 C 479.375 293.481 479.668 293.857 480.013 294.2 C 480.37 294.558 480.76 294.862 481.17 295.121 L 479.2 304.281 L 477.229 295.021 C 477.583 294.784 477.92 294.513 478.232 294.2 Z M 480.916 309.54 L 483.786 296.198 C 484.938 296.48 486.052 296.553 486.898 296.553 C 487.756 296.553 488.339 296.478 488.41 296.469 C 489.031 296.385 489.519 295.897 489.602 295.277 C 489.632 295.057 490.3 289.846 487.334 286.879 C 486.261 285.806 484.895 285.21 483.577 284.886 L 485.526 283.806 C 485.993 283.547 486.252 283.059 486.242 282.559 L 499.284 285.421 C 502.904 286.214 505.531 289.48 505.531 293.186 L 505.531 298.389 L 501.099 298.389 C 500.331 298.389 499.708 299.012 499.708 299.78 C 499.708 300.549 500.331 301.173 501.099 301.173 L 505.531 301.173 L 505.531 303.964 L 501.099 303.964 C 500.331 303.964 499.708 304.587 499.708 305.356 C 499.708 306.124 500.331 306.747 501.099 306.747 L 505.531 306.747 L 505.531 309.54 Z M 480.916 309.54" style="fill: rgb(255, 182, 0);"/>
  <path d="M 495.533 303.964 C 495.166 303.964 494.808 304.113 494.548 304.372 C 494.289 304.631 494.141 304.99 494.141 305.356 C 494.141 305.722 494.289 306.081 494.548 306.34 C 494.808 306.598 495.166 306.747 495.533 306.747 C 495.899 306.747 496.256 306.599 496.517 306.34 C 496.776 306.081 496.924 305.722 496.924 305.356 C 496.924 304.99 496.776 304.631 496.517 304.372 C 496.256 304.113 495.899 303.964 495.533 303.964 Z M 495.533 303.964" style="fill: rgb(255, 182, 0);"/>
  <path d="M 467.744 309.54 C 467.378 309.54 467.019 309.688 466.761 309.947 C 466.501 310.206 466.353 310.565 466.353 310.931 C 466.353 311.297 466.501 311.656 466.761 311.915 C 467.019 312.174 467.378 312.323 467.744 312.323 C 468.111 312.323 468.469 312.174 468.728 311.915 C 468.987 311.656 469.136 311.297 469.136 310.931 C 469.136 310.565 468.988 310.206 468.728 309.947 C 468.469 309.688 468.111 309.54 467.744 309.54 Z M 467.744 309.54" style="fill: rgb(255, 182, 0);"/>
  <path d="M 479.227 274.417 C 480.252 274.417 481.276 274.027 482.055 273.247 C 482.599 272.704 482.599 271.823 482.055 271.279 C 481.511 270.735 480.631 270.735 480.087 271.279 C 479.858 271.509 479.552 271.635 479.227 271.635 C 478.903 271.635 478.597 271.509 478.368 271.279 C 477.825 270.735 476.944 270.735 476.4 271.279 C 475.856 271.823 475.856 272.704 476.4 273.247 C 477.179 274.027 478.204 274.417 479.227 274.417 Z M 479.227 274.417" style="fill: rgb(255, 182, 0);"/>
  <g transform="matrix(0.140268, 0, 0, 0.140268, 369.732422, 241.067001)" style="">
    <path d="m243.96 10c0-5.51 4.49-10 10-10s10 4.49 10 10-4.49 10-10 10-10-4.49-10-10zm264.04 419.038v68.962c0 5.523-4.478 10-10 10h-488c-5.522 0-10-4.477-10-10v-68.962c0-20.696 6.939-40.652 19.652-56.831l-1.433-4.051c-1.842-5.207.886-10.921 6.093-12.762l96.5-34.133 51.771-18.312 20.109-25.558c-14.513-16.943-22.692-38.797-22.692-61.236v-46.155c0-5.187 1.074-10.279 3.084-14.969-5.815-3.644-10.297-9.359-12.375-16.401l-2.291-7.766c-4.859-2.386-9.639-4.963-14.269-7.684-6.729-3.96-21.59-15.793-21.59-37.86 0-9.19 2.82-18.02 8.181-25.54 9.409-13.23 20.31-25.44 32.38-36.29 12.39-11.14 27.62-18.69 44.04-21.84h.01c13.074-2.509 16.844 17.131 3.77 19.64-12.858 2.468-24.77 8.37-34.449 17.07-10.99 9.88-20.9 20.99-29.46 33.02-2.921 4.11-4.471 8.93-4.471 13.94.02 8.356 3.865 16.994 14.44 22.269v-8.468c0-11.786 7.171-27.835 41.337-37.355.264-.074 16.395-3.775 24.28-4.799 6.857-10.466 18.622-16.967 31.383-16.967s24.526 6.501 31.383 16.966c7.884 1.024 20.249 3.856 23.484 4.612.266.051.531.113.796.187 34.165 9.523 41.337 25.57 41.337 37.356v8.463c10.568-5.275 14.411-13.911 14.431-22.264 0-5.01-1.55-9.83-4.471-13.94-8.56-12.03-18.47-23.14-29.46-33.02-9.68-8.7-21.591-14.602-34.449-17.07-13.074-2.509-9.305-22.149 3.77-19.64h.01c16.42 3.15 31.65 10.7 44.04 21.84 12.07 10.85 22.971 23.06 32.38 36.29 5.36 7.52 8.181 16.35 8.181 25.54 0 22.067-14.86 33.9-21.59 37.86-4.626 2.719-9.402 5.294-14.257 7.678l-2.291 7.77c-2.079 7.044-6.559 12.761-12.375 16.406 2.01 4.689 3.083 9.78 3.083 14.966l-.014 46.155c0 22.439-8.179 44.293-22.691 61.235l20.11 25.554 51.783 18.317 96.5 34.133c5.207 1.842 7.935 7.556 6.093 12.762l-1.433 4.051c12.711 16.179 19.65 36.135 19.65 56.831zm-65.933-45.937 18.855 6.669 6.669-18.855-18.854-6.669zm-37.71-13.338 18.854 6.669 6.669-18.855-18.855-6.669zm-32.695-22.172 6.093 12.762 7.747 2.74 6.669-18.855-7.747-2.74zm-68.609-53.417-26.894 43.093 17.958 22.316 23.444-46.973zm9.331-210.518c-3.756 5.698-8.261 10.739-13.35 15.022 11.847 2.101 22.764 5.083 31.967 8.946v-8.503c-.001-5.412-6.952-11.072-18.617-15.465zm-95.871-5.52c9.343 10.622 22.84 16.864 37.487 16.864s28.144-6.242 37.487-16.864c-4.252-.765-8.733-1.398-13.42-1.895-3.545-.376-6.622-2.611-8.076-5.866-2.815-6.302-9.092-10.375-15.991-10.375s-13.176 4.073-15.991 10.376c-1.454 3.255-4.531 5.49-8.076 5.866-4.687.496-9.168 1.13-13.42 1.894zm-39.513 29.488c9.203-3.863 20.119-6.845 31.967-8.946-5.089-4.283-9.593-9.324-13.35-15.022-11.666 4.393-18.617 10.053-18.617 15.465zm12.136 31.779c43.04-2.94 86.686-2.94 129.726 0 4.235.294 8.044-2.354 9.248-6.434l1.205-4.088c-33.459-18.632-117.17-18.632-150.629 0l1.206 4.09c1.202 4.077 4.996 6.722 9.244 6.432zm125.233 19.746c-14.737-.956-29.544-1.562-44.368-1.815.097 18.848 13.517 30.666 29.999 30.666 9.925 0 18-8.075 18-18 0-3.994-1.272-7.751-3.631-10.851zm-120.738 0c-2.359 3.1-3.631 6.857-3.631 10.851 0 9.925 8.075 18 18 18 16.451 0 29.852-12.443 29.998-30.666-14.824.253-29.63.858-44.367 1.815zm19.168 110.433 10.517 10.077c5.612 5.379 12.983 8.341 20.757 8.341h19.842c7.774 0 15.146-2.962 20.758-8.34l10.516-10.078c14.489-13.885 22.799-33.359 22.799-53.427v-12.688c-5.359 2.891-11.485 4.533-17.988 4.533-20.62 0-38.364-12.547-46-30.406-7.636 17.859-25.38 30.406-46 30.406-6.508 0-12.639-1.645-18-4.541v12.695c0 20.069 8.31 39.543 22.799 53.428zm19.62 98.851 9.767 19.567h23.629l9.761-19.557-16.451-20.443h-10.264zm17.2-40.433h8.748l12.808-20.524c-2.386.347-31.978.347-34.365 0zm-59.192-15.386 23.442 46.969 17.958-22.316-26.893-43.091zm-74.598 31.624 6.669 18.855 7.747-2.74 6.093-12.762-12.762-6.093zm-37.71 13.339 6.669 18.855 18.854-6.669-6.669-18.855zm-37.71 13.338 6.669 18.855 18.855-6.669-6.669-18.855zm184.556 27.367-6.405-12.833c-4.913 4.46-12.456 2.712-15.622-2.983l-29.287-58.68-23.408 8.28 3.738 1.784c4.983 2.379 7.095 8.349 4.716 13.333l-12.186 25.525c-1.143 2.394-3.189 4.235-5.689 5.12l-96.5 34.133c-5.207 1.842-10.92-.886-12.762-6.093l-3.509-9.919c-5.254 10.147-8.05 21.47-8.05 33.09v58.961h60v-54.484c0-5.523 4.478-10 10-10s10 4.477 10 10v54.484h108v-6.137c-.001-28.932 5.704-57.026 16.964-83.581zm55.035 83.581c0-25.537-4.902-50.353-14.58-73.863h-22.84c-9.678 23.51-14.58 48.326-14.58 73.863v6.137h52zm208-52.825c0-11.62-2.796-22.942-8.05-33.09l-3.509 9.919c-1.842 5.207-7.556 7.935-12.762 6.093l-96.5-34.133c-2.5-.885-4.547-2.726-5.689-5.12l-12.186-25.525c-2.379-4.984-.268-10.953 4.716-13.333l3.738-1.784-23.42-8.284-29.289 58.684c-3.106 6.078-10.246 7.396-15.573 2.911l-6.441 12.905c11.26 26.556 16.965 54.649 16.965 83.582v6.137h108v-54.484c0-5.523 4.478-10 10-10s10 4.477 10 10v54.484h60z" style="fill: rgb(255, 182, 0);"/>
  </g>
</svg>