<?xml version="1.0" encoding="utf-8"?>
<svg viewBox="0 0 500 312" xmlns="http://www.w3.org/2000/svg">
  <g transform="matrix(0.135339, 0, 0, 0.135339, 20.040251, 37.871918)" style="">
    <path d="M 426 137.542 L 426 46.5 C 426 40.977 421.523 36.5 416 36.5 L 376 36.5 C 370.477 36.5 366 40.977 366 46.5 L 366 137.536 L 142 137.514 L 142 46.5 C 142 40.977 137.523 36.5 132 36.5 L 92 36.5 C 86.477 36.5 82 40.977 82 46.5 L 82 137.508 L 20.002 137.502 C 8.956 137.501 0 146.456 0 157.502 L 0 350.142 C 0 355.46 4 360.115 9.306 360.477 C 15.128 360.873 20 356.239 20 350.5 L 20 311.5 L 488 311.5 L 488 672.994 L 20 672.994 L 20 430.747 C 20 425.429 16 420.774 10.694 420.413 C 4.872 420.016 0 424.649 0 430.389 L 0 672.994 C 0 684.04 8.954 692.994 20 692.994 L 488 692.994 C 499.046 692.994 508 684.04 508 672.994 L 508 157.548 C 508 146.503 499.047 137.549 488.002 137.548 L 426 137.542 Z M 386 56.5 L 406 56.5 L 406 137.54 L 386 137.538 L 386 56.5 Z M 102 56.5 L 122 56.5 L 122 137.512 L 102 137.51 L 102 56.5 Z M 20 291.5 L 20 157.5 L 488 157.5 L 488 291.5 L 20 291.5 Z M 0 395.5 C 0 389.99 4.49 385.5 10 385.5 C 15.51 385.5 20 389.99 20 395.5 C 20 401.01 15.51 405.5 10 405.5 C 4.49 405.5 0 401.01 0 395.5 Z M 438 177.5 L 192 177.5 C 175.458 177.5 162 190.958 162 207.5 L 162 241.5 C 162 258.042 175.458 271.5 192 271.5 L 438 271.5 C 454.542 271.5 468 258.042 468 241.5 L 468 207.5 C 468 190.958 454.542 177.5 438 177.5 Z M 448 241.5 C 448 247.014 443.514 251.5 438 251.5 L 192 251.5 C 186.486 251.5 182 247.014 182 241.5 L 182 207.5 C 182 201.986 186.486 197.5 192 197.5 L 438 197.5 C 443.514 197.5 448 201.986 448 207.5 L 448 241.5 Z M 132 214.5 L 108.031 214.5 L 97.102 184.115 C 95.232 178.918 89.507 176.218 84.307 178.09 C 79.111 179.959 76.412 185.687 78.282 190.884 L 86.777 214.499 L 64.571 214.499 L 59.333 200.885 C 57.349 195.73 51.562 193.161 46.409 195.143 C 41.255 197.126 38.683 202.913 40.667 208.067 L 46.99 224.5 L 40.668 240.932 C 38.685 246.086 41.256 251.872 46.41 253.856 C 51.562 255.838 57.349 253.27 59.334 248.114 L 64.572 234.5 L 86.777 234.5 L 78.282 258.115 C 76.413 263.312 79.111 269.04 84.307 270.909 C 89.507 272.781 95.232 270.081 97.102 264.884 L 108.031 234.499 L 132 234.499 C 137.522 234.499 142 230.022 142 224.499 C 142 218.976 137.523 214.5 132 214.5 Z" style="fill: rgb(255, 255, 255);"/>
  </g>
  <rect x="26.651" y="84.929" width="12.387" height="2.524" style="fill: rgb(98, 229, 92);"/>
  <rect x="41.562" y="84.929" width="29.295" height="2.524" style="fill: rgb(98, 229, 92);"/>
  <rect x="75.063" y="84.929" width="6.423" height="2.524" style="fill: rgb(98, 229, 92);"/>
  <rect x="26.651" y="91.684" width="12.387" height="2.524" style="fill: rgb(62, 232, 62);"/>
  <rect x="41.562" y="91.684" width="29.295" height="2.524" style="fill: rgb(62, 232, 62);"/>
  <rect x="75.063" y="91.684" width="6.423" height="2.524" style="fill: rgb(62, 232, 62);"/>
  <rect x="26.651" y="97.919" width="12.387" height="2.524" style="fill: rgb(62, 232, 62);"/>
  <rect x="41.562" y="97.919" width="29.295" height="2.524" style="fill: rgb(62, 232, 62);"/>
  <rect x="75.063" y="97.919" width="6.423" height="2.524" style="fill: rgb(62, 232, 62);"/>
  <rect x="26.651" y="103.858" width="12.387" height="2.524" style="fill: rgb(62, 232, 62);"/>
  <rect x="41.562" y="103.858" width="29.295" height="2.524" style="fill: rgb(62, 232, 62);"/>
  <rect x="75.063" y="103.858" width="6.423" height="2.524" style="fill: rgb(62, 232, 62);"/>
  <rect x="26.651" y="110.242" width="12.387" height="2.524" style="fill: rgb(60, 217, 68);"/>
  <rect x="41.562" y="110.242" width="29.295" height="2.524" style="fill: rgb(60, 217, 68);"/>
  <rect x="75.063" y="110.242" width="6.423" height="2.524" style="fill: rgb(60, 217, 68);"/>
  <rect x="26.651" y="116.18" width="12.387" height="2.524" style="fill: rgb(62, 232, 62);"/>
  <rect x="41.562" y="116.18" width="29.295" height="2.524" style="fill: rgb(62, 232, 62);"/>
  <rect x="75.063" y="116.18" width="6.423" height="2.524" style="fill: rgb(62, 232, 62);"/>
  <rect x="26.651" y="122.861" width="12.387" height="2.524" style="fill: rgb(62, 232, 62);"/>
  <rect x="41.562" y="122.861" width="29.295" height="2.524" style="fill: rgb(62, 232, 62);"/>
  <rect x="75.063" y="122.861" width="6.423" height="2.524" style="fill: rgb(62, 232, 62);"/>
  <path d="M 436.432 79.916 C 436.662 79.687 436.794 79.368 436.794 79.044 C 436.794 78.72 436.662 78.402 436.432 78.173 C 436.203 77.942 435.885 77.812 435.561 77.812 C 435.236 77.812 434.917 77.942 434.688 78.173 C 434.458 78.402 434.327 78.719 434.327 79.044 C 434.327 79.368 434.458 79.687 434.688 79.916 C 434.918 80.145 435.236 80.277 435.561 80.277 C 435.885 80.277 436.202 80.145 436.432 79.916 Z M 436.432 79.916" style="fill: rgb(246, 246, 246);"/>
  <path d="M 429.446 110.326 L 423.174 116.598 C 422.693 117.081 422.693 117.861 423.174 118.342 C 423.415 118.584 423.73 118.704 424.045 118.704 C 424.361 118.704 424.676 118.584 424.917 118.342 L 431.19 112.07 C 431.671 111.589 431.671 110.808 431.19 110.326 C 430.708 109.845 429.927 109.845 429.446 110.326 Z M 429.446 110.326" style="fill: rgb(246, 246, 246);"/>
  <path d="M 424.045 92.32 C 424.361 92.32 424.676 92.199 424.917 91.959 L 431.81 85.066 C 432.291 84.585 432.291 83.804 431.81 83.323 C 431.328 82.842 430.547 82.842 430.066 83.323 L 423.174 90.215 C 422.693 90.697 422.693 91.477 423.174 91.959 C 423.415 92.199 423.73 92.32 424.045 92.32 Z M 424.045 92.32" style="fill: rgb(246, 246, 246);"/>
  <path d="M 452.01 115.091 L 450.503 116.598 C 450.021 117.081 450.021 117.861 450.503 118.342 C 450.744 118.584 451.059 118.704 451.374 118.704 C 451.69 118.704 452.006 118.584 452.246 118.342 L 453.754 116.835 C 454.235 116.353 454.235 115.572 453.754 115.091 C 453.272 114.609 452.492 114.609 452.01 115.091 Z M 452.01 115.091" style="fill: rgb(246, 246, 246);"/>
  <path d="M 468.384 88.73 C 461.451 88.73 455.809 94.372 455.809 101.306 C 455.809 108.24 461.451 113.881 468.384 113.881 C 475.319 113.881 480.96 108.24 480.96 101.306 C 480.96 94.372 475.319 88.73 468.384 88.73 Z M 468.384 111.415 C 462.809 111.415 458.274 106.88 458.274 101.306 C 458.274 95.731 462.809 91.196 468.384 91.196 C 473.959 91.196 478.494 95.731 478.494 101.306 C 478.494 106.88 473.959 111.415 468.384 111.415 Z M 468.384 111.415" style="fill: rgb(246, 246, 246);"/>
  <path d="M 480.809 88.818 C 477.626 85.634 473.433 83.829 468.954 83.698 L 480.932 71.72 C 484.826 67.827 486.609 62.258 485.703 56.827 C 485.616 56.307 485.209 55.9 484.69 55.813 C 479.258 54.906 473.69 56.69 469.796 60.584 L 461.071 69.309 L 457.111 68.932 C 457.524 67.626 457.215 66.138 456.181 65.106 C 454.705 63.629 452.301 63.629 450.825 65.106 L 447.88 68.051 L 443.973 67.678 C 444.098 67.3 444.164 66.9 444.164 66.489 C 444.164 65.477 443.77 64.526 443.054 63.811 C 442.339 63.095 441.388 62.701 440.377 62.701 C 439.365 62.701 438.413 63.095 437.699 63.811 L 434.713 66.796 L 429.66 66.313 C 429.295 66.279 428.931 66.408 428.671 66.669 L 423.174 72.166 C 422.896 72.444 422.768 72.838 422.827 73.225 C 422.887 73.613 423.127 73.949 423.475 74.131 L 430.617 77.856 C 430.799 77.952 430.994 77.997 431.187 77.997 C 431.631 77.997 432.061 77.755 432.281 77.333 C 432.596 76.73 432.361 75.984 431.758 75.67 L 426.105 72.722 L 430.003 68.823 L 458.809 71.571 L 446.843 83.538 L 440.502 80.232 C 439.899 79.917 439.154 80.151 438.84 80.755 C 438.525 81.358 438.759 82.103 439.363 82.417 L 445.015 85.365 L 443.078 87.303 C 441.151 89.23 439.462 91.34 438.028 93.599 L 427.305 93.796 C 426.986 93.802 426.681 93.932 426.456 94.157 L 423.59 97.023 C 423.288 97.325 423.164 97.76 423.261 98.176 C 423.358 98.591 423.664 98.927 424.068 99.063 L 433.969 102.402 C 433.481 103.987 433.098 105.614 432.825 107.274 C 432.76 107.666 432.889 108.065 433.17 108.346 C 433.403 108.58 433.717 108.708 434.042 108.708 C 434.108 108.708 434.175 108.702 434.242 108.691 C 435.898 108.418 437.525 108.033 439.113 107.544 L 442.454 117.449 C 442.589 117.852 442.925 118.158 443.34 118.255 C 443.433 118.277 443.528 118.287 443.621 118.287 C 443.945 118.287 444.259 118.16 444.493 117.927 L 447.359 115.061 C 447.585 114.834 447.715 114.53 447.721 114.21 L 447.907 103.487 C 448.945 102.83 449.953 102.119 450.925 101.355 C 450.965 105.972 452.781 110.307 456.051 113.576 C 459.357 116.883 463.753 118.703 468.43 118.703 C 473.106 118.703 477.502 116.883 480.809 113.576 C 484.116 110.269 485.936 105.873 485.936 101.197 C 485.936 96.52 484.116 92.124 480.809 88.818 Z M 452.569 66.849 C 453.084 66.333 453.923 66.333 454.438 66.849 C 454.941 67.352 454.952 68.162 454.472 68.68 L 451.063 68.355 Z M 439.442 65.555 C 439.691 65.305 440.023 65.167 440.377 65.167 C 440.73 65.167 441.061 65.305 441.311 65.555 C 441.56 65.804 441.698 66.136 441.698 66.489 C 441.698 66.842 441.561 67.174 441.311 67.423 L 441.31 67.425 L 437.898 67.099 Z M 426.738 97.361 L 427.847 96.252 L 436.581 96.091 C 435.9 97.379 435.296 98.707 434.774 100.071 Z M 444.822 89.046 L 471.54 62.328 C 474.659 59.209 479.032 57.672 483.392 58.124 C 483.844 62.484 482.307 66.858 479.188 69.977 L 465.174 83.991 C 461.737 84.634 458.576 86.292 456.051 88.818 C 453.543 91.324 451.89 94.459 451.238 97.866 C 446.797 101.887 441.421 104.65 435.593 105.923 C 436.988 99.516 440.156 93.712 444.822 89.046 Z M 445.264 113.669 L 444.155 114.778 L 441.443 106.738 C 442.803 106.216 444.13 105.614 445.416 104.935 Z M 479.065 111.833 C 476.224 114.673 472.447 116.238 468.43 116.238 C 464.412 116.238 460.635 114.673 457.794 111.833 C 454.953 108.992 453.388 105.215 453.388 101.197 C 453.388 97.179 454.953 93.401 457.794 90.561 C 460.635 87.72 464.412 86.155 468.43 86.155 C 472.447 86.155 476.224 87.72 479.065 90.561 C 481.906 93.401 483.471 97.179 483.471 101.197 C 483.471 105.215 481.906 108.992 479.065 111.833 Z M 479.065 111.833" style="fill: rgb(246, 246, 246);"/>
  <path d="M 468.438 95.181 C 468.764 95.181 469.08 95.05 469.311 94.82 C 469.541 94.591 469.671 94.273 469.671 93.948 C 469.671 93.624 469.541 93.307 469.311 93.076 C 469.08 92.848 468.764 92.715 468.438 92.715 C 468.114 92.715 467.795 92.847 467.567 93.076 C 467.337 93.307 467.205 93.624 467.205 93.948 C 467.205 94.274 467.337 94.591 467.567 94.82 C 467.795 95.05 468.114 95.181 468.438 95.181 Z M 468.438 95.181" style="fill: rgb(246, 246, 246);"/>
  <path d="M 468.438 107.238 C 468.114 107.238 467.795 107.369 467.567 107.599 C 467.337 107.828 467.205 108.146 467.205 108.471 C 467.205 108.795 467.337 109.112 467.567 109.342 C 467.795 109.571 468.114 109.704 468.438 109.704 C 468.764 109.704 469.08 109.572 469.311 109.342 C 469.541 109.112 469.671 108.795 469.671 108.471 C 469.671 108.146 469.541 107.828 469.311 107.599 C 469.08 107.369 468.764 107.238 468.438 107.238 Z M 468.438 107.238" style="fill: rgb(246, 246, 246);"/>
  <path d="M 476.553 100.338 C 476.323 100.108 476.006 99.977 475.681 99.977 C 475.357 99.977 475.038 100.108 474.81 100.338 C 474.58 100.568 474.449 100.886 474.449 101.21 C 474.449 101.534 474.58 101.851 474.81 102.081 C 475.038 102.312 475.357 102.443 475.681 102.443 C 476.006 102.443 476.323 102.312 476.553 102.081 C 476.782 101.851 476.914 101.534 476.914 101.21 C 476.914 100.886 476.782 100.568 476.553 100.338 Z M 476.553 100.338" style="fill: rgb(246, 246, 246);"/>
  <path d="M 461.178 99.959 C 460.853 99.959 460.536 100.091 460.306 100.32 C 460.076 100.55 459.945 100.867 459.945 101.191 C 459.945 101.516 460.076 101.834 460.306 102.063 C 460.536 102.292 460.853 102.424 461.178 102.424 C 461.503 102.424 461.82 102.292 462.049 102.063 C 462.278 101.834 462.411 101.516 462.411 101.191 C 462.411 100.867 462.278 100.55 462.049 100.32 C 461.82 100.091 461.503 99.959 461.178 99.959 Z M 461.178 99.959" style="fill: rgb(246, 246, 246);"/>
  <path d="M 472.028 95.919 L 468.384 99.562 L 466.999 98.176 C 466.517 97.695 465.736 97.695 465.255 98.176 C 464.773 98.658 464.773 99.439 465.255 99.919 L 467.513 102.178 C 467.744 102.409 468.057 102.539 468.384 102.539 C 468.711 102.539 469.025 102.409 469.256 102.178 L 473.771 97.662 C 474.253 97.181 474.253 96.4 473.771 95.919 C 473.29 95.437 472.509 95.437 472.028 95.919 Z M 472.028 95.919" style="fill: rgb(246, 246, 246);"/>
  <path d="M 465.608 77.141 C 465.924 77.141 466.24 77.02 466.48 76.78 L 477.73 65.53 C 478.212 65.048 478.212 64.267 477.73 63.786 C 477.249 63.305 476.469 63.305 475.986 63.786 L 464.737 75.036 C 464.255 75.517 464.255 76.298 464.737 76.78 C 464.977 77.02 465.293 77.141 465.608 77.141 Z M 465.608 77.141" style="fill: rgb(246, 246, 246);"/>
  <path d="M 462.121 80.628 C 462.445 80.628 462.763 80.497 462.992 80.267 C 463.223 80.036 463.354 79.72 463.354 79.395 C 463.354 79.07 463.223 78.752 462.992 78.523 C 462.763 78.293 462.446 78.162 462.121 78.162 C 461.797 78.162 461.478 78.293 461.249 78.523 C 461.02 78.752 460.888 79.07 460.888 79.395 C 460.888 79.72 461.02 80.036 461.249 80.267 C 461.479 80.497 461.797 80.628 462.121 80.628 Z M 462.121 80.628" style="fill: rgb(246, 246, 246);"/>
  <path d="M 197.619 286.018 C 196.084 284.109 193.92 282.769 191.527 282.245 L 178.613 279.411 L 178.613 277.889 C 182.122 275.419 184.42 271.337 184.42 266.729 L 184.42 259.698 C 190.433 257.734 193.866 254.601 193.866 251.045 C 193.866 247.985 191.312 245.211 186.674 243.235 C 182.416 241.42 176.784 240.421 170.816 240.421 C 164.848 240.421 159.216 241.42 154.958 243.236 C 150.32 245.212 147.766 247.986 147.766 251.046 C 147.766 254.588 151.172 257.709 157.141 259.675 L 157.141 266.729 C 157.141 271.337 159.44 275.419 162.949 277.889 L 162.949 279.411 L 154.952 281.165 C 154.82 281.175 154.689 281.202 154.559 281.251 C 154.558 281.252 154.556 281.252 154.555 281.253 L 150.034 282.245 C 147.642 282.769 145.478 284.109 143.943 286.018 C 142.408 287.927 141.562 290.327 141.562 292.777 L 141.562 310.602 C 141.562 311.374 142.188 312 142.96 312 L 149.019 312 C 149.791 312 150.417 311.374 150.417 310.602 C 150.417 309.83 149.791 309.205 149.019 309.205 L 144.358 309.205 L 144.358 306.4 L 148.81 306.4 C 149.581 306.4 150.207 305.774 150.207 305.001 C 150.207 304.229 149.581 303.603 148.81 303.603 L 144.358 303.603 L 144.358 300.799 L 148.81 300.799 C 149.581 300.799 150.207 300.173 150.207 299.401 C 150.207 298.629 149.581 298.003 148.81 298.003 L 144.358 298.003 L 144.358 292.777 C 144.358 289.054 146.997 285.773 150.633 284.975 L 154.172 284.199 L 158.205 294.934 L 155.172 297.272 C 154.836 297.531 154.636 297.929 154.628 298.352 C 154.62 298.776 154.805 299.182 155.13 299.453 L 166.817 309.205 L 160.203 309.205 C 159.431 309.205 158.805 309.83 158.805 310.602 C 158.805 311.374 159.431 312 160.203 312 L 198.602 312 C 199.374 312 200 311.374 200 310.602 L 200 292.777 C 200 290.327 199.154 287.927 197.619 286.018 Z M 180.761 296.517 L 183.232 298.423 L 172.95 307.001 L 178.286 282.202 L 184.564 283.579 L 180.305 294.918 C 180.089 295.493 180.274 296.142 180.761 296.517 Z M 170.753 303.921 L 166.661 284.695 L 169.997 286.543 C 170.208 286.661 170.441 286.718 170.675 286.718 C 170.908 286.718 171.142 286.661 171.353 286.543 L 174.917 284.568 Z M 181.625 255.277 L 181.625 256.592 C 181.625 257.173 181.152 257.646 180.569 257.646 L 160.992 257.646 C 160.41 257.646 159.937 257.173 159.937 256.592 L 159.937 253.482 C 159.937 252.9 160.41 252.427 160.992 252.427 L 180.57 252.427 C 181.152 252.427 181.625 252.9 181.625 253.482 Z M 179.94 260.442 C 178.105 261.451 174.876 262.323 170.781 262.323 C 166.685 262.323 163.457 261.451 161.622 260.442 Z M 150.562 251.046 C 150.562 247.342 158.88 243.217 170.816 243.217 C 182.752 243.217 191.07 247.342 191.07 251.046 C 191.07 253.107 188.559 255.229 184.42 256.74 L 184.42 253.482 C 184.42 251.358 182.693 249.631 180.569 249.631 L 160.992 249.631 C 158.869 249.631 157.141 251.358 157.141 253.482 L 157.141 256.592 C 157.141 256.633 157.144 256.674 157.144 256.716 C 153.046 255.206 150.562 253.096 150.562 251.046 Z M 159.937 266.729 L 159.937 262.701 C 160.428 262.999 160.98 263.277 161.59 263.529 C 164.068 264.554 167.332 265.119 170.781 265.119 C 174.23 265.119 177.494 264.554 179.971 263.529 C 180.581 263.276 181.133 262.999 181.625 262.701 L 181.625 266.729 C 181.625 272.708 176.76 277.572 170.781 277.572 C 164.802 277.572 159.937 272.708 159.937 266.729 Z M 170.781 280.368 C 172.559 280.368 174.258 280.026 175.817 279.404 L 175.817 280.387 L 175.698 280.938 L 170.675 283.722 L 165.89 281.071 L 165.744 280.389 L 165.744 279.404 C 167.304 280.026 169.002 280.368 170.781 280.368 Z M 161.185 294.918 L 156.932 283.594 L 163.272 282.203 L 168.552 307.01 L 158.26 298.423 L 160.731 296.517 C 161.217 296.142 161.402 295.493 161.185 294.918 Z M 174.674 309.205 L 186.361 299.453 C 186.686 299.182 186.871 298.777 186.863 298.353 C 186.854 297.929 186.654 297.531 186.318 297.272 L 183.286 294.934 L 187.324 284.184 L 190.928 284.975 C 194.564 285.773 197.204 289.054 197.204 292.777 L 197.204 298.003 L 192.752 298.003 C 191.98 298.003 191.354 298.629 191.354 299.401 C 191.354 300.173 191.98 300.799 192.752 300.799 L 197.204 300.799 L 197.204 303.603 L 192.752 303.603 C 191.98 303.603 191.354 304.229 191.354 305.001 C 191.354 305.774 191.98 306.4 192.752 306.4 L 197.204 306.4 L 197.204 309.205 Z M 174.674 309.205" style="fill: rgb(255, 182, 0);"/>
  <path d="M 172.355 253.639 L 169.206 253.639 C 168.434 253.639 167.808 254.265 167.808 255.037 C 167.808 255.809 168.434 256.435 169.206 256.435 L 172.355 256.435 C 173.127 256.435 173.752 255.809 173.752 255.037 C 173.752 254.265 173.127 253.639 172.355 253.639 Z M 172.355 253.639" style="fill: rgb(255, 182, 0);"/>
  <path d="M 187.16 303.603 C 186.791 303.603 186.432 303.753 186.17 304.014 C 185.91 304.273 185.762 304.634 185.762 305.001 C 185.762 305.369 185.91 305.73 186.17 305.99 C 186.432 306.25 186.793 306.4 187.16 306.4 C 187.528 306.4 187.887 306.25 188.149 305.99 C 188.409 305.73 188.558 305.369 188.558 305.001 C 188.558 304.634 188.409 304.273 188.149 304.014 C 187.888 303.754 187.528 303.603 187.16 303.603 Z M 187.16 303.603" style="fill: rgb(255, 182, 0);"/>
  <path d="M 170.781 273.922 C 171.81 273.922 172.838 273.53 173.621 272.747 C 174.167 272.201 174.167 271.316 173.621 270.77 C 173.075 270.224 172.19 270.224 171.644 270.77 C 171.414 271 171.107 271.127 170.781 271.127 C 170.455 271.127 170.148 271 169.918 270.77 C 169.372 270.224 168.486 270.224 167.94 270.77 C 167.395 271.316 167.395 272.201 167.94 272.747 C 168.723 273.53 169.751 273.922 170.781 273.922 Z M 170.781 273.922" style="fill: rgb(255, 182, 0);"/>
  <path d="M 154.611 309.205 C 154.244 309.205 153.882 309.354 153.622 309.614 C 153.363 309.874 153.213 310.235 153.213 310.602 C 153.213 310.97 153.363 311.331 153.622 311.59 C 153.882 311.851 154.244 312 154.611 312 C 154.979 312 155.34 311.851 155.599 311.59 C 155.86 311.331 156.009 310.97 156.009 310.602 C 156.009 310.235 155.86 309.874 155.599 309.614 C 155.34 309.354 154.979 309.205 154.611 309.205 Z M 154.611 309.205" style="fill: rgb(255, 182, 0);"/>
  <path d="M 277.13 286.135 C 275.602 284.235 273.449 282.901 271.067 282.378 L 262.098 280.411 C 263.515 279.54 264.789 278.429 265.845 277.119 C 267.92 274.546 269.063 271.315 269.063 268.024 L 269.063 259.358 C 269.063 254.603 266.751 250.197 262.853 247.463 L 262.448 245.964 C 262.345 244.4 261.158 243.019 259.075 242.059 C 257.236 241.211 254.822 240.744 252.278 240.744 C 249.734 240.744 247.32 241.211 245.482 242.058 C 243.643 242.906 242.503 244.082 242.19 245.423 C 239.354 246.266 236.797 247.986 234.934 250.322 C 232.89 252.885 231.764 256.094 231.764 259.358 L 231.764 268.024 C 231.764 271.315 232.907 274.546 234.982 277.119 C 236.038 278.429 237.312 279.54 238.73 280.411 L 229.761 282.378 C 227.379 282.901 225.225 284.235 223.697 286.135 C 222.169 288.035 221.327 290.424 221.327 292.863 L 221.327 310.608 C 221.327 311.377 221.95 312 222.719 312 L 233.363 312 C 234.132 312 234.755 311.377 234.755 310.608 C 234.755 309.84 234.132 309.217 233.363 309.217 L 224.11 309.217 L 224.11 306.424 L 228.542 306.424 C 229.31 306.424 229.933 305.801 229.933 305.033 C 229.933 304.264 229.31 303.641 228.542 303.641 L 224.11 303.641 L 224.11 300.85 L 228.542 300.85 C 229.31 300.85 229.933 300.226 229.933 299.457 C 229.933 298.689 229.31 298.066 228.542 298.066 L 224.11 298.066 L 224.11 292.863 C 224.11 289.157 226.737 285.891 230.357 285.097 L 243.189 282.282 C 243.195 282.766 243.452 283.232 243.905 283.483 L 245.853 284.563 C 244.536 284.887 243.169 285.483 242.096 286.556 C 239.13 289.523 239.798 294.733 239.828 294.954 C 239.911 295.574 240.4 296.062 241.02 296.146 C 241.09 296.155 241.674 296.23 242.531 296.23 C 243.419 296.23 244.6 296.15 245.81 295.833 L 248.659 309.217 L 244.497 309.217 C 243.729 309.217 243.105 309.84 243.105 310.608 C 243.105 311.377 243.729 312 244.497 312 L 278.109 312 C 278.878 312 279.501 311.377 279.501 310.608 L 279.501 292.863 C 279.501 290.424 278.659 288.035 277.13 286.135 Z M 253.166 291.909 C 252.23 290.973 251.849 289.583 251.705 288.37 C 251.754 287.863 251.771 287.394 251.771 286.986 C 253.134 286.992 255.269 287.241 256.552 288.524 C 257.879 289.851 258.095 292.093 258.09 293.445 C 258.085 293.445 258.081 293.445 258.075 293.445 C 256.719 293.445 254.481 293.224 253.166 291.909 Z M 250.308 283.85 L 245.336 281.094 C 245.377 280.962 245.4 280.822 245.4 280.677 L 245.4 279.371 C 246.945 280.054 248.653 280.435 250.449 280.435 C 252.217 280.435 253.9 280.066 255.427 279.402 L 255.427 280.677 C 255.427 280.788 255.441 280.895 255.465 280.998 C 255.431 281.014 255.396 281.03 255.362 281.049 Z M 243.152 250.68 L 243.738 249.251 C 244.22 249.645 244.803 250.002 245.482 250.315 C 247.32 251.161 249.734 251.629 252.278 251.629 C 253.017 251.629 253.744 251.588 254.45 251.512 L 255.012 255.476 C 254.683 255.492 254.353 255.489 254.021 255.465 C 249.883 255.163 246.445 254.12 244.291 253.298 C 243.782 253.104 243.383 252.722 243.167 252.225 C 242.952 251.729 242.947 251.18 243.152 250.68 Z M 260.517 249.483 L 261.03 251.38 C 261.263 252.239 260.906 253.131 260.145 253.601 C 259.628 253.919 259.053 254.241 258.438 254.558 C 258.21 254.676 257.975 254.782 257.739 254.878 L 257.188 250.997 C 257.864 250.809 258.498 250.581 259.075 250.315 C 259.617 250.064 260.099 249.786 260.517 249.483 Z M 251.633 259.778 C 254.018 261.94 257.016 263.284 260.191 263.635 L 260.191 267.909 C 260.191 273.281 255.821 277.651 250.449 277.651 C 245.077 277.651 240.707 273.281 240.707 267.909 L 240.707 262.179 L 241.725 262.179 C 245.208 262.179 248.571 261.347 251.605 259.753 Z M 266.279 259.358 L 266.279 268.024 C 266.279 273.069 262.943 277.598 258.21 279.177 L 258.21 277.733 C 261.11 275.437 262.974 271.887 262.974 267.909 L 262.974 262.334 C 262.974 261.575 262.368 260.957 261.612 260.942 C 258.889 260.885 256.269 259.938 254.145 258.259 C 254.303 258.266 254.462 258.27 254.621 258.27 C 256.384 258.27 258.129 257.848 259.712 257.032 C 260.39 256.683 261.028 256.326 261.605 255.97 C 262.932 255.152 263.752 253.741 263.865 252.239 C 265.413 254.258 266.279 256.744 266.279 259.358 Z M 252.278 243.528 C 257.064 243.528 259.674 245.283 259.674 246.186 C 259.674 246.859 258.222 248.007 255.497 248.547 C 255.477 248.55 255.457 248.55 255.436 248.553 C 255.373 248.562 255.313 248.576 255.253 248.593 C 254.382 248.749 253.389 248.845 252.278 248.845 C 247.492 248.845 244.882 247.089 244.882 246.186 C 244.882 245.283 247.492 243.528 252.278 243.528 Z M 234.548 268.024 L 234.548 259.358 C 234.548 254.899 237.038 250.938 240.854 248.948 L 240.577 249.625 C 240.084 250.825 240.098 252.14 240.612 253.33 C 241.129 254.523 242.083 255.435 243.299 255.899 C 244.835 256.485 246.975 257.175 249.538 257.67 C 247.108 258.805 244.459 259.395 241.725 259.395 L 239.315 259.395 C 238.547 259.395 237.924 260.018 237.924 260.787 L 237.924 267.909 C 237.924 271.854 239.757 275.378 242.617 277.676 L 242.617 279.177 C 237.884 277.598 234.548 273.069 234.548 268.024 Z M 242.529 293.448 C 242.527 292.094 242.745 289.844 244.064 288.524 C 245.348 287.241 247.483 286.998 248.846 286.986 C 248.845 287.394 248.862 287.863 248.911 288.369 C 248.768 289.583 248.386 290.973 247.45 291.909 C 246.135 293.224 243.924 293.448 242.568 293.448 C 242.555 293.448 242.542 293.448 242.529 293.448 Z M 249.418 293.877 C 249.762 293.534 250.056 293.158 250.308 292.765 C 250.561 293.158 250.854 293.534 251.199 293.877 C 251.556 294.235 251.946 294.539 252.356 294.798 L 250.386 303.958 L 248.415 294.698 C 248.769 294.461 249.106 294.19 249.418 293.877 Z M 252.102 309.217 L 254.972 295.875 C 256.124 296.157 257.238 296.23 258.084 296.23 C 258.942 296.23 259.525 296.155 259.596 296.146 C 260.217 296.062 260.705 295.574 260.788 294.954 C 260.818 294.734 261.486 289.523 258.52 286.556 C 257.447 285.483 256.081 284.887 254.763 284.563 L 256.712 283.483 C 257.179 283.224 257.438 282.736 257.428 282.236 L 270.47 285.098 C 274.09 285.891 276.717 289.157 276.717 292.863 L 276.717 298.066 L 272.285 298.066 C 271.517 298.066 270.894 298.689 270.894 299.457 C 270.894 300.226 271.517 300.85 272.285 300.85 L 276.717 300.85 L 276.717 303.641 L 272.285 303.641 C 271.517 303.641 270.894 304.264 270.894 305.033 C 270.894 305.801 271.517 306.424 272.285 306.424 L 276.717 306.424 L 276.717 309.217 Z M 252.102 309.217" style="fill: rgb(255, 182, 0);"/>
  <path d="M 266.719 303.641 C 266.352 303.641 265.994 303.79 265.734 304.049 C 265.475 304.308 265.327 304.667 265.327 305.033 C 265.327 305.399 265.475 305.758 265.734 306.017 C 265.994 306.275 266.352 306.424 266.719 306.424 C 267.085 306.424 267.442 306.276 267.703 306.017 C 267.962 305.758 268.11 305.399 268.11 305.033 C 268.11 304.667 267.962 304.308 267.703 304.049 C 267.442 303.79 267.085 303.641 266.719 303.641 Z M 266.719 303.641" style="fill: rgb(255, 182, 0);"/>
  <path d="M 238.93 309.217 C 238.564 309.217 238.205 309.365 237.947 309.624 C 237.687 309.883 237.539 310.242 237.539 310.608 C 237.539 310.974 237.687 311.333 237.947 311.592 C 238.205 311.851 238.564 312 238.93 312 C 239.297 312 239.655 311.851 239.914 311.592 C 240.173 311.333 240.322 310.974 240.322 310.608 C 240.322 310.242 240.174 309.883 239.914 309.624 C 239.655 309.365 239.297 309.217 238.93 309.217 Z M 238.93 309.217" style="fill: rgb(255, 182, 0);"/>
  <path d="M 250.413 274.094 C 251.438 274.094 252.462 273.704 253.241 272.924 C 253.785 272.381 253.785 271.5 253.241 270.956 C 252.697 270.412 251.817 270.412 251.273 270.956 C 251.044 271.186 250.738 271.312 250.413 271.312 C 250.089 271.312 249.783 271.186 249.554 270.956 C 249.011 270.412 248.13 270.412 247.586 270.956 C 247.042 271.5 247.042 272.381 247.586 272.924 C 248.365 273.704 249.39 274.094 250.413 274.094 Z M 250.413 274.094" style="fill: rgb(255, 182, 0);"/>
  <path d="M 42.759 306.756 C 43.126 306.756 43.484 306.607 43.743 306.348 C 44.004 306.09 44.151 305.73 44.151 305.364 C 44.151 304.999 44.004 304.639 43.743 304.381 C 43.484 304.122 43.127 303.973 42.759 303.973 C 42.393 303.973 42.034 304.122 41.776 304.381 C 41.517 304.639 41.368 304.999 41.368 305.364 C 41.368 305.73 41.517 306.09 41.776 306.348 C 42.034 306.607 42.393 306.756 42.759 306.756 Z M 42.759 306.756" style="fill: rgb(255, 182, 0);"/>
  <path d="M 55.804 286.458 C 54.276 284.558 52.122 283.224 49.74 282.702 L 36.884 279.881 L 36.884 278.318 C 39.002 276.827 40.676 274.746 41.667 272.317 L 44.821 272.317 C 46.702 272.317 48.232 270.787 48.232 268.906 L 48.232 264.038 C 48.232 263.999 48.23 263.96 48.229 263.922 C 48.23 263.903 48.232 263.884 48.232 263.864 L 48.232 260.212 C 48.232 249.656 39.643 241.067 29.087 241.067 C 18.531 241.067 9.943 249.656 9.943 260.212 L 9.943 263.864 C 9.943 263.884 9.945 263.903 9.946 263.923 C 9.944 263.962 9.943 263.999 9.943 264.038 L 9.943 268.906 C 9.943 270.787 11.473 272.317 13.354 272.317 L 16.508 272.317 C 17.498 274.746 19.172 276.827 21.29 278.318 L 21.29 279.881 L 8.434 282.702 C 6.052 283.224 3.899 284.558 2.371 286.458 C 0.842 288.359 0 290.748 0 293.186 L 0 294.509 C 0 295.278 0.623 295.901 1.392 295.901 C 2.161 295.901 2.784 295.278 2.784 294.509 L 2.784 293.186 C 2.784 289.68 5.137 286.568 8.456 285.571 L 8.456 309.54 L 2.784 309.54 L 2.784 305.643 C 2.784 304.874 2.161 304.251 1.392 304.251 C 0.623 304.251 0 304.874 0 305.643 L 0 310.932 C 0 311.7 0.623 312.323 1.392 312.323 L 29.052 312.323 C 29.064 312.323 29.075 312.321 29.087 312.321 C 29.099 312.321 29.111 312.323 29.123 312.323 L 56.783 312.323 C 57.551 312.323 58.174 311.7 58.174 310.932 L 58.174 293.186 C 58.174 290.748 57.332 288.359 55.804 286.458 Z M 24.074 279.826 C 25.626 280.445 27.317 280.786 29.087 280.786 C 30.857 280.786 32.548 280.445 34.101 279.826 L 34.101 280.798 L 29.165 298.271 L 24.128 280.244 C 24.113 280.19 24.095 280.139 24.074 280.088 Z M 36.163 256.065 C 35.62 255.522 34.738 255.522 34.195 256.065 C 31.253 259.006 27.342 260.626 23.182 260.626 L 18.293 260.626 L 18.293 260.212 C 18.293 254.259 23.135 249.417 29.087 249.417 C 35.039 249.417 39.882 254.259 39.882 260.212 L 39.882 260.626 L 36.046 260.626 C 35.256 260.626 34.499 260.409 33.844 260.002 C 34.661 259.416 35.437 258.758 36.163 258.033 C 36.706 257.49 36.706 256.608 36.163 256.065 Z M 45.449 268.906 C 45.449 269.252 45.167 269.533 44.821 269.533 L 42.665 269.533 L 42.665 263.41 L 44.821 263.41 C 45.167 263.41 45.449 263.691 45.449 264.038 Z M 29.087 243.85 C 38.109 243.85 45.449 251.19 45.449 260.212 L 45.449 260.685 C 45.245 260.648 45.035 260.626 44.821 260.626 L 42.665 260.626 L 42.665 260.212 C 42.665 252.725 36.574 246.634 29.087 246.634 C 21.6 246.634 15.509 252.725 15.509 260.212 L 15.509 260.626 L 13.354 260.626 C 13.139 260.626 12.93 260.648 12.726 260.685 L 12.726 260.212 C 12.726 251.19 20.066 243.85 29.087 243.85 Z M 15.509 269.533 L 13.354 269.533 C 13.008 269.533 12.726 269.252 12.726 268.906 L 12.726 264.038 C 12.726 263.691 13.008 263.41 13.354 263.41 L 15.509 263.41 Z M 18.293 267.208 L 18.293 263.41 L 23.182 263.41 C 26.04 263.41 28.798 262.761 31.29 261.533 C 32.584 262.745 34.264 263.41 36.046 263.41 L 39.882 263.41 L 39.882 267.208 C 39.882 273.16 35.039 278.002 29.087 278.002 C 23.135 278.002 18.293 273.16 18.293 267.208 Z M 21.896 282.598 L 27.817 303.791 C 27.835 303.854 27.858 303.914 27.883 303.973 L 11.24 303.973 L 11.24 294.21 L 16.667 294.21 C 17.436 294.21 18.059 293.586 18.059 292.818 C 18.059 292.049 17.436 291.426 16.667 291.426 L 11.24 291.426 L 11.24 284.936 Z M 11.24 306.756 L 37.193 306.756 C 37.961 306.756 38.585 306.133 38.585 305.364 C 38.585 304.596 37.961 303.973 37.193 303.973 L 30.432 303.973 C 30.457 303.915 30.479 303.856 30.497 303.794 L 36.472 282.641 L 46.935 284.935 L 46.935 291.426 L 41.507 291.426 C 40.739 291.426 40.115 292.049 40.115 292.817 C 40.115 293.586 40.739 294.209 41.507 294.209 L 46.935 294.209 L 46.935 309.54 L 29.123 309.54 C 29.111 309.54 29.099 309.541 29.087 309.541 C 29.075 309.541 29.064 309.54 29.052 309.54 L 11.24 309.54 Z M 55.391 309.54 L 49.718 309.54 L 49.718 285.571 C 53.038 286.568 55.391 289.68 55.391 293.186 Z M 55.391 309.54" style="fill: rgb(255, 182, 0);"/>
  <path d="M 1.392 301.468 C 1.758 301.468 2.117 301.319 2.376 301.06 C 2.635 300.801 2.784 300.442 2.784 300.076 C 2.784 299.71 2.635 299.351 2.376 299.092 C 2.117 298.833 1.758 298.684 1.392 298.684 C 1.026 298.684 0.667 298.833 0.408 299.092 C 0.149 299.351 0 299.708 0 300.076 C 0 300.442 0.149 300.801 0.408 301.06 C 0.667 301.319 1.026 301.468 1.392 301.468 Z M 1.392 301.468" style="fill: rgb(255, 182, 0);"/>
  <path d="M 29.087 274.416 C 30.112 274.416 31.136 274.027 31.915 273.247 C 32.458 272.704 32.458 271.823 31.915 271.279 C 31.371 270.736 30.49 270.736 29.947 271.279 C 29.717 271.509 29.412 271.635 29.087 271.635 C 28.763 271.635 28.457 271.509 28.228 271.279 C 27.684 270.736 26.803 270.736 26.259 271.279 C 25.716 271.823 25.716 272.704 26.259 273.247 C 27.039 274.027 28.063 274.416 29.087 274.416 Z M 29.087 274.416" style="fill: rgb(255, 182, 0);"/>
  <path d="M 505.944 286.458 C 504.416 284.558 502.263 283.224 499.881 282.701 L 490.912 280.734 C 492.329 279.863 493.603 278.752 494.659 277.442 C 496.734 274.869 497.877 271.638 497.877 268.347 L 497.877 259.681 C 497.877 254.926 495.565 250.52 491.667 247.786 L 491.262 246.287 C 491.159 244.723 489.972 243.342 487.889 242.382 C 486.05 241.534 483.636 241.067 481.092 241.067 C 478.548 241.067 476.134 241.534 474.296 242.381 C 472.457 243.229 471.317 244.405 471.004 245.746 C 468.168 246.589 465.611 248.309 463.748 250.645 C 461.704 253.208 460.578 256.417 460.578 259.681 L 460.578 268.347 C 460.578 271.638 461.721 274.869 463.796 277.442 C 464.852 278.752 466.126 279.863 467.544 280.734 L 458.575 282.701 C 456.193 283.224 454.039 284.558 452.511 286.458 C 450.983 288.358 450.141 290.747 450.141 293.186 L 450.141 310.931 C 450.141 311.7 450.764 312.323 451.533 312.323 L 462.177 312.323 C 462.946 312.323 463.569 311.7 463.569 310.931 C 463.569 310.163 462.946 309.54 462.177 309.54 L 452.924 309.54 L 452.924 306.747 L 457.356 306.747 C 458.124 306.747 458.747 306.124 458.747 305.356 C 458.747 304.587 458.124 303.964 457.356 303.964 L 452.924 303.964 L 452.924 301.173 L 457.356 301.173 C 458.124 301.173 458.747 300.549 458.747 299.78 C 458.747 299.012 458.124 298.389 457.356 298.389 L 452.924 298.389 L 452.924 293.186 C 452.924 289.48 455.551 286.214 459.171 285.42 L 472.003 282.605 C 472.009 283.089 472.266 283.555 472.719 283.806 L 474.667 284.886 C 473.35 285.21 471.983 285.806 470.91 286.879 C 467.944 289.846 468.612 295.056 468.642 295.277 C 468.725 295.897 469.214 296.385 469.834 296.469 C 469.904 296.478 470.488 296.553 471.345 296.553 C 472.233 296.553 473.414 296.473 474.624 296.156 L 477.473 309.54 L 473.311 309.54 C 472.543 309.54 471.919 310.163 471.919 310.931 C 471.919 311.7 472.543 312.323 473.311 312.323 L 506.923 312.323 C 507.692 312.323 508.315 311.7 508.315 310.931 L 508.315 293.186 C 508.315 290.747 507.473 288.358 505.944 286.458 Z M 481.98 292.232 C 481.044 291.296 480.663 289.906 480.519 288.693 C 480.568 288.186 480.585 287.717 480.585 287.309 C 481.948 287.315 484.083 287.564 485.366 288.847 C 486.693 290.174 486.909 292.416 486.904 293.768 C 486.899 293.768 486.895 293.768 486.889 293.768 C 485.533 293.768 483.295 293.547 481.98 292.232 Z M 479.122 284.173 L 474.15 281.417 C 474.191 281.285 474.214 281.145 474.214 281 L 474.214 279.694 C 475.759 280.377 477.467 280.758 479.263 280.758 C 481.031 280.758 482.714 280.389 484.241 279.725 L 484.241 281 C 484.241 281.111 484.255 281.218 484.279 281.321 C 484.245 281.337 484.21 281.353 484.176 281.372 Z M 471.966 251.003 L 472.552 249.574 C 473.034 249.968 473.617 250.325 474.296 250.638 C 476.134 251.484 478.548 251.952 481.092 251.952 C 481.831 251.952 482.558 251.911 483.264 251.835 L 483.826 255.799 C 483.497 255.815 483.167 255.812 482.835 255.788 C 478.697 255.486 475.259 254.443 473.105 253.621 C 472.596 253.427 472.197 253.045 471.981 252.548 C 471.766 252.052 471.761 251.503 471.966 251.003 Z M 489.331 249.806 L 489.844 251.703 C 490.077 252.562 489.72 253.454 488.959 253.924 C 488.442 254.242 487.867 254.564 487.252 254.881 C 487.024 254.999 486.789 255.105 486.553 255.201 L 486.002 251.32 C 486.678 251.132 487.312 250.904 487.889 250.638 C 488.431 250.387 488.913 250.109 489.331 249.806 Z M 480.447 260.101 C 482.832 262.263 485.83 263.607 489.005 263.958 L 489.005 268.232 C 489.005 273.604 484.635 277.974 479.263 277.974 C 473.891 277.974 469.521 273.604 469.521 268.232 L 469.521 262.502 L 470.539 262.502 C 474.022 262.502 477.385 261.67 480.419 260.076 Z M 495.093 259.681 L 495.093 268.347 C 495.093 273.392 491.757 277.921 487.024 279.5 L 487.024 278.056 C 489.924 275.76 491.788 272.21 491.788 268.232 L 491.788 262.657 C 491.788 261.898 491.182 261.28 490.426 261.265 C 487.703 261.208 485.083 260.261 482.959 258.582 C 483.117 258.589 483.276 258.593 483.435 258.593 C 485.198 258.593 486.943 258.171 488.526 257.355 C 489.204 257.006 489.842 256.649 490.419 256.293 C 491.746 255.475 492.566 254.064 492.679 252.562 C 494.227 254.581 495.093 257.067 495.093 259.681 Z M 481.092 243.851 C 485.878 243.851 488.488 245.606 488.488 246.509 C 488.488 247.182 487.036 248.33 484.311 248.87 C 484.291 248.873 484.271 248.873 484.25 248.876 C 484.187 248.885 484.127 248.899 484.067 248.916 C 483.196 249.072 482.203 249.168 481.092 249.168 C 476.306 249.168 473.696 247.412 473.696 246.509 C 473.696 245.606 476.306 243.851 481.092 243.851 Z M 463.362 268.347 L 463.362 259.681 C 463.362 255.222 465.852 251.261 469.668 249.271 L 469.391 249.948 C 468.898 251.148 468.912 252.463 469.426 253.653 C 469.943 254.846 470.897 255.758 472.113 256.222 C 473.649 256.808 475.789 257.498 478.352 257.993 C 475.922 259.128 473.273 259.718 470.539 259.718 L 468.129 259.718 C 467.361 259.718 466.738 260.341 466.738 261.11 L 466.738 268.232 C 466.738 272.177 468.571 275.701 471.431 277.999 L 471.431 279.5 C 466.698 277.921 463.362 273.392 463.362 268.347 Z M 471.343 293.771 C 471.341 292.417 471.559 290.167 472.878 288.847 C 474.162 287.564 476.297 287.321 477.66 287.309 C 477.659 287.717 477.676 288.186 477.725 288.692 C 477.582 289.906 477.2 291.296 476.264 292.232 C 474.949 293.547 472.738 293.771 471.382 293.771 C 471.369 293.771 471.356 293.771 471.343 293.771 Z M 478.232 294.2 C 478.576 293.857 478.87 293.481 479.122 293.088 C 479.375 293.481 479.668 293.857 480.013 294.2 C 480.37 294.558 480.76 294.862 481.17 295.121 L 479.2 304.281 L 477.229 295.021 C 477.583 294.784 477.92 294.513 478.232 294.2 Z M 480.916 309.54 L 483.786 296.198 C 484.938 296.48 486.052 296.553 486.898 296.553 C 487.756 296.553 488.339 296.478 488.41 296.469 C 489.031 296.385 489.519 295.897 489.602 295.277 C 489.632 295.057 490.3 289.846 487.334 286.879 C 486.261 285.806 484.895 285.21 483.577 284.886 L 485.526 283.806 C 485.993 283.547 486.252 283.059 486.242 282.559 L 499.284 285.421 C 502.904 286.214 505.531 289.48 505.531 293.186 L 505.531 298.389 L 501.099 298.389 C 500.331 298.389 499.708 299.012 499.708 299.78 C 499.708 300.549 500.331 301.173 501.099 301.173 L 505.531 301.173 L 505.531 303.964 L 501.099 303.964 C 500.331 303.964 499.708 304.587 499.708 305.356 C 499.708 306.124 500.331 306.747 501.099 306.747 L 505.531 306.747 L 505.531 309.54 Z M 480.916 309.54" style="fill: rgb(255, 182, 0);"/>
  <path d="M 495.533 303.964 C 495.166 303.964 494.808 304.113 494.548 304.372 C 494.289 304.631 494.141 304.99 494.141 305.356 C 494.141 305.722 494.289 306.081 494.548 306.34 C 494.808 306.598 495.166 306.747 495.533 306.747 C 495.899 306.747 496.256 306.599 496.517 306.34 C 496.776 306.081 496.924 305.722 496.924 305.356 C 496.924 304.99 496.776 304.631 496.517 304.372 C 496.256 304.113 495.899 303.964 495.533 303.964 Z M 495.533 303.964" style="fill: rgb(255, 182, 0);"/>
  <path d="M 467.744 309.54 C 467.378 309.54 467.019 309.688 466.761 309.947 C 466.501 310.206 466.353 310.565 466.353 310.931 C 466.353 311.297 466.501 311.656 466.761 311.915 C 467.019 312.174 467.378 312.323 467.744 312.323 C 468.111 312.323 468.469 312.174 468.728 311.915 C 468.987 311.656 469.136 311.297 469.136 310.931 C 469.136 310.565 468.988 310.206 468.728 309.947 C 468.469 309.688 468.111 309.54 467.744 309.54 Z M 467.744 309.54" style="fill: rgb(255, 182, 0);"/>
  <path d="M 479.227 274.417 C 480.252 274.417 481.276 274.027 482.055 273.247 C 482.599 272.704 482.599 271.823 482.055 271.279 C 481.511 270.735 480.631 270.735 480.087 271.279 C 479.858 271.509 479.552 271.635 479.227 271.635 C 478.903 271.635 478.597 271.509 478.368 271.279 C 477.825 270.735 476.944 270.735 476.4 271.279 C 475.856 271.823 475.856 272.704 476.4 273.247 C 477.179 274.027 478.204 274.417 479.227 274.417 Z M 479.227 274.417" style="fill: rgb(255, 182, 0);"/>
  <g transform="matrix(0.140268, 0, 0, 0.140268, 369.732422, 241.067001)" style="">
    <path d="m243.96 10c0-5.51 4.49-10 10-10s10 4.49 10 10-4.49 10-10 10-10-4.49-10-10zm264.04 419.038v68.962c0 5.523-4.478 10-10 10h-488c-5.522 0-10-4.477-10-10v-68.962c0-20.696 6.939-40.652 19.652-56.831l-1.433-4.051c-1.842-5.207.886-10.921 6.093-12.762l96.5-34.133 51.771-18.312 20.109-25.558c-14.513-16.943-22.692-38.797-22.692-61.236v-46.155c0-5.187 1.074-10.279 3.084-14.969-5.815-3.644-10.297-9.359-12.375-16.401l-2.291-7.766c-4.859-2.386-9.639-4.963-14.269-7.684-6.729-3.96-21.59-15.793-21.59-37.86 0-9.19 2.82-18.02 8.181-25.54 9.409-13.23 20.31-25.44 32.38-36.29 12.39-11.14 27.62-18.69 44.04-21.84h.01c13.074-2.509 16.844 17.131 3.77 19.64-12.858 2.468-24.77 8.37-34.449 17.07-10.99 9.88-20.9 20.99-29.46 33.02-2.921 4.11-4.471 8.93-4.471 13.94.02 8.356 3.865 16.994 14.44 22.269v-8.468c0-11.786 7.171-27.835 41.337-37.355.264-.074 16.395-3.775 24.28-4.799 6.857-10.466 18.622-16.967 31.383-16.967s24.526 6.501 31.383 16.966c7.884 1.024 20.249 3.856 23.484 4.612.266.051.531.113.796.187 34.165 9.523 41.337 25.57 41.337 37.356v8.463c10.568-5.275 14.411-13.911 14.431-22.264 0-5.01-1.55-9.83-4.471-13.94-8.56-12.03-18.47-23.14-29.46-33.02-9.68-8.7-21.591-14.602-34.449-17.07-13.074-2.509-9.305-22.149 3.77-19.64h.01c16.42 3.15 31.65 10.7 44.04 21.84 12.07 10.85 22.971 23.06 32.38 36.29 5.36 7.52 8.181 16.35 8.181 25.54 0 22.067-14.86 33.9-21.59 37.86-4.626 2.719-9.402 5.294-14.257 7.678l-2.291 7.77c-2.079 7.044-6.559 12.761-12.375 16.406 2.01 4.689 3.083 9.78 3.083 14.966l-.014 46.155c0 22.439-8.179 44.293-22.691 61.235l20.11 25.554 51.783 18.317 96.5 34.133c5.207 1.842 7.935 7.556 6.093 12.762l-1.433 4.051c12.711 16.179 19.65 36.135 19.65 56.831zm-65.933-45.937 18.855 6.669 6.669-18.855-18.854-6.669zm-37.71-13.338 18.854 6.669 6.669-18.855-18.855-6.669zm-32.695-22.172 6.093 12.762 7.747 2.74 6.669-18.855-7.747-2.74zm-68.609-53.417-26.894 43.093 17.958 22.316 23.444-46.973zm9.331-210.518c-3.756 5.698-8.261 10.739-13.35 15.022 11.847 2.101 22.764 5.083 31.967 8.946v-8.503c-.001-5.412-6.952-11.072-18.617-15.465zm-95.871-5.52c9.343 10.622 22.84 16.864 37.487 16.864s28.144-6.242 37.487-16.864c-4.252-.765-8.733-1.398-13.42-1.895-3.545-.376-6.622-2.611-8.076-5.866-2.815-6.302-9.092-10.375-15.991-10.375s-13.176 4.073-15.991 10.376c-1.454 3.255-4.531 5.49-8.076 5.866-4.687.496-9.168 1.13-13.42 1.894zm-39.513 29.488c9.203-3.863 20.119-6.845 31.967-8.946-5.089-4.283-9.593-9.324-13.35-15.022-11.666 4.393-18.617 10.053-18.617 15.465zm12.136 31.779c43.04-2.94 86.686-2.94 129.726 0 4.235.294 8.044-2.354 9.248-6.434l1.205-4.088c-33.459-18.632-117.17-18.632-150.629 0l1.206 4.09c1.202 4.077 4.996 6.722 9.244 6.432zm125.233 19.746c-14.737-.956-29.544-1.562-44.368-1.815.097 18.848 13.517 30.666 29.999 30.666 9.925 0 18-8.075 18-18 0-3.994-1.272-7.751-3.631-10.851zm-120.738 0c-2.359 3.1-3.631 6.857-3.631 10.851 0 9.925 8.075 18 18 18 16.451 0 29.852-12.443 29.998-30.666-14.824.253-29.63.858-44.367 1.815zm19.168 110.433 10.517 10.077c5.612 5.379 12.983 8.341 20.757 8.341h19.842c7.774 0 15.146-2.962 20.758-8.34l10.516-10.078c14.489-13.885 22.799-33.359 22.799-53.427v-12.688c-5.359 2.891-11.485 4.533-17.988 4.533-20.62 0-38.364-12.547-46-30.406-7.636 17.859-25.38 30.406-46 30.406-6.508 0-12.639-1.645-18-4.541v12.695c0 20.069 8.31 39.543 22.799 53.428zm19.62 98.851 9.767 19.567h23.629l9.761-19.557-16.451-20.443h-10.264zm17.2-40.433h8.748l12.808-20.524c-2.386.347-31.978.347-34.365 0zm-59.192-15.386 23.442 46.969 17.958-22.316-26.893-43.091zm-74.598 31.624 6.669 18.855 7.747-2.74 6.093-12.762-12.762-6.093zm-37.71 13.339 6.669 18.855 18.854-6.669-6.669-18.855zm-37.71 13.338 6.669 18.855 18.855-6.669-6.669-18.855zm184.556 27.367-6.405-12.833c-4.913 4.46-12.456 2.712-15.622-2.983l-29.287-58.68-23.408 8.28 3.738 1.784c4.983 2.379 7.095 8.349 4.716 13.333l-12.186 25.525c-1.143 2.394-3.189 4.235-5.689 5.12l-96.5 34.133c-5.207 1.842-10.92-.886-12.762-6.093l-3.509-9.919c-5.254 10.147-8.05 21.47-8.05 33.09v58.961h60v-54.484c0-5.523 4.478-10 10-10s10 4.477 10 10v54.484h108v-6.137c-.001-28.932 5.704-57.026 16.964-83.581zm55.035 83.581c0-25.537-4.902-50.353-14.58-73.863h-22.84c-9.678 23.51-14.58 48.326-14.58 73.863v6.137h52zm208-52.825c0-11.62-2.796-22.942-8.05-33.09l-3.509 9.919c-1.842 5.207-7.556 7.935-12.762 6.093l-96.5-34.133c-2.5-.885-4.547-2.726-5.689-5.12l-12.186-25.525c-2.379-4.984-.268-10.953 4.716-13.333l3.738-1.784-23.42-8.284-29.289 58.684c-3.106 6.078-10.246 7.396-15.573 2.911l-6.441 12.905c11.26 26.556 16.965 54.649 16.965 83.582v6.137h108v-54.484c0-5.523 4.478-10 10-10s10 4.477 10 10v54.484h60z" style="fill: rgb(255, 182, 0);"/>
  </g>
  <g id="XMLID_1164_" transform="matrix(0.13791, 0, 0, 0.13791, 62.561066, 241.067001)" style="">
    <g id="XMLID_83_">
      <g id="XMLID_94_">
        <path id="XMLID_96_" d="m256 492c-2.63 0-5.21 1.069-7.07 2.93-1.86 1.86-2.93 4.44-2.93 7.07s1.07 5.21 2.93 7.069c1.86 1.86 4.44 2.931 7.07 2.931s5.21-1.07 7.07-2.931c1.86-1.859 2.93-4.439 2.93-7.069s-1.07-5.21-2.93-7.07-4.44-2.93-7.07-2.93z" style="fill: rgb(255, 182, 0);"/>
        <path id="XMLID_95_" d="m256 287.121c4.982 0 9.967-1.897 13.76-5.69 3.905-3.904 3.906-10.236.001-14.142-3.781-3.781-9.835-3.903-13.761-.363-3.925-3.538-9.98-3.417-13.761.362-3.905 3.905-3.905 10.237 0 14.143 3.794 3.794 8.777 5.69 13.761 5.69z" style="fill: rgb(255, 182, 0);"/>
        <path id="XMLID_84_" d="m341.761 319.009h-28.626c14.129-4.844 25.456-15.755 30.862-29.615 30.916-26.053 48.606-63.983 48.606-104.473 0-56.974-35.065-105.905-84.743-126.368.252-2.087.385-4.192.385-6.308 0-28.807-23.437-52.245-52.245-52.245s-52.245 23.438-52.245 52.245c0 2.117.132 4.222.384 6.308-49.678 20.463-84.742 69.394-84.742 126.367 0 40.717 17.831 78.751 49.01 104.814 5.459 13.698 16.715 24.47 30.728 29.274h-28.894c-78.162 0-141.752 63.59-141.752 141.752v41.24c0 5.522 4.477 10 10 10h172.51c5.523 0 10-4.478 10-10s-4.477-10-10-10h-162.512v-31.239c0-57.565 40.159-105.924 93.931-118.541v3.436c0 35.105 28.561 63.666 63.666 63.666 19.935 0 38.1-9.075 49.943-24.109 11.843 15.034 30.009 24.109 49.943 24.109 35.105 0 63.666-28.561 63.666-63.666v-3.422c53.744 12.638 93.875 60.983 93.875 118.528v31.238h-162.51c-5.523 0-10 4.478-10 10s4.477 10 10 10h172.51c5.523 0 10-4.478 10-10v-41.239c.002-78.162-63.588-141.752-141.75-141.752zm-85.761 36.159c-13.764 0-26.047-8.428-31.041-21.129v-11.224c3.405.846 6.733 2.172 9.882 3.978 6.495 3.724 13.904 5.691 21.427 5.691 7.545 0 14.976-1.98 21.488-5.729 2.924-1.683 6.05-2.945 9.283-3.784v11.069c-4.993 12.701-17.275 21.128-31.039 21.128zm25.523-160.621h30.544c8.485 0 15.389 6.903 15.389 15.389s-6.903 15.389-15.389 15.389h-30.544c-8.485 0-15.389-6.903-15.389-15.389s6.904-15.389 15.389-15.389zm-25.523-174.547c17.756 0 32.203 14.425 32.243 32.172-10.343-2.513-21.139-3.855-32.243-3.855s-21.9 1.342-32.243 3.854c.039-17.746 14.487-32.171 32.243-32.171zm-116.604 164.921c0-64.295 52.308-116.604 116.604-116.604 64.295 0 116.603 52.309 116.603 116.604 0 26.627-8.964 51.959-25.147 72.36v-47.345c0-19.514-15.875-35.389-35.389-35.389h-24.396c-23.72 0-43.018-19.298-43.018-43.019 0-5.522-4.477-10-10-10s-10 4.478-10 10c0 18.014 7.609 34.274 19.768 45.77-4.21-1.771-8.83-2.751-13.676-2.751h-30.544c-19.513 0-35.389 15.875-35.389 35.389v47.695c-16.358-20.45-25.416-45.9-25.416-72.71zm106.738 25.015c0 8.485-6.903 15.389-15.389 15.389h-30.544c-8.485 0-15.389-6.903-15.389-15.389s6.903-15.389 15.389-15.389h30.544c8.486 0 15.389 6.903 15.389 15.389zm-61.322 61.084v-29.221c4.656 2.258 9.877 3.526 15.389 3.526h30.544c9.953 0 18.953-4.136 25.389-10.772 6.436 6.636 15.436 10.772 25.389 10.772h30.544c5.512 0 10.733-1.268 15.389-3.526v29.221c0 16.943-13.785 30.728-30.728 30.728h-.111c-10.067-.032-20.047 2.617-28.835 7.675-3.482 2.003-7.462 3.062-11.512 3.062-4.038 0-8.008-1.052-11.48-3.043-8.949-5.131-18.989-7.797-29.002-7.695l-.247.001c-16.944-.001-30.729-13.785-30.729-30.728zm21.272 118.301c-24.078 0-43.666-19.589-43.666-43.666v-6.388c2.587-.165 5.193-.258 7.821-.258h35.248c.003.007.004.015.007.022 5.618 16.49 18.767 28.844 34.83 33.778-8.124 10.298-20.576 16.512-34.24 16.512zm143.553-43.666c0 24.077-19.588 43.666-43.666 43.666-13.669 0-26.126-6.22-34.25-16.525 16.042-4.943 29.172-17.288 34.785-33.763.003-.008.004-.016.007-.024h35.248c2.647 0 5.271.095 7.876.262z" style="fill: rgb(255, 182, 0);"/>
      </g>
    </g>
  </g>
  <g id="XMLID_2046_" transform="matrix(0.135188, 0, 0, 0.135188, 288.522644, 243.107193)" style="">
    <g id="XMLID_44_">
      <path id="XMLID_58_" d="m264.518 215.945c-4.696 4.697-12.34 4.697-17.036 0-3.905-3.905-10.237-3.905-14.143 0s-3.905 10.237 0 14.143c6.248 6.247 14.454 9.371 22.661 9.371s16.413-3.124 22.661-9.371c3.905-3.905 3.905-10.237 0-14.143s-10.238-3.905-14.143 0z" style="fill: rgb(255, 182, 0);"/>
      <path id="XMLID_1385_" d="m450.53 408.38c-1.87 1.87-2.93 4.44-2.93 7.08 0 2.63 1.06 5.21 2.93 7.07 1.86 1.86 4.43 2.93 7.07 2.93 2.63 0 5.2-1.07 7.07-2.93 1.86-1.86 2.93-4.44 2.93-7.07 0-2.64-1.07-5.21-2.93-7.08-1.87-1.86-4.44-2.92-7.07-2.92-2.64 0-5.21 1.06-7.07 2.92z" style="fill: rgb(255, 182, 0);"/>
      <path id="XMLID_1391_" d="m500.4 73.556c-7.708-42.619-44.742-73.556-88.052-73.556-.002 0 .001 0-.001 0-30.872 0-59.639 15.302-76.977 40.431-21.318-18.399-49.067-29.54-79.37-29.54s-58.052 11.141-79.37 29.54c-17.339-25.129-46.105-40.431-76.977-40.431-.002 0 .001 0-.001 0-43.31 0-80.344 30.937-88.052 73.556-4.078 22.547-.002 46.364 11.183 65.343 11.3 19.174 20.879 42.69 24.998 61.372.878 3.98 4.084 7.03 8.104 7.708.557.094 1.113.14 1.665.14 3.434 0 6.679-1.773 8.518-4.765 12.463-20.284 19.051-43.589 19.051-67.396v-14.331c0-6.441 2.588-12.417 7.288-16.828 4.694-4.406 10.838-6.606 17.309-6.195 4.292.272 8.588 1.876 12.426 4.638l13.778 9.914c-1.014 6.309-1.548 12.776-1.548 19.366 0 29.824 10.897 58.494 30.685 80.762 4.839 24.608 19.444 45.752 39.6 59.215v29.317h-46.611c-62.662 0-113.641 50.979-113.641 113.64v86.544c0 5.523 4.477 10 10 10h403.192c5.523 0 10-4.477 10-10v-41.544c0-5.523-4.477-10-10-10s-10 4.477-10 10v31.544h-156.597v-94.232c2.433-.091 4.84-1.053 6.697-2.911l71.728-71.728c29.978 5.07 56.253 24.619 69.387 52.673 1.7 3.631 5.302 5.762 9.063 5.762 1.419 0 2.863-.304 4.233-.946 5.001-2.342 7.158-8.295 4.816-13.297-18.631-39.793-59.049-65.506-102.97-65.506h-46.611v-29.317c20.156-13.462 34.762-34.607 39.6-59.215 19.788-22.269 30.685-50.939 30.685-80.762 0-6.59-.534-13.057-1.548-19.366l13.778-9.914c3.838-2.762 8.135-4.365 12.426-4.638 6.47-.411 12.614 1.79 17.309 6.195 4.7 4.411 7.288 10.387 7.288 16.828v14.331c0 23.807 6.588 47.111 19.051 67.396 1.838 2.992 5.084 4.765 8.518 4.765.552 0 1.108-.046 1.665-.14 4.02-.677 7.226-3.727 8.104-7.708 4.119-18.682 13.698-42.198 24.998-61.372 11.185-18.978 15.261-42.794 11.183-65.342zm-366.579 13.451c-6.894-4.96-14.792-7.852-22.84-8.363-12.042-.762-23.498 3.345-32.263 11.572-8.644 8.112-13.601 19.561-13.601 31.411v14.331c0 11.704-1.885 23.265-5.537 34.261-5.213-14.122-12.047-28.713-19.568-41.474-8.787-14.911-11.97-33.729-8.732-51.629 5.986-33.096 34.741-57.116 68.373-57.116 25.582 0 49.327 13.362 62.648 35.053-9.088 10.973-16.282 23.564-21.095 37.267zm87.553 286.637-51.828-51.828h40.966l31.345 31.344zm-156.97 41.812c0-46.356 33.861-84.945 78.146-92.351l71.752 71.752c1.857 1.857 4.264 2.82 6.697 2.911v94.232h-156.595zm176.596 76.544v-109.698l15-15 15 15v109.698zm49.626-118.356-20.483-20.484 31.345-31.344h40.966zm-3.281-65.971-31.345 31.345-31.345-31.344v-25.075c9.795 3.531 20.348 5.46 31.345 5.46s21.55-1.929 31.345-5.46zm-31.345-39.614c-40.081 0-72.689-32.608-72.689-72.689v-28.211h40.485c17.499 0 33.374-7.075 44.927-18.508 10.841 11.646 26.171 18.508 42.491 18.508h17.475v28.211c0 40.08-32.608 72.689-72.689 72.689zm92.689-93.876v-17.026c0-5.523-4.477-10-10-10h-27.475c-12.037 0-23.25-5.695-30.375-15.145 4.381-8.653 6.867-18.421 6.867-28.765 0-5.523-4.477-10-10-10s-10 4.477-10 10c0 24.211-19.698 43.909-43.91 43.909h-50.485c-5.523 0-10 4.477-10 10v17.026c-5.838-12.986-8.941-27.156-8.941-41.662 0-56.039 45.591-101.63 101.63-101.63s101.63 45.591 101.63 101.63c0 14.507-3.103 28.677-8.941 41.663zm123.298-45.438c-7.521 12.761-14.355 27.352-19.568 41.474-3.651-10.997-5.537-22.558-5.537-34.261v-14.331c0-11.85-4.957-23.299-13.601-31.411-8.765-8.227-20.222-12.334-32.263-11.572-8.048.511-15.946 3.403-22.84 8.363l-7.384 5.314c-4.813-13.703-12.007-26.294-21.095-37.267 13.321-21.692 37.066-35.054 62.648-35.054 33.633 0 62.387 24.02 68.373 57.116 3.237 17.9.054 36.718-8.733 51.629z" style="fill: rgb(255, 182, 0);"/>
    </g>
  </g>
</svg>