<?xml version="1.0" encoding="utf-8"?>
<svg viewBox="0 0 500 312" xmlns="http://www.w3.org/2000/svg">
  <g transform="matrix(0.109688, 0, 0, 0.109688, 329.834625, 256.278473)" style="">
    <path d="M 263.43 416 C 263.43 421.51 258.94 426 253.43 426 C 247.91 426 243.43 421.51 243.43 416 C 243.43 410.49 247.91 406 253.43 406 C 258.94 406 263.43 410.49 263.43 416 Z M 507 212 L 507 376 C 507 381.523 502.523 386 497 386 L 477 386 L 477 396 C 477 412.508 463.667 425.9 447.183 425.999 L 440.964 498.851 C 440.522 504.025 436.193 508 431 508 L 401 508 C 395.807 508 391.478 504.025 391.036 498.851 L 384.817 426 L 298.43 426 C 292.679 426 288.057 421.126 288.454 415.304 C 288.815 410 293.467 406 298.783 406 L 447 406 C 452.5 405.99 456.99 401.5 457 396 L 457 386 L 51 386 L 51 396 C 51.01 401.5 55.5 405.99 61 406 L 208.44 406 C 212.69 406 216.578 408.649 217.893 412.691 C 220.139 419.591 215.013 426 208.429 426 L 123.182 426 L 116.963 498.851 C 116.522 504.025 112.193 508 107 508 L 77 508 C 71.807 508 67.478 504.025 67.036 498.851 L 60.817 425.999 C 44.333 425.9 31 412.508 31 396 L 31 386 L 11 386 C 5.477 386 1 381.523 1 376 L 1 212 C 1 186.636 21.636 166 47 166 L 137 166 C 151.562 166 164.565 172.802 173 183.395 C 181.435 172.802 194.438 166 209 166 L 299 166 C 313.562 166 326.565 172.802 335 183.395 C 343.435 172.802 356.438 166 371 166 L 461 166 C 486.364 166 507 186.636 507 212 Z M 103.11 426 L 80.89 426 L 86.182 488 L 97.817 488 L 103.11 426 Z M 163 356 C 163 350.486 158.514 346 153 346 L 31 346 C 25.486 346 21 350.486 21 356 L 21 366 L 163 366 L 163 356 Z M 163 212 C 163 197.664 151.336 186 137 186 L 47 186 C 32.664 186 21 197.664 21 212 L 21 327.713 C 24.129 326.604 27.496 326 31 326 L 153 326 C 156.504 326 159.871 326.604 163 327.713 L 163 212 Z M 325 356 C 325 350.486 320.514 346 315 346 L 193 346 C 187.486 346 183 350.486 183 356 L 183 366 L 325 366 L 325 356 Z M 325 212 C 325 197.664 313.336 186 299 186 L 209 186 C 194.664 186 183 197.664 183 212 L 183 327.713 C 186.129 326.604 189.496 326 193 326 L 315 326 C 318.504 326 321.871 326.604 325 327.713 L 325 212 Z M 421.817 488 L 427.109 426 L 404.889 426 L 410.181 488 L 421.817 488 Z M 487 356 C 487 350.486 482.514 346 477 346 L 355 346 C 349.486 346 345 350.486 345 356 L 345 366 L 487 366 L 487 356 Z M 487 212 C 487 197.664 475.336 186 461 186 L 371 186 C 356.664 186 345 197.664 345 212 L 345 327.713 C 348.129 326.604 351.496 326 355 326 L 477 326 C 480.504 326 483.871 326.604 487 327.713 L 487 212 Z"/>
  </g>
  <g transform="matrix(0.109688, 0, 0, 0.109688, 270.256683, 256.278259)" style="">
    <path d="M 263.43 416 C 263.43 421.51 258.94 426 253.43 426 C 247.91 426 243.43 421.51 243.43 416 C 243.43 410.49 247.91 406 253.43 406 C 258.94 406 263.43 410.49 263.43 416 Z M 507 212 L 507 376 C 507 381.523 502.523 386 497 386 L 477 386 L 477 396 C 477 412.508 463.667 425.9 447.183 425.999 L 440.964 498.851 C 440.522 504.025 436.193 508 431 508 L 401 508 C 395.807 508 391.478 504.025 391.036 498.851 L 384.817 426 L 298.43 426 C 292.679 426 288.057 421.126 288.454 415.304 C 288.815 410 293.467 406 298.783 406 L 447 406 C 452.5 405.99 456.99 401.5 457 396 L 457 386 L 51 386 L 51 396 C 51.01 401.5 55.5 405.99 61 406 L 208.44 406 C 212.69 406 216.578 408.649 217.893 412.691 C 220.139 419.591 215.013 426 208.429 426 L 123.182 426 L 116.963 498.851 C 116.522 504.025 112.193 508 107 508 L 77 508 C 71.807 508 67.478 504.025 67.036 498.851 L 60.817 425.999 C 44.333 425.9 31 412.508 31 396 L 31 386 L 11 386 C 5.477 386 1 381.523 1 376 L 1 212 C 1 186.636 21.636 166 47 166 L 137 166 C 151.562 166 164.565 172.802 173 183.395 C 181.435 172.802 194.438 166 209 166 L 299 166 C 313.562 166 326.565 172.802 335 183.395 C 343.435 172.802 356.438 166 371 166 L 461 166 C 486.364 166 507 186.636 507 212 Z M 103.11 426 L 80.89 426 L 86.182 488 L 97.817 488 L 103.11 426 Z M 163 356 C 163 350.486 158.514 346 153 346 L 31 346 C 25.486 346 21 350.486 21 356 L 21 366 L 163 366 L 163 356 Z M 163 212 C 163 197.664 151.336 186 137 186 L 47 186 C 32.664 186 21 197.664 21 212 L 21 327.713 C 24.129 326.604 27.496 326 31 326 L 153 326 C 156.504 326 159.871 326.604 163 327.713 L 163 212 Z M 325 356 C 325 350.486 320.514 346 315 346 L 193 346 C 187.486 346 183 350.486 183 356 L 183 366 L 325 366 L 325 356 Z M 325 212 C 325 197.664 313.336 186 299 186 L 209 186 C 194.664 186 183 197.664 183 212 L 183 327.713 C 186.129 326.604 189.496 326 193 326 L 315 326 C 318.504 326 321.871 326.604 325 327.713 L 325 212 Z M 421.817 488 L 427.109 426 L 404.889 426 L 410.181 488 L 421.817 488 Z M 487 356 C 487 350.486 482.514 346 477 346 L 355 346 C 349.486 346 345 350.486 345 356 L 345 366 L 487 366 L 487 356 Z M 487 212 C 487 197.664 475.336 186 461 186 L 371 186 C 356.664 186 345 197.664 345 212 L 345 327.713 C 348.129 326.604 351.496 326 355 326 L 477 326 C 480.504 326 483.871 326.604 487 327.713 L 487 212 Z"/>
  </g>
  <g transform="matrix(0.031327, 0, 0, 0.031327, 385.446442, 224.853455)" style="">
    <path d="m307.868 219.606c-19.941 0-37.133-13.573-40.878-32.274-1.864-9.311-.525-18.512 3.383-26.393h-17.239c-5.522 0-10-4.477-10-10s4.478-10 10-10h41.59c4.75 0 8.845 3.341 9.797 7.995s-1.5 9.335-5.868 11.201c-9.063 3.873-14.02 13.441-12.051 23.27 1.85 9.236 10.992 16.201 21.267 16.201h52.686c-9.086-8.279-21.159-13.333-34.391-13.333-5.522 0-10-4.477-10-10s4.478-10 10-10c9.803 0 17.777-7.975 17.777-17.778 0-18.993-15.452-34.444-34.444-34.444-5.522 0-10-4.477-10-10s4.478-10 10-10c30.021 0 54.444 24.424 54.444 54.444 0 9.116-3.246 17.489-8.643 24.023 24.725 11.148 41.976 36.03 41.976 64.866 0 5.523-4.478 10-10 10-5.22 0-9.506-4-9.96-9.103-.943-10.472-9.936-18.675-20.471-18.675zm130.701-140.014c-86.676-91.788-225.559-104.681-326.801-36.108-10.943 7.38.239 23.96 11.182 16.58 93.271-63.183 221.226-51.308 301.081 33.256 88.708 93.939 84.467 242.003-9.471 330.711-93.939 88.708-242.003 84.467-330.711-9.472-77.44-82.006-84.045-205.26-21.978-294.265 7.527-10.834-8.897-22.245-16.424-11.412-67.364 96.612-60.191 230.394 23.864 319.406 96.29 101.968 257.009 106.571 358.977 10.281s106.571-257.009 10.281-358.977zm-352.844 10.08c5.24-1.745 8.073-7.408 6.329-12.648-1.745-5.24-7.408-8.074-12.648-6.329s-8.074 7.408-6.329 12.648 7.408 8.074 12.648 6.329zm318.85 300.763-287.13-287.13c-4.194-4.194-3.816-11.07.765-14.837 84.062-69.115 208.498-64.401 287.05 14.151s83.266 202.988 14.151 287.05c-3.766 4.582-10.643 4.959-14.836.766zm-264.965-293.255 170.76 170.76h81.57c16.542 0 30 13.458 30 30s-13.458 30-30 30h-21.57l40.33 40.33c55.49-75.89 48.96-182.97-19.58-251.51s-175.62-75.07-251.51-19.58zm210.76 210.76h41.57c5.514 0 10-4.486 10-10s-4.486-10-10-10h-61.57zm-247.053-190.486 287.13 287.13c4.194 4.194 3.816 11.07-.765 14.837-84.062 69.115-208.498 64.401-287.05-14.151-78.552-78.553-83.266-202.99-14.152-287.051 3.767-4.581 10.643-4.959 14.837-.765zm142.196 170.486h-47.573v20h67.573zm-128.741 103.189c68.54 68.54 175.62 75.07 251.51 19.58l-82.769-82.769h-180.573c-5.522 0-10-4.477-10-10v-40c0-5.523 4.478-10 10-10h120.573l-128.321-128.321c-55.49 75.89-48.96 182.97 19.58 251.51zm-1.832-103.189v20h63v-20z"/>
  </g>
  <g transform="matrix(0.16047, 0, 0, 0.16047, 0, 217.839355)" style=""/>
  <g transform="matrix(0.16047, 0, 0, 0.16047, 0, 217.839355)" style=""/>
  <g transform="matrix(0.16047, 0, 0, 0.16047, 0, 217.839355)" style=""/>
  <g transform="matrix(0.16047, 0, 0, 0.16047, 0, 217.839355)" style=""/>
  <g transform="matrix(0.16047, 0, 0, 0.16047, 0, 217.839355)" style=""/>
  <g transform="matrix(0.16047, 0, 0, 0.16047, 0, 217.839355)" style=""/>
  <g transform="matrix(0.16047, 0, 0, 0.16047, 0, 217.839355)" style=""/>
  <g transform="matrix(0.16047, 0, 0, 0.16047, 0, 217.839355)" style=""/>
  <g transform="matrix(0.16047, 0, 0, 0.16047, 0, 217.839355)" style=""/>
  <g transform="matrix(0.16047, 0, 0, 0.16047, 0, 217.839355)" style=""/>
  <g transform="matrix(0.16047, 0, 0, 0.16047, 0, 217.839355)" style=""/>
  <g transform="matrix(0.16047, 0, 0, 0.16047, 0, 217.839355)" style=""/>
  <g transform="matrix(0.16047, 0, 0, 0.16047, 0, 217.839355)" style=""/>
  <g transform="matrix(0.16047, 0, 0, 0.16047, 0, 217.839355)" style=""/>
  <g transform="matrix(0.16047, 0, 0, 0.16047, 0, 217.839355)" style=""/>
  <g transform="matrix(0.083951, 0, 0, 0.083951, 145.09819, 274.486755)" style=""/>
  <g transform="matrix(0.083951, 0, 0, 0.083951, 145.09819, 274.486755)" style=""/>
  <g transform="matrix(0.083951, 0, 0, 0.083951, 145.09819, 274.486755)" style=""/>
  <g transform="matrix(0.083951, 0, 0, 0.083951, 145.09819, 274.486755)" style=""/>
  <g transform="matrix(0.083951, 0, 0, 0.083951, 145.09819, 274.486755)" style=""/>
  <g transform="matrix(0.083951, 0, 0, 0.083951, 145.09819, 274.486755)" style=""/>
  <g transform="matrix(0.083951, 0, 0, 0.083951, 145.09819, 274.486755)" style=""/>
  <g transform="matrix(0.083951, 0, 0, 0.083951, 145.09819, 274.486755)" style=""/>
  <g transform="matrix(0.083951, 0, 0, 0.083951, 145.09819, 274.486755)" style=""/>
  <g transform="matrix(0.083951, 0, 0, 0.083951, 145.09819, 274.486755)" style=""/>
  <g transform="matrix(0.083951, 0, 0, 0.083951, 145.09819, 274.486755)" style=""/>
  <g transform="matrix(0.083951, 0, 0, 0.083951, 145.09819, 274.486755)" style=""/>
  <g transform="matrix(0.083951, 0, 0, 0.083951, 145.09819, 274.486755)" style=""/>
  <g transform="matrix(0.083951, 0, 0, 0.083951, 145.09819, 274.486755)" style=""/>
  <g transform="matrix(0.083951, 0, 0, 0.083951, 145.09819, 274.486755)" style=""/>
  <g transform="matrix(0.109688, 0, 0, 0.109688, 211.037064, 256.278259)" style="">
    <path d="M 263.43 416 C 263.43 421.51 258.94 426 253.43 426 C 247.91 426 243.43 421.51 243.43 416 C 243.43 410.49 247.91 406 253.43 406 C 258.94 406 263.43 410.49 263.43 416 Z M 507 212 L 507 376 C 507 381.523 502.523 386 497 386 L 477 386 L 477 396 C 477 412.508 463.667 425.9 447.183 425.999 L 440.964 498.851 C 440.522 504.025 436.193 508 431 508 L 401 508 C 395.807 508 391.478 504.025 391.036 498.851 L 384.817 426 L 298.43 426 C 292.679 426 288.057 421.126 288.454 415.304 C 288.815 410 293.467 406 298.783 406 L 447 406 C 452.5 405.99 456.99 401.5 457 396 L 457 386 L 51 386 L 51 396 C 51.01 401.5 55.5 405.99 61 406 L 208.44 406 C 212.69 406 216.578 408.649 217.893 412.691 C 220.139 419.591 215.013 426 208.429 426 L 123.182 426 L 116.963 498.851 C 116.522 504.025 112.193 508 107 508 L 77 508 C 71.807 508 67.478 504.025 67.036 498.851 L 60.817 425.999 C 44.333 425.9 31 412.508 31 396 L 31 386 L 11 386 C 5.477 386 1 381.523 1 376 L 1 212 C 1 186.636 21.636 166 47 166 L 137 166 C 151.562 166 164.565 172.802 173 183.395 C 181.435 172.802 194.438 166 209 166 L 299 166 C 313.562 166 326.565 172.802 335 183.395 C 343.435 172.802 356.438 166 371 166 L 461 166 C 486.364 166 507 186.636 507 212 Z M 103.11 426 L 80.89 426 L 86.182 488 L 97.817 488 L 103.11 426 Z M 163 356 C 163 350.486 158.514 346 153 346 L 31 346 C 25.486 346 21 350.486 21 356 L 21 366 L 163 366 L 163 356 Z M 163 212 C 163 197.664 151.336 186 137 186 L 47 186 C 32.664 186 21 197.664 21 212 L 21 327.713 C 24.129 326.604 27.496 326 31 326 L 153 326 C 156.504 326 159.871 326.604 163 327.713 L 163 212 Z M 325 356 C 325 350.486 320.514 346 315 346 L 193 346 C 187.486 346 183 350.486 183 356 L 183 366 L 325 366 L 325 356 Z M 325 212 C 325 197.664 313.336 186 299 186 L 209 186 C 194.664 186 183 197.664 183 212 L 183 327.713 C 186.129 326.604 189.496 326 193 326 L 315 326 C 318.504 326 321.871 326.604 325 327.713 L 325 212 Z M 421.817 488 L 427.109 426 L 404.889 426 L 410.181 488 L 421.817 488 Z M 487 356 C 487 350.486 482.514 346 477 346 L 355 346 C 349.486 346 345 350.486 345 356 L 345 366 L 487 366 L 487 356 Z M 487 212 C 487 197.664 475.336 186 461 186 L 371 186 C 356.664 186 345 197.664 345 212 L 345 327.713 C 348.129 326.604 351.496 326 355 326 L 477 326 C 480.504 326 483.871 326.604 487 327.713 L 487 212 Z"/>
  </g>
  <g transform="matrix(0.139133, 0, 0, 0.139133, 18.544966, 240.763824)" style="">
    <g>
      <path d="M265.85,325.069c-2.64,0-5.21-1.06-7.08-2.92c-1.86-1.859-2.92-4.439-2.92-7.069c0-2.641,1.06-5.21,2.92-7.08 c1.87-1.86,4.44-2.92,7.08-2.92c2.63,0,5.21,1.06,7.07,2.92c1.86,1.87,2.93,4.439,2.93,7.08c0,2.63-1.069,5.2-2.93,7.069 C271.05,324.01,268.48,325.069,265.85,325.069z" style="fill: rgb(255, 182, 0);"/>
    </g>
  </g>
  <g transform="matrix(0.139133, 0, 0, 0.139133, 18.544966, 240.763824)" style="">
    <g>
      <path d="M256,0c-35.29,0-64,28.71-64,64s28.71,64,64,64s64-28.71,64-64S291.289,0,256,0z M256,108.307 c-24.431,0-44.308-19.876-44.308-44.308S231.569,19.692,256,19.692S300.307,39.569,300.307,64S280.432,108.307,256,108.307z" style="fill: rgb(255, 182, 0);"/>
    </g>
  </g>
  <g transform="matrix(0.139133, 0, 0, 0.139133, 18.544966, 240.763824)" style="">
    <g>
      <path d="M364.307,275.692V177.23c0-27.146-22.085-49.231-49.231-49.231H256h-59.077c-27.146,0-49.231,22.085-49.231,49.231v98.461 c0,21.993,14.495,40.664,34.435,46.959l-33.395,66.79c-1.526,3.052-1.363,6.677,0.431,9.579c1.794,2.903,4.963,4.67,8.376,4.67 h29.538v68.258c0,21.532,17.205,39.492,38.351,40.036c0.349,0.009,0.7,0.014,1.048,0.014c10.332,0,20.052-3.946,27.472-11.177 c0.715-0.696,1.398-1.414,2.052-2.152c0.661,0.746,1.353,1.472,2.075,2.175c7.686,7.478,17.834,11.443,28.564,11.139 c21.11-0.578,38.285-18.515,38.285-39.983v-68.309h29.538c3.413,0,6.582-1.766,8.376-4.67c1.793-2.903,1.956-6.527,0.431-9.579 l-33.395-66.79C349.813,316.355,364.307,297.685,364.307,275.692z M344.615,275.692c0,12.835-8.232,23.78-19.692,27.845v-27.845 c0-5.438-4.409-9.846-9.846-9.846c-5.437,0-9.846,4.408-9.846,9.846v39.385c0,0.186,0.018,0.369,0.028,0.552 c0.006,0.109,0.007,0.219,0.017,0.328c0.034,0.388,0.088,0.771,0.166,1.145c0.001,0.004,0.002,0.008,0.003,0.011 c0.079,0.376,0.185,0.741,0.306,1.101c0.029,0.084,0.061,0.166,0.092,0.25c0.107,0.293,0.228,0.58,0.362,0.86 c0.025,0.051,0.04,0.105,0.066,0.156l32.26,64.521h-23.453h-39.385c-5.437,0-9.846,4.408-9.846,9.846 c0,5.438,4.409,9.846,9.846,9.846h29.538V472c0,10.904-8.583,20.009-19.133,20.299c-5.39,0.136-10.449-1.83-14.291-5.569 c-3.843-3.741-5.961-8.753-5.961-14.115v-59.077c0-5.438-4.409-9.846-9.846-9.846c-5.437,0-9.846,4.408-9.846,9.846v59.077 c0,5.356-2.113,10.365-5.95,14.105c-3.836,3.738-8.933,5.718-14.268,5.581c-10.568-0.272-19.167-9.401-19.167-20.35v-78.104 c0-5.438-4.409-9.846-9.846-9.846H173.47l29.538-59.077h33.299c5.437,0,9.846-4.408,9.846-9.846c0-5.438-4.409-9.846-9.846-9.846 h-29.538v-29.538c0-5.438-4.409-9.846-9.846-9.846c-5.437,0-9.846,4.408-9.846,9.846v27.845 c-11.46-4.065-19.692-15.008-19.692-27.845V177.23c0-16.287,13.251-29.538,29.538-29.538h118.154 c16.287,0,29.538,13.251,29.538,29.538V275.692z" style="fill: rgb(255, 182, 0);"/>
    </g>
  </g>
  <g transform="matrix(0.151201, 0, 0, 0.151201, 285.201721, 248.656387)" style=""/>
  <g transform="matrix(0.151201, 0, 0, 0.151201, 285.201721, 248.656387)" style=""/>
  <g transform="matrix(0.151201, 0, 0, 0.151201, 285.201721, 248.656387)" style=""/>
  <g transform="matrix(0.151201, 0, 0, 0.151201, 285.201721, 248.656387)" style=""/>
  <g transform="matrix(0.151201, 0, 0, 0.151201, 285.201721, 248.656387)" style=""/>
  <g transform="matrix(0.151201, 0, 0, 0.151201, 285.201721, 248.656387)" style=""/>
  <g transform="matrix(0.151201, 0, 0, 0.151201, 285.201721, 248.656387)" style=""/>
  <g transform="matrix(0.151201, 0, 0, 0.151201, 285.201721, 248.656387)" style=""/>
  <g transform="matrix(0.151201, 0, 0, 0.151201, 285.201721, 248.656387)" style=""/>
  <g transform="matrix(0.151201, 0, 0, 0.151201, 285.201721, 248.656387)" style=""/>
  <g transform="matrix(0.151201, 0, 0, 0.151201, 285.201721, 248.656387)" style=""/>
  <g transform="matrix(0.151201, 0, 0, 0.151201, 285.201721, 248.656387)" style=""/>
  <g transform="matrix(0.151201, 0, 0, 0.151201, 285.201721, 248.656387)" style=""/>
  <g transform="matrix(0.151201, 0, 0, 0.151201, 285.201721, 248.656387)" style=""/>
  <g transform="matrix(0.151201, 0, 0, 0.151201, 285.201721, 248.656387)" style=""/>
  <path d="M 64.583 286.495 C 64.455 286.367 64.248 286.367 64.121 286.495 C 63.992 286.623 63.992 286.829 64.12 286.957 L 64.132 286.97 C 64.196 287.034 64.28 287.065 64.364 287.065 C 64.447 287.065 64.53 287.034 64.594 286.97 C 64.722 286.843 64.722 286.635 64.595 286.508 Z M 64.583 286.495" style=""/>
  <path d="M 78.125 277.025 L 74.22 273.12 C 73.942 272.842 73.572 272.688 73.177 272.688 C 72.782 272.688 72.413 272.842 72.134 273.12 L 66.533 278.721 C 66.472 278.783 66.437 278.866 66.437 278.953 L 66.437 279.61 C 66.437 279.675 66.385 279.727 66.32 279.727 L 65.662 279.727 C 65.575 279.727 65.492 279.761 65.431 279.823 L 62.252 283.003 C 61.973 283.282 61.819 283.652 61.819 284.045 C 61.819 284.44 61.973 284.811 62.252 285.089 L 63.207 286.045 C 63.271 286.109 63.355 286.141 63.439 286.141 C 63.522 286.141 63.607 286.109 63.67 286.045 C 63.797 285.918 63.797 285.711 63.67 285.583 L 62.714 284.627 C 62.558 284.472 62.473 284.265 62.473 284.045 C 62.473 283.826 62.558 283.62 62.714 283.466 L 65.798 280.381 L 66.32 280.381 C 66.745 280.381 67.091 280.035 67.091 279.61 L 67.091 279.087 L 72.596 273.583 C 72.751 273.428 72.958 273.343 73.177 273.343 C 73.397 273.343 73.602 273.428 73.757 273.583 L 77.663 277.487 C 77.818 277.642 77.903 277.849 77.903 278.068 C 77.903 278.287 77.818 278.494 77.663 278.648 L 74.339 281.972 C 74.213 282.1 74.213 282.307 74.339 282.434 C 74.468 282.561 74.674 282.561 74.802 282.434 L 78.125 279.111 C 78.404 278.832 78.557 278.462 78.557 278.068 C 78.557 277.674 78.404 277.304 78.125 277.025 Z M 78.125 277.025" style=""/>
  <path d="M 72.487 283.824 L 72.157 284.154 L 71.635 284.154 C 71.209 284.154 70.864 284.5 70.864 284.926 L 70.864 285.447 L 67.78 288.532 C 67.459 288.852 66.939 288.852 66.619 288.532 L 65.519 287.433 C 65.392 287.305 65.185 287.305 65.056 287.433 C 64.93 287.559 64.93 287.767 65.056 287.895 L 66.156 288.994 C 66.444 289.282 66.822 289.425 67.199 289.425 C 67.577 289.425 67.954 289.282 68.242 288.994 L 71.423 285.814 C 71.483 285.753 71.517 285.669 71.517 285.583 L 71.517 284.926 C 71.517 284.861 71.571 284.808 71.635 284.808 L 72.293 284.808 C 72.38 284.808 72.462 284.773 72.523 284.713 L 72.949 284.287 C 73.077 284.159 73.077 283.952 72.949 283.824 C 72.822 283.697 72.615 283.697 72.487 283.824 Z M 72.487 283.824" style=""/>
  <path d="M 67.762 280.589 C 67.633 280.462 67.426 280.462 67.299 280.589 C 67.171 280.716 67.171 280.924 67.299 281.051 L 67.684 281.436 C 67.748 281.501 67.831 281.532 67.914 281.532 C 67.998 281.532 68.082 281.501 68.146 281.436 C 68.274 281.308 68.274 281.102 68.146 280.974 Z M 67.762 280.589" style=""/>
  <path d="M 69.068 282.82 C 69.131 282.884 69.216 282.916 69.299 282.916 C 69.382 282.916 69.467 282.884 69.531 282.82 C 69.658 282.694 69.658 282.486 69.531 282.358 L 69.032 281.861 C 68.906 281.733 68.698 281.733 68.57 281.861 C 68.443 281.989 68.443 282.195 68.57 282.323 Z M 69.068 282.82" style=""/>
  <path d="M 70.527 284.145 C 70.611 284.145 70.695 284.113 70.758 284.049 C 70.886 283.921 70.886 283.715 70.758 283.586 L 70.344 283.172 C 70.216 283.044 70.008 283.044 69.881 283.172 C 69.753 283.299 69.753 283.506 69.881 283.634 L 70.296 284.049 C 70.36 284.113 70.443 284.145 70.527 284.145 Z M 70.527 284.145" style=""/>
  <path d="M 73.886 280.075 L 73.389 279.765 L 73.389 279.374 L 75.297 279.974 C 75.329 279.983 75.363 279.988 75.395 279.988 C 75.465 279.988 75.532 279.967 75.589 279.925 C 75.672 279.863 75.723 279.765 75.723 279.661 L 75.723 278.929 C 75.723 278.831 75.679 278.738 75.604 278.677 L 73.389 276.849 L 73.389 276.36 C 73.389 275.774 73.104 275.22 72.627 274.879 C 72.513 274.798 72.361 274.798 72.247 274.879 C 71.769 275.22 71.484 275.774 71.484 276.36 L 71.484 276.849 L 69.269 278.677 C 69.195 278.738 69.152 278.831 69.152 278.929 L 69.152 279.661 C 69.152 279.765 69.201 279.863 69.284 279.925 C 69.341 279.967 69.41 279.988 69.478 279.988 C 69.511 279.988 69.544 279.983 69.576 279.972 L 71.484 279.374 L 71.484 279.765 L 70.987 280.076 C 70.892 280.136 70.834 280.24 70.834 280.353 L 70.834 281.345 C 70.834 281.451 70.886 281.55 70.971 281.61 C 71.057 281.672 71.167 281.688 71.268 281.654 L 72.436 281.252 L 73.607 281.654 C 73.641 281.666 73.678 281.672 73.713 281.672 C 73.78 281.672 73.846 281.65 73.902 281.61 C 73.989 281.55 74.039 281.451 74.039 281.345 L 74.039 280.353 C 74.039 280.24 73.981 280.136 73.886 280.075 Z M 75.069 279.083 L 75.069 279.215 L 73.389 278.687 L 73.389 277.696 Z M 69.804 279.215 L 69.804 279.083 L 71.484 277.696 L 71.484 278.687 Z M 73.386 280.887 L 72.54 280.597 C 72.506 280.585 72.471 280.579 72.434 280.579 C 72.399 280.579 72.363 280.585 72.328 280.597 L 71.488 280.887 L 71.488 280.534 L 71.985 280.222 C 72.081 280.163 72.138 280.058 72.138 279.945 L 72.138 278.928 C 72.138 278.927 72.138 278.927 72.138 278.925 L 72.138 276.36 C 72.138 276.071 72.247 275.794 72.437 275.581 C 72.627 275.794 72.736 276.071 72.736 276.36 L 72.736 278.925 L 72.736 278.928 L 72.736 279.946 C 72.736 280.06 72.794 280.164 72.889 280.225 L 73.386 280.535 L 73.386 280.887 Z M 73.386 280.887" style=""/>
  <path d="M 66.731 282.536 C 66.603 282.41 66.396 282.41 66.269 282.536 L 64.473 284.332 C 64.346 284.459 64.346 284.667 64.473 284.794 C 64.537 284.859 64.621 284.889 64.705 284.889 C 64.788 284.889 64.873 284.857 64.936 284.794 L 66.731 282.999 C 66.858 282.872 66.858 282.664 66.731 282.536 Z M 66.731 282.536" style=""/>
  <path d="M 65.462 285.782 C 65.526 285.846 65.609 285.878 65.694 285.878 C 65.777 285.878 65.861 285.846 65.924 285.782 L 67.719 283.988 C 67.847 283.861 67.847 283.654 67.719 283.525 C 67.592 283.398 67.385 283.398 67.256 283.525 L 65.462 285.32 C 65.335 285.448 65.335 285.656 65.462 285.782 Z M 65.462 285.782" style=""/>
  <path d="M 66.451 286.309 C 66.323 286.437 66.323 286.643 66.451 286.772 C 66.515 286.836 66.598 286.867 66.682 286.867 C 66.766 286.867 66.849 286.836 66.913 286.772 L 68.708 284.977 C 68.836 284.849 68.836 284.642 68.708 284.515 C 68.581 284.386 68.374 284.386 68.246 284.515 Z M 66.451 286.309" style=""/>
  <path d="M 73.646 282.8 C 73.56 282.8 73.476 282.835 73.414 282.896 C 73.354 282.957 73.318 283.041 73.318 283.127 C 73.318 283.213 73.354 283.297 73.414 283.359 C 73.476 283.419 73.56 283.453 73.646 283.453 C 73.732 283.453 73.816 283.419 73.877 283.359 C 73.938 283.297 73.973 283.213 73.973 283.127 C 73.973 283.041 73.938 282.957 73.877 282.896 C 73.816 282.835 73.732 282.8 73.646 282.8 Z M 73.646 282.8" style=""/>
  <path d="M 23.248 290.529 C 23.139 290.42 22.987 290.357 22.833 290.357 C 22.678 290.357 22.527 290.42 22.418 290.529 C 22.309 290.638 22.246 290.789 22.246 290.944 C 22.246 291.098 22.309 291.25 22.418 291.358 C 22.527 291.468 22.678 291.531 22.833 291.531 C 22.987 291.531 23.139 291.468 23.248 291.358 C 23.357 291.25 23.42 291.098 23.42 290.944 C 23.42 290.789 23.357 290.638 23.248 290.529 Z M 23.248 290.529" style=""/>
  <path d="M 45.259 290.475 C 45.259 289.115 44.152 288.009 42.793 288.009 L 36.688 288.009 L 36.688 285.573 C 36.688 284.391 35.726 283.429 34.545 283.429 L 25.915 283.429 C 24.734 283.429 23.772 284.391 23.772 285.573 L 23.772 288.009 L 17.667 288.009 C 16.307 288.009 15.201 289.115 15.201 290.475 L 15.201 308.673 C 15.201 310.033 16.307 311.139 17.667 311.139 L 42.793 311.139 C 44.152 311.139 45.259 310.033 45.259 308.673 Z M 41.517 309.722 L 41.517 309.965 L 40.797 309.965 L 40.797 289.182 L 41.517 289.182 L 41.517 289.425 C 41.517 290.716 42.567 291.766 43.857 291.766 L 44.085 291.766 L 44.085 307.382 L 43.857 307.382 C 42.567 307.382 41.517 308.432 41.517 309.722 Z M 22.833 292.705 C 22.508 292.705 22.246 292.968 22.246 293.293 L 22.246 309.965 L 20.838 309.965 L 20.838 289.182 L 37.04 289.182 L 37.04 305.856 C 37.04 306.18 37.302 306.442 37.627 306.442 C 37.951 306.442 38.214 306.18 38.214 305.856 L 38.214 289.182 L 39.623 289.182 L 39.623 309.965 L 23.42 309.965 L 23.42 293.293 C 23.42 292.968 23.157 292.705 22.833 292.705 Z M 16.618 307.382 L 16.376 307.382 L 16.376 291.766 L 16.618 291.766 C 17.907 291.766 18.958 290.715 18.958 289.425 L 18.958 289.182 L 19.663 289.182 L 19.663 309.965 L 18.958 309.965 L 18.958 309.722 C 18.958 308.432 17.907 307.382 16.618 307.382 Z M 33.166 288.009 L 27.294 288.009 L 27.294 286.951 L 33.166 286.951 Z M 44.085 290.475 L 44.085 290.592 L 43.857 290.592 C 43.214 290.592 42.69 290.069 42.69 289.425 L 42.69 289.182 L 42.793 289.182 C 43.506 289.182 44.085 289.762 44.085 290.475 Z M 24.947 285.573 C 24.947 285.039 25.381 284.604 25.915 284.604 L 34.545 284.604 C 35.079 284.604 35.514 285.039 35.514 285.573 L 35.514 288.009 L 34.339 288.009 L 34.339 286.365 C 34.339 286.04 34.077 285.778 33.752 285.778 L 26.708 285.778 C 26.383 285.778 26.121 286.04 26.121 286.365 L 26.121 288.009 L 24.947 288.009 Z M 17.667 289.182 L 17.784 289.182 L 17.784 289.425 C 17.784 290.069 17.261 290.592 16.618 290.592 L 16.376 290.592 L 16.376 290.475 C 16.376 289.762 16.954 289.182 17.667 289.182 Z M 16.376 308.673 L 16.376 308.556 L 16.618 308.556 C 17.261 308.556 17.784 309.079 17.784 309.722 L 17.784 309.965 L 17.667 309.965 C 16.954 309.965 16.376 309.386 16.376 308.673 Z M 42.793 309.965 L 42.69 309.965 L 42.69 309.722 C 42.69 309.079 43.214 308.556 43.857 308.556 L 44.085 308.556 L 44.085 308.673 C 44.085 309.386 43.506 309.965 42.793 309.965 Z M 42.793 309.965" style=""/>
  <path d="M 26.528 299.502 C 26.33 299.457 26.124 299.517 25.98 299.659 L 24.835 300.806 C 24.702 300.939 24.64 301.131 24.672 301.318 C 24.703 301.505 24.823 301.664 24.994 301.748 L 27.048 302.75 L 28.056 304.811 C 28.139 304.981 28.3 305.101 28.487 305.132 C 28.519 305.137 28.551 305.141 28.584 305.141 C 28.738 305.141 28.887 305.079 28.999 304.969 L 30.144 303.822 C 30.287 303.68 30.346 303.472 30.301 303.275 L 30.055 302.213 L 30.741 301.526 L 32.46 304.824 C 32.546 304.989 32.707 305.104 32.892 305.133 C 32.922 305.137 32.951 305.14 32.981 305.14 C 33.135 305.14 33.284 305.078 33.396 304.967 L 34.352 304.012 C 34.476 303.887 34.538 303.715 34.522 303.541 L 34.016 298.251 L 34.817 297.451 C 35.579 296.689 35.928 295.599 35.751 294.536 C 35.709 294.289 35.515 294.095 35.268 294.054 C 34.206 293.876 33.115 294.225 32.352 294.987 L 31.553 295.787 L 26.263 295.282 C 26.09 295.266 25.916 295.328 25.792 295.452 L 24.836 296.408 C 24.704 296.54 24.642 296.727 24.671 296.912 C 24.699 297.097 24.813 297.257 24.98 297.344 L 28.276 299.063 L 27.592 299.747 Z M 33.326 303.376 L 33.131 303.571 L 31.611 300.657 L 32.94 299.327 Z M 26.232 296.672 L 26.427 296.477 L 30.476 296.864 L 29.146 298.193 Z M 28.193 300.808 L 33.183 295.818 C 33.568 295.431 34.084 295.209 34.62 295.184 C 34.595 295.72 34.372 296.235 33.987 296.621 L 30.479 300.128 C 30.477 300.129 30.476 300.13 30.475 300.131 L 28.995 301.613 C 28.852 301.756 28.792 301.963 28.837 302.161 L 29.084 303.222 L 28.749 303.557 L 28.015 302.053 C 27.957 301.936 27.862 301.84 27.745 301.783 L 26.248 301.053 L 26.581 300.72 L 27.647 300.964 C 27.844 301.01 28.049 300.95 28.193 300.808 Z M 28.193 300.808" style=""/>
  <path d="M 37.627 308.79 C 37.781 308.79 37.933 308.728 38.043 308.618 C 38.151 308.51 38.214 308.358 38.214 308.203 C 38.214 308.049 38.151 307.897 38.043 307.789 C 37.933 307.68 37.781 307.617 37.627 307.617 C 37.472 307.617 37.321 307.68 37.212 307.789 C 37.103 307.897 37.04 308.049 37.04 308.203 C 37.04 308.358 37.103 308.51 37.212 308.618 C 37.321 308.728 37.472 308.79 37.627 308.79 Z M 37.627 308.79" style=""/>
  <g transform="matrix(0.109688, 0, 0, 0.109688, 150.65062, 256.278137)" style="">
    <path d="M 263.43 416 C 263.43 421.51 258.94 426 253.43 426 C 247.91 426 243.43 421.51 243.43 416 C 243.43 410.49 247.91 406 253.43 406 C 258.94 406 263.43 410.49 263.43 416 Z M 507 212 L 507 376 C 507 381.523 502.523 386 497 386 L 477 386 L 477 396 C 477 412.508 463.667 425.9 447.183 425.999 L 440.964 498.851 C 440.522 504.025 436.193 508 431 508 L 401 508 C 395.807 508 391.478 504.025 391.036 498.851 L 384.817 426 L 298.43 426 C 292.679 426 288.057 421.126 288.454 415.304 C 288.815 410 293.467 406 298.783 406 L 447 406 C 452.5 405.99 456.99 401.5 457 396 L 457 386 L 51 386 L 51 396 C 51.01 401.5 55.5 405.99 61 406 L 208.44 406 C 212.69 406 216.578 408.649 217.893 412.691 C 220.139 419.591 215.013 426 208.429 426 L 123.182 426 L 116.963 498.851 C 116.522 504.025 112.193 508 107 508 L 77 508 C 71.807 508 67.478 504.025 67.036 498.851 L 60.817 425.999 C 44.333 425.9 31 412.508 31 396 L 31 386 L 11 386 C 5.477 386 1 381.523 1 376 L 1 212 C 1 186.636 21.636 166 47 166 L 137 166 C 151.562 166 164.565 172.802 173 183.395 C 181.435 172.802 194.438 166 209 166 L 299 166 C 313.562 166 326.565 172.802 335 183.395 C 343.435 172.802 356.438 166 371 166 L 461 166 C 486.364 166 507 186.636 507 212 Z M 103.11 426 L 80.89 426 L 86.182 488 L 97.817 488 L 103.11 426 Z M 163 356 C 163 350.486 158.514 346 153 346 L 31 346 C 25.486 346 21 350.486 21 356 L 21 366 L 163 366 L 163 356 Z M 163 212 C 163 197.664 151.336 186 137 186 L 47 186 C 32.664 186 21 197.664 21 212 L 21 327.713 C 24.129 326.604 27.496 326 31 326 L 153 326 C 156.504 326 159.871 326.604 163 327.713 L 163 212 Z M 325 356 C 325 350.486 320.514 346 315 346 L 193 346 C 187.486 346 183 350.486 183 356 L 183 366 L 325 366 L 325 356 Z M 325 212 C 325 197.664 313.336 186 299 186 L 209 186 C 194.664 186 183 197.664 183 212 L 183 327.713 C 186.129 326.604 189.496 326 193 326 L 315 326 C 318.504 326 321.871 326.604 325 327.713 L 325 212 Z M 421.817 488 L 427.109 426 L 404.889 426 L 410.181 488 L 421.817 488 Z M 487 356 C 487 350.486 482.514 346 477 346 L 355 346 C 349.486 346 345 350.486 345 356 L 345 366 L 487 366 L 487 356 Z M 487 212 C 487 197.664 475.336 186 461 186 L 371 186 C 356.664 186 345 197.664 345 212 L 345 327.713 C 348.129 326.604 351.496 326 355 326 L 477 326 C 480.504 326 483.871 326.604 487 327.713 L 487 212 Z"/>
  </g>
  <g transform="matrix(0.109688, 0, 0, 0.109688, 91.431, 256.278137)" style="">
    <path d="M 263.43 416 C 263.43 421.51 258.94 426 253.43 426 C 247.91 426 243.43 421.51 243.43 416 C 243.43 410.49 247.91 406 253.43 406 C 258.94 406 263.43 410.49 263.43 416 Z M 507 212 L 507 376 C 507 381.523 502.523 386 497 386 L 477 386 L 477 396 C 477 412.508 463.667 425.9 447.183 425.999 L 440.964 498.851 C 440.522 504.025 436.193 508 431 508 L 401 508 C 395.807 508 391.478 504.025 391.036 498.851 L 384.817 426 L 298.43 426 C 292.679 426 288.057 421.126 288.454 415.304 C 288.815 410 293.467 406 298.783 406 L 447 406 C 452.5 405.99 456.99 401.5 457 396 L 457 386 L 51 386 L 51 396 C 51.01 401.5 55.5 405.99 61 406 L 208.44 406 C 212.69 406 216.578 408.649 217.893 412.691 C 220.139 419.591 215.013 426 208.429 426 L 123.182 426 L 116.963 498.851 C 116.522 504.025 112.193 508 107 508 L 77 508 C 71.807 508 67.478 504.025 67.036 498.851 L 60.817 425.999 C 44.333 425.9 31 412.508 31 396 L 31 386 L 11 386 C 5.477 386 1 381.523 1 376 L 1 212 C 1 186.636 21.636 166 47 166 L 137 166 C 151.562 166 164.565 172.802 173 183.395 C 181.435 172.802 194.438 166 209 166 L 299 166 C 313.562 166 326.565 172.802 335 183.395 C 343.435 172.802 356.438 166 371 166 L 461 166 C 486.364 166 507 186.636 507 212 Z M 103.11 426 L 80.89 426 L 86.182 488 L 97.817 488 L 103.11 426 Z M 163 356 C 163 350.486 158.514 346 153 346 L 31 346 C 25.486 346 21 350.486 21 356 L 21 366 L 163 366 L 163 356 Z M 163 212 C 163 197.664 151.336 186 137 186 L 47 186 C 32.664 186 21 197.664 21 212 L 21 327.713 C 24.129 326.604 27.496 326 31 326 L 153 326 C 156.504 326 159.871 326.604 163 327.713 L 163 212 Z M 325 356 C 325 350.486 320.514 346 315 346 L 193 346 C 187.486 346 183 350.486 183 356 L 183 366 L 325 366 L 325 356 Z M 325 212 C 325 197.664 313.336 186 299 186 L 209 186 C 194.664 186 183 197.664 183 212 L 183 327.713 C 186.129 326.604 189.496 326 193 326 L 315 326 C 318.504 326 321.871 326.604 325 327.713 L 325 212 Z M 421.817 488 L 427.109 426 L 404.889 426 L 410.181 488 L 421.817 488 Z M 487 356 C 487 350.486 482.514 346 477 346 L 355 346 C 349.486 346 345 350.486 345 356 L 345 366 L 487 366 L 487 356 Z M 487 212 C 487 197.664 475.336 186 461 186 L 371 186 C 356.664 186 345 197.664 345 212 L 345 327.713 C 348.129 326.604 351.496 326 355 326 L 477 326 C 480.504 326 483.871 326.604 487 327.713 L 487 212 Z"/>
  </g>
  <g transform="matrix(0.031327, 0, 0, 0.031327, 250.738541, 224.853455)" style="">
    <path d="m307.868 219.606c-19.941 0-37.133-13.573-40.878-32.274-1.864-9.311-.525-18.512 3.383-26.393h-17.239c-5.522 0-10-4.477-10-10s4.478-10 10-10h41.59c4.75 0 8.845 3.341 9.797 7.995s-1.5 9.335-5.868 11.201c-9.063 3.873-14.02 13.441-12.051 23.27 1.85 9.236 10.992 16.201 21.267 16.201h52.686c-9.086-8.279-21.159-13.333-34.391-13.333-5.522 0-10-4.477-10-10s4.478-10 10-10c9.803 0 17.777-7.975 17.777-17.778 0-18.993-15.452-34.444-34.444-34.444-5.522 0-10-4.477-10-10s4.478-10 10-10c30.021 0 54.444 24.424 54.444 54.444 0 9.116-3.246 17.489-8.643 24.023 24.725 11.148 41.976 36.03 41.976 64.866 0 5.523-4.478 10-10 10-5.22 0-9.506-4-9.96-9.103-.943-10.472-9.936-18.675-20.471-18.675zm130.701-140.014c-86.676-91.788-225.559-104.681-326.801-36.108-10.943 7.38.239 23.96 11.182 16.58 93.271-63.183 221.226-51.308 301.081 33.256 88.708 93.939 84.467 242.003-9.471 330.711-93.939 88.708-242.003 84.467-330.711-9.472-77.44-82.006-84.045-205.26-21.978-294.265 7.527-10.834-8.897-22.245-16.424-11.412-67.364 96.612-60.191 230.394 23.864 319.406 96.29 101.968 257.009 106.571 358.977 10.281s106.571-257.009 10.281-358.977zm-352.844 10.08c5.24-1.745 8.073-7.408 6.329-12.648-1.745-5.24-7.408-8.074-12.648-6.329s-8.074 7.408-6.329 12.648 7.408 8.074 12.648 6.329zm318.85 300.763-287.13-287.13c-4.194-4.194-3.816-11.07.765-14.837 84.062-69.115 208.498-64.401 287.05 14.151s83.266 202.988 14.151 287.05c-3.766 4.582-10.643 4.959-14.836.766zm-264.965-293.255 170.76 170.76h81.57c16.542 0 30 13.458 30 30s-13.458 30-30 30h-21.57l40.33 40.33c55.49-75.89 48.96-182.97-19.58-251.51s-175.62-75.07-251.51-19.58zm210.76 210.76h41.57c5.514 0 10-4.486 10-10s-4.486-10-10-10h-61.57zm-247.053-190.486 287.13 287.13c4.194 4.194 3.816 11.07-.765 14.837-84.062 69.115-208.498 64.401-287.05-14.151-78.552-78.553-83.266-202.99-14.152-287.051 3.767-4.581 10.643-4.959 14.837-.765zm142.196 170.486h-47.573v20h67.573zm-128.741 103.189c68.54 68.54 175.62 75.07 251.51 19.58l-82.769-82.769h-180.573c-5.522 0-10-4.477-10-10v-40c0-5.523 4.478-10 10-10h120.573l-128.321-128.321c-55.49 75.89-48.96 182.97 19.58 251.51zm-1.832-103.189v20h63v-20z"/>
  </g>
  <g transform="matrix(0.031327, 0, 0, 0.031327, 150.7603, 224.853455)" style="">
    <path d="m307.868 219.606c-19.941 0-37.133-13.573-40.878-32.274-1.864-9.311-.525-18.512 3.383-26.393h-17.239c-5.522 0-10-4.477-10-10s4.478-10 10-10h41.59c4.75 0 8.845 3.341 9.797 7.995s-1.5 9.335-5.868 11.201c-9.063 3.873-14.02 13.441-12.051 23.27 1.85 9.236 10.992 16.201 21.267 16.201h52.686c-9.086-8.279-21.159-13.333-34.391-13.333-5.522 0-10-4.477-10-10s4.478-10 10-10c9.803 0 17.777-7.975 17.777-17.778 0-18.993-15.452-34.444-34.444-34.444-5.522 0-10-4.477-10-10s4.478-10 10-10c30.021 0 54.444 24.424 54.444 54.444 0 9.116-3.246 17.489-8.643 24.023 24.725 11.148 41.976 36.03 41.976 64.866 0 5.523-4.478 10-10 10-5.22 0-9.506-4-9.96-9.103-.943-10.472-9.936-18.675-20.471-18.675zm130.701-140.014c-86.676-91.788-225.559-104.681-326.801-36.108-10.943 7.38.239 23.96 11.182 16.58 93.271-63.183 221.226-51.308 301.081 33.256 88.708 93.939 84.467 242.003-9.471 330.711-93.939 88.708-242.003 84.467-330.711-9.472-77.44-82.006-84.045-205.26-21.978-294.265 7.527-10.834-8.897-22.245-16.424-11.412-67.364 96.612-60.191 230.394 23.864 319.406 96.29 101.968 257.009 106.571 358.977 10.281s106.571-257.009 10.281-358.977zm-352.844 10.08c5.24-1.745 8.073-7.408 6.329-12.648-1.745-5.24-7.408-8.074-12.648-6.329s-8.074 7.408-6.329 12.648 7.408 8.074 12.648 6.329zm318.85 300.763-287.13-287.13c-4.194-4.194-3.816-11.07.765-14.837 84.062-69.115 208.498-64.401 287.05 14.151s83.266 202.988 14.151 287.05c-3.766 4.582-10.643 4.959-14.836.766zm-264.965-293.255 170.76 170.76h81.57c16.542 0 30 13.458 30 30s-13.458 30-30 30h-21.57l40.33 40.33c55.49-75.89 48.96-182.97-19.58-251.51s-175.62-75.07-251.51-19.58zm210.76 210.76h41.57c5.514 0 10-4.486 10-10s-4.486-10-10-10h-61.57zm-247.053-190.486 287.13 287.13c4.194 4.194 3.816 11.07-.765 14.837-84.062 69.115-208.498 64.401-287.05-14.151-78.552-78.553-83.266-202.99-14.152-287.051 3.767-4.581 10.643-4.959 14.837-.765zm142.196 170.486h-47.573v20h67.573zm-128.741 103.189c68.54 68.54 175.62 75.07 251.51 19.58l-82.769-82.769h-180.573c-5.522 0-10-4.477-10-10v-40c0-5.523 4.478-10 10-10h120.573l-128.321-128.321c-55.49 75.89-48.96 182.97 19.58 251.51zm-1.832-103.189v20h63v-20z"/>
  </g>
  <g transform="matrix(0.148088, 0, 0, 0.148088, 402.850922, 236.771286)" style="">
    <path d="m264 398c0 5.51-4.49 10-10 10s-10-4.49-10-10 4.49-10 10-10 10 4.49 10 10zm180-388v488c0 5.523-4.478 10-10 10h-360c-5.522 0-10-4.477-10-10v-488c0-5.523 4.478-10 10-10h360c5.522 0 10 4.477 10 10zm-20 10h-100v110h70c5.522 0 10 4.477 10 10v104h20zm-160 423v45h96v-184h-96v49c0 5.51-4.49 10-10 10s-10-4.49-10-10v-49h-96v184h96v-45c0-5.51 4.49-10 10-10s10 4.49 10 10zm120-159v-134h-260v134zm-80-154v-110h-100v110zm-220-110v224h20v-104c0-5.523 4.478-10 10-10h70v-110zm0 468h44v-184h-14c-5.522 0-10-4.477-10-10v-30h-20zm340 0v-224h-20v30c0 5.523-4.478 10-10 10h-14v184zm-63.117-278.255-39-37c-3.121-3.121-9.516-4.25-13.766 0l-39 37c-4.007 3.801-4.173 10.13-.372 14.137 3.802 4.005 10.129 4.173 14.138.372l22.117-20.983v50.729c0 5.523 4.478 10 10 10s10-4.477 10-10v-50.728l22.117 20.983c4.008 3.801 10.337 3.634 14.138-.372 3.801-4.007 3.635-10.336-.372-14.138zm-124.883-2.745h-23.969l-10.929-30.385c-1.87-5.197-7.595-7.897-12.795-6.025-5.196 1.869-7.895 7.597-6.025 12.794l8.494 23.616h-22.205l-5.238-13.614c-1.984-5.155-7.771-7.724-12.924-5.742-5.154 1.983-7.726 7.77-5.742 12.924l6.322 16.432-6.322 16.432c-1.983 5.154.588 10.94 5.742 12.924 5.152 1.982 10.939-.586 12.924-5.742l5.238-13.614h22.205l-8.495 23.615c-1.869 5.197.829 10.925 6.025 12.794 5.2 1.872 10.925-.828 12.795-6.025l10.93-30.384h23.969c5.522 0 10-4.477 10-10s-4.478-10-10-10z"/>
  </g>
  <g transform="matrix(0.09, 0, 0, 0.09, 91.540688, 194.336288)" style="">
    <path d="m426 137.542v-91.042c0-5.523-4.477-10-10-10h-40c-5.523 0-10 4.477-10 10v91.036l-224-.022v-91.014c0-5.523-4.477-10-10-10h-40c-5.523 0-10 4.477-10 10v91.008l-61.998-.006c-11.046-.001-20.002 8.954-20.002 20v192.64c0 5.318 4 9.973 9.306 10.335 5.822.396 10.694-4.238 10.694-9.977v-39h468v140h-468v-10.642c0-5.318-4-9.973-9.306-10.334-5.822-.397-10.694 4.236-10.694 9.976v11c0 11.046 8.954 20 20 20h468c11.046 0 20-8.954 20-20v-293.952c0-11.045-8.953-19.999-19.998-20zm-40-81.042h20v81.04l-20-.002zm-284 0h20v81.012l-20-.002zm-82 235v-134h468v134zm-20 104c0-5.51 4.49-10 10-10s10 4.49 10 10-4.49 10-10 10-10-4.49-10-10zm438-218h-246c-16.542 0-30 13.458-30 30v34c0 16.542 13.458 30 30 30h246c16.542 0 30-13.458 30-30v-34c0-16.542-13.458-30-30-30zm10 64c0 5.514-4.486 10-10 10h-246c-5.514 0-10-4.486-10-10v-34c0-5.514 4.486-10 10-10h246c5.514 0 10 4.486 10 10zm-316-27h-23.969l-10.929-30.385c-1.87-5.197-7.595-7.897-12.795-6.025-5.196 1.869-7.895 7.597-6.025 12.794l8.495 23.615h-22.206l-5.238-13.614c-1.984-5.155-7.771-7.724-12.924-5.742-5.154 1.983-7.726 7.77-5.742 12.924l6.323 16.433-6.322 16.432c-1.983 5.154.588 10.94 5.742 12.924 5.152 1.982 10.939-.586 12.924-5.742l5.238-13.614h22.205l-8.495 23.615c-1.869 5.197.829 10.925 6.025 12.794 5.2 1.872 10.925-.828 12.795-6.025l10.929-30.385h23.969c5.522 0 10-4.477 10-10s-4.477-9.999-10-9.999zm275.998 167c0-5.523 4.478-10 10-10h40.002c5.522 0 10 4.477 10 10s-4.478 10-10 10h-40.002c-5.522 0-10-4.477-10-10zm0-40c0-5.523 4.478-10 10-10h40.002c5.522 0 10 4.477 10 10s-4.478 10-10 10h-40.002c-5.522 0-10-4.477-10-10zm-367.998 80c0-5.523 4.478-10 10-10h79.968c5.522 0 10 4.477 10 10s-4.478 10-10 10h-79.968c-5.522 0-10-4.477-10-10zm367.998 0c0-5.523 4.478-10 10-10h40.002c5.522 0 10 4.477 10 10s-4.478 10-10 10h-40.002c-5.522 0-10-4.477-10-10zm-367.998-80c0-5.523 4.478-10 10-10h79.968c5.522 0 10 4.477 10 10s-4.478 10-10 10h-79.968c-5.522 0-10-4.477-10-10zm122 80c0-5.523 4.478-10 10-10h205.998c5.522 0 10 4.477 10 10s-4.478 10-10 10h-205.998c-5.522 0-10-4.477-10-10zm-122-40c0-5.523 4.478-10 10-10h79.968c5.522 0 10 4.477 10 10s-4.478 10-10 10h-79.968c-5.522 0-10-4.477-10-10zm122-40c0-5.523 4.478-10 10-10h205.998c5.522 0 10 4.477 10 10s-4.478 10-10 10h-205.998c-5.522 0-10-4.477-10-10zm0 40c0-5.523 4.478-10 10-10h205.998c5.522 0 10 4.477 10 10s-4.478 10-10 10h-205.998c-5.522 0-10-4.477-10-10z"/>
  </g>
  <g transform="matrix(0.09, 0, 0, 0.09, 320.489319, 194.336273)" style="">
    <path d="m426 137.542v-91.042c0-5.523-4.477-10-10-10h-40c-5.523 0-10 4.477-10 10v91.036l-224-.022v-91.014c0-5.523-4.477-10-10-10h-40c-5.523 0-10 4.477-10 10v91.008l-61.998-.006c-11.046-.001-20.002 8.954-20.002 20v192.64c0 5.318 4 9.973 9.306 10.335 5.822.396 10.694-4.238 10.694-9.977v-39h468v140h-468v-10.642c0-5.318-4-9.973-9.306-10.334-5.822-.397-10.694 4.236-10.694 9.976v11c0 11.046 8.954 20 20 20h468c11.046 0 20-8.954 20-20v-293.952c0-11.045-8.953-19.999-19.998-20zm-40-81.042h20v81.04l-20-.002zm-284 0h20v81.012l-20-.002zm-82 235v-134h468v134zm-20 104c0-5.51 4.49-10 10-10s10 4.49 10 10-4.49 10-10 10-10-4.49-10-10zm438-218h-246c-16.542 0-30 13.458-30 30v34c0 16.542 13.458 30 30 30h246c16.542 0 30-13.458 30-30v-34c0-16.542-13.458-30-30-30zm10 64c0 5.514-4.486 10-10 10h-246c-5.514 0-10-4.486-10-10v-34c0-5.514 4.486-10 10-10h246c5.514 0 10 4.486 10 10zm-316-27h-23.969l-10.929-30.385c-1.87-5.197-7.595-7.897-12.795-6.025-5.196 1.869-7.895 7.597-6.025 12.794l8.495 23.615h-22.206l-5.238-13.614c-1.984-5.155-7.771-7.724-12.924-5.742-5.154 1.983-7.726 7.77-5.742 12.924l6.323 16.433-6.322 16.432c-1.983 5.154.588 10.94 5.742 12.924 5.152 1.982 10.939-.586 12.924-5.742l5.238-13.614h22.205l-8.495 23.615c-1.869 5.197.829 10.925 6.025 12.794 5.2 1.872 10.925-.828 12.795-6.025l10.929-30.385h23.969c5.522 0 10-4.477 10-10s-4.477-9.999-10-9.999zm275.998 167c0-5.523 4.478-10 10-10h40.002c5.522 0 10 4.477 10 10s-4.478 10-10 10h-40.002c-5.522 0-10-4.477-10-10zm0-40c0-5.523 4.478-10 10-10h40.002c5.522 0 10 4.477 10 10s-4.478 10-10 10h-40.002c-5.522 0-10-4.477-10-10zm-367.998 80c0-5.523 4.478-10 10-10h79.968c5.522 0 10 4.477 10 10s-4.478 10-10 10h-79.968c-5.522 0-10-4.477-10-10zm367.998 0c0-5.523 4.478-10 10-10h40.002c5.522 0 10 4.477 10 10s-4.478 10-10 10h-40.002c-5.522 0-10-4.477-10-10zm-367.998-80c0-5.523 4.478-10 10-10h79.968c5.522 0 10 4.477 10 10s-4.478 10-10 10h-79.968c-5.522 0-10-4.477-10-10zm122 80c0-5.523 4.478-10 10-10h205.998c5.522 0 10 4.477 10 10s-4.478 10-10 10h-205.998c-5.522 0-10-4.477-10-10zm-122-40c0-5.523 4.478-10 10-10h79.968c5.522 0 10 4.477 10 10s-4.478 10-10 10h-79.968c-5.522 0-10-4.477-10-10zm122-40c0-5.523 4.478-10 10-10h205.998c5.522 0 10 4.477 10 10s-4.478 10-10 10h-205.998c-5.522 0-10-4.477-10-10zm0 40c0-5.523 4.478-10 10-10h205.998c5.522 0 10 4.477 10 10s-4.478 10-10 10h-205.998c-5.522 0-10-4.477-10-10z"/>
  </g>
</svg>