<?xml version="1.0" encoding="utf-8"?>
<svg viewBox="0 0 500 312" xmlns="http://www.w3.org/2000/svg">
  <rect y="294.747" width="22.428" height="5.253" style=""/>
  <rect x="30.704" y="294.564" width="5.76" height="5.255" style=""/>
  <rect y="294.566" width="22.428" height="5.253" style="" x="44.839"/>
  <rect x="75.543" y="294.383" width="5.76" height="5.255" style=""/>
  <rect y="294.566" width="22.428" height="5.253" style="" x="90.78"/>
  <rect x="121.484" y="294.383" width="5.76" height="5.255" style=""/>
  <rect y="294.385" width="22.428" height="5.253" style="" x="135.619"/>
  <rect x="166.323" y="294.202" width="5.76" height="5.255" style=""/>
  <rect y="294.204" width="22.428" height="5.253" style="" x="180.507"/>
  <rect x="211.211" y="294.021" width="5.76" height="5.255" style=""/>
  <rect y="294.023" width="22.428" height="5.253" style="" x="225.346"/>
  <rect x="256.05" y="294.023" width="5.76" height="5.255" style=""/>
  <rect y="294.385" width="22.428" height="5.253" style="" x="273.809"/>
  <rect x="304.513" y="294.202" width="5.76" height="5.255" style=""/>
  <rect y="294.204" width="22.428" height="5.253" style="" x="318.697"/>
  <rect x="349.401" y="294.021" width="5.76" height="5.255" style=""/>
  <rect y="294.023" width="22.428" height="5.253" style="" x="363.536"/>
  <rect x="394.24" y="293.84" width="5.76" height="5.255" style=""/>
  <rect y="293.842" width="22.428" height="5.253" style="" x="410.529"/>
  <rect x="441.233" y="293.659" width="5.76" height="5.255" style=""/>
  <rect y="293.661" width="22.428" height="5.253" style="" x="455.368"/>
  <rect x="486.072" y="293.478" width="5.76" height="5.255" style=""/>
  <rect y="307.556" width="499.995" height="4.444" style=""/>
  <g transform="matrix(0.19685, 0, 0, 0.19685, -0.000071, 205.092163)" style="">
    <path d="m144.001 449c-5.51 0-10-4.49-10-10s4.49-10 10-10 10 4.49 10 10-4.49 10-10 10zm90.889-154.246c-3.905 3.905-3.905 10.237 0 14.143 3.905 3.904 10.237 3.904 14.143 0 2.74-2.74 6.998-2.525 9.938 0 4.289 3.684 9.773 4.136 14.143 0 4.011-3.797 3.905-10.237 0-14.143-10.541-10.537-27.686-10.537-38.224 0zm267.358-109.813-244.702-124.848c-2.865-1.462-6.259-1.457-9.119.015l-243 125c-4.105 2.112-6.231 6.759-5.145 11.246 1.007 4.159 4.532 7.179 8.719 7.597v235.049c0 5.523 4.477 10 10 10h79.642c5.318 0 9.973-4 10.335-9.306.396-5.822-4.237-10.694-9.976-10.694h-30v-91.659l22.612 2.854c-4.69 12.082-3.099 26.266 5.443 37.199 12.9 16.511 36.828 19.449 53.34 6.549 10.861-8.486 15.847-21.743 14.317-34.522l30.54 3.855c8.319 9.915 20.598 15.723 33.719 15.723h14.028v20h-10c-5.523 0-10 4.478-10 10v30h-33.642c-5.318 0-9.973 4-10.334 9.306-.396 5.822 4.236 10.694 9.976 10.694h300c5.523 0 10-4.477 10-10v-235.049c4.548-.455 8.316-3.979 8.922-8.697.547-4.258-1.851-8.361-5.675-10.312zm-364.165 183.243c-7.821 6.111-19.156 4.719-25.266-3.102s-4.719-19.156 3.102-25.266c7.821-6.111 19.156-4.719 25.266 3.102s4.719 19.156-3.102 25.266zm16.622-40.183c-12.452-13.287-32.744-15.836-48.086-6.069l-37.618-4.749v-10.881l101.299-18.952c-.718 16.263 3.495 31.572 10.289 43.918zm99.205-100.897c18.603 0 32.714 6.604 42.872 15.964-3.379 4.89-9.98 8.036-16.115 6.679-8.696-1.929-17.668-2.907-26.665-2.907-8.999 0-17.976.978-26.679 2.906-6.178 1.366-12.579-1.56-15.928-6.513 10.554-9.695 24.869-16.129 42.515-16.129zm-29.909-14.407v-63.697h20v58.739c-6.864.832-13.58 2.504-20 4.958zm40-5.005v-58.692h20v63.633c-6.342-2.44-13.043-4.132-20-4.941zm-88.722 54.56-53.382-17.741c-5.243-1.744-10.901 1.095-12.644 6.336-1.742 5.24 1.095 10.901 6.336 12.643l26.47 8.797-73.058 13.67v-62.053l134.746-.045c-13.262 9.593-23.77 25.49-28.468 38.393zm53.694 86.748c-8.047 0-15.521-3.991-19.991-10.677-2.476-3.702-7.869-11.753-7.869-11.753-7.128-10.59-10.896-22.928-10.896-35.679 0-10.537 2.925-21.675 8.536-31.643 8.203 8.536 20.563 12.753 32.891 10.025 14.574-3.229 30.115-3.17 44.698 0 13.433 2.92 25.24-2.306 33.02-10.147 4.69 8.397 7.303 17.235 8.066 24.881 1.517 15.211-1.999 29.813-10.313 42.226-2.184 3.246-4.934 7.363-8.064 12.057-4.475 6.706-11.956 10.71-20.014 10.71zm34.028 80h-20v-20h20zm176 0h-156v-30c0-5.522-4.478-10-10-10h-10v-20h16.035c13.121 0 25.398-5.807 33.72-15.724l30.533-3.854c-1.53 12.78 3.456 26.037 14.317 34.522 16.511 12.9 40.44 9.962 53.34-6.55 8.542-10.934 10.133-25.117 5.443-37.199l22.612-2.854zm-72.184-86.082c6.11-7.821 17.445-9.213 25.266-3.103s9.213 17.445 3.102 25.266c-6.11 7.821-17.445 9.213-25.266 3.103s-9.213-17.445-3.102-25.266zm72.184-25.735-37.618 4.749c-15.342-9.767-35.635-7.218-48.087 6.069l-25.861 3.264c7.313-13.303 10.862-28.528 10.252-43.919l101.313 18.956v10.881zm0-31.227-73.058-13.67 26.469-8.797c5.241-1.741 8.078-7.402 6.336-12.643-1.741-5.243-7.408-8.08-12.643-6.336l-53.345 17.73c-5.588-15.305-15.567-28.581-28.39-38.268l134.631-.192zm40 143.044h-20l.001-215.22c0-5.524-4.479-10.002-10.003-10l-144.998.046v-64.826c0-5.523-4.477-10-10-10h-80c-5.523 0-10 4.477-10 10v64.856l-145.003.049c-5.521.002-9.997 4.479-9.997 10v83.908.022 131.165h-20v-233.528l224.019-115.236 225.981 115.296z"/>
  </g>
</svg>