<?xml version="1.0" encoding="utf-8"?>
<svg viewBox="0 0 500 311" xmlns="http://www.w3.org/2000/svg">
  <path d="M 410.932 193.535 C 410.88 194.739 411.446 195.886 412.432 196.577 L 432.782 210.829 C 433.387 211.251 434.094 211.466 434.803 211.466 C 435.41 211.466 436.019 211.309 436.565 210.993 L 488.151 181.21 C 493.476 178.136 495.307 171.302 492.233 165.975 C 490.743 163.395 488.338 161.55 485.46 160.78 C 482.581 160.009 479.576 160.405 476.998 161.893 L 461.108 171.068 L 437.843 163.039 C 436.878 162.705 435.816 162.806 434.931 163.317 L 428.142 167.236 C 427.173 167.798 426.525 168.786 426.402 169.901 C 426.278 171.017 426.693 172.123 427.519 172.882 L 439.256 183.684 L 432.714 187.46 L 426.458 184.461 C 425.41 183.956 424.18 184.004 423.173 184.586 L 412.691 190.638 C 411.648 191.24 410.986 192.333 410.932 193.535 Z M 435.82 170.944 L 437.064 170.225 L 453.025 175.735 L 445.651 179.992 Z M 425.087 191.619 L 431.345 194.619 C 432.392 195.123 433.624 195.077 434.629 194.494 L 480.523 167.998 C 481.471 167.45 482.576 167.304 483.636 167.589 C 484.695 167.873 485.58 168.551 486.128 169.501 C 487.258 171.46 486.585 173.974 484.626 175.108 L 464.224 186.886 L 434.985 203.766 L 421.006 193.976 Z M 425.087 191.619" style=""/>
  <path d="M 490.203 223.317 L 391.898 223.317 L 391.898 199.325 L 392.602 199.325 C 393.643 199.325 394.631 198.865 395.3 198.068 L 411.885 178.331 C 412.767 177.282 412.961 175.817 412.382 174.575 C 411.803 173.334 410.557 172.539 409.187 172.539 L 407.404 172.539 L 407.404 141.507 L 409.187 141.507 C 410.555 141.507 411.799 140.715 412.38 139.478 C 412.959 138.239 412.771 136.776 411.894 135.726 L 397.797 118.81 C 397.128 118.006 396.136 117.541 395.09 117.541 L 330.901 117.541 C 329.855 117.541 328.864 118.007 328.194 118.81 L 314.1 135.726 C 313.225 136.776 313.037 138.239 313.618 139.478 C 314.196 140.717 315.441 141.507 316.809 141.507 L 318.591 141.507 L 318.591 172.539 L 316.809 172.539 C 315.438 172.539 314.192 173.334 313.614 174.575 C 313.037 175.817 313.229 177.282 314.109 178.331 L 330.695 198.068 C 331.364 198.865 332.352 199.325 333.393 199.325 L 384.85 199.325 L 384.85 223.317 L 379.586 223.317 C 377.641 223.317 376.062 224.896 376.062 226.842 L 376.062 243.759 C 376.062 245.704 377.641 247.284 379.586 247.284 L 384.85 247.284 L 384.85 290.941 L 341.147 290.941 L 341.147 223.995 C 341.147 222.049 339.568 220.471 337.623 220.471 C 335.676 220.471 334.099 222.049 334.099 223.995 L 334.099 294.464 C 334.099 296.412 335.676 297.989 337.623 297.989 L 481.417 297.989 C 483.362 297.989 484.942 296.412 484.942 294.464 L 484.942 247.284 L 490.203 247.284 C 492.15 247.284 493.727 245.704 493.727 243.759 L 493.727 226.842 C 493.727 224.896 492.15 223.317 490.203 223.317 Z M 400.355 172.539 L 387.668 172.539 L 387.668 141.507 L 400.355 141.507 Z M 345.377 172.539 L 345.377 141.507 L 380.619 141.507 L 380.619 172.539 Z M 332.552 124.59 L 393.439 124.59 L 401.662 134.459 L 324.332 134.459 Z M 325.64 141.507 L 338.327 141.507 L 338.327 172.539 L 325.64 172.539 Z M 324.373 179.588 L 401.621 179.588 L 390.961 192.276 L 335.036 192.276 Z M 477.893 290.941 L 391.898 290.941 L 391.898 281.088 L 442.977 281.088 C 444.924 281.088 446.501 279.51 446.501 277.563 C 446.501 275.616 444.924 274.039 442.977 274.039 L 391.898 274.039 L 391.898 264.185 L 442.977 264.185 C 444.924 264.185 446.501 262.607 446.501 260.662 C 446.501 258.715 444.924 257.137 442.977 257.137 L 391.898 257.137 L 391.898 247.283 L 477.893 247.283 Z M 486.678 240.235 L 383.111 240.235 L 383.111 230.367 L 486.678 230.367 Z M 486.678 240.235" style=""/>
  <path d="M 362.998 223.404 C 364.943 223.404 366.523 221.826 366.523 219.879 L 366.523 211.94 C 366.523 209.993 364.943 208.415 362.998 208.415 C 361.051 208.415 359.474 209.993 359.474 211.94 L 359.474 219.879 C 359.474 221.826 361.051 223.404 362.998 223.404 Z M 362.998 223.404" style=""/>
  <path d="M 359.474 247.73 C 359.474 249.675 361.051 251.255 362.998 251.255 C 364.943 251.255 366.523 249.675 366.523 247.73 L 366.523 239.789 C 366.523 237.843 364.943 236.264 362.998 236.264 C 361.051 236.264 359.474 237.843 359.474 239.789 Z M 359.474 247.73" style=""/>
  <path d="M 359.474 275.578 C 359.474 277.525 361.051 279.102 362.998 279.102 C 364.943 279.102 366.523 277.525 366.523 275.578 L 366.523 267.639 C 366.523 265.691 364.943 264.114 362.998 264.114 C 361.051 264.114 359.474 265.691 359.474 267.639 Z M 359.474 275.578" style=""/>
  <path d="M 457.603 264.183 C 458.529 264.183 459.439 263.81 460.095 263.155 C 460.75 262.495 461.127 261.589 461.127 260.659 C 461.127 259.732 460.75 258.823 460.095 258.168 C 459.439 257.511 458.529 257.138 457.603 257.138 C 456.676 257.138 455.766 257.511 455.111 258.168 C 454.455 258.823 454.078 259.732 454.078 260.659 C 454.078 261.589 454.455 262.499 455.111 263.155 C 455.766 263.81 456.676 264.183 457.603 264.183 Z M 457.603 264.183" style=""/>
  <path d="M 337.623 213.423 C 338.551 213.423 339.459 213.045 340.114 212.39 C 340.77 211.735 341.147 210.824 341.147 209.898 C 341.147 208.971 340.77 208.062 340.114 207.406 C 339.459 206.751 338.551 206.374 337.623 206.374 C 336.696 206.374 335.787 206.751 335.131 207.406 C 334.476 208.062 334.099 208.971 334.099 209.898 C 334.099 210.824 334.476 211.735 335.131 212.39 C 335.787 213.045 336.696 213.423 337.623 213.423 Z M 337.623 213.423" style=""/>
  <g transform="matrix(-0.12481, 0, 0, 0.12481, 101.486038, 244.782669)" style="">
    <g>
      <path d="M467.471,242.196h-7.886l-9.79-43.558c-3.964-17.636-13.919-33.567-28.031-44.86 c-14.113-11.293-31.84-17.513-49.915-17.513h-2.54v-18.547c0-17.653-14.361-32.015-32.014-32.015h-54.101 c-17.653,0-32.015,14.361-32.015,32.015v18.547h-22.671c-28.922,0-55.649,15.687-69.751,40.938l-36.295,64.992H91.565H64.77 c-2.302,0-4.563,0.176-6.772,0.514c-1.472,0.226-2.921,0.523-4.343,0.89c-0.711,0.184-1.415,0.384-2.112,0.601 c-1.698,0.529-3.353,1.158-4.958,1.879c-15.514,6.968-26.344,22.565-26.344,40.645v47.502C8.397,338.946,0,350.521,0,364.027 v6.763c0,17.684,14.387,32.07,32.07,32.07h23.621c8.388,0,15.212-6.824,15.212-15.212v-2.802h27.383 c2.765,8.028,7.138,15.313,12.752,21.451H83.825c-5.523,0-10,4.478-10,10c0,5.522,4.477,10,10,10H225.47c5.523,0,10-4.478,10-10 c0-5.522-4.477-10-10-10h-23.843c5.614-6.139,9.987-13.423,12.752-21.451H352.65c2.765,8.028,7.138,15.313,12.752,21.451h-23.107 c-5.522,0-10,4.478-10,10c0,5.522,4.478,10,10,10h130.831c5.522,0,10-4.478,10-10c0-5.522-4.478-10-10-10H455.99 c5.614-6.139,9.987-13.423,12.753-21.451H502c5.522,0,10-4.478,10-10v-88.121C512,262.172,492.024,242.196,467.471,242.196z M371.848,156.266c28.217,0,52.246,19.228,58.433,46.759l8.805,39.172H312.424v-85.931H371.848z M283.194,105.704h54.101 c6.624,0,12.014,5.39,12.014,12.015v16.382H271.18v-16.382h-0.001C271.179,111.094,276.569,105.704,283.194,105.704z M176.218,186.956c10.572-18.931,30.608-30.69,52.29-30.69h63.917v85.931H145.368L176.218,186.956z M40.241,286.725 c0-13.525,11.004-24.529,24.529-24.529h16.796v11.979c0,8.598-6.994,15.592-15.591,15.592H40.241V286.725z M50.903,382.86H32.07 c-6.656,0-12.07-5.415-12.07-12.07v-6.763c0-6.655,5.415-12.07,12.07-12.07h18.833V382.86z M156.333,406.298 c-22.821,0-41.388-18.567-41.388-41.389c0-22.821,18.566-41.388,41.388-41.388s41.388,18.566,41.388,41.388 C197.721,387.731,179.154,406.298,156.333,406.298z M410.696,406.298c-22.822,0-41.388-18.567-41.388-41.389 c0-22.821,18.566-41.388,41.388-41.388c22.822,0,41.389,18.566,41.389,41.388C452.085,387.731,433.519,406.298,410.696,406.298z M492,364.847L492,364.847h-19.918c-0.034-33.821-27.558-61.325-61.387-61.325s-61.352,27.504-61.386,61.325h-131.59 c-0.034-33.821-27.558-61.325-61.387-61.325c-33.828,0-61.352,27.504-61.386,61.325H70.903V347.17 c0-8.389-6.824-15.213-15.212-15.213h-15.45v-22.189h25.733c19.625,0,35.591-15.967,35.591-35.592v-11.979h26.765h174.094h149.158 h15.889c13.525,0,24.529,11.004,24.529,24.529V364.847z"/>
    </g>
  </g>
  <g transform="matrix(-0.104436, 0, 0, 0.104436, 91.054611, 253.467972)" style="">
    <g>
      <path d="M286.708,324.84h-48.479c-5.523,0-10,4.478-10,10c0,5.522,4.477,10,10,10h48.479c5.522,0,10-4.478,10-10 C296.708,329.318,292.23,324.84,286.708,324.84z"/>
    </g>
  </g>
  <g transform="matrix(-0.104436, 0, 0, 0.104436, 91.054611, 253.467972)" style="">
    <g>
      <path d="M336.509,332.881c-0.129-0.63-0.32-1.26-0.57-1.87c-0.25-0.6-0.56-1.18-0.92-1.72c-0.359-0.55-0.779-1.061-1.239-1.521 c-2.33-2.33-5.78-3.39-9.03-2.74c-0.63,0.131-1.26,0.33-1.87,0.58c-0.6,0.25-1.18,0.551-1.72,0.91 c-0.551,0.37-1.061,0.79-1.521,1.25c-0.46,0.46-0.88,0.971-1.25,1.521c-0.359,0.54-0.67,1.12-0.92,1.72 c-0.25,0.61-0.439,1.24-0.57,1.87c-0.13,0.649-0.189,1.31-0.189,1.96c0,0.65,0.06,1.31,0.189,1.95c0.131,0.64,0.32,1.27,0.57,1.87 c0.25,0.609,0.561,1.189,0.92,1.729c0.37,0.55,0.79,1.061,1.25,1.521c0.46,0.46,0.97,0.88,1.521,1.239 c0.54,0.36,1.12,0.67,1.72,0.92c0.61,0.25,1.24,0.45,1.87,0.57c0.649,0.13,1.31,0.2,1.96,0.2c0.649,0,1.31-0.07,1.95-0.2 c0.64-0.12,1.27-0.32,1.87-0.57c0.609-0.25,1.189-0.56,1.729-0.92c0.55-0.359,1.06-0.779,1.521-1.239 c0.46-0.46,0.88-0.971,1.239-1.521c0.36-0.54,0.67-1.12,0.92-1.729c0.25-0.601,0.44-1.23,0.57-1.87c0.13-0.641,0.2-1.3,0.2-1.95 S336.639,333.53,336.509,332.881z"/>
    </g>
  </g>
  <g transform="matrix(0.104436, 0, 0, 0.104436, 427.043213, 255.479233)" style=""/>
  <g transform="matrix(0.104436, 0, 0, 0.104436, 427.043213, 255.479233)" style=""/>
  <g transform="matrix(0.104436, 0, 0, 0.104436, 427.043213, 255.479233)" style=""/>
  <g transform="matrix(0.104436, 0, 0, 0.104436, 427.043213, 255.479233)" style=""/>
  <g transform="matrix(0.104436, 0, 0, 0.104436, 427.043213, 255.479233)" style=""/>
  <g transform="matrix(0.104436, 0, 0, 0.104436, 427.043213, 255.479233)" style=""/>
  <g transform="matrix(0.104436, 0, 0, 0.104436, 427.043213, 255.479233)" style=""/>
  <g transform="matrix(0.104436, 0, 0, 0.104436, 427.043213, 255.479233)" style=""/>
  <g transform="matrix(0.104436, 0, 0, 0.104436, 427.043213, 255.479233)" style=""/>
  <g transform="matrix(0.104436, 0, 0, 0.104436, 427.043213, 255.479233)" style=""/>
  <g transform="matrix(0.104436, 0, 0, 0.104436, 427.043213, 255.479233)" style=""/>
  <g transform="matrix(0.104436, 0, 0, 0.104436, 427.043213, 255.479233)" style=""/>
  <g transform="matrix(0.104436, 0, 0, 0.104436, 427.043213, 255.479233)" style=""/>
  <g transform="matrix(0.104436, 0, 0, 0.104436, 427.043213, 255.479233)" style=""/>
  <g transform="matrix(0.104436, 0, 0, 0.104436, 427.043213, 255.479233)" style=""/>
  <g transform="matrix(-0.12481, 0, 0, 0.12481, 307.384552, 244.782639)" style="">
    <g>
      <path d="M467.471,242.196h-7.886l-9.79-43.558c-3.964-17.636-13.919-33.567-28.031-44.86 c-14.113-11.293-31.84-17.513-49.915-17.513h-2.54v-18.547c0-17.653-14.361-32.015-32.014-32.015h-54.101 c-17.653,0-32.015,14.361-32.015,32.015v18.547h-22.671c-28.922,0-55.649,15.687-69.751,40.938l-36.295,64.992H91.565H64.77 c-2.302,0-4.563,0.176-6.772,0.514c-1.472,0.226-2.921,0.523-4.343,0.89c-0.711,0.184-1.415,0.384-2.112,0.601 c-1.698,0.529-3.353,1.158-4.958,1.879c-15.514,6.968-26.344,22.565-26.344,40.645v47.502C8.397,338.946,0,350.521,0,364.027 v6.763c0,17.684,14.387,32.07,32.07,32.07h23.621c8.388,0,15.212-6.824,15.212-15.212v-2.802h27.383 c2.765,8.028,7.138,15.313,12.752,21.451H83.825c-5.523,0-10,4.478-10,10c0,5.522,4.477,10,10,10H225.47c5.523,0,10-4.478,10-10 c0-5.522-4.477-10-10-10h-23.843c5.614-6.139,9.987-13.423,12.752-21.451H352.65c2.765,8.028,7.138,15.313,12.752,21.451h-23.107 c-5.522,0-10,4.478-10,10c0,5.522,4.478,10,10,10h130.831c5.522,0,10-4.478,10-10c0-5.522-4.478-10-10-10H455.99 c5.614-6.139,9.987-13.423,12.753-21.451H502c5.522,0,10-4.478,10-10v-88.121C512,262.172,492.024,242.196,467.471,242.196z M371.848,156.266c28.217,0,52.246,19.228,58.433,46.759l8.805,39.172H312.424v-85.931H371.848z M283.194,105.704h54.101 c6.624,0,12.014,5.39,12.014,12.015v16.382H271.18v-16.382h-0.001C271.179,111.094,276.569,105.704,283.194,105.704z M176.218,186.956c10.572-18.931,30.608-30.69,52.29-30.69h63.917v85.931H145.368L176.218,186.956z M40.241,286.725 c0-13.525,11.004-24.529,24.529-24.529h16.796v11.979c0,8.598-6.994,15.592-15.591,15.592H40.241V286.725z M50.903,382.86H32.07 c-6.656,0-12.07-5.415-12.07-12.07v-6.763c0-6.655,5.415-12.07,12.07-12.07h18.833V382.86z M156.333,406.298 c-22.821,0-41.388-18.567-41.388-41.389c0-22.821,18.566-41.388,41.388-41.388s41.388,18.566,41.388,41.388 C197.721,387.731,179.154,406.298,156.333,406.298z M410.696,406.298c-22.822,0-41.388-18.567-41.388-41.389 c0-22.821,18.566-41.388,41.388-41.388c22.822,0,41.389,18.566,41.389,41.388C452.085,387.731,433.519,406.298,410.696,406.298z M492,364.847L492,364.847h-19.918c-0.034-33.821-27.558-61.325-61.387-61.325s-61.352,27.504-61.386,61.325h-131.59 c-0.034-33.821-27.558-61.325-61.387-61.325c-33.828,0-61.352,27.504-61.386,61.325H70.903V347.17 c0-8.389-6.824-15.213-15.212-15.213h-15.45v-22.189h25.733c19.625,0,35.591-15.967,35.591-35.592v-11.979h26.765h174.094h149.158 h15.889c13.525,0,24.529,11.004,24.529,24.529V364.847z"/>
    </g>
  </g>
  <g transform="matrix(-0.104436, 0, 0, 0.104436, 307.384552, 253.468002)" style="">
    <g>
      <path d="M286.708,324.84h-48.479c-5.523,0-10,4.478-10,10c0,5.522,4.477,10,10,10h48.479c5.522,0,10-4.478,10-10 C296.708,329.318,292.23,324.84,286.708,324.84z"/>
    </g>
  </g>
  <g transform="matrix(-0.104436, 0, 0, 0.104436, 307.384552, 253.468002)" style="">
    <g>
      <path d="M336.509,332.881c-0.129-0.63-0.32-1.26-0.57-1.87c-0.25-0.6-0.56-1.18-0.92-1.72c-0.359-0.55-0.779-1.061-1.239-1.521 c-2.33-2.33-5.78-3.39-9.03-2.74c-0.63,0.131-1.26,0.33-1.87,0.58c-0.6,0.25-1.18,0.551-1.72,0.91 c-0.551,0.37-1.061,0.79-1.521,1.25c-0.46,0.46-0.88,0.971-1.25,1.521c-0.359,0.54-0.67,1.12-0.92,1.72 c-0.25,0.61-0.439,1.24-0.57,1.87c-0.13,0.649-0.189,1.31-0.189,1.96c0,0.65,0.06,1.31,0.189,1.95c0.131,0.64,0.32,1.27,0.57,1.87 c0.25,0.609,0.561,1.189,0.92,1.729c0.37,0.55,0.79,1.061,1.25,1.521c0.46,0.46,0.97,0.88,1.521,1.239 c0.54,0.36,1.12,0.67,1.72,0.92c0.61,0.25,1.24,0.45,1.87,0.57c0.649,0.13,1.31,0.2,1.96,0.2c0.649,0,1.31-0.07,1.95-0.2 c0.64-0.12,1.27-0.32,1.87-0.57c0.609-0.25,1.189-0.56,1.729-0.92c0.55-0.359,1.06-0.779,1.521-1.239 c0.46-0.46,0.88-0.971,1.239-1.521c0.36-0.54,0.67-1.12,0.92-1.729c0.25-0.601,0.44-1.23,0.57-1.87c0.13-0.641,0.2-1.3,0.2-1.95 S336.639,333.53,336.509,332.881z"/>
    </g>
  </g>
  <g transform="matrix(0.104436, 0, 0, 0.104436, 210.713272, 255.479248)" style=""/>
  <g transform="matrix(0.104436, 0, 0, 0.104436, 210.713272, 255.479248)" style=""/>
  <g transform="matrix(0.104436, 0, 0, 0.104436, 210.713272, 255.479248)" style=""/>
  <g transform="matrix(0.104436, 0, 0, 0.104436, 210.713272, 255.479248)" style=""/>
  <g transform="matrix(0.104436, 0, 0, 0.104436, 210.713272, 255.479248)" style=""/>
  <g transform="matrix(0.104436, 0, 0, 0.104436, 210.713272, 255.479248)" style=""/>
  <g transform="matrix(0.104436, 0, 0, 0.104436, 210.713272, 255.479248)" style=""/>
  <g transform="matrix(0.104436, 0, 0, 0.104436, 210.713272, 255.479248)" style=""/>
  <g transform="matrix(0.104436, 0, 0, 0.104436, 210.713272, 255.479248)" style=""/>
  <g transform="matrix(0.104436, 0, 0, 0.104436, 210.713272, 255.479248)" style=""/>
  <g transform="matrix(0.104436, 0, 0, 0.104436, 210.713272, 255.479248)" style=""/>
  <g transform="matrix(0.104436, 0, 0, 0.104436, 210.713272, 255.479248)" style=""/>
  <g transform="matrix(0.104436, 0, 0, 0.104436, 210.713272, 255.479248)" style=""/>
  <g transform="matrix(0.104436, 0, 0, 0.104436, 210.713272, 255.479248)" style=""/>
  <g transform="matrix(0.104436, 0, 0, 0.104436, 210.713272, 255.479248)" style=""/>
  <g transform="matrix(-0.12481, 0, 0, 0.12481, 202.783234, 244.782669)" style="">
    <g>
      <path d="M467.471,242.196h-7.886l-9.79-43.558c-3.964-17.636-13.919-33.567-28.031-44.86 c-14.113-11.293-31.84-17.513-49.915-17.513h-2.54v-18.547c0-17.653-14.361-32.015-32.014-32.015h-54.101 c-17.653,0-32.015,14.361-32.015,32.015v18.547h-22.671c-28.922,0-55.649,15.687-69.751,40.938l-36.295,64.992H91.565H64.77 c-2.302,0-4.563,0.176-6.772,0.514c-1.472,0.226-2.921,0.523-4.343,0.89c-0.711,0.184-1.415,0.384-2.112,0.601 c-1.698,0.529-3.353,1.158-4.958,1.879c-15.514,6.968-26.344,22.565-26.344,40.645v47.502C8.397,338.946,0,350.521,0,364.027 v6.763c0,17.684,14.387,32.07,32.07,32.07h23.621c8.388,0,15.212-6.824,15.212-15.212v-2.802h27.383 c2.765,8.028,7.138,15.313,12.752,21.451H83.825c-5.523,0-10,4.478-10,10c0,5.522,4.477,10,10,10H225.47c5.523,0,10-4.478,10-10 c0-5.522-4.477-10-10-10h-23.843c5.614-6.139,9.987-13.423,12.752-21.451H352.65c2.765,8.028,7.138,15.313,12.752,21.451h-23.107 c-5.522,0-10,4.478-10,10c0,5.522,4.478,10,10,10h130.831c5.522,0,10-4.478,10-10c0-5.522-4.478-10-10-10H455.99 c5.614-6.139,9.987-13.423,12.753-21.451H502c5.522,0,10-4.478,10-10v-88.121C512,262.172,492.024,242.196,467.471,242.196z M371.848,156.266c28.217,0,52.246,19.228,58.433,46.759l8.805,39.172H312.424v-85.931H371.848z M283.194,105.704h54.101 c6.624,0,12.014,5.39,12.014,12.015v16.382H271.18v-16.382h-0.001C271.179,111.094,276.569,105.704,283.194,105.704z M176.218,186.956c10.572-18.931,30.608-30.69,52.29-30.69h63.917v85.931H145.368L176.218,186.956z M40.241,286.725 c0-13.525,11.004-24.529,24.529-24.529h16.796v11.979c0,8.598-6.994,15.592-15.591,15.592H40.241V286.725z M50.903,382.86H32.07 c-6.656,0-12.07-5.415-12.07-12.07v-6.763c0-6.655,5.415-12.07,12.07-12.07h18.833V382.86z M156.333,406.298 c-22.821,0-41.388-18.567-41.388-41.389c0-22.821,18.566-41.388,41.388-41.388s41.388,18.566,41.388,41.388 C197.721,387.731,179.154,406.298,156.333,406.298z M410.696,406.298c-22.822,0-41.388-18.567-41.388-41.389 c0-22.821,18.566-41.388,41.388-41.388c22.822,0,41.389,18.566,41.389,41.388C452.085,387.731,433.519,406.298,410.696,406.298z M492,364.847L492,364.847h-19.918c-0.034-33.821-27.558-61.325-61.387-61.325s-61.352,27.504-61.386,61.325h-131.59 c-0.034-33.821-27.558-61.325-61.387-61.325c-33.828,0-61.352,27.504-61.386,61.325H70.903V347.17 c0-8.389-6.824-15.213-15.212-15.213h-15.45v-22.189h25.733c19.625,0,35.591-15.967,35.591-35.592v-11.979h26.765h174.094h149.158 h15.889c13.525,0,24.529,11.004,24.529,24.529V364.847z"/>
    </g>
  </g>
  <g transform="matrix(-0.12481, 0, 0, 0.12481, 210.713287, 244.782669)" style="">
    <g>
      <path d="M286.708,324.84h-48.479c-5.523,0-10,4.478-10,10c0,5.522,4.477,10,10,10h48.479c5.522,0,10-4.478,10-10 C296.708,329.318,292.23,324.84,286.708,324.84z"/>
    </g>
  </g>
  <g transform="matrix(-0.12481, 0, 0, 0.12481, 210.713287, 244.782669)" style="">
    <g>
      <path d="M336.509,332.881c-0.129-0.63-0.32-1.26-0.57-1.87c-0.25-0.6-0.56-1.18-0.92-1.72c-0.359-0.55-0.779-1.061-1.239-1.521 c-2.33-2.33-5.78-3.39-9.03-2.74c-0.63,0.131-1.26,0.33-1.87,0.58c-0.6,0.25-1.18,0.551-1.72,0.91 c-0.551,0.37-1.061,0.79-1.521,1.25c-0.46,0.46-0.88,0.971-1.25,1.521c-0.359,0.54-0.67,1.12-0.92,1.72 c-0.25,0.61-0.439,1.24-0.57,1.87c-0.13,0.649-0.189,1.31-0.189,1.96c0,0.65,0.06,1.31,0.189,1.95c0.131,0.64,0.32,1.27,0.57,1.87 c0.25,0.609,0.561,1.189,0.92,1.729c0.37,0.55,0.79,1.061,1.25,1.521c0.46,0.46,0.97,0.88,1.521,1.239 c0.54,0.36,1.12,0.67,1.72,0.92c0.61,0.25,1.24,0.45,1.87,0.57c0.649,0.13,1.31,0.2,1.96,0.2c0.649,0,1.31-0.07,1.95-0.2 c0.64-0.12,1.27-0.32,1.87-0.57c0.609-0.25,1.189-0.56,1.729-0.92c0.55-0.359,1.06-0.779,1.521-1.239 c0.46-0.46,0.88-0.971,1.239-1.521c0.36-0.54,0.67-1.12,0.92-1.729c0.25-0.601,0.44-1.23,0.57-1.87c0.13-0.641,0.2-1.3,0.2-1.95 S336.639,333.53,336.509,332.881z"/>
    </g>
  </g>
  <g transform="matrix(0.12481, 0, 0, 0.12481, 307.384552, 246.79393)" style=""/>
  <g transform="matrix(0.12481, 0, 0, 0.12481, 307.384552, 246.79393)" style=""/>
  <g transform="matrix(0.12481, 0, 0, 0.12481, 307.384552, 246.79393)" style=""/>
  <g transform="matrix(0.12481, 0, 0, 0.12481, 307.384552, 246.79393)" style=""/>
  <g transform="matrix(0.12481, 0, 0, 0.12481, 307.384552, 246.79393)" style=""/>
  <g transform="matrix(0.12481, 0, 0, 0.12481, 307.384552, 246.79393)" style=""/>
  <g transform="matrix(0.12481, 0, 0, 0.12481, 307.384552, 246.79393)" style=""/>
  <g transform="matrix(0.12481, 0, 0, 0.12481, 307.384552, 246.79393)" style=""/>
  <g transform="matrix(0.12481, 0, 0, 0.12481, 307.384552, 246.79393)" style=""/>
  <g transform="matrix(0.12481, 0, 0, 0.12481, 307.384552, 246.79393)" style=""/>
  <g transform="matrix(0.12481, 0, 0, 0.12481, 307.384552, 246.79393)" style=""/>
  <g transform="matrix(0.12481, 0, 0, 0.12481, 307.384552, 246.79393)" style=""/>
  <g transform="matrix(0.12481, 0, 0, 0.12481, 307.384552, 246.79393)" style=""/>
  <g transform="matrix(0.12481, 0, 0, 0.12481, 307.384552, 246.79393)" style=""/>
  <g transform="matrix(0.12481, 0, 0, 0.12481, 307.384552, 246.79393)" style=""/>
  <g transform="matrix(0.143951, 0, 0, 0.143951, 369.142334, 3.574306)" style="">
    <g transform="matrix(0.94255, 0, 0, 0.94255, 290.281921, 101.341988)" style="">
      <g>
        <g>
          <path d="M251,78.012c-95.386,0-172.988,77.602-172.988,172.988S155.614,423.988,251,423.988S423.988,346.386,423.988,251 S346.386,78.012,251,78.012z M251,403.988c-84.358,0-152.988-68.63-152.988-152.988S166.642,98.012,251,98.012 S403.988,166.642,403.988,251S335.358,403.988,251,403.988z" style="fill: rgb(255, 182, 0);"/>
          <path d="M253.114,53.825c5.523,0,10-4.477,10-10V10c0-5.523-4.477-10-10-10s-10,4.477-10,10v33.825 C243.114,49.348,247.591,53.825,253.114,53.825z" style="fill: rgb(255, 182, 0);"/>
          <path d="M98.929,110.081c1.952,1.953,4.512,2.929,7.071,2.929s5.118-0.976,7.071-2.929c3.905-3.906,3.905-10.238,0-14.143 L89.154,72.021c-3.906-3.905-10.238-3.906-14.143,0c-3.905,3.906-3.905,10.238,0,14.143L98.929,110.081z" style="fill: rgb(255, 182, 0);"/>
          <path d="M53.825,248.886c0-5.523-4.477-10-10-10H10c-5.523,0-10,4.477-10,10s4.477,10,10,10h33.825 C49.348,258.886,53.825,254.409,53.825,248.886z" style="fill: rgb(255, 182, 0);"/>
          <path d="M37.357,447.51l-3.737,3.737c-3.905,3.906-3.905,10.238,0,14.143c1.952,1.953,4.512,2.929,7.071,2.929 c2.559,0,5.119-0.976,7.072-2.929l3.737-3.737c3.905-3.906,3.906-10.238,0-14.143C47.594,443.605,41.262,443.605,37.357,447.51z" style="fill: rgb(255, 182, 0);"/>
          <path d="M95.872,388.995l-31.871,31.871c-3.905,3.906-3.905,10.238,0,14.143c1.952,1.953,4.512,2.929,7.071,2.929 c2.559,0,5.119-0.976,7.072-2.929l31.871-31.871c3.905-3.906,3.906-10.238,0-14.143C106.109,385.09,99.777,385.09,95.872,388.995 z" style="fill: rgb(255, 182, 0);"/>
          <path d="M248.886,448.175c-5.523,0-10,4.477-10,10V492c0,5.523,4.477,10,10,10c5.523,0,10-4.477,10-10v-33.825 C258.886,452.652,254.409,448.175,248.886,448.175z" style="fill: rgb(255, 182, 0);"/>
          <path d="M403.073,391.919c-3.906-3.905-10.238-3.905-14.143,0c-3.905,3.906-3.905,10.238,0,14.143l23.917,23.917 c1.952,1.953,4.512,2.929,7.071,2.929c2.559,0,5.119-0.976,7.072-2.929c3.905-3.906,3.905-10.238,0-14.143L403.073,391.919z" style="fill: rgb(255, 182, 0);"/>
          <path d="M492,243.114h-33.825c-5.523,0-10,4.477-10,10s4.477,10,10,10H492c5.523,0,10-4.477,10-10S497.523,243.114,492,243.114z" style="fill: rgb(255, 182, 0);"/>
          <path d="M457.913,57.077c2.559,0,5.118-0.976,7.072-2.929l4.72-4.72c3.905-3.906,3.905-10.238,0-14.143 c-3.906-3.905-10.238-3.905-14.143,0l-4.72,4.72c-3.905,3.906-3.905,10.238,0,14.143 C452.794,56.101,455.354,57.077,457.913,57.077z" style="fill: rgb(255, 182, 0);"/>
          <path d="M424.593,66.253l-32.596,32.596c-3.905,3.906-3.905,10.238,0,14.143c1.952,1.953,4.512,2.929,7.071,2.929 c2.559,0,5.119-0.976,7.072-2.929l32.596-32.596c3.905-3.906,3.906-10.238,0-14.143C434.83,62.348,428.498,62.348,424.593,66.253 z" style="fill: rgb(255, 182, 0);"/>
          <path d="M134.013,250.999c0-5.523-4.477-10-10-10s-10,4.477-10,10c0,14.364,2.214,28.518,6.583,42.069 c1.366,4.237,5.291,6.935,9.515,6.935c1.016,0,2.051-0.156,3.072-0.486c5.256-1.694,8.144-7.329,6.449-12.586 C135.904,275.366,134.013,263.276,134.013,250.999z" style="fill: rgb(255, 182, 0);"/>
          <path d="M251,114.012c-30.362,0-59.124,9.729-83.178,28.135c-23.28,17.813-40.519,43.065-48.54,71.102 c-1.519,5.31,1.554,10.846,6.864,12.365c0.919,0.263,1.844,0.388,2.755,0.388c4.351,0,8.353-2.86,9.61-7.252 c14.275-49.892,60.531-84.738,112.489-84.738c5.523,0,10-4.477,10-10C261,118.489,256.523,114.012,251,114.012z" style="fill: rgb(255, 182, 0);"/>
        </g>
      </g>
    </g>
    <g transform="matrix(0.973904, 0, 0, 0.973904, 2375.781494, -35.068047)" style=""/>
    <g transform="matrix(0.973904, 0, 0, 0.973904, 2375.781494, -35.068047)" style=""/>
    <g transform="matrix(0.973904, 0, 0, 0.973904, 2375.781494, -35.068047)" style=""/>
    <g transform="matrix(0.973904, 0, 0, 0.973904, 2375.781494, -35.068047)" style=""/>
    <g transform="matrix(0.973904, 0, 0, 0.973904, 2375.781494, -35.068047)" style=""/>
    <g transform="matrix(0.973904, 0, 0, 0.973904, 2375.781494, -35.068047)" style=""/>
    <g transform="matrix(0.973904, 0, 0, 0.973904, 2375.781494, -35.068047)" style=""/>
    <g transform="matrix(0.973904, 0, 0, 0.973904, 2375.781494, -35.068047)" style=""/>
    <g transform="matrix(0.973904, 0, 0, 0.973904, 2375.781494, -35.068047)" style=""/>
    <g transform="matrix(0.973904, 0, 0, 0.973904, 2375.781494, -35.068047)" style=""/>
    <g transform="matrix(0.973904, 0, 0, 0.973904, 2375.781494, -35.068047)" style=""/>
    <g transform="matrix(0.973904, 0, 0, 0.973904, 2375.781494, -35.068047)" style=""/>
    <g transform="matrix(0.973904, 0, 0, 0.973904, 2375.781494, -35.068047)" style=""/>
    <g transform="matrix(0.973904, 0, 0, 0.973904, 2375.781494, -35.068047)" style=""/>
    <g transform="matrix(0.973904, 0, 0, 0.973904, 2375.781494, -35.068047)" style=""/>
  </g>
</svg>