<?xml version="1.0" encoding="utf-8"?>
<svg viewBox="0 0 500 312" xmlns="http://www.w3.org/2000/svg">
  <path d="M 202.011 267.24 C 202.011 250.651 188.514 237.155 171.926 237.155 C 155.338 237.155 141.842 250.651 141.842 267.24 C 141.842 269.266 143.485 270.908 145.51 270.908 L 198.341 270.908 C 200.368 270.908 202.011 269.266 202.011 267.24 Z M 168.304 244.787 L 168.304 263.572 L 149.476 263.572 C 151.043 253.946 158.673 246.336 168.304 244.787 Z M 175.642 263.572 L 175.642 244.802 C 185.228 246.385 192.815 253.977 194.377 263.572 Z M 175.642 263.572" style="fill: rgb(232, 232, 232);"/>
  <path d="M 263.016 264.276 L 214.552 253.581 C 212.618 247.56 209.441 242.09 205.324 237.477 L 218.783 237.477 C 220.811 237.477 222.452 235.834 222.452 233.807 L 222.452 222.494 C 222.452 220.656 221.093 219.103 219.272 218.859 L 184.622 214.204 L 182.094 191.214 C 181.89 189.355 180.319 187.948 178.448 187.948 L 165.499 187.948 C 163.628 187.948 162.056 189.355 161.851 191.214 L 159.324 214.191 L 124.58 218.859 C 122.759 219.103 121.399 220.656 121.399 222.494 L 121.399 233.807 C 121.399 235.834 123.043 237.475 125.068 237.475 L 138.528 237.475 C 134.406 242.096 131.228 247.572 129.294 253.603 L 80.93 264.276 C 79.249 264.647 78.052 266.137 78.052 267.858 L 78.052 278.933 C 78.052 280.961 79.695 282.602 81.72 282.602 L 96.46 282.602 C 95.749 284.17 95.349 285.908 95.349 287.738 C 95.349 294.616 100.944 300.213 107.822 300.213 C 114.701 300.213 120.297 294.616 120.297 287.738 C 120.297 285.908 119.897 284.17 119.186 282.602 L 129.875 282.602 C 131.2 286.226 132.994 289.682 135.246 292.897 C 140.412 300.268 147.566 305.857 155.941 309.059 C 157.832 309.784 159.953 308.836 160.677 306.944 C 161.401 305.051 160.455 302.93 158.561 302.206 C 144.173 296.702 134.505 282.65 134.505 267.24 C 134.505 246.605 151.292 229.819 171.926 229.819 C 192.561 229.819 209.348 246.605 209.348 267.24 C 209.348 282.65 199.681 296.702 185.291 302.206 C 183.399 302.93 182.452 305.05 183.175 306.944 C 183.735 308.405 185.125 309.303 186.603 309.303 C 187.039 309.303 187.482 309.224 187.912 309.059 C 196.285 305.857 203.442 300.268 208.607 292.897 C 210.859 289.682 212.654 286.226 213.978 282.602 L 224.667 282.602 C 223.956 284.17 223.556 285.908 223.556 287.738 C 223.556 294.616 229.151 300.213 236.029 300.213 C 242.909 300.213 248.504 294.616 248.504 287.738 C 248.504 285.908 248.104 284.17 247.393 282.602 L 262.225 282.602 C 264.251 282.602 265.894 280.961 265.894 278.933 L 265.894 267.858 C 265.894 266.137 264.697 264.647 263.016 264.276 Z M 215.115 225.704 L 215.115 230.138 L 196.939 230.138 C 193.523 227.828 189.77 225.979 185.775 224.675 L 185.449 221.717 Z M 128.738 225.704 L 158.498 221.706 L 158.176 224.645 C 154.144 225.95 150.357 227.809 146.914 230.138 L 128.738 230.138 Z M 112.959 287.738 C 112.959 290.571 110.655 292.875 107.822 292.875 C 104.99 292.875 102.686 290.571 102.686 287.738 C 102.686 284.906 104.99 282.602 107.822 282.602 C 110.655 282.602 112.959 284.907 112.959 287.738 Z M 85.389 275.265 L 85.389 270.805 L 127.532 261.504 C 127.292 263.384 127.167 265.298 127.167 267.24 C 127.167 269.955 127.415 272.637 127.889 275.263 L 85.389 275.263 Z M 165.748 222.909 L 168.786 195.284 L 175.161 195.284 L 178.2 222.922 C 176.15 222.633 174.055 222.48 171.926 222.48 C 169.83 222.48 167.768 222.628 165.748 222.909 Z M 241.166 287.738 C 241.166 290.571 238.862 292.875 236.029 292.875 C 233.198 292.875 230.894 290.571 230.894 287.738 C 230.894 284.906 233.198 282.602 236.029 282.602 C 238.862 282.602 241.166 284.907 241.166 287.738 Z M 258.557 275.265 L 215.964 275.265 C 216.438 272.637 216.686 269.955 216.686 267.24 C 216.686 265.29 216.56 263.369 216.317 261.484 L 258.557 270.805 Z M 258.557 275.265" style="fill: rgb(232, 232, 232);"/>
  <g transform="matrix(-0.153645, 0, 0, 0.153645, 135.057343, 237.02092)" style="">
    <path d="m498.007 80.003h-174v-10c0-5.522-4.478-10-10-10h-30v-10c0-16.542-13.458-30-30-30s-30 13.458-30 30v10h-30c-5.522 0-10 4.478-10 10v23.565l-48.715-13.216c-6.912-1.821-14.662 3.969-12.377 12.014l-49.191-12.075c-4.321-1.058-13.084 1.253-12.266 11.132l-49.241-11.17c-10.275-2.153-16.081 9.847-9.281 16.82 14.447 14.812 26.667 31.362 35.79 49.73 5.989 12.058 23.909 3.158 17.92-8.9-5.455-10.982-11.939-21.56-19.26-31.43l39.286 8.906c7.998 16.054 14.618 38.736 18.957 65.632 4.013 24.868 5.517 50.86 4.39 71.164l-23.463 8.498c1.34-9.57 2.612-25.218 2.01-31.68-1.343-14.416-20.837-11.871-20 .27.058.838.465 25.571-4.74 44.52-2.045 7.446 5.31 14.22 13.16 11.619l30.207-10.941c-1.314 9.375 7.499 13.261 13.271 10.942l30.169-10.942c-1.104 5.915 4.278 13.949 13.471 10.88l29.901-11.444v22.105c0 5.522 4.478 10 10 10h30v92.024c-12.137 9.131-20 23.652-20 39.976 0 27.57 22.43 50 50 50s50-22.43 50-50c0-16.324-7.863-30.845-20-39.976 0-.006 0-66.33 0-92.024h30c5.522 0 10-4.478 10-10v-10h174c5.522 0 10-4.478 10-10v-186c.002-5.521-4.476-9.999-9.998-9.999zm-382.632 97.823c-3.021-18.725-9.296-48.427-21.1-71.896l36.879 9.053c11.45 39.838 15.113 98.526 12.295 137.185l-24.025 8.713c2.118-22.933.728-53.446-4.049-83.055zm68.632 74.658-21.149 8.094c2.16-21.345 2.226-49.099.024-76.877-1.515-19.124-5.201-51.5-13.837-78.896l34.962 9.486zm60-202.481c0-5.514 4.486-10 10-10s10 4.486 10 10v10h-20zm40 388c0 16.542-13.458 30-30 30s-30-13.458-30-30c0-13.037 8.36-24.159 20-28.286v28.286c0 5.522 4.478 10 10 10s10-4.478 10-10v-28.286c11.64 4.128 20 15.249 20 28.286zm-40-50v-82h20v82zm60-102h-100v-206h100zm81-186h42v126h-42zm-61 0h41v126h-41zm164 166h-164v-20h164zm0-40h-41v-126h41zm-435.013-41.436c0-5.525 4.479-10.004 10.004-10.004s10.004 4.479 10.004 10.004-4.479 10.004-10.004 10.004-10.004-4.479-10.004-10.004z"/>
  </g>
  <path d="M 169.331 305.738 C 168.649 306.421 168.256 307.363 168.256 308.332 C 168.256 309.296 168.649 310.243 169.331 310.926 C 170.014 311.608 170.961 312 171.925 312 C 172.89 312 173.836 311.608 174.519 310.926 C 175.205 310.243 175.594 309.296 175.594 308.332 C 175.594 307.366 175.205 306.421 174.519 305.738 C 173.836 305.051 172.894 304.663 171.925 304.663 C 170.961 304.663 170.014 305.051 169.331 305.738 Z M 169.331 305.738" style="fill: rgb(232, 232, 232);"/>
  <rect y="249.366" width="58.902" height="2.92" style=""/>
  <rect x="-2.549" y="277.902" width="61.451" height="3.053" style=""/>
  <rect y="271.965" width="58.902" height="2.92" style=""/>
  <rect x="47.924" y="249.366" width="2.762" height="25.519" style=""/>
  <rect x="39.501" y="249.366" width="2.762" height="25.519" style=""/>
  <rect x="30.802" y="249.366" width="2.762" height="25.519" style=""/>
  <rect x="22.38" y="249.366" width="2.762" height="25.519" style=""/>
  <rect x="14.371" y="249.366" width="2.762" height="25.519" style=""/>
  <rect x="5.81" y="249.366" width="2.762" height="25.519" style=""/>
  <rect x="30.802" y="255.436" width="2.762" height="25.519" style=""/>
  <rect x="5.81" y="255.436" width="2.762" height="25.519" style=""/>
  <path d="M 430.57 76.887 C 430.98 76.478 431.217 75.908 431.217 75.328 C 431.217 74.749 430.98 74.179 430.57 73.77 C 430.161 73.36 429.591 73.124 429.011 73.124 C 428.432 73.124 427.863 73.36 427.453 73.77 C 427.043 74.179 426.808 74.749 426.808 75.328 C 426.808 75.908 427.043 76.478 427.453 76.887 C 427.863 77.297 428.432 77.533 429.011 77.533 C 429.591 77.533 430.161 77.297 430.57 76.887 Z M 430.57 76.887" style=""/>
  <path d="M 497.795 54.605 C 499.013 54.605 500 53.619 500 52.401 L 500 43.583 C 500 42.365 499.013 41.377 497.795 41.377 L 476.664 41.377 L 468.49 33.205 C 468.077 32.792 467.516 32.559 466.931 32.559 L 463.873 32.559 L 463.873 25.946 C 463.873 24.728 462.885 23.741 461.669 23.741 C 460.451 23.741 459.464 24.728 459.464 25.946 L 459.464 32.559 L 456.349 32.559 C 455.764 32.559 455.203 32.792 454.79 33.205 L 446.617 41.377 L 425.484 41.377 C 424.267 41.377 423.28 42.365 423.28 43.583 L 423.28 52.401 C 423.28 53.619 424.267 54.605 425.484 54.605 L 426.808 54.605 L 426.808 66.509 C 426.808 67.727 427.794 68.715 429.011 68.715 C 430.229 68.715 431.217 67.727 431.217 66.509 L 431.217 54.605 L 441.799 54.605 L 441.799 81.943 L 425.484 81.943 C 424.267 81.943 423.28 82.929 423.28 84.147 L 423.28 92.965 C 423.28 94.183 424.267 95.17 425.484 95.17 L 435.421 95.17 L 442.681 107.668 L 442.681 134.412 C 442.681 135.63 443.667 136.616 444.885 136.616 L 478.395 136.616 C 479.613 136.616 480.6 135.63 480.6 134.412 L 480.6 107.668 L 487.858 95.17 L 497.795 95.17 C 499.013 95.17 500 94.183 500 92.965 L 500 84.147 C 500 82.929 499.013 81.943 497.795 81.943 L 496.473 81.943 L 496.473 54.605 Z M 457.262 36.968 L 466.018 36.968 L 470.427 41.377 L 452.853 41.377 Z M 427.689 45.786 L 495.591 45.786 L 495.591 50.196 L 427.689 50.196 Z M 476.191 132.207 L 447.09 132.207 L 447.09 109.279 L 476.191 109.279 Z M 477.126 104.87 L 446.155 104.87 L 440.521 95.17 L 482.759 95.17 Z M 495.591 90.761 L 427.689 90.761 L 427.689 86.352 L 495.591 86.352 Z M 492.064 81.943 L 481.481 81.943 L 481.481 70.037 C 481.481 68.82 480.495 67.833 479.278 67.833 C 478.06 67.833 477.072 68.82 477.072 70.037 L 477.072 81.943 L 446.208 81.943 L 446.208 54.605 L 492.064 54.605 Z M 492.064 81.943" style=""/>
  <path d="M 461.641 126.696 C 462.858 126.696 463.844 125.709 463.844 124.491 L 463.844 119.641 C 463.844 118.424 462.858 117.436 461.641 117.436 C 460.423 117.436 459.435 118.424 459.435 119.641 L 459.435 124.491 C 459.435 125.709 460.423 126.696 461.641 126.696 Z M 461.641 126.696" style=""/>
  <path d="M 479.278 63.423 C 479.857 63.423 480.426 63.188 480.836 62.777 C 481.246 62.368 481.481 61.799 481.481 61.219 C 481.481 60.639 481.246 60.071 480.836 59.66 C 480.426 59.25 479.857 59.014 479.278 59.014 C 478.698 59.014 478.128 59.25 477.718 59.66 C 477.309 60.071 477.072 60.639 477.072 61.219 C 477.072 61.799 477.309 62.368 477.718 62.777 C 478.128 63.188 478.698 63.423 479.278 63.423 Z M 479.278 63.423" style=""/>
  <rect x="442.639" y="108.798" width="4.757" height="207.46" style=""/>
  <rect x="475.914" y="108.798" width="4.757" height="207.46" style=""/>
  <path d="M 461.641 158.541 C 462.858 158.541 463.844 157.554 463.844 156.336 L 463.844 151.486 C 463.844 150.269 462.858 149.281 461.641 149.281 C 460.423 149.281 459.435 150.269 459.435 151.486 L 459.435 156.336 C 459.435 157.554 460.423 158.541 461.641 158.541 Z M 461.641 158.541" style=""/>
  <path d="M 461.641 181.555 C 462.858 181.555 463.844 180.568 463.844 179.35 L 463.844 174.5 C 463.844 173.283 462.858 172.295 461.641 172.295 C 460.423 172.295 459.435 173.283 459.435 174.5 L 459.435 179.35 C 459.435 180.568 460.423 181.555 461.641 181.555 Z M 461.641 181.555" style=""/>
  <path d="M 461.641 205.465 C 462.858 205.465 463.844 204.478 463.844 203.26 L 463.844 198.41 C 463.844 197.193 462.858 196.205 461.641 196.205 C 460.423 196.205 459.435 197.193 459.435 198.41 L 459.435 203.26 C 459.435 204.478 460.423 205.465 461.641 205.465 Z M 461.641 205.465" style=""/>
  <path d="M 461.641 230.498 C 462.858 230.498 463.844 229.511 463.844 228.293 L 463.844 223.443 C 463.844 222.226 462.858 221.238 461.641 221.238 C 460.423 221.238 459.435 222.226 459.435 223.443 L 459.435 228.293 C 459.435 229.511 460.423 230.498 461.641 230.498 Z M 461.641 230.498" style=""/>
  <path d="M 461.641 255.852 C 462.858 255.852 463.844 254.865 463.844 253.647 L 463.844 248.797 C 463.844 247.58 462.858 246.592 461.641 246.592 C 460.423 246.592 459.435 247.58 459.435 248.797 L 459.435 253.647 C 459.435 254.865 460.423 255.852 461.641 255.852 Z M 461.641 255.852" style=""/>
  <path d="M 461.641 281.01 C 462.858 281.01 463.844 280.023 463.844 278.805 L 463.844 273.955 C 463.844 272.738 462.858 271.75 461.641 271.75 C 460.423 271.75 459.435 272.738 459.435 273.955 L 459.435 278.805 C 459.435 280.023 460.423 281.01 461.641 281.01 Z M 461.641 281.01" style=""/>
  <path d="M 461.641 307.167 C 462.858 307.167 463.844 306.18 463.844 304.962 L 463.844 300.112 C 463.844 298.895 462.858 297.907 461.641 297.907 C 460.423 297.907 459.435 298.895 459.435 300.112 L 459.435 304.962 C 459.435 306.18 460.423 307.167 461.641 307.167 Z M 461.641 307.167" style=""/>
  <g transform="matrix(0.096779, 0, 0, 0.096779, 386.404388, 260.139191)" style="">
    <path d="m54.961 403.001c-5.51 0-10-4.49-10-10s4.49-10 10-10 10 4.49 10 10-4.49 10-10 10zm200.224-201.772c-9.715-2.851-18.701-8.073-25.986-15.104-9.269-8.946-21.92-13.233-34.722-11.758l-32.556 3.748-15.816 1.821c-5.937.683-11.144-3.958-11.144-9.934v-6.796l-31.131-43.583c-1.669 3.196-5.014 5.378-8.869 5.378h-10v133h10c5.523 0 10 4.477 10 10v230c0 5.523-4.477 10-10 10h-40c-5.523 0-10-4.477-10-10v-59.642c0-5.318 4-9.973 9.306-10.334 5.822-.396 10.694 4.236 10.694 9.976v50h20v-210h-20v69.642c0 5.319-4.001 9.974-9.307 10.334-5.822.395-10.693-4.237-10.693-9.976v-80c0-5.523 4.477-10 10-10h10v-133h-10c-5.523 0-10-4.477-10-10v-29.346c0-16.211 12.592-29.989 28.79-30.63 10.331-.408 19.577 4.44 25.274 12.081l35.936-50.31v-6.796c0-5.976 5.207-10.618 11.144-9.934l12.003 1.382 31.781 3.658c20.843 2.4 40.972 9.88 58.211 21.631 65.172 44.428 127.959 93.694 186.614 146.428l25.012 22.486c3.353 3.015 4.274 7.9 2.249 11.929l-20.053 39.882c-2.17 4.316-7.114 6.463-11.749 5.103zm99.578 8.372 28.152-55.102c-14.24-12.067-28.691-23.922-43.33-35.547l-31.967 76.818zm-117.929-166.337c-2.392-1.631-4.851-3.163-7.367-4.596l-5.31 120.475c2.556 1.095 5.042 2.363 7.443 3.797l37.516-97.128c-10.689-7.647-21.452-15.166-32.282-22.548zm-151.873 41.737c0-5.514-4.486-10-10-10s-10 4.486-10 10v20h20zm50 43.796v-77.591l-27.711 38.795zm69.391 25.474 5.481-124.359c-7.201-2.4-14.66-4.064-22.232-4.936l-32.641-3.757v137.565s42.085-4.704 44.497-4.704c1.64.001 3.272.064 4.895.191zm56.463 27.767 27.497 8.067 34.942-83.967c-12.342-9.566-24.809-18.967-37.387-28.192l-37.814 97.901c3.874 2.748 8.2 4.853 12.762 6.191zm179.86 23.382-19.333-17.38c-7.536-6.775-15.141-13.492-22.811-20.148l-24.237 47.439 53.505 15.697z"/>
  </g>
</svg>